<?xml version="1.0" encoding="utf-8"?>
<!-- Generator: Adobe Illustrator 18.1.1, SVG Export Plug-In . SVG Version: 6.00 Build 0)  -->
<svg version="1.1" id="Layer_1" xmlns="http://www.w3.org/2000/svg" xmlns:xlink="http://www.w3.org/1999/xlink" x="0px" y="0px"
	 viewBox="0 0 80 40" style="enable-background:new 0 0 80 40;" xml:space="preserve">
<style type="text/css">
	.st0{fill:#374654;}
	.st1{fill:#126AD9;}
	.st2{fill:#F0F0F0;}
	.st3{clip-path:url(#SVGID_2_);fill:#C8C8C8;}
	.st4{clip-path:url(#SVGID_4_);fill:#C8C8C8;}
	.st5{fill:#FF432F;}
	.st6{fill:#FFFFFF;}
	.st7{fill:none;}
	.st8{fill:#0857AF;}
	.st9{fill-rule:evenodd;clip-rule:evenodd;fill:#009540;}
	.st10{fill-rule:evenodd;clip-rule:evenodd;fill:#AEC90B;}
	.st11{fill-rule:evenodd;clip-rule:evenodd;fill:#FFD900;}
	.st12{fill-rule:evenodd;clip-rule:evenodd;fill:#FFFFFF;}
	.st13{fill-rule:evenodd;clip-rule:evenodd;fill:#EF3E42;}
	.st14{fill-rule:evenodd;clip-rule:evenodd;fill:#00546D;}
	.st15{fill-rule:evenodd;clip-rule:evenodd;fill:#1D1D1B;}
	.st16{fill-rule:evenodd;clip-rule:evenodd;fill:#006BB6;}
	.st17{fill-rule:evenodd;clip-rule:evenodd;fill:#E53212;}
	.st18{fill-rule:evenodd;clip-rule:evenodd;fill:#CC3B25;}
	.st19{fill-rule:evenodd;clip-rule:evenodd;fill:#373E8A;}
	.st20{fill:#89B5EC;}
	.st21{fill:#DADADA;}
	.st22{fill:#3856C1;}
	.st23{fill:#EFC822;}
	.st24{fill:#0023A0;}
	.st25{fill:#DCDCDC;}
	.st26{fill:#231F20;}
	.st27{fill-rule:evenodd;clip-rule:evenodd;fill:#C2C2C2;}
	.st28{fill-rule:evenodd;clip-rule:evenodd;fill:#A3A3A3;}
	.st29{fill-rule:evenodd;clip-rule:evenodd;fill:#A5A5A5;}
	.st30{fill-rule:evenodd;clip-rule:evenodd;fill:#B4B4B4;}
	.st31{fill-rule:evenodd;clip-rule:evenodd;fill:#BEBEBE;}
	.st32{fill-rule:evenodd;clip-rule:evenodd;fill:#C4C4C4;}
	.st33{fill-rule:evenodd;clip-rule:evenodd;fill:#999999;}
	.st34{fill-rule:evenodd;clip-rule:evenodd;fill:#8D8D8D;}
	.st35{fill-rule:evenodd;clip-rule:evenodd;fill:#EC1C24;}
	.st36{fill-rule:evenodd;clip-rule:evenodd;fill:#FFF100;}
	.st37{fill-rule:evenodd;clip-rule:evenodd;fill:#C3C3C3;}
	.st38{fill:#C8C8C8;}
	.st39{opacity:0.4;fill:#FF432F;}
	.st40{fill-rule:evenodd;clip-rule:evenodd;fill:#374654;}
	.st41{fill:#2656A0;}
	.st42{fill:#006FAE;}
</style>
<g>
	<path class="st6" d="M72.5,0h-65C4.1,0,1.2,2.8,1.2,6.3v27.5c0,3.4,2.8,6.2,6.2,6.2h65c3.4,0,6.2-2.8,6.2-6.2V6.3
		C78.8,2.8,75.9,0,72.5,0z"/>
	<g>
		<g>
			<path class="st41" d="M72.5,0h-65C4.1,0,1.2,2.8,1.2,6.3v27.5c0,3.4,2.8,6.2,6.2,6.2h65c3.4,0,6.2-2.8,6.2-6.2V6.3
				C78.8,2.8,75.9,0,72.5,0z M76.2,33.8c0,2.1-1.7,3.8-3.8,3.8h-65c-2.1,0-3.8-1.7-3.8-3.8V6.3c0-2.1,1.7-3.8,3.8-3.8h65
				c2.1,0,3.8,1.7,3.8,3.8V33.8z"/>
		</g>
	</g>
	<path d="M21.6,27.1h2.4c2.1,0,2.7,1.5,2.7,2.4c0,1.8-1.3,3.3-3.9,3.3h-2.3v-0.1c0.4-0.1,0.6-0.1,0.7-0.7l1.1-3.8
		c0-0.1,0.1-0.4,0.1-0.6c0-0.3-0.2-0.4-0.7-0.4V27.1z"/>
	<path d="M28.6,31.9c-0.4,0.5-0.8,1-1.3,1c-0.4,0-0.4-0.4-0.4-0.6c0-0.4,0.7-2.7,0.7-2.9c0-0.2-0.1-0.2-0.6-0.2V29
		c0.3,0,1.1-0.2,1.5-0.2l0,0l-0.8,2.9c0,0.1-0.1,0.5-0.1,0.6c0,0.1,0.1,0.1,0.1,0.1c0.1,0,0.4-0.2,0.7-0.7L28.6,31.9z"/>
	<path d="M28.4,27.8c-0.2,0-0.4-0.2-0.4-0.5c0-0.3,0.2-0.5,0.4-0.5c0.3,0,0.5,0.3,0.5,0.5C28.8,27.6,28.7,27.8,28.4,27.8z"/>
	<path d="M32.8,31.9c-0.5,0.6-0.8,1-1.3,1c-0.4,0-0.4-0.3-0.4-0.5c0-0.2,0.7-2.4,0.7-2.8c0-0.2-0.1-0.3-0.2-0.3
		c-0.4,0-1,0.8-1.3,1.3c-0.4,0.6-0.5,1-0.9,2.3h-0.7c0.3-1,0.9-3.2,0.9-3.4c0-0.1-0.1-0.2-0.6-0.2v-0.1c0.5-0.1,1-0.2,1.5-0.3l0,0
		l-0.6,1.9l0,0c0.4-0.7,1.3-1.9,2-1.9c0.4,0,0.6,0.2,0.6,0.6c0,0.4-0.7,2.6-0.7,2.9c0,0.1,0.1,0.2,0.1,0.2c0.2,0,0.4-0.3,0.7-0.7
		L32.8,31.9z"/>
	<path d="M36.1,32c-0.1,0.1-0.9,1-1.8,1c-1,0-1.2-0.7-1.2-1.3c0-1.3,1.4-2.8,2.7-2.8c0.5,0,0.7,0.2,0.7,0.6c0,0.7-0.9,1.5-2.3,1.7
		l-0.3,0c0,0.2-0.1,0.4-0.1,0.6c0,0.6,0.5,0.8,0.9,0.8c0.5,0,0.9-0.3,1.3-0.7L36.1,32z"/>
	<path d="M36.4,32.8l0.7-2.7c0.1-0.3,0.1-0.6,0.1-0.7c0-0.1,0-0.3-0.3-0.3c-0.1,0-0.2,0-0.3,0v-0.2c0.5-0.1,1-0.2,1.4-0.2l0,0
		l-0.4,1.8l0,0l0.1-0.2c0.3-0.6,1-1.7,1.6-1.7c0.2,0,0.4,0.1,0.4,0.4c0,0.5-0.3,0.5-0.4,0.5c-0.4,0-0.3-0.3-0.5-0.3
		c-0.3,0-0.8,1-0.9,1.1c-0.3,0.7-0.5,1.1-0.8,2.3H36.4z"/>
	<path d="M39.3,31.5c0.1,0.4,0.2,1.2,0.9,1.2c0.5,0,0.7-0.4,0.7-0.7c0-0.6-1.1-1.5-1.1-2.2c0-0.3,0.1-1,1.1-1c0.4,0,0.6,0.2,0.9,0.2
		c0.2,0,0.2-0.1,0.3-0.2h0.1L42,30.1h-0.1c0-0.5-0.3-1-0.9-1c-0.2,0-0.5,0.1-0.5,0.5c0,0.6,1.1,1.4,1.1,2.2c0,1-0.8,1.2-1.4,1.2
		c-0.3,0-0.6-0.2-0.9-0.2c-0.1,0-0.2,0.1-0.2,0.2H39l0.2-1.4H39.3z"/>
	<path d="M49.3,28.6c0-0.3-0.1-1.5-1.4-1.5c-1.8,0-2.8,2.2-2.8,3.5c0,1.2,0.5,1.9,1.6,1.9c1,0,1.7-0.6,2.1-1.1l0.2,0.1
		C48.7,32,47.9,33,46.5,33c-1.1,0-2.4-0.6-2.4-2.5c0-1.8,1.6-3.8,3.7-3.8c0.7,0,1.2,0.2,1.4,0.2c0.3,0,0.3-0.1,0.4-0.2h0.2l-0.3,1.8
		L49.3,28.6z"/>
	<path d="M51.4,31.8c-0.5,0.7-0.8,1.1-1.4,1.1c-0.4,0-0.4-0.3-0.4-0.6c0-0.2,1.3-4.9,1.3-5.1c0-0.2-0.4-0.2-0.6-0.2v-0.1
		c0.5-0.1,0.9-0.1,1.4-0.2l0,0l-1.4,5.3c0,0.1-0.1,0.3-0.1,0.4c0,0.1,0,0.2,0.1,0.2c0.2,0,0.4-0.3,0.9-0.8L51.4,31.8z"/>
	<path d="M55.5,31.9c-0.6,0.8-0.8,1.1-1.3,1.1c-0.4,0-0.4-0.3-0.4-0.5c0-0.2,0.2-0.9,0.4-1.7h0c-0.6,1-1.3,2.2-2.1,2.2
		c-0.3,0-0.5-0.1-0.5-0.5c0-0.4,0.7-2.7,0.7-2.9c0-0.3-0.2-0.3-0.5-0.3v-0.1c0.5-0.1,0.9-0.1,1.4-0.2l0,0l-0.8,3.3
		c0,0.1,0,0.3,0.2,0.3c0.4,0,1-0.9,1.3-1.3c0.4-0.7,0.6-1.2,1-2.2h0.7l-0.7,2.7c-0.1,0.2-0.2,0.6-0.2,0.7c0,0,0,0.1,0.1,0.1
		c0.2,0,0.4-0.3,0.7-0.7L55.5,31.9z"/>
	<path d="M56.3,26.8c0.5-0.1,0.9-0.1,1.4-0.2l0,0c-0.2,0.7-0.5,1.8-0.8,2.8l0,0c0.3-0.5,0.8-0.9,1.6-0.9c0.6,0,1,0.7,1,1.4
		c0,1.4-1.5,3-2.9,3c-0.5,0-1.2-0.3-1.2-0.5v0l1.2-4.6c0.1-0.3,0.1-0.5,0.1-0.6c0-0.2-0.1-0.3-0.6-0.3V26.8z"/>
	<path class="st41" d="M45.2,25c5,0,9-4,9-9c0-5-4-9-9-9H33.8c-5,0-9,4-9,9c0,5,4,9,9,9H45.2z"/>
	<g>
		<circle class="st6" cx="33.8" cy="16" r="8.8"/>
	</g>
	<path class="st41" d="M32.1,10.9c-2.1,0.7-3.6,2.7-3.6,5.1c0,2.4,1.5,4.4,3.6,5.1L32.1,10.9z"/>
	<path class="st41" d="M39.2,16c0,2.4-1.5,4.4-3.6,5.1l0-10.2C37.7,11.7,39.2,13.7,39.2,16"/>
	<path class="st6" d="M22.2,31.4c-0.1,0.3-0.2,0.7-0.2,0.8c0,0.3,0.2,0.4,0.6,0.4c2.9,0,3-2.6,3-3.2c0-0.9-0.1-2-1.7-2
		c-0.5,0-0.6,0.1-0.6,0.3L22.2,31.4z"/>
	<path class="st6" d="M33.9,30.9c1.9-0.4,1.9-1.5,1.9-1.5c0-0.2-0.1-0.4-0.3-0.4c-0.5,0-1.1,0.7-1.4,1.5L33.9,30.9z"/>
	<path class="st6" d="M58.2,29c-1,0-1.8,1.8-1.9,3.4c0,0.1,0,0.3,0.4,0.3c1.2,0,2.1-1.9,2.1-2.7C58.9,29.8,58.8,29,58.2,29z"/>
</g>
</svg>
