<?xml version="1.0" encoding="utf-8"?>
<!-- Generator: Adobe Illustrator 18.1.0, SVG Export Plug-In . SVG Version: 6.00 Build 0)  -->
<!DOCTYPE svg PUBLIC "-//W3C//DTD SVG 1.1//EN" "http://www.w3.org/Graphics/SVG/1.1/DTD/svg11.dtd">
<svg version="1.1" id="Layer_1" xmlns="http://www.w3.org/2000/svg" xmlns:xlink="http://www.w3.org/1999/xlink" x="0px" y="0px"
	 viewBox="0 0 30 30" style="enable-background:new 0 0 30 30;" xml:space="preserve">
<style type="text/css">
	.st0{fill:#374654;}
	.st1{fill:#126AD9;}
	.st2{fill:#F0F0F0;}
	.st3{clip-path:url(#SVGID_2_);fill:#C8C8C8;}
	.st4{clip-path:url(#SVGID_4_);fill:#C8C8C8;}
	.st5{fill:#FF432F;}
	.st6{fill:#FFFFFF;}
	.st7{fill:none;}
	.st8{fill:#0857AF;}
	.st9{fill-rule:evenodd;clip-rule:evenodd;fill:#009540;}
	.st10{fill-rule:evenodd;clip-rule:evenodd;fill:#AEC90B;}
	.st11{fill-rule:evenodd;clip-rule:evenodd;fill:#FFD900;}
	.st12{fill-rule:evenodd;clip-rule:evenodd;fill:#FFFFFF;}
	.st13{fill-rule:evenodd;clip-rule:evenodd;fill:#EF3E42;}
	.st14{fill-rule:evenodd;clip-rule:evenodd;fill:#00546D;}
	.st15{fill-rule:evenodd;clip-rule:evenodd;fill:#1D1D1B;}
	.st16{fill-rule:evenodd;clip-rule:evenodd;fill:#006BB6;}
	.st17{fill-rule:evenodd;clip-rule:evenodd;fill:#E53212;}
	.st18{fill-rule:evenodd;clip-rule:evenodd;fill:#CC3B25;}
	.st19{fill-rule:evenodd;clip-rule:evenodd;fill:#373E8A;}
	.st20{fill:#89B5EC;}
	.st21{fill:#DADADA;}
	.st22{fill:#3856C1;}
	.st23{fill:#EFC822;}
	.st24{fill:#0023A0;}
	.st25{fill:#DCDCDC;}
	.st26{fill:#231F20;}
	.st27{fill-rule:evenodd;clip-rule:evenodd;fill:#C2C2C2;}
	.st28{fill-rule:evenodd;clip-rule:evenodd;fill:#A3A3A3;}
	.st29{fill-rule:evenodd;clip-rule:evenodd;fill:#A5A5A5;}
	.st30{fill-rule:evenodd;clip-rule:evenodd;fill:#B4B4B4;}
	.st31{fill-rule:evenodd;clip-rule:evenodd;fill:#BEBEBE;}
	.st32{fill-rule:evenodd;clip-rule:evenodd;fill:#C4C4C4;}
	.st33{fill-rule:evenodd;clip-rule:evenodd;fill:#999999;}
	.st34{fill-rule:evenodd;clip-rule:evenodd;fill:#8D8D8D;}
	.st35{fill-rule:evenodd;clip-rule:evenodd;fill:#EC1C24;}
	.st36{fill-rule:evenodd;clip-rule:evenodd;fill:#FFF100;}
	.st37{fill-rule:evenodd;clip-rule:evenodd;fill:#C3C3C3;}
	.st38{fill:#C8C8C8;}
	.st39{opacity:0.4;fill:#FF432F;}
	.st40{fill-rule:evenodd;clip-rule:evenodd;fill:#374654;}
</style>
<g>
	<path class="st40" d="M12.7,1.5h-1.4c-0.3,0-0.6,0.3-0.6,0.6v5.7H5.5c-0.2,0-0.6,0.1-0.9,0.1C4.3,8,4.1,8.2,3.9,8.3l-3.6,2.4
		C0.1,10.9,0,11.1,0,11.3c0,0.2,0.1,0.4,0.3,0.5l3.6,2.4c0.2,0.1,0.5,0.3,0.8,0.4c0.3,0.1,0.6,0.1,0.9,0.1h5.3v13.2
		c0,0.3,0.3,0.6,0.6,0.6h1.4c0.3,0,0.6-0.3,0.6-0.6V2.1C13.3,1.8,13.1,1.5,12.7,1.5z M29.7,7.7l-3.6-2.4c-0.2-0.1-0.5-0.3-0.8-0.4
		c-0.3-0.1-0.6-0.1-0.9-0.1H14.2l1.2,6.9h9.1c0.2,0,0.6-0.1,0.9-0.1c0.3-0.1,0.6-0.2,0.8-0.4l3.6-2.4C29.9,8.6,30,8.4,30,8.3
		C30,8.1,29.9,7.9,29.7,7.7z"/>
</g>
</svg>
