<?xml version="1.0" encoding="utf-8"?>
<!-- Generator: Adobe Illustrator 18.0.0, SVG Export Plug-In . SVG Version: 6.00 Build 0)  -->
<!DOCTYPE svg PUBLIC "-//W3C//DTD SVG 1.1//EN" "http://www.w3.org/Graphics/SVG/1.1/DTD/svg11.dtd">
<svg version="1.1" id="Layer_1" xmlns="http://www.w3.org/2000/svg" xmlns:xlink="http://www.w3.org/1999/xlink" x="0px" y="0px"
	 viewBox="0 0 40 40" style="enable-background:new 0 0 40 40;" xml:space="preserve">
<style type="text/css">
	.st0{fill:#374654;}
	.st1{fill:#126AD9;}
	.st2{fill:#F0F0F0;}
	.st3{clip-path:url(#SVGID_2_);fill:#C8C8C8;}
	.st4{clip-path:url(#SVGID_4_);fill:#C8C8C8;}
	.st5{fill:#FF432F;}
	.st6{fill:#FFFFFF;}
	.st7{fill:none;}
	.st8{fill:#0857AF;}
	.st9{fill-rule:evenodd;clip-rule:evenodd;fill:#009540;}
	.st10{fill-rule:evenodd;clip-rule:evenodd;fill:#AEC90B;}
	.st11{fill-rule:evenodd;clip-rule:evenodd;fill:#FFD900;}
	.st12{fill-rule:evenodd;clip-rule:evenodd;fill:#FFFFFF;}
	.st13{fill-rule:evenodd;clip-rule:evenodd;fill:#EF3E42;}
	.st14{fill-rule:evenodd;clip-rule:evenodd;fill:#00546D;}
	.st15{fill-rule:evenodd;clip-rule:evenodd;fill:#1D1D1B;}
	.st16{fill-rule:evenodd;clip-rule:evenodd;fill:#006BB6;}
	.st17{fill-rule:evenodd;clip-rule:evenodd;fill:#E53212;}
	.st18{fill-rule:evenodd;clip-rule:evenodd;fill:#CC3B25;}
	.st19{fill-rule:evenodd;clip-rule:evenodd;fill:#373E8A;}
	.st20{fill:#89B5EC;}
	.st21{fill:#DADADA;}
	.st22{fill:#3856C1;}
	.st23{fill:#EFC822;}
	.st24{fill:#0023A0;}
	.st25{fill:#DCDCDC;}
</style>
<path class="st0" d="M39.9,18.2L39.9,18.2c-0.1-0.8-0.7-1.4-1.5-1.5h-0.3h-0.6v0c-1,0-1.8-0.6-2.2-1.4c-0.1-0.2-0.2-0.4-0.2-0.6
	c-0.2-0.5-0.4-1-0.6-1.5c0,0,0,0,0,0c-0.1-0.2-0.2-0.4-0.3-0.6c0,0,0,0,0,0C34,12.3,34,12,34,11.7c0-0.7,0.3-1.3,0.7-1.8h0l0,0
	l0.5-0.5c0,0,0,0,0,0c0,0,0,0,0,0c0.6-0.6,0.6-1.6,0.1-2.2l0,0c-0.4-0.5-0.8-0.9-1.2-1.3c-0.4-0.4-0.9-0.9-1.4-1.3l0,0
	c-0.6-0.5-1.4-0.5-2-0.1l-0.4,0.4L30,5.3l0,0c-0.7,0.7-1.8,0.9-2.7,0.6c-0.1,0-0.2-0.1-0.4-0.2c-0.6-0.3-1.2-0.5-1.8-0.7
	c-0.1,0-0.2-0.1-0.3-0.1c0,0,0,0,0,0c-0.3-0.1-0.6-0.3-0.8-0.5c-0.4-0.4-0.6-0.9-0.7-1.5c0-0.2,0-0.4,0-0.6V1.7
	c0-0.8-0.6-1.5-1.4-1.6c-0.1,0-0.2,0-0.3,0h0C21.1,0,20.6,0,20,0s-1.1,0-1.7,0.1h0c-0.1,0-0.2,0-0.3,0c-0.8,0.1-1.4,0.8-1.4,1.6v0.7
	c0,1.1-0.7,2-1.6,2.3c-0.1,0-0.1,0-0.2,0.1c-0.7,0.2-1.3,0.5-1.9,0.8c0,0,0,0,0,0c0,0-0.1,0.1-0.2,0.1c-0.3,0.1-0.7,0.2-1,0.2
	C11,6,10.4,5.7,10,5.3l0,0L9.4,4.7C8.9,4.2,8,4.1,7.3,4.5C7.2,4.6,7.2,4.7,7.1,4.7c0,0,0,0,0,0C6.7,5.1,6.3,5.5,5.9,5.9
	C5.5,6.2,5.1,6.7,4.7,7.1c0,0,0,0,0,0C4.7,7.2,4.6,7.2,4.5,7.3C4.1,8,4.2,8.9,4.7,9.4L5.3,10c0.8,0.8,0.9,1.9,0.5,2.8
	c0,0.1-0.1,0.1-0.1,0.2c-0.3,0.6-0.6,1.3-0.8,1.9c0,0.1,0,0.1-0.1,0.2c0,0,0,0,0,0c-0.1,0.3-0.3,0.6-0.6,0.9
	c-0.5,0.5-1.1,0.7-1.8,0.7v0H1.7c-0.8,0-1.5,0.6-1.6,1.4c0,0.1,0,0.2,0,0.3l0,0C0,18.9,0,19.5,0,20l0,0c0,0,0,0,0,0c0,0,0,0,0,0l0,0
	c0,0.6,0,1.1,0.1,1.6v0c0,0.1,0,0.2,0,0.3c0.1,0.8,0.8,1.4,1.6,1.4c0,0,0,0,0,0h0.7l0,0c1.1,0,2,0.7,2.3,1.6c0,0,0,0,0,0
	c0,0.1,0,0.1,0.1,0.2c0,0,0,0,0,0c0.2,0.7,0.5,1.3,0.8,1.9c0,0,0,0,0,0c0,0,0.1,0.1,0.1,0.1c0.1,0.3,0.2,0.7,0.2,1
	C6,29,5.7,29.6,5.3,30l0,0l-0.5,0.5c0,0,0,0,0,0c0,0,0,0,0,0c-0.6,0.6-0.6,1.4-0.2,2.1c0.1,0.1,0.1,0.2,0.2,0.3
	c0.4,0.4,0.7,0.8,1.1,1.2l0,0c0.4,0.4,0.8,0.8,1.2,1.1c0.1,0.1,0.2,0.1,0.3,0.2c0.6,0.4,1.3,0.4,1.9,0l0.4-0.4l0.3-0.3l0,0
	c0.8-0.8,1.9-0.9,2.8-0.5c0,0,0.1,0,0.1,0.1c0,0,0,0,0,0c0.6,0.3,1.3,0.6,1.9,0.8c0.1,0,0.1,0,0.2,0.1c0.3,0.1,0.6,0.3,0.9,0.6
	c0.5,0.5,0.7,1.1,0.7,1.8h0v0.7c0,0.9,0.7,1.6,1.5,1.7v0C18.8,40,19.4,40,20,40c0.6,0,1.2,0,1.8-0.1l0,0c0.8-0.1,1.5-0.8,1.5-1.7
	v-0.7c0-1,0.6-1.9,1.4-2.3c0.2-0.1,0.4-0.1,0.5-0.2c0.5-0.2,1.1-0.4,1.6-0.7c0.1-0.1,0.3-0.2,0.5-0.2c0.3-0.1,0.6-0.2,0.9-0.2
	c0.6,0,1.2,0.2,1.7,0.6c0.1,0.1,0.1,0.1,0.2,0.2l0.4,0.4l0,0c0.6,0.6,1.5,0.6,2.2,0.2c0,0,0,0,0,0c0.1,0,0.1-0.1,0.2-0.1
	c0.4-0.4,0.9-0.8,1.3-1.2c0.4-0.4,0.8-0.8,1.2-1.3c0-0.1,0.1-0.1,0.1-0.2c0.5-0.6,0.4-1.5-0.1-2.1l0,0l-0.1-0.1l0,0L34.7,30v0
	c-0.7-0.7-0.9-1.8-0.5-2.8c0-0.1,0.1-0.2,0.1-0.3c0.3-0.6,0.6-1.2,0.8-1.9c0-0.1,0.1-0.2,0.1-0.3c0.1-0.3,0.3-0.6,0.6-0.9
	c0.5-0.5,1.1-0.7,1.8-0.7v0h0.7v0c0.9,0,1.6-0.7,1.7-1.6l0,0c0-0.6,0.1-1.2,0.1-1.7C40,19.4,40,18.8,39.9,18.2z M30.2,20L30.2,20
	c0,1.2-0.2,2.3-0.6,3.3c-0.1,0.4-0.3,0.8-0.5,1.2c-0.5,1-1.2,2-2,2.7c-0.8,0.8-1.7,1.5-2.7,2c-0.4,0.2-0.8,0.3-1.2,0.5
	c-1,0.4-2.2,0.6-3.3,0.6c0,0,0,0,0,0c-1.2,0-2.3-0.2-3.3-0.5c-0.4-0.1-0.8-0.3-1.2-0.5c-1-0.5-1.9-1.2-2.7-1.9
	c-0.8-0.8-1.5-1.7-2-2.7c-0.2-0.4-0.4-0.8-0.5-1.2c-0.4-1-0.6-2.1-0.6-3.3c0-1.2,0.2-2.3,0.6-3.4c0.1-0.4,0.3-0.8,0.5-1.2
	c0.5-1,1.2-1.9,2-2.7c0.8-0.8,1.7-1.5,2.7-2c0.4-0.2,0.8-0.3,1.2-0.5c1-0.4,2.1-0.5,3.3-0.5c0,0,0,0,0,0c1.2,0,2.3,0.2,3.3,0.6
	c0.4,0.1,0.8,0.3,1.2,0.5c1,0.5,1.9,1.2,2.7,2c0.8,0.8,1.5,1.7,1.9,2.7c0.2,0.4,0.3,0.8,0.5,1.2C30,17.7,30.2,18.8,30.2,20L30.2,20z
	"/>
</svg>
