<?xml version="1.0" encoding="utf-8"?>
<!-- Generator: Adobe Illustrator 18.0.0, SVG Export Plug-In . SVG Version: 6.00 Build 0)  -->
<!DOCTYPE svg PUBLIC "-//W3C//DTD SVG 1.1//EN" "http://www.w3.org/Graphics/SVG/1.1/DTD/svg11.dtd">
<svg version="1.1" id="Layer_1" xmlns="http://www.w3.org/2000/svg" xmlns:xlink="http://www.w3.org/1999/xlink" x="0px" y="0px"
	 viewBox="0 0 110 150" style="enable-background:new 0 0 110 150;" xml:space="preserve">
<style type="text/css">
	.st0{fill:#374654;}
	.st1{fill:#126AD9;}
	.st2{fill:#F0F0F0;}
	.st3{clip-path:url(#SVGID_2_);fill:#C8C8C8;}
	.st4{clip-path:url(#SVGID_4_);fill:#C8C8C8;}
	.st5{fill:#FF432F;}
	.st6{fill:#FFFFFF;}
	.st7{fill:none;}
	.st8{fill:#0857AF;}
	.st9{fill-rule:evenodd;clip-rule:evenodd;fill:#009540;}
	.st10{fill-rule:evenodd;clip-rule:evenodd;fill:#AEC90B;}
	.st11{fill-rule:evenodd;clip-rule:evenodd;fill:#FFD900;}
	.st12{fill-rule:evenodd;clip-rule:evenodd;fill:#FFFFFF;}
	.st13{fill-rule:evenodd;clip-rule:evenodd;fill:#EF3E42;}
	.st14{fill-rule:evenodd;clip-rule:evenodd;fill:#00546D;}
	.st15{fill-rule:evenodd;clip-rule:evenodd;fill:#1D1D1B;}
	.st16{fill-rule:evenodd;clip-rule:evenodd;fill:#006BB6;}
	.st17{fill-rule:evenodd;clip-rule:evenodd;fill:#E53212;}
	.st18{fill-rule:evenodd;clip-rule:evenodd;fill:#CC3B25;}
	.st19{fill-rule:evenodd;clip-rule:evenodd;fill:#373E8A;}
	.st20{fill:#89B5EC;}
	.st21{fill:#DADADA;}
	.st22{fill:#3856C1;}
	.st23{fill:#EFC822;}
	.st24{fill:#0023A0;}
	.st25{fill:#DCDCDC;}
</style>
<g>
	<path class="st12" d="M0,54.5C0,24.4,24.4,0,54.5,0C84.6,0,109,24.4,109,54.5c0,30.1-24.4,54.5-54.5,54.5C24.4,109,0,84.6,0,54.5
		L0,54.5z"/>
	<path class="st13" d="M66.2,38.3H42.8l-7.2,22.3l68.6-22.3L73.5,60.6l11.7,36.1L54.5,74.4L23.8,96.7c8.6,6.3,19.2,10,30.7,10
		c28.8,0,52.2-23.4,52.2-52.2c0-28.8-23.4-52.2-52.2-52.2L66.2,38.3L66.2,38.3z"/>
	<path class="st14" d="M54.5,2.3C25.7,2.3,2.3,25.6,2.3,54.5c0,17.4,8.5,32.7,21.5,42.2l11.7-36.1L4.9,38.3l37.9,0L54.5,2.3
		L54.5,2.3z"/>
	<polygon class="st15" points="46.9,145.4 54.3,145.4 54.3,149.4 42.2,149.4 42.2,128.3 46.9,128.3 46.9,145.4 	"/>
	<polygon class="st15" points="62.1,149.4 57.4,149.4 57.4,132.3 52.3,132.3 52.3,128.3 67.2,128.3 67.2,132.3 62.1,132.3 
		62.1,149.4 	"/>
	<polygon class="st15" points="29.8,133.8 35,149.4 40,149.4 32.2,128.3 27.4,128.3 19.6,149.4 24.6,149.4 29.8,133.8 	"/>
	<polygon class="st15" points="29.8,145.4 35,149.4 24.6,149.4 29.8,145.4 29.8,145.4 	"/>
	<polygon class="st15" points="84.1,145.4 80.9,149.4 70.1,149.4 70.1,128.3 81.9,128.3 81.9,132.3 74.8,132.3 74.8,136.7 
		81.6,136.7 81.6,140.7 74.8,140.7 74.8,145.3 84.1,145.4 	"/>
	<polygon class="st15" points="95.2,142.2 100.7,149.4 106.8,149.4 98,138 104.7,128.3 98.6,128.3 95.2,134.2 91.7,128.3 
		85.6,128.3 92.3,138 83.6,149.4 89.7,149.4 95.2,142.2 	"/>
	<path class="st15" d="M17.8,149.4c-1.5,0.4-3.2,0.6-4.5,0.6c-6.3,0-11.4-4.9-11.4-11c0-6.1,5.1-11,11.4-11c1.7,0,3.2,0.4,4.5,1.1
		l0,4.5c-1.4-0.7-2.9-1.1-4.4-1.1c-3.6,0-6.7,2.9-6.7,6.5c0,3.6,3.1,6.4,6.7,6.4c1.4,0,3-0.4,4.5-1.1L17.8,149.4L17.8,149.4z"/>
</g>
</svg>
