<?xml version="1.0" encoding="utf-8"?>
<!-- Generator: Adobe Illustrator 18.1.1, SVG Export Plug-In . SVG Version: 6.00 Build 0)  -->
<svg version="1.1" id="Layer_1" xmlns="http://www.w3.org/2000/svg" xmlns:xlink="http://www.w3.org/1999/xlink" x="0px" y="0px"
	 viewBox="0 0 130 40" style="enable-background:new 0 0 130 40;" xml:space="preserve">
<style type="text/css">
	.st0{fill:#374654;}
	.st1{fill:#126AD9;}
	.st2{fill:#F0F0F0;}
	.st3{clip-path:url(#SVGID_2_);fill:#C8C8C8;}
	.st4{clip-path:url(#SVGID_4_);fill:#C8C8C8;}
	.st5{fill:#FF432F;}
	.st6{fill:#FFFFFF;}
	.st7{fill:none;}
	.st8{fill:#0857AF;}
	.st9{fill-rule:evenodd;clip-rule:evenodd;fill:#009540;}
	.st10{fill-rule:evenodd;clip-rule:evenodd;fill:#AEC90B;}
	.st11{fill-rule:evenodd;clip-rule:evenodd;fill:#FFD900;}
	.st12{fill-rule:evenodd;clip-rule:evenodd;fill:#FFFFFF;}
	.st13{fill-rule:evenodd;clip-rule:evenodd;fill:#EF3E42;}
	.st14{fill-rule:evenodd;clip-rule:evenodd;fill:#00546D;}
	.st15{fill-rule:evenodd;clip-rule:evenodd;fill:#1D1D1B;}
	.st16{fill-rule:evenodd;clip-rule:evenodd;fill:#006BB6;}
	.st17{fill-rule:evenodd;clip-rule:evenodd;fill:#E53212;}
	.st18{fill-rule:evenodd;clip-rule:evenodd;fill:#CC3B25;}
	.st19{fill-rule:evenodd;clip-rule:evenodd;fill:#373E8A;}
	.st20{fill:#89B5EC;}
	.st21{fill:#DADADA;}
	.st22{fill:#3856C1;}
	.st23{fill:#EFC822;}
	.st24{fill:#0023A0;}
	.st25{fill:#DCDCDC;}
	.st26{fill:#231F20;}
	.st27{fill-rule:evenodd;clip-rule:evenodd;fill:#C2C2C2;}
	.st28{fill-rule:evenodd;clip-rule:evenodd;fill:#A3A3A3;}
	.st29{fill-rule:evenodd;clip-rule:evenodd;fill:#A5A5A5;}
	.st30{fill-rule:evenodd;clip-rule:evenodd;fill:#B4B4B4;}
	.st31{fill-rule:evenodd;clip-rule:evenodd;fill:#BEBEBE;}
	.st32{fill-rule:evenodd;clip-rule:evenodd;fill:#C4C4C4;}
	.st33{fill-rule:evenodd;clip-rule:evenodd;fill:#999999;}
	.st34{fill-rule:evenodd;clip-rule:evenodd;fill:#8D8D8D;}
	.st35{fill-rule:evenodd;clip-rule:evenodd;fill:#EC1C24;}
	.st36{fill-rule:evenodd;clip-rule:evenodd;fill:#FFF100;}
	.st37{fill-rule:evenodd;clip-rule:evenodd;fill:#C3C3C3;}
	.st38{fill:#C8C8C8;}
	.st39{opacity:0.4;fill:#FF432F;}
	.st40{fill-rule:evenodd;clip-rule:evenodd;fill:#374654;}
	.st41{fill:#2656A0;}
	.st42{fill:#006FAE;}
</style>
<g>
	<path class="st1" d="M124,35H20V5h104c3.3,0,6,2.7,6,6v18C130,32.3,127.3,35,124,35z"/>
	<path class="st6" d="M20,2.2c-0.3,0-0.6,0.1-0.8,0.3L2.6,19.2c-0.2,0.2-0.3,0.5-0.3,0.8c0,0.3,0.1,0.6,0.3,0.8l16.6,16.6
		c0.4,0.4,1.2,0.4,1.6,0l16.6-16.6c0.4-0.4,0.4-1.1,0-1.6L20.8,2.6C20.6,2.4,20.3,2.2,20,2.2z"/>
	<path class="st1" d="M20,40c-0.9,0-1.7-0.3-2.4-1L1,22.4c-0.6-0.6-1-1.5-1-2.4c0-0.9,0.3-1.7,1-2.4L17.6,1c0.6-0.6,1.5-1,2.4-1
		c0.9,0,1.7,0.3,2.4,1L39,17.6c1.3,1.3,1.3,3.4,0,4.8L22.4,39C21.7,39.7,20.9,40,20,40z M20,2.2c-0.3,0-0.6,0.1-0.8,0.3L2.6,19.2
		c-0.2,0.2-0.3,0.5-0.3,0.8c0,0.3,0.1,0.6,0.3,0.8l16.6,16.6c0.4,0.4,1.2,0.4,1.6,0l16.6-16.6c0.4-0.4,0.4-1.1,0-1.6L20.8,2.6
		C20.6,2.4,20.3,2.2,20,2.2z"/>
	<path class="st1" d="M15.7,28.4L15.7,28.4H17c0,0,1.5,0,1.5-1.5c0,0,0-3.1,0-3.4h0v-4h0c0-0.3,0.3-0.6,0.6-0.7c0,0,0,0,0,0
		c0,0,0,0,0,0c0,0,0,0,0,0c0,0,0,0,0,0h1.5h0.2c0.4,0,0.7,0.4,0.7,0.7v0.1v1.6h0c0,0.3,0.2,0.5,0.5,0.5c0.1,0,0.2,0,0.3-0.1l0.1-0.1
		l5.3-4.3c0.2-0.1,0.3-0.4,0.3-0.6c0-0.2-0.1-0.5-0.3-0.6l-5.2-4.3l-0.1-0.1c-0.1-0.1-0.2-0.1-0.3-0.1c-0.3,0-0.5,0.2-0.5,0.5h0v1.6
		v0.1c0,0.4-0.4,0.7-0.8,0.7c0,0,0,0,0,0c0,0,0,0,0,0h-2.3h-2.7h-0.1c-0.8,0-1.4,0.7-1.4,1.4v0v2.8l0,8.1l0,0v0
		C14.2,27.7,14.9,28.4,15.7,28.4z"/>
</g>
</svg>
