<?xml version="1.0" encoding="utf-8"?>
<!-- Generator: Adobe Illustrator 18.0.0, SVG Export Plug-In . SVG Version: 6.00 Build 0)  -->
<!DOCTYPE svg PUBLIC "-//W3C//DTD SVG 1.1//EN" "http://www.w3.org/Graphics/SVG/1.1/DTD/svg11.dtd">
<svg version="1.1" id="Layer_1" xmlns="http://www.w3.org/2000/svg" xmlns:xlink="http://www.w3.org/1999/xlink" x="0px" y="0px"
	 viewBox="0 0 90 90" style="enable-background:new 0 0 90 90;" xml:space="preserve">
<style type="text/css">
	.st0{fill:#374654;}
	.st1{fill:#126AD9;}
	.st2{fill:#F0F0F0;}
	.st3{clip-path:url(#SVGID_2_);fill:#C8C8C8;}
	.st4{clip-path:url(#SVGID_4_);fill:#C8C8C8;}
	.st5{fill:#FF432F;}
	.st6{fill:#FFFFFF;}
	.st7{fill:none;}
	.st8{fill:#0857AF;}
	.st9{fill-rule:evenodd;clip-rule:evenodd;fill:#009540;}
	.st10{fill-rule:evenodd;clip-rule:evenodd;fill:#AEC90B;}
	.st11{fill-rule:evenodd;clip-rule:evenodd;fill:#FFD900;}
	.st12{fill-rule:evenodd;clip-rule:evenodd;fill:#FFFFFF;}
	.st13{fill-rule:evenodd;clip-rule:evenodd;fill:#EF3E42;}
	.st14{fill-rule:evenodd;clip-rule:evenodd;fill:#00546D;}
	.st15{fill-rule:evenodd;clip-rule:evenodd;fill:#1D1D1B;}
	.st16{fill-rule:evenodd;clip-rule:evenodd;fill:#006BB6;}
	.st17{fill-rule:evenodd;clip-rule:evenodd;fill:#E53212;}
	.st18{fill-rule:evenodd;clip-rule:evenodd;fill:#CC3B25;}
	.st19{fill-rule:evenodd;clip-rule:evenodd;fill:#373E8A;}
	.st20{fill:#89B5EC;}
	.st21{fill:#DADADA;}
	.st22{fill:#3856C1;}
	.st23{fill:#EFC822;}
	.st24{fill:#0023A0;}
	.st25{fill:#DCDCDC;}
	.st26{fill:#231F20;}
	.st27{fill-rule:evenodd;clip-rule:evenodd;fill:#C2C2C2;}
	.st28{fill-rule:evenodd;clip-rule:evenodd;fill:#A3A3A3;}
	.st29{fill-rule:evenodd;clip-rule:evenodd;fill:#A5A5A5;}
	.st30{fill-rule:evenodd;clip-rule:evenodd;fill:#B4B4B4;}
	.st31{fill-rule:evenodd;clip-rule:evenodd;fill:#BEBEBE;}
	.st32{fill-rule:evenodd;clip-rule:evenodd;fill:#C4C4C4;}
	.st33{fill-rule:evenodd;clip-rule:evenodd;fill:#999999;}
	.st34{fill-rule:evenodd;clip-rule:evenodd;fill:#8D8D8D;}
	.st35{fill-rule:evenodd;clip-rule:evenodd;fill:#EC1C24;}
	.st36{fill-rule:evenodd;clip-rule:evenodd;fill:#FFF100;}
	.st37{fill-rule:evenodd;clip-rule:evenodd;fill:#C3C3C3;}
	.st38{fill:#C8C8C8;}
</style>
<g>
	<path class="st27" d="M30.1,48.5c0-5.7,4.7-10.4,10.4-10.4c5.7,0,10.4,4.7,10.4,10.4c0,5.7-4.7,10.4-10.4,10.4
		C34.8,58.9,30.1,54.3,30.1,48.5L30.1,48.5L30.1,48.5L30.1,48.5z M40.5,53.1c2.5,0,4.6-2.1,4.6-4.6c0-2.5-2.1-4.6-4.6-4.6
		c-2.5,0-4.6,2.1-4.6,4.6C35.9,51,38,53.1,40.5,53.1L40.5,53.1L40.5,53.1L40.5,53.1z"/>
	<polygon class="st28" points="0,31.1 8.7,31.1 13.7,48.1 18.8,31.1 27.1,31.1 27.1,58.2 21.5,58.2 21.5,39.3 16,58.2 10.9,58.2 
		5.7,39.2 5.7,58.2 0,58.2 0,31.1 0,31.1 	"/>
	<polygon class="st28" points="52.8,31.1 58.3,31.1 58.3,58.2 52.8,58.2 52.8,31.1 52.8,31.1 	"/>
	<path class="st28" d="M54.3,48.6c0-5.7,4.4-10.4,9.7-10.4c5.4,0,9.7,4.7,9.7,10.4c0,5.7-4.4,10.4-9.7,10.4
		C58.7,59,54.3,54.3,54.3,48.6L54.3,48.6L54.3,48.6L54.3,48.6z M63.4,53.2c2.5,0,4.6-2.1,4.6-4.6c0-2.5-2.1-4.6-4.6-4.6
		c-2.5,0-4.6,2.1-4.6,4.6C58.8,51.2,60.8,53.2,63.4,53.2L63.4,53.2L63.4,53.2L63.4,53.2z"/>
	<polygon class="st28" points="84.4,31.1 90,31.1 90,58.2 84.4,58.2 84.4,31.1 84.4,31.1 	"/>
	<polygon class="st28" points="75.9,38.1 81.5,38.1 81.5,58.2 75.9,58.2 75.9,38.1 75.9,38.1 	"/>
	<polygon class="st28" points="81.5,36.7 81.5,31 75.8,31 75.8,36.7 81.5,36.7 81.5,36.7 	"/>
</g>
</svg>
