<?xml version="1.0" encoding="utf-8"?>
<!-- Generator: Adobe Illustrator 18.0.0, SVG Export Plug-In . SVG Version: 6.00 Build 0)  -->
<!DOCTYPE svg PUBLIC "-//W3C//DTD SVG 1.1//EN" "http://www.w3.org/Graphics/SVG/1.1/DTD/svg11.dtd">
<svg version="1.1" id="Layer_1" xmlns="http://www.w3.org/2000/svg" xmlns:xlink="http://www.w3.org/1999/xlink" x="0px" y="0px"
	 viewBox="0 0 40 40" style="enable-background:new 0 0 40 40;" xml:space="preserve">
<style type="text/css">
	.st0{fill:#374654;}
	.st1{fill:#126AD9;}
	.st2{fill:#F0F0F0;}
	.st3{clip-path:url(#SVGID_2_);fill:#C8C8C8;}
	.st4{clip-path:url(#SVGID_4_);fill:#C8C8C8;}
	.st5{fill:#FF432F;}
	.st6{fill:#FFFFFF;}
	.st7{fill:none;}
	.st8{fill:#0857AF;}
	.st9{fill-rule:evenodd;clip-rule:evenodd;fill:#009540;}
	.st10{fill-rule:evenodd;clip-rule:evenodd;fill:#AEC90B;}
	.st11{fill-rule:evenodd;clip-rule:evenodd;fill:#FFD900;}
	.st12{fill-rule:evenodd;clip-rule:evenodd;fill:#FFFFFF;}
	.st13{fill-rule:evenodd;clip-rule:evenodd;fill:#EF3E42;}
	.st14{fill-rule:evenodd;clip-rule:evenodd;fill:#00546D;}
	.st15{fill-rule:evenodd;clip-rule:evenodd;fill:#1D1D1B;}
	.st16{fill-rule:evenodd;clip-rule:evenodd;fill:#006BB6;}
	.st17{fill-rule:evenodd;clip-rule:evenodd;fill:#E53212;}
	.st18{fill-rule:evenodd;clip-rule:evenodd;fill:#CC3B25;}
	.st19{fill-rule:evenodd;clip-rule:evenodd;fill:#373E8A;}
	.st20{fill:#89B5EC;}
	.st21{fill:#DADADA;}
	.st22{fill:#3856C1;}
	.st23{fill:#EFC822;}
	.st24{fill:#0023A0;}
	.st25{fill:#DCDCDC;}
</style>
<g>
	<g>
		<g>
			<path class="st5" d="M26.6,35.6H13.4c-1.1,0-2-0.9-2-2.1V21.4l-4.2,0c-0.8,0-1.6-0.5-1.9-1.3c-0.3-0.8-0.1-1.7,0.4-2.2L18.6,5
				c0.8-0.8,2.1-0.8,2.9,0l12.9,12.9c0.6,0.6,0.8,1.5,0.4,2.2c-0.3,0.8-1.1,1.3-1.9,1.3l-4.2,0l0,12.2
				C28.7,34.7,27.7,35.6,26.6,35.6z M11.3,19.3c1.1,0,2.1,0.9,2.1,2.1v12.2h13.2l0-12.2c0-0.5,0.2-1.1,0.6-1.5
				c0.4-0.4,0.9-0.6,1.4-0.6l4.2,0L20,6.4L7.1,19.3L11.3,19.3z"/>
		</g>
	</g>
</g>
</svg>
