<?xml version="1.0" encoding="utf-8"?>
<!-- Generator: Adobe Illustrator 18.1.1, SVG Export Plug-In . SVG Version: 6.00 Build 0)  -->
<svg version="1.1" id="Layer_1" xmlns="http://www.w3.org/2000/svg" xmlns:xlink="http://www.w3.org/1999/xlink" x="0px" y="0px"
	 viewBox="0 0 80 40" style="enable-background:new 0 0 80 40;" xml:space="preserve">
<style type="text/css">
	.st0{fill:#374654;}
	.st1{fill:#126AD9;}
	.st2{fill:#F0F0F0;}
	.st3{clip-path:url(#SVGID_2_);fill:#C8C8C8;}
	.st4{clip-path:url(#SVGID_4_);fill:#C8C8C8;}
	.st5{fill:#FF432F;}
	.st6{fill:#FFFFFF;}
	.st7{fill:none;}
	.st8{fill:#0857AF;}
	.st9{fill-rule:evenodd;clip-rule:evenodd;fill:#009540;}
	.st10{fill-rule:evenodd;clip-rule:evenodd;fill:#AEC90B;}
	.st11{fill-rule:evenodd;clip-rule:evenodd;fill:#FFD900;}
	.st12{fill-rule:evenodd;clip-rule:evenodd;fill:#FFFFFF;}
	.st13{fill-rule:evenodd;clip-rule:evenodd;fill:#EF3E42;}
	.st14{fill-rule:evenodd;clip-rule:evenodd;fill:#00546D;}
	.st15{fill-rule:evenodd;clip-rule:evenodd;fill:#1D1D1B;}
	.st16{fill-rule:evenodd;clip-rule:evenodd;fill:#006BB6;}
	.st17{fill-rule:evenodd;clip-rule:evenodd;fill:#E53212;}
	.st18{fill-rule:evenodd;clip-rule:evenodd;fill:#CC3B25;}
	.st19{fill-rule:evenodd;clip-rule:evenodd;fill:#373E8A;}
	.st20{fill:#89B5EC;}
	.st21{fill:#DADADA;}
	.st22{fill:#3856C1;}
	.st23{fill:#EFC822;}
	.st24{fill:#0023A0;}
	.st25{fill:#DCDCDC;}
	.st26{fill:#231F20;}
	.st27{fill-rule:evenodd;clip-rule:evenodd;fill:#C2C2C2;}
	.st28{fill-rule:evenodd;clip-rule:evenodd;fill:#A3A3A3;}
	.st29{fill-rule:evenodd;clip-rule:evenodd;fill:#A5A5A5;}
	.st30{fill-rule:evenodd;clip-rule:evenodd;fill:#B4B4B4;}
	.st31{fill-rule:evenodd;clip-rule:evenodd;fill:#BEBEBE;}
	.st32{fill-rule:evenodd;clip-rule:evenodd;fill:#C4C4C4;}
	.st33{fill-rule:evenodd;clip-rule:evenodd;fill:#999999;}
	.st34{fill-rule:evenodd;clip-rule:evenodd;fill:#8D8D8D;}
	.st35{fill-rule:evenodd;clip-rule:evenodd;fill:#EC1C24;}
	.st36{fill-rule:evenodd;clip-rule:evenodd;fill:#FFF100;}
	.st37{fill-rule:evenodd;clip-rule:evenodd;fill:#C3C3C3;}
	.st38{fill:#C8C8C8;}
	.st39{opacity:0.4;fill:#FF432F;}
	.st40{fill-rule:evenodd;clip-rule:evenodd;fill:#374654;}
	.st41{fill:#2656A0;}
	.st42{fill:#006FAE;}
</style>
<g>
	<path class="st42" d="M78.8,35.7c0,2.4-1.8,4.3-4,4.3H5.3c-2.2,0-4-1.9-4-4.3V4.3C1.2,1.9,3,0,5.3,0h69.5c2.2,0,4,1.9,4,4.3V35.7z"
		/>
	<g>
		<path class="st6" d="M62.1,9.1v1.2l-0.7-1.2h-4.7v1.2l-0.5-1.2h-4.3l0,0L49.2,9l-0.1,0c-0.7,0-1.3,0.3-1.9,0.6V9.1h-4.5v0.3
			c-0.5-0.2-1-0.3-1.5-0.3c-0.1,0-0.2,0-0.3,0H37h-1.7h-4.9h-1.7h-3.4l-1.1,2.5L23,9.1h-5.1v1.2l-0.5-1.2h-4.3l-4.1,9.8h4.9l0.6-1.5
			H16l0.6,1.5h5.8v-0.2l0.1,0.2h3.2l0.1-0.2v0.2h2.8h1.7h4.9H37h2.8v-2.5l0.3,0v2.5h2.7v0h4.5v-0.6c0.5,0.3,1.1,0.5,1.5,0.6l3.9,0
			l0.6-1.5h1.5l0.6,1.5h5.8v-1.3l0.8,1.3h4.6V9.1H62.1z"/>
		<path class="st6" d="M70.7,25.5L70.7,25.5l0.1-4.4l-4.9,0c-0.5,0-1,0.1-1.5,0.3v-0.3l-4.9,0c-0.5,0-1,0.1-1.5,0.3v-0.3h-8.3v0.3
			c-0.5-0.2-1-0.3-1.5-0.3c-0.1,0-0.2,0-0.3,0h-5.7v0.2c-0.4-0.2-0.9-0.3-1.4-0.3c-0.1,0-0.2,0-0.2,0l-6.3,0l-1.5,1.6l-1.5-1.6h-8.5
			V31h8.7l1.3-1.5l1.3,1.5h5.3v-2.3h0.4c0.8,0,1.7-0.1,2.4-0.4V31h4.5v-2.5H47V31h4.5v0H58v0h2.6c0.1,0,0.2,0,0.3,0
			c0.5,0,1.1-0.1,1.6-0.3V31H67c0.1,0,0.2,0,0.3,0c1.7,0,3.8-1,3.8-3.9C71.1,26.5,70.9,26,70.7,25.5z"/>
		<g>
			<g>
				<defs>
					<path id="SVGID_5_" d="M41.3,17.5v-1.4c0,0-0.1-1.1-1.2-1.1h-1.8v2.5h-1.8v-7.1H41c0,0,2.3-0.3,2.3,2.1c0,1.2-1,1.7-1,1.7
						s0.9,0.4,0.9,1.6v1.8H41.3 M38.4,13.4h1.9c0.5,0,1-0.3,1-0.7c0-0.4-0.4-0.7-1-0.7h-1.9V13.4L38.4,13.4"/>
				</defs>
				<use xlink:href="#SVGID_5_"  style="overflow:visible;fill:#006FAE;"/>
				<clipPath id="SVGID_2_">
					<use xlink:href="#SVGID_5_"  style="overflow:visible;"/>
				</clipPath>
			</g>
			<g>
				<defs>
					<path id="SVGID_7_" d="M62.7,17.5l-2.9-4.8v4.8h-1.6H58h-1.7l-0.6-1.5h-3.3l-0.6,1.5h-1.7h-0.3h-0.9c0,0-2.4-0.4-2.4-3.4
						c0-4,2.8-3.8,2.9-3.8l2.2,0.1V12l-1.8,0c0,0-1.2,0-1.3,1.6c0,0.2,0,0.3,0,0.5c0,2.4,2.1,1.7,2.2,1.6l2.2-5.3h2.5l2.7,6.5v-6.5
						h2.6l2.8,4.7v-4.7h1.8v7.1H62.7 M53.1,14.2h1.8L54,12.1L53.1,14.2L53.1,14.2"/>
				</defs>
				<use xlink:href="#SVGID_7_"  style="overflow:visible;fill:#006FAE;"/>
				<clipPath id="SVGID_4_">
					<use xlink:href="#SVGID_7_"  style="overflow:visible;"/>
				</clipPath>
			</g>
			<g>
				<defs>
					<path id="SVGID_9_" d="M27.1,17.5v-4.9l-2.3,4.9h-1.5l-2.3-4.9v4.9h-1.6h-0.2h-1.8l-0.6-1.5h-3.3l-0.6,1.5h-2l3-7.1h2.6
						l2.8,6.6v-6.6h2.9l2,4.4l2-4.4H29v7.1H27.1 M14.3,14.2h1.8l-0.9-2.1L14.3,14.2L14.3,14.2"/>
				</defs>
				<use xlink:href="#SVGID_9_"  style="overflow:visible;fill:#006FAE;"/>
				<clipPath id="SVGID_6_">
					<use xlink:href="#SVGID_9_"  style="overflow:visible;"/>
				</clipPath>
			</g>
			<g>
				<defs>
					<polyline id="SVGID_11_" points="30,17.5 30,10.4 35.6,10.4 35.6,12.1 31.8,12.1 31.8,13.2 35.5,13.2 35.5,14.8 31.8,14.8 
						31.8,16 35.6,16 35.6,17.5 30,17.5 					"/>
				</defs>
				<use xlink:href="#SVGID_11_"  style="overflow:visible;fill:#006FAE;"/>
				<clipPath id="SVGID_8_">
					<use xlink:href="#SVGID_11_"  style="overflow:visible;"/>
				</clipPath>
			</g>
			<g>
				<defs>
					<polyline id="SVGID_13_" points="44,17.6 44,10.4 45.8,10.4 45.8,17.6 44,17.6 					"/>
				</defs>
				<use xlink:href="#SVGID_13_"  style="overflow:visible;fill:#006FAE;"/>
				<clipPath id="SVGID_10_">
					<use xlink:href="#SVGID_13_"  style="overflow:visible;"/>
				</clipPath>
			</g>
		</g>
		<g>
			<g>
				<defs>
					<path id="SVGID_15_" d="M48.3,29.7v-1.4c0,0-0.1-1.1-1.2-1.1h-1.8v2.5h-1.8v-7.1H48c0,0,2.3-0.3,2.3,2.1c0,1.2-1,1.7-1,1.7
						s0.9,0.4,0.9,1.6v1.8H48.3 M45.4,25.5h1.9c0.5,0,1-0.3,1-0.7c0-0.4-0.4-0.7-1-0.7h-1.9V25.5L45.4,25.5"/>
				</defs>
				<use xlink:href="#SVGID_15_"  style="overflow:visible;fill:#006FAE;"/>
				<clipPath id="SVGID_12_">
					<use xlink:href="#SVGID_15_"  style="overflow:visible;"/>
				</clipPath>
			</g>
			<g>
				<defs>
					<path id="SVGID_17_" d="M36.3,29.6h-1.6l-1.9-2.1l-1.9,2.1h-1.1h-5.6v-7.2h5.6h1l2.1,2.3l2.1-2.3h1.4v0h4.4
						c0,0,2.3-0.3,2.3,2.1c0,2.1-0.8,2.8-3.1,2.8h-1.8v2.3H36.3 M34,26.1l2.2,2.5v-5L34,26.1L34,26.1 M25.9,28.1h3.8l1.8-2l-1.8-2
						h-3.8v1.1h3.7v1.6h-3.7V28.1L25.9,28.1 M38.1,25.5h1.9c0.5,0,1-0.3,1-0.7c0-0.4-0.4-0.7-1-0.7h-1.9V25.5L38.1,25.5"/>
				</defs>
				<use xlink:href="#SVGID_17_"  style="overflow:visible;fill:#006FAE;"/>
				<clipPath id="SVGID_14_">
					<use xlink:href="#SVGID_17_"  style="overflow:visible;"/>
				</clipPath>
			</g>
			<g>
				<defs>
					<path id="SVGID_19_" d="M60.7,29.6h-3.2V28h2.8c0,0,1,0.1,1-0.6c0-0.6-1.5-0.6-1.5-0.6s-2.5,0.2-2.5-2.1c0-2.3,2.3-2.2,2.3-2.2
						H63v1.7h-2.8c0,0-1-0.2-1,0.5c0,0.6,1.3,0.5,1.3,0.5s2.8-0.2,2.8,1.9c0,2.3-1.8,2.5-2.4,2.5C60.8,29.6,60.7,29.6,60.7,29.6"/>
				</defs>
				<use xlink:href="#SVGID_19_"  style="overflow:visible;fill:#006FAE;"/>
				<clipPath id="SVGID_16_">
					<use xlink:href="#SVGID_19_"  style="overflow:visible;"/>
				</clipPath>
			</g>
			<g>
				<defs>
					<polyline id="SVGID_21_" points="51,29.6 51,22.5 56.7,22.5 56.7,24.2 52.8,24.2 52.8,25.3 56.6,25.3 56.6,26.9 52.8,26.9 
						52.8,28.1 56.7,28.1 56.7,29.6 51,29.6 					"/>
				</defs>
				<use xlink:href="#SVGID_21_"  style="overflow:visible;fill:#006FAE;"/>
				<clipPath id="SVGID_18_">
					<use xlink:href="#SVGID_21_"  style="overflow:visible;"/>
				</clipPath>
			</g>
			<g>
				<defs>
					<path id="SVGID_23_" d="M67.1,29.6h-3.2V28h2.8c0,0,1,0.1,1-0.6c0-0.6-1.5-0.6-1.5-0.6s-2.5,0.2-2.5-2.1c0-2.3,2.3-2.2,2.3-2.2
						h3.5v1.7h-2.8c0,0-1-0.2-1,0.5c0,0.6,1.3,0.5,1.3,0.5s2.8-0.2,2.8,1.9c0,2.3-1.8,2.5-2.4,2.5C67.2,29.6,67.1,29.6,67.1,29.6"/>
				</defs>
				<use xlink:href="#SVGID_23_"  style="overflow:visible;fill:#006FAE;"/>
				<clipPath id="SVGID_20_">
					<use xlink:href="#SVGID_23_"  style="overflow:visible;"/>
				</clipPath>
			</g>
		</g>
	</g>
</g>
</svg>
