<?xml version="1.0" encoding="utf-8"?>
<!-- Generator: Adobe Illustrator 18.0.0, SVG Export Plug-In . SVG Version: 6.00 Build 0)  -->
<!DOCTYPE svg PUBLIC "-//W3C//DTD SVG 1.1//EN" "http://www.w3.org/Graphics/SVG/1.1/DTD/svg11.dtd">
<svg version="1.1" id="Layer_1" xmlns="http://www.w3.org/2000/svg" xmlns:xlink="http://www.w3.org/1999/xlink" x="0px" y="0px"
	 viewBox="0 0 51 20" style="enable-background:new 0 0 51 20;" xml:space="preserve">
<style type="text/css">
	.st0{fill:#374654;}
	.st1{fill:#126AD9;}
	.st2{fill:#F0F0F0;}
	.st3{clip-path:url(#SVGID_2_);fill:#C8C8C8;}
	.st4{clip-path:url(#SVGID_4_);fill:#C8C8C8;}
	.st5{fill:#FF432F;}
	.st6{fill:#FFFFFF;}
	.st7{fill:none;}
	.st8{fill:#0857AF;}
	.st9{fill-rule:evenodd;clip-rule:evenodd;fill:#009540;}
	.st10{fill-rule:evenodd;clip-rule:evenodd;fill:#AEC90B;}
	.st11{fill-rule:evenodd;clip-rule:evenodd;fill:#FFD900;}
	.st12{fill-rule:evenodd;clip-rule:evenodd;fill:#FFFFFF;}
	.st13{fill-rule:evenodd;clip-rule:evenodd;fill:#EF3E42;}
	.st14{fill-rule:evenodd;clip-rule:evenodd;fill:#00546D;}
	.st15{fill-rule:evenodd;clip-rule:evenodd;fill:#1D1D1B;}
	.st16{fill-rule:evenodd;clip-rule:evenodd;fill:#006BB6;}
	.st17{fill-rule:evenodd;clip-rule:evenodd;fill:#E53212;}
	.st18{fill-rule:evenodd;clip-rule:evenodd;fill:#CC3B25;}
	.st19{fill-rule:evenodd;clip-rule:evenodd;fill:#373E8A;}
	.st20{fill:#89B5EC;}
	.st21{fill:#DADADA;}
	.st22{fill:#3856C1;}
	.st23{fill:#EFC822;}
	.st24{fill:#0023A0;}
	.st25{fill:#DCDCDC;}
</style>
<g>
	<path class="st5" d="M0.9,16.3c0.5-1.3,1.8-2.6,3.8-4c1.7-1.2,2.9-2.1,3.4-2.7c0.8-0.8,1.2-1.7,1.2-2.7c0-0.8-0.2-1.5-0.7-2
		C8.1,4.3,7.5,4,6.6,4C5.5,4,4.7,4.4,4.3,5.3C4.1,5.8,3.9,6.6,3.9,7.6H0.2C0.3,6,0.6,4.7,1.1,3.7c1-1.9,2.8-2.9,5.4-2.9
		c2,0,3.6,0.6,4.8,1.7c1.2,1.1,1.8,2.6,1.8,4.4c0,1.4-0.4,2.7-1.3,3.8c-0.6,0.7-1.5,1.5-2.7,2.4l-1.5,1.1c-0.9,0.7-1.6,1.1-1.9,1.4
		s-0.6,0.6-0.9,1h8.4V20H0C0,18.7,0.3,17.4,0.9,16.3z"/>
	<path class="st5" d="M28.3,15.9h-2.2V20h-3.7v-4.1h-7.6v-3.3l7-11.6h4.2V13h2.2V15.9z M22.5,13V4.8L17.7,13H22.5z"/>
	<path class="st5" d="M35.3,0h3.1l-7.6,20h-3.1L35.3,0z"/>
	<path class="st5" d="M51,4.1c-0.6,0.6-1.3,1.5-2.4,3s-1.8,2.9-2.5,4.4c-0.5,1.2-1,2.6-1.5,4.3C44.2,17.5,44,18.9,44,20h-3.9
		c0.1-3.4,1.2-7,3.4-10.7C44.9,7.1,46,5.5,47,4.6h-9.5l0.1-3.4H51V4.1z"/>
</g>
</svg>
