<?xml version="1.0" encoding="utf-8"?>
<!-- Generator: Adobe Illustrator 18.0.0, SVG Export Plug-In . SVG Version: 6.00 Build 0)  -->
<!DOCTYPE svg PUBLIC "-//W3C//DTD SVG 1.1//EN" "http://www.w3.org/Graphics/SVG/1.1/DTD/svg11.dtd">
<svg version="1.1" id="Layer_1" xmlns="http://www.w3.org/2000/svg" xmlns:xlink="http://www.w3.org/1999/xlink" x="0px" y="0px"
	 viewBox="0 0 40 40" style="enable-background:new 0 0 40 40;" xml:space="preserve">
<style type="text/css">
	.st0{fill:#374654;}
	.st1{fill:#126AD9;}
	.st2{fill:#F0F0F0;}
	.st3{clip-path:url(#SVGID_2_);fill:#C8C8C8;}
	.st4{clip-path:url(#SVGID_4_);fill:#C8C8C8;}
	.st5{fill:#FF432F;}
	.st6{fill:#FFFFFF;}
	.st7{fill:none;}
	.st8{fill:#0857AF;}
	.st9{fill-rule:evenodd;clip-rule:evenodd;fill:#009540;}
	.st10{fill-rule:evenodd;clip-rule:evenodd;fill:#AEC90B;}
	.st11{fill-rule:evenodd;clip-rule:evenodd;fill:#FFD900;}
	.st12{fill-rule:evenodd;clip-rule:evenodd;fill:#FFFFFF;}
	.st13{fill-rule:evenodd;clip-rule:evenodd;fill:#EF3E42;}
	.st14{fill-rule:evenodd;clip-rule:evenodd;fill:#00546D;}
	.st15{fill-rule:evenodd;clip-rule:evenodd;fill:#1D1D1B;}
	.st16{fill-rule:evenodd;clip-rule:evenodd;fill:#006BB6;}
	.st17{fill-rule:evenodd;clip-rule:evenodd;fill:#E53212;}
	.st18{fill-rule:evenodd;clip-rule:evenodd;fill:#CC3B25;}
	.st19{fill-rule:evenodd;clip-rule:evenodd;fill:#373E8A;}
	.st20{fill:#89B5EC;}
	.st21{fill:#DADADA;}
	.st22{fill:#3856C1;}
	.st23{fill:#EFC822;}
	.st24{fill:#0023A0;}
	.st25{fill:#DCDCDC;}
	.st26{fill:#231F20;}
	.st27{fill-rule:evenodd;clip-rule:evenodd;fill:#C2C2C2;}
	.st28{fill-rule:evenodd;clip-rule:evenodd;fill:#A3A3A3;}
	.st29{fill-rule:evenodd;clip-rule:evenodd;fill:#A5A5A5;}
	.st30{fill-rule:evenodd;clip-rule:evenodd;fill:#B4B4B4;}
	.st31{fill-rule:evenodd;clip-rule:evenodd;fill:#BEBEBE;}
	.st32{fill-rule:evenodd;clip-rule:evenodd;fill:#C4C4C4;}
	.st33{fill-rule:evenodd;clip-rule:evenodd;fill:#999999;}
	.st34{fill-rule:evenodd;clip-rule:evenodd;fill:#8D8D8D;}
	.st35{fill-rule:evenodd;clip-rule:evenodd;fill:#EC1C24;}
	.st36{fill-rule:evenodd;clip-rule:evenodd;fill:#FFF100;}
	.st37{fill-rule:evenodd;clip-rule:evenodd;fill:#C3C3C3;}
	.st38{fill:#C8C8C8;}
</style>
<g>
	<path class="st0" d="M37.2,3.4h-1.8c-0.7,0-1.2,0.6-1.2,1.2v2.9c0,2.1-1.7,3.9-3.9,3.9c-2.1,0-3.9-1.7-3.9-3.9V4.6
		c0-0.7-0.6-1.2-1.2-1.2H14.9c-0.7,0-1.2,0.6-1.2,1.2v2.9c0,2.1-1.7,3.9-3.9,3.9S6,9.7,6,7.5V4.6c0-0.7-0.6-1.2-1.2-1.2h-2
		C1.2,3.4,0,4.6,0,6.2v30.7c0,1.5,1.2,2.8,2.8,2.8h34.4c1.5,0,2.8-1.2,2.8-2.8V6.2C40,4.6,38.8,3.4,37.2,3.4z M36.3,34.7
		C36.3,34.8,36.3,34.8,36.3,34.7c0,0.7-0.5,1.2-1.2,1.2c0,0,0,0-0.1,0c0,0,0,0-0.1,0H5c0,0,0,0-0.1,0c0,0,0,0-0.1,0
		c-0.6,0-1.1-0.5-1.2-1.2c0,0,0,0,0-0.1s0,0,0-0.1V14.6c0,0,0,0,0-0.1c0,0,0,0,0-0.1c0-0.7,0.6-1.2,1.2-1.2h30.1
		c0.7,0,1.2,0.5,1.2,1.2c0,0,0,0.1,0,0.1c0,0,0,0.1,0,0.1V34.7C36.3,34.7,36.3,34.7,36.3,34.7z"/>
	<path class="st0" d="M30.3,9.7c1.2,0,2.1-1,2.1-2.1h0V5.8V4.3V4.2V3.4V2.7V2.2c-0.1-1.1-1-1.9-2.1-1.9c-1.2,0-2.1,1-2.1,2.1h0v0.9
		v0.8v0.1v1.5v1.5v0.5C28.3,8.9,29.2,9.7,30.3,9.7z"/>
	<path class="st0" d="M9.8,9.7c1.2,0,2.1-1,2.1-2.1h0V5.8V4.3V4.2V3.4V2.7V2.2c-0.1-1.1-1-1.9-2.1-1.9c-1.2,0-2.1,1-2.1,2.1h0v0.9
		v0.8v0.1v1.5v1.5v0.5C7.9,8.9,8.8,9.7,9.8,9.7z"/>
	<g>
		<path class="st0" d="M14.5,17.3h-1c-0.1,0-0.3,0-0.4,0.1l-0.1,0l-2.7,0.8h0l-0.1,0c-0.6,0.2-0.9,0.7-0.9,1.3c0,0.1,0,0.2,0,0.4
			c0.2,0.6,0.7,1.1,1.4,1.1c0.1,0,0.2,0,0.3,0c0,0,0,0,0,0l0.1,0c0,0,0,0,0,0l0.3-0.1c0,0,0.1,0,0.1,0c0,0,0.1,0,0.1,0
			c0.3,0,0.6,0.3,0.6,0.6c0,0,0,0,0,0c0,0,0,0,0,0v9.1c0,0.9,0.7,1.6,1.6,1.6c0.9,0,1.6-0.7,1.6-1.6V18.3
			C15.5,17.7,15,17.3,14.5,17.3z"/>
		<path class="st0" d="M25.1,17c-3.9,0-6.6,3.4-6.6,7.7v0c0,4.3,2.6,7.6,6.6,7.6c4,0,6.6-3.4,6.6-7.7v0C31.7,20.3,29,17,25.1,17z
			 M28.4,24.7c0,2.7-1.2,4.7-3.2,4.7s-3.3-2-3.3-4.7v0c0-2.7,1.3-4.7,3.2-4.7C27,19.9,28.4,22,28.4,24.7L28.4,24.7z"/>
	</g>
</g>
</svg>
