<?xml version="1.0" encoding="utf-8"?>
<!-- Generator: Adobe Illustrator 18.0.0, SVG Export Plug-In . SVG Version: 6.00 Build 0)  -->
<!DOCTYPE svg PUBLIC "-//W3C//DTD SVG 1.1//EN" "http://www.w3.org/Graphics/SVG/1.1/DTD/svg11.dtd">
<svg version="1.1" id="Layer_1" xmlns="http://www.w3.org/2000/svg" xmlns:xlink="http://www.w3.org/1999/xlink" x="0px" y="0px"
	 viewBox="0 0 80 40" style="enable-background:new 0 0 80 40;" xml:space="preserve">
<style type="text/css">
	.st0{fill:#374654;}
	.st1{fill:#126AD9;}
	.st2{fill:#F0F0F0;}
	.st3{clip-path:url(#SVGID_2_);fill:#C8C8C8;}
	.st4{clip-path:url(#SVGID_4_);fill:#C8C8C8;}
	.st5{fill:#FF432F;}
	.st6{fill:#FFFFFF;}
	.st7{fill:none;}
	.st8{fill:#0857AF;}
	.st9{fill-rule:evenodd;clip-rule:evenodd;fill:#009540;}
	.st10{fill-rule:evenodd;clip-rule:evenodd;fill:#AEC90B;}
	.st11{fill-rule:evenodd;clip-rule:evenodd;fill:#FFD900;}
	.st12{fill-rule:evenodd;clip-rule:evenodd;fill:#FFFFFF;}
	.st13{fill-rule:evenodd;clip-rule:evenodd;fill:#EF3E42;}
	.st14{fill-rule:evenodd;clip-rule:evenodd;fill:#00546D;}
	.st15{fill-rule:evenodd;clip-rule:evenodd;fill:#1D1D1B;}
	.st16{fill-rule:evenodd;clip-rule:evenodd;fill:#006BB6;}
	.st17{fill-rule:evenodd;clip-rule:evenodd;fill:#E53212;}
	.st18{fill-rule:evenodd;clip-rule:evenodd;fill:#CC3B25;}
	.st19{fill-rule:evenodd;clip-rule:evenodd;fill:#373E8A;}
	.st20{fill:#89B5EC;}
	.st21{fill:#DADADA;}
	.st22{fill:#3856C1;}
	.st23{fill:#EFC822;}
	.st24{fill:#0023A0;}
	.st25{fill:#DCDCDC;}
</style>
<g>
	<g>
		<path class="st6" d="M72.5,38.7h-65c-2.8,0-5-2.2-5-5V6.2c0-2.8,2.2-5,5-5h65c2.8,0,5,2.2,5,5v27.5C77.5,36.5,75.3,38.7,72.5,38.7
			z"/>
		<path class="st21" d="M72.5,40h-65c-3.4,0-6.2-2.8-6.2-6.2V6.2C1.2,2.8,4.1,0,7.5,0h65c3.4,0,6.2,2.8,6.2,6.2v27.5
			C78.8,37.2,75.9,40,72.5,40z M7.5,2.5c-2.1,0-3.8,1.7-3.8,3.8v27.5c0,2.1,1.7,3.8,3.8,3.8h65c2.1,0,3.8-1.7,3.8-3.8V6.2
			c0-2.1-1.7-3.8-3.8-3.8H7.5z"/>
	</g>
	<g>
		<g>
			<polyline class="st22" points="29.5,29.7 32.6,10.3 37.6,10.3 34.5,29.7 29.5,29.7 			"/>
			<path class="st22" d="M52.7,10.8c-1-0.4-2.5-0.8-4.5-0.8c-4.9,0-8.4,2.6-8.5,6.4c0,2.8,2.5,4.3,4.4,5.3c1.9,0.9,2.6,1.6,2.6,2.4
				c0,1.3-1.6,1.9-3,1.9c-2,0-3.1-0.3-4.7-1l-0.6-0.3L37.6,29c1.2,0.5,3.3,1,5.6,1c5.3,0,8.7-2.6,8.7-6.6c0-2.2-1.3-3.9-4.2-5.3
				c-1.7-0.9-2.8-1.5-2.8-2.4c0-0.8,0.9-1.7,2.9-1.7c1.6,0,2.8,0.4,3.7,0.7L52,15L52.7,10.8"/>
			<path class="st22" d="M65.5,10.4h-3.9c-1.2,0-2.1,0.3-2.6,1.6l-7.4,17.8h5.3c0,0,0.9-2.4,1.1-2.9c0.6,0,5.7,0,6.4,0
				c0.1,0.7,0.6,2.9,0.6,2.9h4.6L65.5,10.4 M59.3,22.8c0.4-1.1,2-5.4,2-5.4c0,0.1,0.4-1.1,0.7-1.8l0.3,1.7c0,0,1,4.6,1.2,5.6
				C62.7,22.8,60.3,22.8,59.3,22.8z"/>
			<path class="st22" d="M25.3,10.4l-4.9,13.2l-0.5-2.7c-0.9-3.1-3.8-6.4-6.9-8.1l4.5,16.9l5.3,0l7.9-19.3H25.3"/>
			<path class="st23" d="M15.9,10.3H7.8l-0.1,0.4c6.3,1.6,10.4,5.5,12.2,10.1L18.1,12C17.8,10.7,17,10.4,15.9,10.3z"/>
		</g>
		<g>
			<path class="st24" d="M71.2,27.4c0.6,0,1.1,0.5,1.1,1.1c0,0.6-0.5,1.1-1.1,1.1c-0.6,0-1.1-0.5-1.1-1.1
				C70.1,27.9,70.5,27.4,71.2,27.4z M71.2,29.4c0.5,0,0.9-0.4,0.9-0.9c0-0.5-0.4-0.9-0.9-0.9c-0.5,0-0.9,0.4-0.9,0.9
				C70.3,29,70.7,29.4,71.2,29.4z M70.8,28h0.5c0.1,0,0.4,0,0.4,0.3c0,0.1,0,0.2-0.2,0.3v0c0.1,0,0.1,0.2,0.2,0.3c0,0.2,0,0.2,0,0.3
				h-0.2c0,0,0-0.1,0-0.3c0-0.1,0-0.2-0.2-0.2H71v0.5h-0.2V28z M71,28.4h0.2c0.2,0,0.2-0.1,0.2-0.2c0-0.1-0.1-0.2-0.2-0.2H71V28.4z"
				/>
		</g>
	</g>
</g>
</svg>
