<?xml version="1.0" encoding="utf-8"?>
<!-- Generator: Adobe Illustrator 18.0.0, SVG Export Plug-In . SVG Version: 6.00 Build 0)  -->
<!DOCTYPE svg PUBLIC "-//W3C//DTD SVG 1.1//EN" "http://www.w3.org/Graphics/SVG/1.1/DTD/svg11.dtd">
<svg version="1.1" id="Layer_1" xmlns="http://www.w3.org/2000/svg" xmlns:xlink="http://www.w3.org/1999/xlink" x="0px" y="0px"
	 viewBox="0 0 40 40" style="enable-background:new 0 0 40 40;" xml:space="preserve">
<style type="text/css">
	.st0{fill:#374654;}
	.st1{fill:#126AD9;}
	.st2{fill:#F0F0F0;}
	.st3{clip-path:url(#SVGID_2_);fill:#C8C8C8;}
	.st4{clip-path:url(#SVGID_4_);fill:#C8C8C8;}
	.st5{fill:#FF432F;}
	.st6{fill:#FFFFFF;}
	.st7{fill:none;}
	.st8{fill:#0857AF;}
	.st9{fill-rule:evenodd;clip-rule:evenodd;fill:#009540;}
	.st10{fill-rule:evenodd;clip-rule:evenodd;fill:#AEC90B;}
	.st11{fill-rule:evenodd;clip-rule:evenodd;fill:#FFD900;}
	.st12{fill-rule:evenodd;clip-rule:evenodd;fill:#FFFFFF;}
	.st13{fill-rule:evenodd;clip-rule:evenodd;fill:#EF3E42;}
	.st14{fill-rule:evenodd;clip-rule:evenodd;fill:#00546D;}
	.st15{fill-rule:evenodd;clip-rule:evenodd;fill:#1D1D1B;}
	.st16{fill-rule:evenodd;clip-rule:evenodd;fill:#006BB6;}
	.st17{fill-rule:evenodd;clip-rule:evenodd;fill:#E53212;}
	.st18{fill-rule:evenodd;clip-rule:evenodd;fill:#CC3B25;}
	.st19{fill-rule:evenodd;clip-rule:evenodd;fill:#373E8A;}
	.st20{fill:#89B5EC;}
	.st21{fill:#DADADA;}
	.st22{fill:#3856C1;}
	.st23{fill:#EFC822;}
	.st24{fill:#0023A0;}
	.st25{fill:#DCDCDC;}
	.st26{fill:#231F20;}
	.st27{fill-rule:evenodd;clip-rule:evenodd;fill:#C2C2C2;}
	.st28{fill-rule:evenodd;clip-rule:evenodd;fill:#A3A3A3;}
	.st29{fill-rule:evenodd;clip-rule:evenodd;fill:#A5A5A5;}
	.st30{fill-rule:evenodd;clip-rule:evenodd;fill:#B4B4B4;}
	.st31{fill-rule:evenodd;clip-rule:evenodd;fill:#BEBEBE;}
	.st32{fill-rule:evenodd;clip-rule:evenodd;fill:#C4C4C4;}
	.st33{fill-rule:evenodd;clip-rule:evenodd;fill:#999999;}
	.st34{fill-rule:evenodd;clip-rule:evenodd;fill:#8D8D8D;}
	.st35{fill-rule:evenodd;clip-rule:evenodd;fill:#EC1C24;}
	.st36{fill-rule:evenodd;clip-rule:evenodd;fill:#FFF100;}
	.st37{fill-rule:evenodd;clip-rule:evenodd;fill:#C3C3C3;}
	.st38{fill:#C8C8C8;}
</style>
<g>
	<path class="st0" d="M4.5,28.9V17.4H0v-2.7c0.6,0,1.2,0,1.8-0.1s1.1-0.3,1.6-0.6c0.5-0.3,0.9-0.6,1.2-1.1s0.5-1,0.6-1.7h2.9v17.8
		H4.5z"/>
	<path class="st0" d="M13.5,15.1c0.3-0.9,0.7-1.6,1.2-2.3c0.5-0.7,1.2-1.2,2-1.5c0.8-0.4,1.8-0.5,2.8-0.5c0.8,0,1.6,0.1,2.3,0.4
		c0.7,0.3,1.4,0.6,1.9,1.1c0.6,0.5,1,1.1,1.3,1.8c0.3,0.7,0.5,1.5,0.5,2.3c0,0.9-0.1,1.7-0.4,2.3c-0.3,0.6-0.7,1.2-1.1,1.7
		c-0.5,0.5-1,1-1.6,1.4c-0.6,0.4-1.2,0.8-1.8,1.2c-0.6,0.4-1.2,0.8-1.8,1.3c-0.6,0.5-1.1,1-1.5,1.6h8.4v3.1h-13c0-1,0.1-1.9,0.4-2.7
		c0.3-0.8,0.7-1.4,1.2-2c0.5-0.6,1.1-1.2,1.8-1.7c0.7-0.5,1.4-1,2.2-1.5c0.4-0.3,0.8-0.5,1.2-0.8c0.4-0.3,0.8-0.6,1.2-0.9
		c0.4-0.3,0.7-0.7,0.9-1.1c0.2-0.4,0.4-0.9,0.4-1.4c0-0.9-0.2-1.5-0.7-2c-0.5-0.5-1.1-0.7-1.9-0.7c-0.5,0-1,0.1-1.3,0.4
		c-0.4,0.2-0.7,0.6-0.9,1c-0.2,0.4-0.4,0.8-0.5,1.3c-0.1,0.5-0.1,1-0.1,1.4h-3.5C13.1,16.9,13.3,16,13.5,15.1z"/>
	<path class="st0" d="M33.4,18.3c0.4,0,0.8-0.1,1.2-0.3c0.4-0.2,0.7-0.4,0.9-0.7c0.2-0.3,0.4-0.7,0.4-1.2c0-0.8-0.3-1.3-0.8-1.8
		c-0.5-0.4-1.1-0.6-1.8-0.6c-0.9,0-1.6,0.3-2.1,0.9c-0.5,0.6-0.7,1.4-0.7,2.3h-3.4c0-0.9,0.2-1.7,0.5-2.5c0.3-0.8,0.7-1.4,1.2-1.9
		s1.2-1,1.9-1.3c0.7-0.3,1.6-0.4,2.5-0.4c0.7,0,1.4,0.1,2.1,0.3c0.7,0.2,1.3,0.5,1.9,1c0.6,0.4,1,0.9,1.4,1.5
		c0.4,0.6,0.5,1.3,0.5,2.1c0,0.9-0.2,1.6-0.6,2.3c-0.4,0.7-1,1.1-1.9,1.3v0.1c1,0.2,1.8,0.7,2.3,1.4c0.6,0.7,0.8,1.6,0.8,2.6
		c0,0.9-0.2,1.8-0.5,2.5c-0.4,0.7-0.9,1.3-1.5,1.8c-0.6,0.5-1.3,0.9-2.1,1.1c-0.8,0.3-1.6,0.4-2.5,0.4c-1,0-1.9-0.1-2.7-0.4
		c-0.8-0.3-1.5-0.7-2.1-1.3c-0.6-0.6-1-1.2-1.3-2c-0.3-0.8-0.5-1.7-0.4-2.7h3.4c0,0.5,0.1,0.9,0.2,1.4c0.1,0.4,0.3,0.8,0.6,1.1
		c0.3,0.3,0.6,0.6,1,0.7c0.4,0.2,0.8,0.3,1.4,0.3c0.8,0,1.5-0.2,2.1-0.7c0.6-0.5,0.8-1.2,0.8-2c0-0.7-0.1-1.2-0.4-1.5
		c-0.3-0.4-0.6-0.6-1-0.8c-0.4-0.2-0.8-0.3-1.3-0.3c-0.5,0-0.9,0-1.4,0v-2.5C32.5,18.3,32.9,18.3,33.4,18.3z"/>
</g>
</svg>
