<?xml version="1.0" encoding="utf-8"?>
<!-- Generator: Adobe Illustrator 18.0.0, SVG Export Plug-In . SVG Version: 6.00 Build 0)  -->
<!DOCTYPE svg PUBLIC "-//W3C//DTD SVG 1.1//EN" "http://www.w3.org/Graphics/SVG/1.1/DTD/svg11.dtd">
<svg version="1.1" id="Layer_1" xmlns="http://www.w3.org/2000/svg" xmlns:xlink="http://www.w3.org/1999/xlink" x="0px" y="0px"
	 viewBox="0 0 40 40" style="enable-background:new 0 0 40 40;" xml:space="preserve">
<style type="text/css">
	.st0{fill:#374654;}
	.st1{fill:#126AD9;}
	.st2{fill:#F0F0F0;}
	.st3{clip-path:url(#SVGID_2_);fill:#C8C8C8;}
	.st4{clip-path:url(#SVGID_4_);fill:#C8C8C8;}
	.st5{fill:#FF432F;}
	.st6{fill:#FFFFFF;}
	.st7{fill:none;}
	.st8{fill:#0857AF;}
	.st9{fill-rule:evenodd;clip-rule:evenodd;fill:#009540;}
	.st10{fill-rule:evenodd;clip-rule:evenodd;fill:#AEC90B;}
	.st11{fill-rule:evenodd;clip-rule:evenodd;fill:#FFD900;}
	.st12{fill-rule:evenodd;clip-rule:evenodd;fill:#FFFFFF;}
	.st13{fill-rule:evenodd;clip-rule:evenodd;fill:#EF3E42;}
	.st14{fill-rule:evenodd;clip-rule:evenodd;fill:#00546D;}
	.st15{fill-rule:evenodd;clip-rule:evenodd;fill:#1D1D1B;}
	.st16{fill-rule:evenodd;clip-rule:evenodd;fill:#006BB6;}
	.st17{fill-rule:evenodd;clip-rule:evenodd;fill:#E53212;}
	.st18{fill-rule:evenodd;clip-rule:evenodd;fill:#CC3B25;}
	.st19{fill-rule:evenodd;clip-rule:evenodd;fill:#373E8A;}
	.st20{fill:#89B5EC;}
	.st21{fill:#DADADA;}
	.st22{fill:#3856C1;}
	.st23{fill:#EFC822;}
	.st24{fill:#0023A0;}
	.st25{fill:#DCDCDC;}
	.st26{fill:#231F20;}
	.st27{fill-rule:evenodd;clip-rule:evenodd;fill:#C2C2C2;}
	.st28{fill-rule:evenodd;clip-rule:evenodd;fill:#A3A3A3;}
	.st29{fill-rule:evenodd;clip-rule:evenodd;fill:#A5A5A5;}
	.st30{fill-rule:evenodd;clip-rule:evenodd;fill:#B4B4B4;}
	.st31{fill-rule:evenodd;clip-rule:evenodd;fill:#BEBEBE;}
	.st32{fill-rule:evenodd;clip-rule:evenodd;fill:#C4C4C4;}
	.st33{fill-rule:evenodd;clip-rule:evenodd;fill:#999999;}
	.st34{fill-rule:evenodd;clip-rule:evenodd;fill:#8D8D8D;}
	.st35{fill-rule:evenodd;clip-rule:evenodd;fill:#EC1C24;}
	.st36{fill-rule:evenodd;clip-rule:evenodd;fill:#FFF100;}
	.st37{fill-rule:evenodd;clip-rule:evenodd;fill:#C3C3C3;}
	.st38{fill:#C8C8C8;}
</style>
<g>
	<path class="st6" d="M37.5,11L37.5,11c-0.8,0-1.3-0.5-1.3-1.2V1.9V1.5C36,0.6,35.3,0,34.5,0h-0.5c-0.9,0-1.6,0.6-1.7,1.5v0.5v7.8
		c0,0.7-0.5,1.2-1.2,1.2h-0.1c-0.8,0.1-1.5,0.8-1.5,1.7v0.5c0,0.9,0.6,1.6,1.5,1.7H31c0.7,0,1.2,0.5,1.2,1.2v22v0.5
		c0.1,0.8,0.8,1.5,1.7,1.5h0.5c0.9,0,1.6-0.6,1.7-1.5v-0.5V16.1c0-0.7,0.5-1.2,1.2-1.2h0.1c0.8-0.1,1.5-0.8,1.5-1.7v-0.5
		C38.9,11.8,38.3,11.1,37.5,11z"/>
	<path class="st6" d="M23,25.1L23,25.1c-0.8,0-1.3-0.5-1.3-1.2V1.9V1.5C21.6,0.6,20.9,0,20,0h-0.5c-0.9,0-1.6,0.6-1.7,1.5v0.5v21.9
		c0,0.7-0.5,1.2-1.2,1.2h-0.1c-0.8,0.1-1.5,0.8-1.5,1.7v0.5c0,0.9,0.6,1.6,1.5,1.7h0.1c0.7,0,1.2,0.5,1.2,1.2v7.8v0.5
		c0.1,0.8,0.8,1.5,1.7,1.5H20c0.9,0,1.6-0.6,1.7-1.5v-0.5v-7.8c0-0.7,0.5-1.2,1.2-1.2H23c0.8-0.1,1.5-0.8,1.5-1.7v-0.5
		C24.5,25.9,23.9,25.2,23,25.1z"/>
	<path class="st6" d="M9.1,11L9.1,11c-0.8,0-1.3-0.5-1.3-1.2V1.9V1.5C7.6,0.6,6.9,0,6.1,0H5.5C4.7,0,4,0.6,3.9,1.5v0.5v7.8
		c0,0.7-0.5,1.2-1.2,1.2H2.5c-0.8,0.1-1.5,0.8-1.5,1.7v0.5c0,0.9,0.6,1.6,1.5,1.7h0.1c0.7,0,1.2,0.5,1.2,1.2v22v0.5
		C4,39.4,4.7,40,5.5,40h0.5c0.9,0,1.6-0.6,1.7-1.5v-0.5V16.1c0-0.7,0.5-1.2,1.2-1.2H9c0.8-0.1,1.5-0.8,1.5-1.7v-0.5
		C10.5,11.8,9.9,11.1,9.1,11z"/>
</g>
</svg>
