<?xml version="1.0" encoding="utf-8"?>
<!-- Generator: Adobe Illustrator 18.0.0, SVG Export Plug-In . SVG Version: 6.00 Build 0)  -->
<!DOCTYPE svg PUBLIC "-//W3C//DTD SVG 1.1//EN" "http://www.w3.org/Graphics/SVG/1.1/DTD/svg11.dtd">
<svg version="1.1" id="Layer_1" xmlns="http://www.w3.org/2000/svg" xmlns:xlink="http://www.w3.org/1999/xlink" x="0px" y="0px"
	 viewBox="0 0 160 50" style="enable-background:new 0 0 160 50;" xml:space="preserve">
<style type="text/css">
	.st0{fill:#374654;}
	.st1{fill:#126AD9;}
	.st2{fill:#F0F0F0;}
	.st3{clip-path:url(#SVGID_2_);fill:#C8C8C8;}
	.st4{clip-path:url(#SVGID_4_);fill:#C8C8C8;}
	.st5{fill:#FF432F;}
	.st6{fill:#FFFFFF;}
	.st7{fill:none;}
	.st8{fill:#0857AF;}
	.st9{fill-rule:evenodd;clip-rule:evenodd;fill:#009540;}
	.st10{fill-rule:evenodd;clip-rule:evenodd;fill:#AEC90B;}
	.st11{fill-rule:evenodd;clip-rule:evenodd;fill:#FFD900;}
	.st12{fill-rule:evenodd;clip-rule:evenodd;fill:#FFFFFF;}
	.st13{fill-rule:evenodd;clip-rule:evenodd;fill:#EF3E42;}
	.st14{fill-rule:evenodd;clip-rule:evenodd;fill:#00546D;}
	.st15{fill-rule:evenodd;clip-rule:evenodd;fill:#1D1D1B;}
	.st16{fill-rule:evenodd;clip-rule:evenodd;fill:#006BB6;}
	.st17{fill-rule:evenodd;clip-rule:evenodd;fill:#E53212;}
	.st18{fill-rule:evenodd;clip-rule:evenodd;fill:#CC3B25;}
	.st19{fill-rule:evenodd;clip-rule:evenodd;fill:#373E8A;}
	.st20{fill:#89B5EC;}
	.st21{fill:#DADADA;}
	.st22{fill:#3856C1;}
	.st23{fill:#EFC822;}
	.st24{fill:#0023A0;}
	.st25{fill:#DCDCDC;}
</style>
<g>
	<path class="st18" d="M53.6,31.1c0-10.2,8.3-18.5,18.5-18.5c10.2,0,18.5,8.3,18.5,18.5c0,10.2-8.3,18.5-18.5,18.5
		C61.8,49.6,53.6,41.3,53.6,31.1L53.6,31.1L53.6,31.1L53.6,31.1z M72,39.3c4.5,0,8.2-3.7,8.2-8.2c0-4.5-3.7-8.2-8.2-8.2
		c-4.5,0-8.2,3.7-8.2,8.2C63.8,35.6,67.5,39.3,72,39.3L72,39.3L72,39.3L72,39.3z"/>
	<polygon class="st19" points="0,0.2 15.5,0.2 24.3,30.3 33.3,0.2 48.2,0.2 48.2,48.3 38.3,48.3 38.3,14.8 28.4,48.3 19.4,48.3 
		10.1,14.6 10.1,48.4 0,48.4 0,0.2 0,0.2 	"/>
	<polygon class="st19" points="93.8,0.2 103.7,0.2 103.7,48.3 93.8,48.3 93.8,0.2 93.8,0.2 	"/>
	<path class="st19" d="M96.6,31.3c0-10.2,7.7-18.5,17.3-18.5c9.5,0,17.3,8.3,17.3,18.5c0,10.2-7.7,18.5-17.3,18.5
		C104.3,49.7,96.6,41.5,96.6,31.3L96.6,31.3L96.6,31.3L96.6,31.3z M112.7,39.5c4.5,0,8.2-3.7,8.2-8.2c0-4.5-3.7-8.2-8.2-8.2
		c-4.5,0-8.2,3.7-8.2,8.2C104.5,35.9,108.2,39.5,112.7,39.5L112.7,39.5L112.7,39.5L112.7,39.5z"/>
	<polygon class="st19" points="150.1,0.2 160,0.2 160,48.3 150.1,48.3 150.1,0.2 150.1,0.2 	"/>
	<polygon class="st19" points="134.9,12.7 144.8,12.7 144.8,48.4 134.9,48.4 134.9,12.7 134.9,12.7 	"/>
	<polygon class="st19" points="144.9,10.1 144.9,0 134.8,0 134.8,10.1 144.9,10.1 144.9,10.1 	"/>
</g>
</svg>
