<?xml version="1.0" encoding="utf-8"?>
<!-- Generator: Adobe Illustrator 18.0.0, SVG Export Plug-In . SVG Version: 6.00 Build 0)  -->
<!DOCTYPE svg PUBLIC "-//W3C//DTD SVG 1.1//EN" "http://www.w3.org/Graphics/SVG/1.1/DTD/svg11.dtd">
<svg version="1.1" id="Layer_1" xmlns="http://www.w3.org/2000/svg" xmlns:xlink="http://www.w3.org/1999/xlink" x="0px" y="0px"
	 viewBox="0 0 90 90" style="enable-background:new 0 0 90 90;" xml:space="preserve">
<style type="text/css">
	.st0{fill:#374654;}
	.st1{fill:#126AD9;}
	.st2{fill:#F0F0F0;}
	.st3{clip-path:url(#SVGID_2_);fill:#C8C8C8;}
	.st4{clip-path:url(#SVGID_4_);fill:#C8C8C8;}
	.st5{fill:#FF432F;}
	.st6{fill:#FFFFFF;}
	.st7{fill:none;}
	.st8{fill:#0857AF;}
	.st9{fill-rule:evenodd;clip-rule:evenodd;fill:#009540;}
	.st10{fill-rule:evenodd;clip-rule:evenodd;fill:#AEC90B;}
	.st11{fill-rule:evenodd;clip-rule:evenodd;fill:#FFD900;}
	.st12{fill-rule:evenodd;clip-rule:evenodd;fill:#FFFFFF;}
	.st13{fill-rule:evenodd;clip-rule:evenodd;fill:#EF3E42;}
	.st14{fill-rule:evenodd;clip-rule:evenodd;fill:#00546D;}
	.st15{fill-rule:evenodd;clip-rule:evenodd;fill:#1D1D1B;}
	.st16{fill-rule:evenodd;clip-rule:evenodd;fill:#006BB6;}
	.st17{fill-rule:evenodd;clip-rule:evenodd;fill:#E53212;}
	.st18{fill-rule:evenodd;clip-rule:evenodd;fill:#CC3B25;}
	.st19{fill-rule:evenodd;clip-rule:evenodd;fill:#373E8A;}
	.st20{fill:#89B5EC;}
	.st21{fill:#DADADA;}
	.st22{fill:#3856C1;}
	.st23{fill:#EFC822;}
	.st24{fill:#0023A0;}
	.st25{fill:#DCDCDC;}
	.st26{fill:#231F20;}
	.st27{fill-rule:evenodd;clip-rule:evenodd;fill:#C2C2C2;}
	.st28{fill-rule:evenodd;clip-rule:evenodd;fill:#A3A3A3;}
	.st29{fill-rule:evenodd;clip-rule:evenodd;fill:#A5A5A5;}
	.st30{fill-rule:evenodd;clip-rule:evenodd;fill:#B4B4B4;}
	.st31{fill-rule:evenodd;clip-rule:evenodd;fill:#BEBEBE;}
	.st32{fill-rule:evenodd;clip-rule:evenodd;fill:#C4C4C4;}
	.st33{fill-rule:evenodd;clip-rule:evenodd;fill:#999999;}
	.st34{fill-rule:evenodd;clip-rule:evenodd;fill:#8D8D8D;}
	.st35{fill-rule:evenodd;clip-rule:evenodd;fill:#EC1C24;}
	.st36{fill-rule:evenodd;clip-rule:evenodd;fill:#FFF100;}
	.st37{fill-rule:evenodd;clip-rule:evenodd;fill:#C3C3C3;}
	.st38{fill:#C8C8C8;}
</style>
<g>
	<path class="st9" d="M44.9,53.3L44.9,53.3L44.9,53.3L44.9,53.3L44.9,53.3L44.9,53.3L44.9,53.3L44.9,53.3L44.9,53.3L44.9,53.3
		L44.9,53.3L44.9,53.3L44.9,53.3L44.9,53.3L44.9,53.3L44.9,53.3L44.9,53.3L44.9,53.3L44.9,53.3L44.9,53.3L44.9,53.3L44.9,53.3
		L44.9,53.3L44.9,53.3L44.9,53.3L44.9,53.3L44.9,53.3L44.9,53.3L44.9,53.3L44.9,53.3L44.9,53.3L44.9,53.3L44.9,53.3L44.9,53.3
		L44.9,53.3L44.9,53.3L44.9,53.3L44.9,53.3C44.9,53.3,44.9,53.3,44.9,53.3C44.9,53.3,44.9,53.3,44.9,53.3L44.9,53.3
		C44.9,53.3,44.9,53.3,44.9,53.3C44.9,53.3,44.9,53.3,44.9,53.3L44.9,53.3L44.9,53.3L44.9,53.3L44.9,53.3L44.9,53.3L44.9,53.3
		L44.9,53.3L44.9,53.3L44.9,53.3L44.9,53.3L44.9,53.3z M34.6,35.3c0.1-2.8,0.7-5.3,1.2-7.1c1.6,1,3.6,2.6,5.5,4.7
		c1.1-2.6,2.5-4.8,3.6-6.3c1.1,1.5,2.5,3.7,3.6,6.3c1.9-2,3.9-3.6,5.5-4.7c0.6,1.8,1.1,4.3,1.2,7.1c2.5-1.3,4.9-2.1,6.8-2.5
		c-0.1,1.9-0.5,4.4-1.3,7.1c2.8-0.3,5.3-0.3,7.2,0c-0.7,1.7-1.9,4-3.6,6.3c2.7,0.6,5.1,1.6,6.8,2.5c-1.3,1.4-3.2,3.1-5.5,4.6
		c2.3,1.5,4.3,3.3,5.5,4.6c-1.7,0.9-4.1,1.8-6.8,2.5c1.7,2.2,2.9,4.5,3.6,6.3c-1.9,0.2-4.4,0.3-7.2,0c0.8,2.7,1.2,5.2,1.3,7.1
		c-1.8-0.4-4.3-1.2-6.8-2.5c-0.1,2.8-0.7,5.3-1.2,7.1c-1.6-1-3.6-2.6-5.5-4.7c-1.1,2.6-2.5,4.8-3.6,6.3c-1.1-1.5-2.5-3.7-3.6-6.3
		c-1.9,2-3.9,3.6-5.5,4.7c-0.6-1.8-1.1-4.3-1.2-7.1c-2.5,1.3-4.9,2.1-6.8,2.5c0.1-1.9,0.5-4.4,1.3-7.1c-2.8,0.3-5.3,0.3-7.2,0
		c0.7-1.7,1.9-4,3.6-6.3c-2.7-0.6-5.1-1.6-6.8-2.5c1.3-1.4,3.2-3.1,5.5-4.6c-2.3-1.5-4.3-3.3-5.5-4.6c1.7-0.9,4.1-1.8,6.8-2.5
		c-1.7-2.2-2.9-4.5-3.6-6.3c1.9-0.2,4.4-0.3,7.2,0c-0.8-2.7-1.2-5.2-1.3-7.1C29.7,33.2,32.1,34,34.6,35.3L34.6,35.3z M44.9,53.3
		L44.9,53.3L44.9,53.3L44.9,53.3z"/>
	<path class="st10" d="M44.9,53.3L44.9,53.3L44.9,53.3L44.9,53.3L44.9,53.3L44.9,53.3L44.9,53.3C44.9,53.3,44.9,53.3,44.9,53.3
		L44.9,53.3L44.9,53.3L44.9,53.3C44.9,53.3,44.9,53.3,44.9,53.3C44.9,53.3,44.9,53.3,44.9,53.3C44.9,53.3,44.9,53.3,44.9,53.3
		L44.9,53.3L44.9,53.3L44.9,53.3C44.9,53.3,44.9,53.3,44.9,53.3C44.9,53.3,44.9,53.3,44.9,53.3L44.9,53.3L44.9,53.3L44.9,53.3
		L44.9,53.3C44.9,53.3,44.9,53.3,44.9,53.3C44.9,53.3,44.9,53.3,44.9,53.3C44.9,53.3,44.9,53.3,44.9,53.3L44.9,53.3L44.9,53.3
		L44.9,53.3C44.9,53.3,44.9,53.3,44.9,53.3C44.9,53.3,44.9,53.3,44.9,53.3L44.9,53.3L44.9,53.3L44.9,53.3L44.9,53.3L44.9,53.3
		L44.9,53.3L44.9,53.3z M29.7,56c-2-0.7-3.8-1.6-5.5-2.7c1.6-1.1,3.5-2,5.5-2.7c-1.6-1.3-3-2.8-4.2-4.4c1.9-0.4,4-0.7,6-0.7
		c-1.1-1.8-1.9-3.7-2.5-5.6c1.9,0.2,4,0.7,5.9,1.5c-0.4-2.1-0.5-4.1-0.4-6.1c1.7,0.9,3.5,2,5,3.4c0.3-2.1,0.9-4.1,1.7-5.9
		c1.3,1.4,2.6,3.1,3.6,4.9c1-1.8,2.3-3.5,3.6-4.9c0.8,1.8,1.4,3.8,1.7,5.9c1.6-1.4,3.3-2.5,5-3.4c0.1,2,0,4-0.4,6.1
		c1.9-0.8,4-1.2,5.9-1.5c-0.6,1.9-1.4,3.8-2.5,5.6c2.1-0.1,4.1,0.2,6,0.7c-1.2,1.6-2.6,3.1-4.2,4.4c2,0.7,3.8,1.6,5.5,2.7
		c-1.6,1.1-3.5,2-5.5,2.7c1.6,1.3,3,2.8,4.2,4.4c-1.9,0.4-4,0.7-6,0.7c1.1,1.8,1.9,3.7,2.5,5.6c-1.9-0.2-4-0.7-5.9-1.5
		c0.4,2.1,0.5,4.1,0.4,6.1c-1.7-0.9-3.5-2-5-3.4c-0.3,2.1-0.9,4.1-1.7,5.9c-1.3-1.4-2.6-3.1-3.6-4.9c-1,1.8-2.3,3.5-3.6,4.9
		c-0.8-1.8-1.4-3.8-1.7-5.9c-1.6,1.4-3.3,2.5-5,3.4c-0.1-2,0-4,0.4-6.1c-1.9,0.8-4,1.2-5.9,1.5c0.6-1.9,1.4-3.8,2.5-5.6
		c-2.1,0.1-4.1-0.2-6-0.7C26.7,58.8,28.1,57.3,29.7,56L29.7,56z"/>
	<path class="st11" d="M44.9,53.3L44.9,53.3L44.9,53.3L44.9,53.3L44.9,53.3z M44.9,53.3L44.9,53.3C44.9,53.3,44.9,53.3,44.9,53.3
		L44.9,53.3L44.9,53.3L44.9,53.3L44.9,53.3L44.9,53.3C44.9,53.3,44.9,53.3,44.9,53.3C44.9,53.3,44.9,53.3,44.9,53.3
		C44.9,53.3,44.9,53.3,44.9,53.3L44.9,53.3L44.9,53.3z M44.9,53.3L44.9,53.3C44.9,53.3,44.9,53.3,44.9,53.3L44.9,53.3L44.9,53.3
		C44.9,53.3,44.9,53.3,44.9,53.3C44.9,53.3,44.9,53.3,44.9,53.3C44.9,53.3,44.9,53.3,44.9,53.3C44.9,53.3,44.9,53.3,44.9,53.3
		C44.9,53.3,44.9,53.3,44.9,53.3C44.9,53.3,44.9,53.3,44.9,53.3L44.9,53.3L44.9,53.3L44.9,53.3L44.9,53.3
		C44.9,53.3,44.9,53.3,44.9,53.3L44.9,53.3C44.9,53.3,44.9,53.3,44.9,53.3L44.9,53.3L44.9,53.3L44.9,53.3z M44.9,53.3L44.9,53.3
		L44.9,53.3L44.9,53.3z M43.1,42.8c0.3-1.8,1-3.5,1.8-5.1c0.8,1.6,1.5,3.3,1.8,5.1c0.9-1.6,2.1-2.9,3.4-4.1c0.3,1.8,0.3,3.6,0,5.4
		c1.4-1.2,3-2,4.6-2.7c-0.4,1.7-0.9,3.5-1.8,5.1c1.7-0.6,3.5-0.9,5.3-0.9c-0.9,1.5-2.1,2.9-3.4,4.1c1.8,0,3.6,0.4,5.3,0.9
		c-1.4,1.1-2.9,2-4.6,2.7c1.7,0.6,3.3,1.6,4.6,2.7c-1.7,0.6-3.4,0.9-5.3,0.9c1.4,1.2,2.5,2.6,3.4,4.1c-1.8,0-3.6-0.3-5.3-0.9
		c0.9,1.6,1.5,3.3,1.8,5.1c-1.6-0.6-3.2-1.5-4.6-2.7c0.3,1.8,0.3,3.6,0,5.4c-1.3-1.2-2.5-2.5-3.4-4.1c-0.3,1.8-1,3.5-1.8,5.1
		c-0.8-1.6-1.5-3.3-1.8-5.1c-0.9,1.6-2.1,2.9-3.4,4.1c-0.3-1.8-0.3-3.6,0-5.4c-1.4,1.2-3,2-4.6,2.7c0.4-1.7,0.9-3.5,1.8-5.1
		c-1.7,0.6-3.5,0.9-5.3,0.9c0.9-1.5,2.1-2.9,3.4-4.1c-1.8,0-3.6-0.4-5.3-0.9c1.4-1.1,2.9-2,4.6-2.7c-1.7-0.6-3.3-1.6-4.6-2.7
		c1.7-0.6,3.4-0.9,5.3-0.9c-1.4-1.2-2.5-2.6-3.4-4.1c1.8,0,3.6,0.3,5.3,0.9c-0.9-1.6-1.5-3.3-1.8-5.1c1.6,0.6,3.2,1.5,4.6,2.7
		c-0.3-1.8-0.3-3.6,0-5.4C41,39.9,42.2,41.2,43.1,42.8L43.1,42.8z M44.9,53.3L44.9,53.3L44.9,53.3z"/>
	<path class="st12" d="M43.1,48.2c-0.3-1.9-0.3-3.6,0-5.3c0.9,1.5,1.5,3.1,1.8,5c0.3-1.9,1-3.5,1.8-5c0.3,1.7,0.4,3.5,0,5.3
		c0.9-1.6,2.1-3,3.4-4.1c-0.3,1.7-0.8,3.4-1.8,5c1.4-1.2,3-2.1,4.6-2.6c-0.8,1.5-1.9,2.9-3.4,4.1c1.8-0.7,3.5-0.9,5.2-0.9
		c-1.3,1.1-2.8,2-4.6,2.7c1.9,0,3.6,0.3,5.2,0.9c-1.6,0.6-3.3,1-5.2,0.9c1.8,0.6,3.3,1.6,4.6,2.7c-1.7,0-3.5-0.2-5.2-0.9
		c1.4,1.2,2.6,2.6,3.4,4.1c-1.6-0.6-3.2-1.4-4.6-2.6c0.9,1.6,1.5,3.3,1.8,5c-1.3-1.1-2.5-2.4-3.4-4.1c0.3,1.9,0.3,3.6,0,5.3
		c-0.9-1.5-1.5-3.1-1.8-5c-0.3,1.9-1,3.5-1.8,5c-0.3-1.7-0.4-3.5,0-5.3c-0.9,1.6-2.1,3-3.4,4.1c0.3-1.7,0.8-3.4,1.8-5
		c-1.4,1.2-3,2.1-4.6,2.6c0.8-1.5,1.9-2.9,3.4-4.1c-1.8,0.7-3.5,0.9-5.2,0.9c1.3-1.1,2.8-2,4.6-2.7c-1.9,0-3.6-0.3-5.2-0.9
		c1.6-0.6,3.3-1,5.2-0.9c-1.8-0.6-3.3-1.6-4.6-2.7c1.7,0,3.5,0.2,5.2,0.9c-1.4-1.2-2.6-2.6-3.4-4.1c1.6,0.6,3.2,1.4,4.6,2.6
		c-0.9-1.6-1.5-3.3-1.8-5C41,45.2,42.1,46.5,43.1,48.2L43.1,48.2z"/>
	<path class="st9" d="M52,10v13h1.9v-1.3c0.8,1.1,1.7,1.6,3,1.6c2.4,0,4.1-1.9,4.1-5c0-3.2-1.7-5.1-4.1-5.1c-1.3,0-2.3,0.5-3,1.6V10
		H52L52,10z M56.4,15c1.5,0,2.5,1.2,2.5,3.4c0,2.1-1,3.2-2.5,3.2c-1.6,0-2.5-1.1-2.5-3.3C53.9,16.1,54.8,15,56.4,15L56.4,15z"/>
	<path class="st9" d="M66.7,15c1.5,0,2.5,1.2,2.5,3.3c0,2.2-1,3.4-2.5,3.4c-1.6,0-2.5-1.1-2.5-3.2C64.2,16.1,65.1,15,66.7,15
		L66.7,15z M64.2,21.9c0.7,1,1.7,1.5,3,1.5c2.3,0,4.1-1.9,4.1-5.1c0-3.1-1.7-5-4.1-5c-1.3,0-2.2,0.5-3,1.7v-1.3h-1.9v13.4h2V21.9
		L64.2,21.9z"/>
</g>
</svg>
