<?xml version="1.0" encoding="utf-8"?>
<!-- Generator: Adobe Illustrator 18.0.0, SVG Export Plug-In . SVG Version: 6.00 Build 0)  -->
<!DOCTYPE svg PUBLIC "-//W3C//DTD SVG 1.1//EN" "http://www.w3.org/Graphics/SVG/1.1/DTD/svg11.dtd">
<svg version="1.1" id="Layer_1" xmlns="http://www.w3.org/2000/svg" xmlns:xlink="http://www.w3.org/1999/xlink" x="0px" y="0px"
	 viewBox="0 0 140 100" style="enable-background:new 0 0 140 100;" xml:space="preserve">
<style type="text/css">
	.st0{fill:#374654;}
	.st1{fill:#126AD9;}
	.st2{fill:#F0F0F0;}
	.st3{clip-path:url(#SVGID_2_);fill:#C8C8C8;}
	.st4{clip-path:url(#SVGID_4_);fill:#C8C8C8;}
	.st5{fill:#FF432F;}
	.st6{fill:#FFFFFF;}
	.st7{fill:none;}
	.st8{fill:#0857AF;}
	.st9{fill-rule:evenodd;clip-rule:evenodd;fill:#009540;}
	.st10{fill-rule:evenodd;clip-rule:evenodd;fill:#AEC90B;}
	.st11{fill-rule:evenodd;clip-rule:evenodd;fill:#FFD900;}
	.st12{fill-rule:evenodd;clip-rule:evenodd;fill:#FFFFFF;}
	.st13{fill-rule:evenodd;clip-rule:evenodd;fill:#EF3E42;}
	.st14{fill-rule:evenodd;clip-rule:evenodd;fill:#00546D;}
	.st15{fill-rule:evenodd;clip-rule:evenodd;fill:#1D1D1B;}
	.st16{fill-rule:evenodd;clip-rule:evenodd;fill:#006BB6;}
	.st17{fill-rule:evenodd;clip-rule:evenodd;fill:#E53212;}
	.st18{fill-rule:evenodd;clip-rule:evenodd;fill:#CC3B25;}
	.st19{fill-rule:evenodd;clip-rule:evenodd;fill:#373E8A;}
	.st20{fill:#89B5EC;}
	.st21{fill:#DADADA;}
	.st22{fill:#3856C1;}
	.st23{fill:#EFC822;}
	.st24{fill:#0023A0;}
	.st25{fill:#DCDCDC;}
</style>
<g>
	<path class="st16" d="M11.1,49.1c0-21.1,26.3-38.2,58.8-38.2c32.5,0,58.8,17.1,58.8,38.2c0,21.1-26.3,38.2-58.8,38.2
		C37.4,87.3,11.1,70.2,11.1,49.1L11.1,49.1z M70,97.9c38.7,0,70-21.9,70-48.9C140,21.9,108.7,0,70,0C31.3,0,0,21.9,0,48.9
		C0,75.9,31.3,97.9,70,97.9L70,97.9z"/>
	<path class="st17" d="M46.4,27l-0.5,6.8c-2.8-0.7-6-2.4-9-0.9c-2.2,1.1-2.2,3.7-1.5,5.4c1.8,3.1,5.9,2.7,9.2,2.7c0,2,0,4,0,5.9
		c-2,0-4.2,0.1-6.2,0.6c-1,0.3-2.3,0.8-2.7,1.3c-0.6,0.6-1.1,1.7-1.1,2.8c-0.1,0.8,0.1,1.8,0.5,2.3c2.4,3.2,7.2,1.5,10.2,0.9l0.9,7
		c-3.9,1.7-9.1,2.3-13.6,1.1c-1.4-0.4-2.5-0.8-3.8-1.7c-1.6-1.3-2.8-2.8-3.5-4.5c-0.8-2-1-4.2-0.4-6.6c0.7-2.9,3.2-5,5.7-6.3
		c-2.5-1.5-4.2-3.2-5.1-5.7c-0.5-1.8-0.4-3.6,0.1-5.3c0.3-1.1,0.5-1.8,1.4-3.1c1.2-1.8,3.6-3.2,5.9-3.9c3.2-0.9,6.7-0.8,10,0
		C44.8,26.2,45.1,26.5,46.4,27L46.4,27z M110.4,33.8c-4.4-0.5-10.6-1-13.2,3.9c-3.2,5.8-3,14.3-0.6,20.4c1.3,2.6,4,4.3,6.6,5.1
		c5,0.9,10.4,0.3,13.2-4.2c3.1-5.9,3.3-14.7,0.3-20.7C115.5,35.9,113,34.2,110.4,33.8L110.4,33.8z M110.4,43.1c1,3,1,8.1-0.1,11.1
		c-1,2.3-2.9,2.6-4.6,2.1c-0.9-0.4-1.8-1.3-2.3-2.6c-0.8-3.1-0.9-8.1,0.2-11c0.9-2.5,3.1-2.2,4.6-2C109.2,41,110,41.9,110.4,43.1
		L110.4,43.1z M54.3,34.4c-3.5,1.7-5.1,5.2-4.8,9c0,6.1,7.5,6.5,11.1,10.2c0.7,1.1,0,2.5-1,2.9c-3.2,1.5-6.9-0.8-9.8-2.3l0.3,7.5
		c4.3,1.9,10.7,2.9,15,0.2c2.9-1.8,4.3-4.7,4.5-7.8c0-6.9-7.5-7.6-11.8-10.4c-0.6-0.3-0.5-1.2-0.4-1.8c0.2-0.6,0.5-1.2,1.2-1.4
		c3.7-1.1,7,0.6,9.9,2.1l-0.3-7.2C64.1,33.9,58.7,32.6,54.3,34.4L54.3,34.4z M77.2,34.4c-3.5,1.7-5.1,5.2-4.8,9
		c0,6.1,7.5,6.5,11.1,10.2c0.7,1.1,0,2.5-1,2.9c-3.2,1.5-6.9-0.8-9.8-2.3l0.3,7.5c4.3,1.9,10.7,2.9,15,0.2c2.9-1.8,4.3-4.7,4.5-7.8
		c0-6.9-7.5-7.6-11.8-10.4c-0.5-0.4-0.6-1.3-0.4-1.8c0.2-0.5,0.7-1.2,1.2-1.3c3.7-1.1,6.9,0.6,9.8,2.1L91,35.6
		C87,33.9,81.6,32.6,77.2,34.4L77.2,34.4z"/>
</g>
</svg>
