<?xml version="1.0" encoding="utf-8"?>
<!-- Generator: Adobe Illustrator 18.0.0, SVG Export Plug-In . SVG Version: 6.00 Build 0)  -->
<!DOCTYPE svg PUBLIC "-//W3C//DTD SVG 1.1//EN" "http://www.w3.org/Graphics/SVG/1.1/DTD/svg11.dtd">
<svg version="1.1" id="Layer_1" xmlns="http://www.w3.org/2000/svg" xmlns:xlink="http://www.w3.org/1999/xlink" x="0px" y="0px"
	 viewBox="0 0 204 60" style="enable-background:new 0 0 204 60;" xml:space="preserve">
<style type="text/css">
	.st0{fill:#374654;}
	.st1{fill:#126AD9;}
	.st2{fill:#F0F0F0;}
	.st3{clip-path:url(#SVGID_2_);fill:#C8C8C8;}
	.st4{clip-path:url(#SVGID_4_);fill:#C8C8C8;}
	.st5{fill:#FF432F;}
	.st6{fill:#FFFFFF;}
	.st7{fill:none;}
	.st8{fill:#0857AF;}
	.st9{fill-rule:evenodd;clip-rule:evenodd;fill:#009540;}
	.st10{fill-rule:evenodd;clip-rule:evenodd;fill:#AEC90B;}
	.st11{fill-rule:evenodd;clip-rule:evenodd;fill:#FFD900;}
	.st12{fill-rule:evenodd;clip-rule:evenodd;fill:#FFFFFF;}
	.st13{fill-rule:evenodd;clip-rule:evenodd;fill:#EF3E42;}
	.st14{fill-rule:evenodd;clip-rule:evenodd;fill:#00546D;}
	.st15{fill-rule:evenodd;clip-rule:evenodd;fill:#1D1D1B;}
	.st16{fill-rule:evenodd;clip-rule:evenodd;fill:#006BB6;}
	.st17{fill-rule:evenodd;clip-rule:evenodd;fill:#E53212;}
	.st18{fill-rule:evenodd;clip-rule:evenodd;fill:#CC3B25;}
	.st19{fill-rule:evenodd;clip-rule:evenodd;fill:#373E8A;}
	.st20{fill:#89B5EC;}
	.st21{fill:#DADADA;}
	.st22{fill:#3856C1;}
	.st23{fill:#EFC822;}
	.st24{fill:#0023A0;}
	.st25{fill:#DCDCDC;}
</style>
<g>
	<g>
		<path class="st6" d="M76.2,27.1c4.9,2.3,6.8,5.3,6.7,9.3c-0.1,6.1-4.9,9.8-13.3,9.8c-4.1,0-7-0.9-8.9-1.9v-7.5
			c1.3-0.2,2.6-0.6,3.9-0.6c0.2,1.3,0.6,2.4,1.1,3.6c0.8,0.2,1.8,0.3,2.8,0.3c3.2,0,4.9-1,5-2.8c0-1.4-1-2.2-3.1-3.4l-4.2-2.5
			c-2.6-1.5-4.9-4.2-4.9-8c0-5.5,4.8-9.5,12.7-9.5c4.2,0,7.4,1.1,7.5,1.1v4.9v3.1c-1.3,0.2-2.6,0.6-3.9,0.6c-0.2-1.2-0.5-2.3-1-3.4
			C75.8,20,75.3,20,74.7,20c-2.9,0-4.6,1.1-4.6,2.7c0,1.1,0.7,1.8,2.6,2.6L76.2,27.1z"/>
		<path class="st6" d="M105.1,38.8c0.9,0,2.3,0.2,3.1,0.4c0.5,1,0.6,2.7,0.6,4.1c-3,0.4-5.4,1.3-8.2,2.6h-1.7
			c-0.5-1.1-0.9-2.4-1.2-3.6c-1.5,2.2-3.7,3.6-6.3,3.6c-3.2,0-5.4-2.4-5.4-5.9c0-4.9,4.3-7.2,10.6-8.6l0.7-0.2
			c-0.4-2.1-1.8-2.5-3.1-2.5c-1.1,0-1.8,0.3-2.5,0.6c-0.3,0.8-0.5,1.6-0.7,2.5c-1.3,0-2.6-0.4-3.9-0.6v-6.3c0,0,3.2-1.9,8.5-1.9
			c6.6,0,9.9,3,9.6,9.3l-0.4,6.4L105.1,38.8z M96.6,35.9c-2.1,0.4-3.4,1.2-3.4,2.6c0,1,0.7,1.7,1.7,1.7c1.4,0,2.3-1.4,2.4-3.9l0-0.6
			L96.6,35.9z"/>
		<path class="st6" d="M132.7,23.3c0.2,1.3,0.6,2.6,0.6,4c-0.6,0.1-1.2,0.2-1.8,0.4c-0.4,1.3-1.3,4.2-2.6,7.2l-4.4,10.4
			c-3.1,0.5-5.4,0.6-7.6,0.4l-5.3-13.3c-0.7-1.8-1.1-3.6-1.3-4.7c-0.7-0.2-1.3-0.4-2-0.5c0-1.3,0.4-2.6,0.6-4h1.7
			c2.1,0,4.3-0.2,6.4-0.4l3.1,10.1c0.4,1.5,1,4,1.3,5.5c0.8-3.8,2.1-7.4,3.8-10.1c-1.2-0.5-2.4-0.9-3.7-1.1c0-1.3,0.4-2.6,0.6-4
			L132.7,23.3z"/>
		<path class="st6" d="M142.6,35.3c0.6,3.3,2.6,4.6,5.1,4.6c3.1,0,5-1.9,5-1.9c1.2,0.6,1.5,2.2,1.4,4c0,0-2.7,3.8-8.9,3.8
			c-6.4,0-10.5-4.3-10.5-11.1c0-7.2,4.5-11.8,10.9-11.8c5.5,0,10.2,3.4,8.9,12L142.6,35.3z M147.7,31.1c0-2.1-0.6-3.4-2.3-3.4
			c-1.8,0-2.6,1.4-2.9,3.6L147.7,31.1z"/>
		<path class="st6" d="M157.1,37v-5.3h13.2V37H157.1z"/>
		<path class="st6" d="M189.5,13.7c9.1,0,14.9,6.1,14.5,15.7c-0.4,9.9-7,16.8-16.5,16.8c-9.1,0-14.9-6.4-14.6-16
			C173.3,20.3,179.9,13.7,189.5,13.7L189.5,13.7z M181.8,29.8c0,5.8,2.7,9.8,6.8,9.8c4,0,6.7-4,6.7-9.8c0-5.8-2.7-9.5-6.8-9.5
			S181.8,24,181.8,29.8z"/>
	</g>
	<path class="st6" d="M47.1,18c-0.1-0.8-0.4-1.1-0.6-2c0,0,0-0.1,0-0.1c-0.7-4.2-3.3-7.8-7-9.7c-1.5-0.8-3.1-1.2-4.8-1.4
		c-0.1,0-0.2-0.1-0.3-0.1c0,0,0,0-0.1,0c0,0-0.1,0-0.1,0c0,0,0,0,0,0c-0.1,0-0.2,0.1-0.4,0.1V4.4C33.9,2,32,0,29.6,0H4.4
		C2,0,0,2,0,4.4v51.3C0,58,2,60,4.4,60h25.2c2.4,0,4.4-2,4.4-4.4V33.4c0.2-0.1,0.4-0.2,0.6-0.2c0.1,0,0.2,0,0.3,0l0,0
		c0.1,0,0.2,0.1,0.3,0.1c0,0,0,0,0,0c1,0.6,1.2,1.7,1.2,2.8v13.4c0,3.2,2.4,5.6,5.4,5.6c3,0,5.4-2.5,5.4-5.6V20.3v-2
		C47.2,18.2,47.1,18.1,47.1,18z M13.5,3.5h0.4h2.7h1h0.1h0.5h2.1v0c0.8,0,1.4,0.6,1.4,1.4c0,0.7-0.5,1.3-1.2,1.4h-0.4h-2h-0.5h-0.1
		h-1h-2.8v0c-0.8,0-1.4-0.6-1.4-1.4C12.3,4.1,12.9,3.5,13.5,3.5z M17,57.7c-1.5,0-2.8-1.2-2.8-2.8c0-1.5,1.2-2.8,2.8-2.8
		c1.5,0,2.8,1.2,2.8,2.8C19.7,56.5,18.5,57.7,17,57.7z M29.3,48c0,0.1,0,0.2,0,0.3c-0.1,1.2-1.1,2.1-2.3,2.1v0H7v0
		c-1.3,0-2.4-1.1-2.4-2.4h0V11.9h0c0-1.2,0.8-2.1,2-2.3c0.1,0,0.3,0,0.4,0c0.1,0,0.3,0,0.4,0h19.1c0.1,0,0.3,0,0.4,0
		c0.1,0,0.3,0,0.4,0c1,0.2,1.8,1,1.9,2.1c0,0.1,0,0.2,0,0.3s0,0.2,0,0.3v35.6C29.3,47.8,29.3,47.9,29.3,48z M43.4,21v28.5
		c0,0.9-0.6,1.8-1.6,1.8c-1.1,0-1.6-0.9-1.6-1.8V36.1c0-3.8-2.2-6.4-5.5-6.9h0c-0.1,0-0.1,0-0.2,0c-0.1,0-0.3-0.1-0.4-0.2V7.6
		c0.2,0.1,0.4,0.1,0.6,0.1c0,0,0,0,0.1,0c0,0,0,0,0.1,0v0c0.9,0.1,1.7,0.3,2.5,0.6c0.1,0,0.2,0.1,0.3,0.1c0,0,0,0,0,0
		c0.6,0.3,1.1,1,1.1,1.7c0,0.1,0,0.2,0,0.2c0,0.1,0,0.2-0.1,0.4l-0.8,3.4c-0.5,2,0.8,4.1,2.8,4.6l1.4,0.3c0,0,0.1,0,0.1,0
		c0.8,0.2,1.4,0.9,1.4,1.7c0,0,0,0.1,0,0.1C43.4,21,43.4,21,43.4,21z"/>
</g>
</svg>
