<?xml version="1.0" encoding="utf-8"?>
<!-- Generator: Adobe Illustrator 18.0.0, SVG Export Plug-In . SVG Version: 6.00 Build 0)  -->
<!DOCTYPE svg PUBLIC "-//W3C//DTD SVG 1.1//EN" "http://www.w3.org/Graphics/SVG/1.1/DTD/svg11.dtd">
<svg version="1.1" id="Layer_1" xmlns="http://www.w3.org/2000/svg" xmlns:xlink="http://www.w3.org/1999/xlink" x="0px" y="0px"
	 viewBox="0 0 40 40" style="enable-background:new 0 0 40 40;" xml:space="preserve">
<style type="text/css">
	.st0{fill:#374654;}
	.st1{fill:#126AD9;}
	.st2{fill:#F0F0F0;}
	.st3{clip-path:url(#SVGID_2_);fill:#C8C8C8;}
	.st4{clip-path:url(#SVGID_4_);fill:#C8C8C8;}
	.st5{fill:#FF432F;}
	.st6{fill:#FFFFFF;}
	.st7{fill:none;}
	.st8{fill:#0857AF;}
	.st9{fill-rule:evenodd;clip-rule:evenodd;fill:#009540;}
	.st10{fill-rule:evenodd;clip-rule:evenodd;fill:#AEC90B;}
	.st11{fill-rule:evenodd;clip-rule:evenodd;fill:#FFD900;}
	.st12{fill-rule:evenodd;clip-rule:evenodd;fill:#FFFFFF;}
	.st13{fill-rule:evenodd;clip-rule:evenodd;fill:#EF3E42;}
	.st14{fill-rule:evenodd;clip-rule:evenodd;fill:#00546D;}
	.st15{fill-rule:evenodd;clip-rule:evenodd;fill:#1D1D1B;}
	.st16{fill-rule:evenodd;clip-rule:evenodd;fill:#006BB6;}
	.st17{fill-rule:evenodd;clip-rule:evenodd;fill:#E53212;}
	.st18{fill-rule:evenodd;clip-rule:evenodd;fill:#CC3B25;}
	.st19{fill-rule:evenodd;clip-rule:evenodd;fill:#373E8A;}
	.st20{fill:#89B5EC;}
	.st21{fill:#DADADA;}
	.st22{fill:#3856C1;}
	.st23{fill:#EFC822;}
	.st24{fill:#0023A0;}
	.st25{fill:#DCDCDC;}
</style>
<g>
	<path class="st6" d="M39.5,10.2l-9.7-6c-0.3-0.2-0.7-0.2-1.1,0l-8.3,5.2c-0.3,0.2-0.7,0.2-1.1,0l-8.3-5.2c-0.3-0.2-0.7-0.2-1.1,0
		l-9.7,6C0.2,10.3,0,10.7,0,11v23.6c0,0.5,0.3,0.9,0.7,1.2c0.4,0.2,0.9,0.2,1.3,0l8.1-5.1c0.3-0.2,0.7-0.2,1.1,0l8.3,5.2
		c0.3,0.2,0.7,0.2,1.1,0l8.3-5.2c0.3-0.2,0.7-0.2,1.1,0l8.1,5.1c0.2,0.1,0.4,0.2,0.7,0.2c0.2,0,0.4-0.1,0.6-0.2
		c0.4-0.2,0.7-0.7,0.7-1.2V11C40,10.7,39.8,10.3,39.5,10.2z M8.9,28.3l-4.7,3c-0.7,0.4-1.5-0.1-1.5-0.8V12.5c0-0.3,0.2-0.7,0.5-0.8
		l4.7-3c0.7-0.4,1.5,0.1,1.5,0.8v17.9C9.3,27.8,9.2,28.1,8.9,28.3z M17.2,31.3l-4.7-3c-0.3-0.2-0.5-0.5-0.5-0.8V9.6
		c0-0.8,0.9-1.3,1.5-0.8l4.7,3c0.3,0.2,0.5,0.5,0.5,0.8v17.9C18.7,31.2,17.8,31.7,17.2,31.3z M27.6,28.3l-4.7,3
		c-0.7,0.4-1.5-0.1-1.5-0.8V12.5c0-0.3,0.2-0.7,0.5-0.8l4.7-3C27.2,8.3,28,8.8,28,9.6v17.9C28,27.8,27.9,28.1,27.6,28.3z M35.9,31.3
		l-4.7-3c-0.3-0.2-0.5-0.5-0.5-0.8V9.6c0-0.8,0.9-1.3,1.5-0.8l4.7,3c0.3,0.2,0.5,0.5,0.5,0.8v17.9C37.4,31.2,36.5,31.7,35.9,31.3z"
		/>
</g>
</svg>
