<?xml version="1.0" encoding="utf-8"?>
<!-- Generator: Adobe Illustrator 18.0.0, SVG Export Plug-In . SVG Version: 6.00 Build 0)  -->
<!DOCTYPE svg PUBLIC "-//W3C//DTD SVG 1.1//EN" "http://www.w3.org/Graphics/SVG/1.1/DTD/svg11.dtd">
<svg version="1.1" id="Layer_1" xmlns="http://www.w3.org/2000/svg" xmlns:xlink="http://www.w3.org/1999/xlink" x="0px" y="0px"
	 viewBox="0 0 40 40" style="enable-background:new 0 0 40 40;" xml:space="preserve">
<style type="text/css">
	.st0{fill:#374654;}
	.st1{fill:#126AD9;}
	.st2{fill:#F0F0F0;}
	.st3{clip-path:url(#SVGID_2_);fill:#C8C8C8;}
	.st4{clip-path:url(#SVGID_4_);fill:#C8C8C8;}
	.st5{fill:#FF432F;}
	.st6{fill:#FFFFFF;}
	.st7{fill:none;}
	.st8{fill:#0857AF;}
	.st9{fill-rule:evenodd;clip-rule:evenodd;fill:#009540;}
	.st10{fill-rule:evenodd;clip-rule:evenodd;fill:#AEC90B;}
	.st11{fill-rule:evenodd;clip-rule:evenodd;fill:#FFD900;}
	.st12{fill-rule:evenodd;clip-rule:evenodd;fill:#FFFFFF;}
	.st13{fill-rule:evenodd;clip-rule:evenodd;fill:#EF3E42;}
	.st14{fill-rule:evenodd;clip-rule:evenodd;fill:#00546D;}
	.st15{fill-rule:evenodd;clip-rule:evenodd;fill:#1D1D1B;}
	.st16{fill-rule:evenodd;clip-rule:evenodd;fill:#006BB6;}
	.st17{fill-rule:evenodd;clip-rule:evenodd;fill:#E53212;}
	.st18{fill-rule:evenodd;clip-rule:evenodd;fill:#CC3B25;}
	.st19{fill-rule:evenodd;clip-rule:evenodd;fill:#373E8A;}
	.st20{fill:#89B5EC;}
	.st21{fill:#DADADA;}
	.st22{fill:#3856C1;}
	.st23{fill:#EFC822;}
	.st24{fill:#0023A0;}
	.st25{fill:#DCDCDC;}
</style>
<g>
	<g>
		<path class="st6" d="M38,12H10c-1.1,0-2-0.9-2-2s0.9-2,2-2h28c1.1,0,2,0.9,2,2S39.1,12,38,12z"/>
	</g>
	<g>
		<path class="st6" d="M2,12c-0.5,0-1-0.2-1.4-0.6C0.2,11,0,10.5,0,10s0.2-1,0.6-1.4c0.7-0.8,2.1-0.8,2.8,0C3.8,9,4,9.5,4,10
			c0,0.5-0.2,1-0.6,1.4C3,11.8,2.5,12,2,12z"/>
	</g>
	<g>
		<path class="st6" d="M38,22H10c-1.1,0-2-0.9-2-2s0.9-2,2-2h28c1.1,0,2,0.9,2,2S39.1,22,38,22z"/>
	</g>
	<g>
		<path class="st6" d="M2,22c-0.5,0-1-0.2-1.4-0.6C0.2,21,0,20.5,0,20s0.2-1,0.6-1.4c0.7-0.8,2.1-0.8,2.8,0C3.8,19,4,19.5,4,20
			c0,0.5-0.2,1-0.6,1.4C3,21.8,2.5,22,2,22z"/>
	</g>
	<g>
		<path class="st6" d="M38,32H10c-1.1,0-2-0.9-2-2s0.9-2,2-2h28c1.1,0,2,0.9,2,2S39.1,32,38,32z"/>
	</g>
	<g>
		<path class="st6" d="M2,32c-0.5,0-1-0.2-1.4-0.6C0.2,31,0,30.5,0,30c0-0.5,0.2-1,0.6-1.4c0.7-0.8,2.1-0.8,2.8,0
			C3.8,29,4,29.5,4,30c0,0.5-0.2,1-0.6,1.4C3,31.8,2.5,32,2,32z"/>
	</g>
</g>
</svg>
