<?xml version="1.0" encoding="utf-8"?>
<!-- Generator: Adobe Illustrator 18.0.0, SVG Export Plug-In . SVG Version: 6.00 Build 0)  -->
<!DOCTYPE svg PUBLIC "-//W3C//DTD SVG 1.1//EN" "http://www.w3.org/Graphics/SVG/1.1/DTD/svg11.dtd">
<svg version="1.1" id="Layer_1" xmlns="http://www.w3.org/2000/svg" xmlns:xlink="http://www.w3.org/1999/xlink" x="0px" y="0px"
	 viewBox="0 0 46 46" style="enable-background:new 0 0 46 46;" xml:space="preserve">
<style type="text/css">
	.st0{fill:#374654;}
	.st1{fill:#126AD9;}
	.st2{fill:#F0F0F0;}
	.st3{clip-path:url(#SVGID_2_);fill:#C8C8C8;}
	.st4{clip-path:url(#SVGID_4_);fill:#C8C8C8;}
	.st5{fill:#FF432F;}
	.st6{fill:#FFFFFF;}
	.st7{fill:none;}
	.st8{fill:#0857AF;}
	.st9{fill-rule:evenodd;clip-rule:evenodd;fill:#009540;}
	.st10{fill-rule:evenodd;clip-rule:evenodd;fill:#AEC90B;}
	.st11{fill-rule:evenodd;clip-rule:evenodd;fill:#FFD900;}
	.st12{fill-rule:evenodd;clip-rule:evenodd;fill:#FFFFFF;}
	.st13{fill-rule:evenodd;clip-rule:evenodd;fill:#EF3E42;}
	.st14{fill-rule:evenodd;clip-rule:evenodd;fill:#00546D;}
	.st15{fill-rule:evenodd;clip-rule:evenodd;fill:#1D1D1B;}
	.st16{fill-rule:evenodd;clip-rule:evenodd;fill:#006BB6;}
	.st17{fill-rule:evenodd;clip-rule:evenodd;fill:#E53212;}
	.st18{fill-rule:evenodd;clip-rule:evenodd;fill:#CC3B25;}
	.st19{fill-rule:evenodd;clip-rule:evenodd;fill:#373E8A;}
	.st20{fill:#89B5EC;}
	.st21{fill:#DADADA;}
	.st22{fill:#3856C1;}
	.st23{fill:#EFC822;}
	.st24{fill:#0023A0;}
	.st25{fill:#DCDCDC;}
</style>
<g>
	<g>
		<path class="st20" d="M23,46c-0.2,0-0.5-0.1-0.7-0.3l-20-20c-0.4-0.4-0.4-1,0-1.4c0.4-0.4,1-0.4,1.4,0l20,20c0.4,0.4,0.4,1,0,1.4
			C23.5,45.9,23.2,46,23,46z"/>
	</g>
	<g>
		<path class="st20" d="M23,46c-0.2,0-0.5-0.1-0.7-0.3c-0.4-0.4-0.4-1,0-1.4l20-20c0.4-0.4,1-0.4,1.4,0c0.4,0.4,0.4,1,0,1.4l-20,20
			C23.5,45.9,23.2,46,23,46z"/>
	</g>
	<g>
		<path class="st20" d="M23,34c-0.2,0-0.5-0.1-0.7-0.3l-20-20c-0.4-0.4-0.4-1,0-1.4s1-0.4,1.3,0l20,20c0.4,0.4,0.4,1,0,1.4
			C23.5,33.9,23.2,34,23,34z"/>
	</g>
	<g>
		<path class="st20" d="M23,34c-0.2,0-0.5-0.1-0.7-0.3c-0.4-0.4-0.4-1,0-1.4l20-20c0.4-0.4,1-0.4,1.3,0c0.4,0.4,0.4,1,0,1.4l-20,20
			C23.5,33.9,23.2,34,23,34z"/>
	</g>
	<g>
		<path class="st20" d="M23,22c-0.2,0-0.5-0.1-0.7-0.3l-20-20c-0.4-0.4-0.4-1,0-1.4c0.4-0.4,1-0.4,1.4,0l20,20c0.4,0.4,0.4,1,0,1.4
			C23.5,21.9,23.2,22,23,22z"/>
	</g>
	<g>
		<path class="st20" d="M23,22c-0.2,0-0.5-0.1-0.7-0.3c-0.4-0.4-0.4-1,0-1.4l20-20c0.4-0.4,1-0.4,1.4,0c0.4,0.4,0.4,1,0,1.4l-20,20
			C23.5,21.9,23.2,22,23,22z"/>
	</g>
</g>
</svg>
