<?xml version="1.0" encoding="utf-8"?>
<!-- Generator: Adobe Illustrator 18.0.0, SVG Export Plug-In . SVG Version: 6.00 Build 0)  -->
<!DOCTYPE svg PUBLIC "-//W3C//DTD SVG 1.1//EN" "http://www.w3.org/Graphics/SVG/1.1/DTD/svg11.dtd">
<svg version="1.1" id="Layer_1" xmlns="http://www.w3.org/2000/svg" xmlns:xlink="http://www.w3.org/1999/xlink" x="0px" y="0px"
	 viewBox="0 0 90 90" style="enable-background:new 0 0 90 90;" xml:space="preserve">
<style type="text/css">
	.st0{fill:#374654;}
	.st1{fill:#126AD9;}
	.st2{fill:#F0F0F0;}
	.st3{clip-path:url(#SVGID_2_);fill:#C8C8C8;}
	.st4{clip-path:url(#SVGID_4_);fill:#C8C8C8;}
	.st5{fill:#FF432F;}
	.st6{fill:#FFFFFF;}
	.st7{fill:none;}
	.st8{fill:#0857AF;}
	.st9{fill-rule:evenodd;clip-rule:evenodd;fill:#009540;}
	.st10{fill-rule:evenodd;clip-rule:evenodd;fill:#AEC90B;}
	.st11{fill-rule:evenodd;clip-rule:evenodd;fill:#FFD900;}
	.st12{fill-rule:evenodd;clip-rule:evenodd;fill:#FFFFFF;}
	.st13{fill-rule:evenodd;clip-rule:evenodd;fill:#EF3E42;}
	.st14{fill-rule:evenodd;clip-rule:evenodd;fill:#00546D;}
	.st15{fill-rule:evenodd;clip-rule:evenodd;fill:#1D1D1B;}
	.st16{fill-rule:evenodd;clip-rule:evenodd;fill:#006BB6;}
	.st17{fill-rule:evenodd;clip-rule:evenodd;fill:#E53212;}
	.st18{fill-rule:evenodd;clip-rule:evenodd;fill:#CC3B25;}
	.st19{fill-rule:evenodd;clip-rule:evenodd;fill:#373E8A;}
	.st20{fill:#89B5EC;}
	.st21{fill:#DADADA;}
	.st22{fill:#3856C1;}
	.st23{fill:#EFC822;}
	.st24{fill:#0023A0;}
	.st25{fill:#DCDCDC;}
	.st26{fill:#231F20;}
	.st27{fill-rule:evenodd;clip-rule:evenodd;fill:#C2C2C2;}
	.st28{fill-rule:evenodd;clip-rule:evenodd;fill:#A3A3A3;}
	.st29{fill-rule:evenodd;clip-rule:evenodd;fill:#A5A5A5;}
	.st30{fill-rule:evenodd;clip-rule:evenodd;fill:#B4B4B4;}
	.st31{fill-rule:evenodd;clip-rule:evenodd;fill:#BEBEBE;}
	.st32{fill-rule:evenodd;clip-rule:evenodd;fill:#C4C4C4;}
	.st33{fill-rule:evenodd;clip-rule:evenodd;fill:#999999;}
	.st34{fill-rule:evenodd;clip-rule:evenodd;fill:#8D8D8D;}
	.st35{fill-rule:evenodd;clip-rule:evenodd;fill:#EC1C24;}
	.st36{fill-rule:evenodd;clip-rule:evenodd;fill:#FFF100;}
	.st37{fill-rule:evenodd;clip-rule:evenodd;fill:#C3C3C3;}
	.st38{fill:#C8C8C8;}
</style>
<g>
	<path class="st12" d="M19.6,35.4C19.6,21.4,31,10,45,10c14,0,25.4,11.4,25.4,25.4c0,14-11.4,25.4-25.4,25.4
		C31,60.9,19.6,49.5,19.6,35.4L19.6,35.4z"/>
	<path class="st13" d="M50.5,27.9H39.5l-3.4,10.4l32-10.4L53.8,38.3l5.5,16.8L45,44.7L30.7,55.1c4,2.9,9,4.7,14.3,4.7
		c13.5,0,24.4-10.9,24.4-24.4C69.4,22,58.5,11.1,45,11.1L50.5,27.9L50.5,27.9z"/>
	<path class="st14" d="M45,11.1c-13.5,0-24.4,10.9-24.4,24.4c0,8.1,4,15.3,10,19.7l5.5-16.8L21.9,27.9l17.7,0L45,11.1L45,11.1z"/>
	<polygon class="st15" points="41.5,77.9 44.9,77.9 44.9,79.7 39.3,79.7 39.3,69.9 41.5,69.9 41.5,77.9 	"/>
	<polygon class="st15" points="48.6,79.7 46.4,79.7 46.4,71.8 44,71.8 44,69.9 50.9,69.9 50.9,71.8 48.6,71.8 48.6,79.7 	"/>
	<polygon class="st15" points="33.5,72.4 35.9,79.7 38.2,79.7 34.6,69.9 32.3,69.9 28.7,79.7 31,79.7 33.5,72.4 	"/>
	<polygon class="st15" points="33.5,77.8 35.9,79.7 31,79.7 33.5,77.8 33.5,77.8 	"/>
	<polygon class="st15" points="58.8,77.8 57.3,79.7 52.3,79.7 52.3,69.9 57.8,69.9 57.8,71.8 54.5,71.8 54.5,73.8 57.6,73.8 
		57.6,75.7 54.5,75.7 54.5,77.8 58.8,77.8 	"/>
	<polygon class="st15" points="64,76.4 66.6,79.7 69.4,79.7 65.3,74.4 68.4,69.9 65.6,69.9 64,72.6 62.4,69.9 59.5,69.9 62.7,74.4 
		58.6,79.7 61.4,79.7 64,76.4 	"/>
	<path class="st15" d="M27.9,79.7c-0.7,0.2-1.5,0.3-2.1,0.3c-2.9,0-5.3-2.3-5.3-5.1c0-2.8,2.4-5.1,5.3-5.1c0.8,0,1.5,0.2,2.1,0.5
		l0,2.1c-0.6-0.3-1.4-0.5-2.1-0.5c-1.7,0-3.1,1.3-3.1,3c0,1.7,1.4,3,3.1,3c0.7,0,1.4-0.2,2.1-0.5L27.9,79.7L27.9,79.7z"/>
</g>
</svg>
