<?xml version="1.0" encoding="utf-8"?>
<!-- Generator: Adobe Illustrator 18.0.0, SVG Export Plug-In . SVG Version: 6.00 Build 0)  -->
<!DOCTYPE svg PUBLIC "-//W3C//DTD SVG 1.1//EN" "http://www.w3.org/Graphics/SVG/1.1/DTD/svg11.dtd">
<svg version="1.1" id="Layer_1" xmlns="http://www.w3.org/2000/svg" xmlns:xlink="http://www.w3.org/1999/xlink" x="0px" y="0px"
	 viewBox="0 0 300 300" style="enable-background:new 0 0 300 300;" xml:space="preserve">
<style type="text/css">
	.st0{fill:#374654;}
	.st1{fill:#126AD9;}
	.st2{fill:#F0F0F0;}
	.st3{clip-path:url(#SVGID_2_);fill:#C8C8C8;}
	.st4{clip-path:url(#SVGID_4_);fill:#C8C8C8;}
	.st5{fill:#FF432F;}
	.st6{fill:#FFFFFF;}
	.st7{fill:none;}
	.st8{fill:#0857AF;}
	.st9{fill-rule:evenodd;clip-rule:evenodd;fill:#009540;}
	.st10{fill-rule:evenodd;clip-rule:evenodd;fill:#AEC90B;}
	.st11{fill-rule:evenodd;clip-rule:evenodd;fill:#FFD900;}
	.st12{fill-rule:evenodd;clip-rule:evenodd;fill:#FFFFFF;}
	.st13{fill-rule:evenodd;clip-rule:evenodd;fill:#EF3E42;}
	.st14{fill-rule:evenodd;clip-rule:evenodd;fill:#00546D;}
	.st15{fill-rule:evenodd;clip-rule:evenodd;fill:#1D1D1B;}
	.st16{fill-rule:evenodd;clip-rule:evenodd;fill:#006BB6;}
	.st17{fill-rule:evenodd;clip-rule:evenodd;fill:#E53212;}
	.st18{fill-rule:evenodd;clip-rule:evenodd;fill:#CC3B25;}
	.st19{fill-rule:evenodd;clip-rule:evenodd;fill:#373E8A;}
	.st20{fill:#89B5EC;}
	.st21{fill:#DADADA;}
	.st22{fill:#3856C1;}
	.st23{fill:#EFC822;}
	.st24{fill:#0023A0;}
	.st25{fill:#DCDCDC;}
</style>
<g>
	<path class="st7" d="M120,95.2L120,95.2l9.9,0v0c0.6,0,1.1-0.5,1.2-1.1c0,0,0-0.1,0-0.1c0,0,0-0.1,0-0.1V76.1c0,0,0-0.1,0-0.1
		c0,0,0-0.1,0-0.1c-0.1-0.5-0.5-0.9-1-1c-0.1,0-0.1,0-0.2,0c-0.1,0-0.1,0-0.2,0h-9.5c-0.1,0-0.1,0-0.2,0c-0.1,0-0.1,0-0.2,0
		c-0.6,0.1-1,0.6-1,1.2h0v18h0C118.9,94.7,119.4,95.2,120,95.2z"/>
	<path class="st7" d="M298.7,262.9l-2.1-2.1c-0.7-0.7-1.8-0.7-2.4,0l-2.1,2.1c-0.7,0.7-0.7,1.8,0,2.4l2.1,2.1c0.7,0.7,1.8,0.7,2.4,0
		l2.1-2.1C299.4,264.7,299.4,263.6,298.7,262.9z"/>
	<path class="st7" d="M123.4,73.1L123.4,73.1l1.4,0h0.5h0h0.3h1h0.2c0.3,0,0.6-0.3,0.6-0.7c0-0.4-0.3-0.7-0.7-0.7v0h-1.1h-0.3h0
		h-0.5h-1.3h-0.2c-0.3,0-0.6,0.3-0.6,0.7C122.7,72.8,123,73.1,123.4,73.1z"/>
	<path class="st7" d="M125,96.1c-0.8,0-1.4,0.6-1.4,1.4c0,0.8,0.6,1.4,1.4,1.4c0.8,0,1.4-0.6,1.4-1.4
		C126.4,96.7,125.8,96.1,125,96.1z"/>
	<path class="st7" d="M91.3,295.1c0.2-0.4,0-0.8-0.3-1c-0.3-0.2-0.8,0-0.9,0.3c0,0,0,0,0,0c-0.2,0.4,0,0.8,0.3,1
		C90.7,295.5,91.1,295.4,91.3,295.1z"/>
	<path class="st7" d="M112.5,43.9c0.1-0.1,0.1-0.3,0.1-0.4V40c0-0.1,0-0.3-0.1-0.4l3.1-3.1c0.1-0.1,0.1-0.3,0-0.4
		c-0.1-0.1-0.3-0.1-0.4,0l-3.1,3.1c-0.1-0.1-0.3-0.1-0.4-0.1h-2.8c-0.1,0-0.3,0-0.4,0.1l-3.1-3.1c-0.1-0.1-0.3-0.1-0.4,0
		c-0.1,0.1-0.1,0.3,0,0.4l3.1,3.1c-0.1,0.1-0.1,0.3-0.1,0.4v3.5c0,0.1,0,0.3,0.1,0.4l-3.1,3.1c-0.1,0.1-0.1,0.3,0,0.4
		c0.1,0.1,0.3,0.1,0.4,0l3.1-3.1c0.1,0.1,0.3,0.1,0.4,0.1h2.9c0.1,0,0.3,0,0.4-0.1l3.1,3.1c0.1,0.1,0.3,0.1,0.4,0
		c0.1-0.1,0.1-0.3,0-0.4L112.5,43.9z M111.9,43.1c0,0.4-0.3,0.7-0.7,0.7h-2.1c-0.4,0-0.7-0.3-0.7-0.7v-2.8c0-0.4,0.3-0.7,0.7-0.7
		h2.1c0.4,0,0.7,0.3,0.7,0.7V43.1z"/>
	<path class="st7" d="M90.7,291.9C90.7,291.9,90.7,292,90.7,291.9c0,0.4,0.3,0.8,0.6,0.8c0.4,0,0.7-0.2,0.8-0.6v0
		c0.2-2-0.3-4.1-1.6-5.8l0,0c0,0,0,0,0,0c-0.2-0.3-0.7-0.4-1-0.2c-0.3,0.2-0.4,0.7-0.2,1C90.5,288.6,90.9,290.3,90.7,291.9z"/>
	<path class="st7" d="M151.1,149.2c0,0-0.1,0-0.1,0c0,0-0.1,0-0.1,0h-11.6c0,0-0.1,0-0.1,0c0,0-0.1,0-0.1,0
		c-0.9,0.1-1.5,0.8-1.6,1.6c0,0,0,0.1,0,0.1c0,0,0,0.1,0,0.1v3.1c0,0,0,0.1,0,0.1c0,0,0,0.1,0,0.1c0,0.9,0.8,1.6,1.7,1.6h11.8
		c0.9,0,1.7-0.7,1.7-1.6c0,0,0-0.1,0-0.1c0,0,0-0.1,0-0.1V151c0,0,0-0.1,0-0.1c0,0,0-0.1,0-0.1C152.6,150,151.9,149.3,151.1,149.2z"
		/>
	<path class="st7" d="M59.6,182.3c0,0,0,0.1,0,0.1c0,0.6,0.5,1,1,1h8.8c0.6,0,1-0.5,1-1c0-0.1,0-0.1,0-0.2h0l-0.8-6
		c-0.1-0.6-0.7-0.9-1.2-0.9c-0.1,0-0.2,0-0.2,0c0,0,0,0,0,0c-1,0.2-2.1,0.3-3.2,0.3c-1.1,0-2.1-0.1-3.1-0.3c0,0-0.1,0-0.1,0h0
		c-0.1,0-0.1,0-0.2,0h0c-0.5,0-1.1,0.3-1.2,0.9L59.6,182.3L59.6,182.3z"/>
	<path class="st7" d="M158.3,126.4C158.3,126.3,158.3,126.3,158.3,126.4c0-1-0.7-1.7-1.6-1.7c0,0-0.1,0-0.1,0c0,0-0.1,0-0.1,0h-22.9
		c0,0-0.1,0-0.1,0s-0.1,0-0.1,0c-0.9,0.1-1.5,0.8-1.6,1.6c0,0,0,0.1,0,0.1c0,0,0,0.1,0,0.1v17.3c0,0,0,0.1,0,0.1c0,0,0,0.1,0,0.1
		c0,0.9,0.8,1.6,1.7,1.6h23.2c0.9,0,1.7-0.7,1.7-1.6c0,0,0-0.1,0-0.1c0,0,0-0.1,0-0.1L158.3,126.4
		C158.3,126.4,158.3,126.4,158.3,126.4z"/>
	<path class="st7" d="M60,171.3c0.2-0.4,0.1-0.9-0.3-1.1c-1.7-0.9-3-2.5-3.6-4.2c0,0,0,0,0,0c-0.2-0.4-0.6-0.6-1-0.4
		c-0.4,0.1-0.6,0.6-0.5,1c0,0,0,0,0,0c0,0,0,0,0,0c0.7,2.1,2.2,3.9,4.3,5C59.3,171.8,59.8,171.7,60,171.3z"/>
	<path class="st7" d="M122.2,232.3c-0.1-0.1-0.2-0.1-0.4-0.2c-0.2,0-0.3-0.1-0.5-0.1c-0.8,0-1.5,0.5-1.7,1.2v0c0,0.1,0,0.1,0,0.2
		c-0.5,1.9-1.1,3.7-1.8,5.4c-0.5,1.1-1,2.1-1.5,3.1c-0.4,0.7-0.8,1.4-1.2,2c0,0,0,0,0,0.1c-0.1,0.2-0.2,0.4-0.2,0.6
		c0,0.7,0.5,1.2,1.2,1.2c0,0,0.1,0,0.1,0c0,0,0,0,0,0c0.1,0,0.2,0,0.2,0c1.9-0.4,3.6-1.3,4.9-2.6c1.9-1.9,3.1-4.5,3.1-7.4
		C124.5,234.3,123.6,232.9,122.2,232.3z"/>
	<circle class="st7" cx="160" cy="210" r="2.4"/>
	<path class="st7" d="M160,203.1c-3.8,0-6.9,3.1-6.9,6.9s3.1,6.9,6.9,6.9s6.9-3.1,6.9-6.9S163.8,203.1,160,203.1z M160,215.4
		c-3,0-5.4-2.4-5.4-5.4s2.4-5.4,5.4-5.4s5.4,2.4,5.4,5.4S163,215.4,160,215.4z"/>
	<path class="st7" d="M109.7,32.7c0.6,0,2,0,2.7-0.1c0.7-0.1,0.9-0.3,1.2-0.5c0.4-0.3,0.7-0.8,0.8-0.9c0.1-0.2,0.1-0.4,0-0.5
		c-0.2-0.3-0.6-0.2-0.6-0.2s-3.5,0-3.7,0s-0.8,0.1-1,0.6c-0.2,0.3-1,2-1,2l0.6-0.2C108.6,32.9,109.1,32.7,109.7,32.7z"/>
	<circle class="st7" cx="101.8" cy="141.8" r="1.2"/>
	<path class="st7" d="M65.6,49.4C65.6,49.4,65.6,49.4,65.6,49.4c1.6,0.2,3,0.9,4,2c0,0,0,0,0,0c0.2,0.2,0.6,0.3,0.9,0
		c0.3-0.2,0.3-0.6,0.1-0.9c0,0,0,0,0,0c-1.2-1.3-2.9-2.2-4.8-2.4c0,0,0,0,0,0c-0.3,0-0.7,0.2-0.7,0.6C65,49.1,65.3,49.4,65.6,49.4z"
		/>
	<path class="st7" d="M70.8,53.4C70.8,53.4,70.8,53.4,70.8,53.4C70.8,53.4,70.8,53.4,70.8,53.4c0.2,0.3,0.5,0.5,0.8,0.4
		c0.3-0.1,0.5-0.5,0.4-0.8c-0.1-0.3-0.5-0.5-0.8-0.4C70.8,52.7,70.7,53,70.8,53.4C70.8,53.4,70.8,53.4,70.8,53.4z"/>
	<path class="st7" d="M170.6,138.5C170.5,138.5,170.5,138.5,170.6,138.5l-1.4-0.3c-1.9-0.4-3-2.3-2.6-4.1l0.7-3.1
		c0-0.1,0.1-0.2,0.1-0.3c0-0.1,0-0.1,0-0.2c0-0.7-0.4-1.3-1-1.5c0,0,0,0,0,0c-0.1,0-0.2-0.1-0.3-0.1c-0.7-0.3-1.5-0.5-2.3-0.5v0
		c0,0-0.1,0-0.1,0c-0.5,0-0.9,0.4-0.9,0.9v17.8c0,0.4,0.3,0.8,0.7,0.8c0.1,0,0.1,0,0.2,0h0c3,0.4,5,2.8,5,6.2v12.2
		c0,0.8,0.5,1.7,1.5,1.7c1,0,1.5-0.8,1.5-1.7v-25.8c0,0,0-0.1,0-0.1c0,0,0-0.1,0-0.1C171.8,139.3,171.3,138.7,170.6,138.5z"/>
	<path class="st7" d="M197.9,134.1h4.2c0.4,0,0.7-0.2,0.8-0.5c-0.1,0-0.1,0-0.2,0h-5.4c-0.1,0-0.1,0-0.2,0
		C197.3,133.9,197.6,134.1,197.9,134.1z"/>
	<circle class="st7" cx="256.3" cy="47.8" r="2"/>
	<circle class="st7" cx="243.7" cy="47.8" r="2"/>
	<path class="st7" d="M245,107c1.1-1.1,1.1-2.8,0-3.8c-1.1-1.1-2.8-1.1-3.8,0c-1.1,1.1-1.1,2.8,0,3.8
		C242.2,108.1,243.9,108.1,245,107z"/>
	<circle class="st7" cx="249.9" cy="118.9" r="2.7"/>
	<path class="st7" d="M261.6,41.9h-23.1c-0.5,0-0.8,0.4-0.9,0.8c0,0,0,0,0,0c0,0,0,0,0,0v14.4c0,0,0,0,0,0c0,0,0,0,0,0
		c0,0.4,0.4,0.8,0.8,0.8c0,0,0,0,0.1,0c0,0,0,0,0.1,0h1.2c0,0,0.1,0,0.1,0c0,0,0.1,0,0.1,0c0.5,0,0.9-0.3,1.1-0.8c0,0,0,0,0,0
		l1.1-2.7c0,0,0,0,0,0l0-0.1c0.2-0.5,0.7-0.8,1.2-0.8h6.7h6.7c0.5,0,1,0.3,1.2,0.8l0,0.1c0,0,0,0,0,0l1.1,2.7c0,0,0,0,0,0
		c0.2,0.4,0.6,0.7,1.1,0.8c0,0,0.1,0,0.1,0c0,0,0.1,0,0.1,0h1.2c0,0,0,0,0.1,0c0,0,0,0,0.1,0c0.4,0,0.8-0.4,0.8-0.8c0,0,0,0,0,0
		c0,0,0,0,0,0V42.8c0,0,0,0,0,0c0,0,0,0,0,0C262.4,42.2,262,41.9,261.6,41.9z M260.7,51.2C260.7,51.3,260.7,51.3,260.7,51.2
		c0,0.5-0.4,0.8-0.8,0.9c0,0,0,0-0.1,0c0,0,0,0-0.1,0h-2.9H250h-6.8h-2.9c0,0,0,0-0.1,0c0,0,0,0-0.1,0c-0.4,0-0.8-0.4-0.8-0.8
		c0,0,0,0,0,0c0,0,0,0,0,0v-6.7c0,0,0,0,0,0c0,0,0,0,0,0c0-0.5,0.4-0.8,0.9-0.8h19.7c0.5,0,0.8,0.4,0.9,0.8c0,0,0,0,0,0c0,0,0,0,0,0
		L260.7,51.2C260.7,51.2,260.7,51.2,260.7,51.2z"/>
	<path class="st7" d="M239.1,117.4c1.2,0.5,1.6-0.3,1.8-0.6c0.2-0.4,0.4-0.4,0.8-0.2c0.3,0.2,1,0.9,1.6,0.5c0.6-0.5,0.8-1.3,0.7-1.9
		c-0.1-0.6-0.8-0.7-1.2-0.8c-0.5-0.1-0.6-0.3-0.4-0.9c0.2-0.6-0.1-1.5-1-1.7c-1-0.1-2.7,0.3-3.3,2.1
		C237.4,115.4,237.9,116.9,239.1,117.4z"/>
	<path class="st7" d="M36.8,240.4c-0.4-0.3-0.6-0.8-0.6-1.4v-3v-0.8v-0.1v-0.4v-0.4v-0.3c-0.1-0.6-0.6-1-1.1-1
		c-0.6,0-1.1,0.5-1.1,1.1h0v0.5v0.4v0.1v0.8v3c0,0.5-0.2,1-0.6,1.4c0,0-0.1,0.1-0.1,0.1c-0.6,0.5-1,1.3-1,2.2c0,1.6,1.3,2.9,2.9,2.9
		c1.6,0,2.9-1.3,2.9-2.9c0-0.9-0.4-1.7-1-2.2C36.8,240.4,36.8,240.4,36.8,240.4z"/>
	<path class="st7" d="M270.5,227.7l-8.3-8.3l-13,13l8.3,8.3L270.5,227.7z M262.3,222.1l5.7,5.7l-10.4,10.4l-5.7-5.7L262.3,222.1z"/>
	<path class="st7" d="M26.2,229.7c0.1,0,0.1,0,0.2-0.1c0,0,0,0,0,0h0c1.8-2,4.2-3.2,7.1-3.4c3.5-0.2,6.2,1.3,8.2,3.9
		c0,0,0,0.1,0.1,0.1c0.1,0.1,0.2,0.1,0.3,0.1c0.1,0,0.1,0,0.2-0.1c0,0,0,0,0.1,0l1.1-0.7c0,0,0.1,0,0.1-0.1c0.1-0.1,0.1-0.2,0.1-0.3
		c0-0.1,0-0.1-0.1-0.2c0,0,0,0,0-0.1c-2.1-2.9-5.5-4.6-9.3-4.4c-3.5,0.2-6.5,2.1-8.3,4.9c0,0,0,0.1,0,0.2
		C26,229.7,26.1,229.8,26.2,229.7z"/>
	<path class="st7" d="M160.5,22.5c1.1,0,2.1-0.1,3.1-0.3c0,0,0,0,0,0c0,0,0.1,0,0.1,0c0.6-0.2,1.1-0.8,1.1-1.4
		c0-0.7-0.5-1.3-1.1-1.4c-0.1,0-0.2-0.1-0.3-0.1c-6.6-1.3-11.9-6.5-13.2-13.1c0-0.2,0-0.3-0.1-0.5c-0.2-0.6-0.8-1-1.4-1
		c-0.7,0-1.2,0.4-1.4,1.1c0,0.1,0,0.1-0.1,0.2c-0.2,1-0.3,2-0.3,3.1C146.9,16.4,153,22.5,160.5,22.5z"/>
	<path class="st7" d="M245.3,173.8c0-1.2-1-2.3-2.3-2.3h-2.2c-0.8,0-1.5-0.7-1.5-1.5V170c0-0.8,0.7-1.5,1.5-1.5h2.2
		c1.2,0,2.3-1,2.3-2.3c0-0.2,0-0.4-0.1-0.5c0-0.1,0-0.1,0-0.2c-0.7-2.5-2.1-4.8-4-6.8c-1.9-1.9-4.2-3.3-6.8-4l0,0
		c-0.2-0.1-0.4-0.1-0.7-0.1c-1.2,0-2.3,1-2.3,2.3v2.1c0,0.8-0.7,1.5-1.5,1.5H230c-0.8,0-1.5-0.7-1.5-1.5v-2.1c0-1.2-1-2.3-2.3-2.3
		c-0.2,0-0.5,0-0.7,0.1l0,0c-2.5,0.7-4.9,2.1-6.8,4c-1.9,1.9-3.3,4.3-4,6.9l0,0c0,0.2-0.1,0.4-0.1,0.6c0,1.2,1,2.3,2.3,2.3h2.1
		c0.8,0,1.5,0.7,1.5,1.5v0.1c0,0.8-0.7,1.5-1.5,1.5h-2.1c-1.2,0-2.3,1-2.3,2.3c0,0.2,0,0.5,0.1,0.7l0,0c0.7,2.5,2.1,4.9,4,6.8
		c1.9,1.9,4.2,3.3,6.8,4c0,0,0.1,0,0.1,0c0.2,0,0.4,0.1,0.6,0.1c1.2,0,2.3-1,2.3-2.3v-2.2c0-0.8,0.7-1.5,1.5-1.5h0.1
		c0.8,0,1.5,0.7,1.5,1.5v2.2c0,1.2,1,2.3,2.3,2.3c0.2,0,0.4,0,0.5-0.1c0.1,0,0.1,0,0.2,0c2.5-0.7,4.8-2.1,6.7-4
		c1.9-1.9,3.3-4.2,4-6.8C245.3,174.2,245.3,174,245.3,173.8z"/>
	<rect x="198.6" y="116.6" class="st7" width="4.2" height="2.4"/>
	<path class="st7" d="M216.7,229.2c0.2-0.1,0.4-0.3,0.6-0.5c1.4-1.4,1.7-3.6,0.7-5.2c-0.2-0.3-0.4-0.6-0.7-0.9
		c-0.3-0.3-0.5-0.5-0.8-0.6c-1.7-1-3.9-0.8-5.3,0.6c-0.2,0.2-0.4,0.4-0.5,0.6c-1.2,1.7-1,4,0.5,5.6
		C212.6,230.2,215,230.3,216.7,229.2z"/>
	<path class="st7" d="M198.9,121.8c0,0,3,1.1,3.5,6l0.9,4.9c0,0,1.7-0.6,2-1.9v-8.2c0,0-0.5-2.4-2.5-2.4l-3.8,0
		C198.9,120.2,197,121.3,198.9,121.8z"/>
	<path class="st8" d="M12.2,90c-0.1,0-0.2,0-0.3,0l-6.7,0.8c0,0,0,0,0,0l-0.1,0c-1,0.1-1.9,0.9-2.2,1.9c0,0,0,0.1,0,0.1
		c0,0,0,0.1,0,0.1h0L2,96.1l0,0.1c0,0,0,0,0,0c-0.1,0.5,0.2,1,0.7,1.1c0.5,0.1,0.9-0.2,1.1-0.6l0-0.1c0,0,0,0,0,0l0.8-3.1
		c0,0,0,0,0,0c0,0,0-0.1,0-0.1c0.1-0.3,0.4-0.5,0.7-0.6c0,0,0,0,0,0c0,0,0.1,0,0.1,0l6.8-0.9c0.3-0.1,0.6-0.4,0.7-0.7
		C13.1,90.6,12.7,90.1,12.2,90z"/>
	<path class="st8" d="M0.8,100.4h1.7h0.2h2.7h0c0.5,0,1,0.5,1,1c0,0.2,0,0.3-0.1,0.4c0,0.1-0.1,0.1-0.1,0.2c-0.5,0.7-0.8,1.6-1,2.4
		c-0.1,0.3-0.1,0.5-0.1,0.8l0,0.3l-1.2,18.5l-0.2,2.8c0,0,0,0.1,0,0.1c0,0.1,0,0.1,0,0.2c-0.1,0.4-0.5,0.8-1,0.8H0v2.1h2.7
		c1.5,0,2.8-1.1,3-2.6l0-0.5l1.1-16.2l0.3-5c0-0.1,0-0.2,0-0.3c0.1-0.8,0.3-1.6,0.7-2.2c0.1-0.1,0.1-0.2,0.2-0.2
		c0.3-0.4,0.4-1,0.4-1.5c0-0.5-0.1-1-0.4-1.5c-0.1-0.3-0.3-0.5-0.5-0.7c-0.6-0.6-1.3-0.9-2.2-0.9H3.3H1.4H0v2.1H0.8z"/>
	<path class="st8" d="M0.9,125.8c0.5,0,0.9-0.5,0.9-1h0l0.1-0.9l0.8-12.4l0,0l0-0.2c0-0.6-0.5-1.1-1.1-1.1c0,0,0,0,0,0c0,0,0,0,0,0
		c-0.1,0-0.1,0-0.2,0c-0.5,0-0.9,0.1-1.3,0c0,0-0.1,0-0.1,0v15.4h0.7H0.9z"/>
	<path class="st8" d="M1.4,101.6c-0.5-0.1-0.9,0.2-1.1,0.7c0,0,0,0.1,0,0.1c0,0.1,0,0.1,0,0.2h0l-0.3,1v5.6c0.3-0.1,0.5-0.3,0.6-0.5
		l0.1-0.2c0,0,0,0,0,0l1.5-5.6l0-0.2c0,0,0-0.1,0-0.1C2.2,102.1,1.9,101.6,1.4,101.6z"/>
	<path class="st8" d="M287.9,99.3c-0.2,0.2-0.4,0.4-0.5,0.7c-0.2,0.4-0.4,0.9-0.4,1.5c0,0.6,0.1,1.1,0.4,1.5
		c0.1,0.1,0.1,0.2,0.2,0.3c0.4,0.7,0.7,1.4,0.7,2.2c0,0.1,0,0.2,0,0.3l0.3,5l1.1,16.2l0,0.4c0.2,1.5,1.5,2.7,3,2.7h7.2v-2.1h-0.2
		h-4.1h-2.9c-0.5,0-0.9-0.3-1-0.8c0-0.1,0-0.1,0-0.2c0,0,0,0,0-0.1l-0.2-2.8l-1.2-18.5l0-0.3c0-0.3-0.1-0.5-0.1-0.8
		c-0.2-0.9-0.5-1.7-1-2.4c0-0.1-0.1-0.1-0.1-0.2c-0.1-0.1-0.1-0.3-0.1-0.4c0-0.5,0.4-1,1-1h0h2.9h7v-2.1h-9.9
		C289.2,98.3,288.5,98.7,287.9,99.3z"/>
	<path class="st8" d="M293.7,109.7L293.7,109.7c-0.5,0.1-0.9,0.5-0.9,1.1c0,0,0,0,0,0.1l0.9,13.2l0.1,0.9h0c0,0.5,0.4,1,0.9,1h0.1
		h0.9h4.2h0.1v-15.4c-0.6,0-1.2-0.2-1.8-0.3C296.8,109.8,295.4,109.3,293.7,109.7z"/>
	<path class="st8" d="M299.5,109.1c0.2,0,0.3,0,0.5,0v-5.6l-1.2,4.5h0c0,0,0,0.1,0,0.1C298.7,108.6,299,109,299.5,109.1z"/>
	<path class="st8" d="M5.8,294.2l1.3-1.3L0,285.8v6.6l1.8,1.8C2.9,295.3,4.7,295.3,5.8,294.2z"/>
	<path class="st8" d="M19.2,280.8c1.1-1.1,1.1-3,0-4.1L0,257.6v21.8l10.3,10.3L19.2,280.8z"/>
	<path class="st8" d="M0,37.4c0.6,1.8,2,3.2,3.7,4c0.1,0,0.1,0,0.2,0.1c0,0,0,0,0,0c0.4,0.2,0.6,0.6,0.6,1.1c0,0,0,0,0,0.1
		c-0.2,3.7-0.4,10-0.7,15.4c-0.2,3.7-0.3,6.9-0.4,8.5c0,0,0,0.1,0,0.1c0,0.8,0.4,1.7,1,2.3c0.6,0.6,1.5,1,2.4,1c0,0,0,0,0,0
		c0,0,0,0,0,0c0.9,0,1.8-0.4,2.4-1c0.6-0.6,1-1.4,1-2.3c0,0,0-0.1,0-0.1C10,65,9.8,61.8,9.7,58.1C9.4,52.7,9.1,46.4,9,42.7h0
		c0,0,0,0,0-0.1c0-0.5,0.3-0.9,0.6-1.1c0.1,0,0.1-0.1,0.2-0.1c0,0,0,0,0,0c2.4-1.2,4.1-3.6,4.1-6.5c0-4.8-0.5-9.5-1.5-14
		c0,0,0,0,0,0c0,0,0-0.1,0-0.1c-0.1-0.4-0.5-0.7-1-0.7c-0.5,0-1,0.4-1,1c0,0,0,0.1,0,0.2c0,0.7,0.2,3.6,0.3,7.8c0,1.2,0,2.6,0,4.1
		c0,0.7-0.6,1.2-1.2,1.2c-0.6,0-1.2-0.5-1.2-1.1c0,0,0-0.1,0-0.1c0,0,0,0,0,0L8,27.9l-0.3-6.9c0-0.5-0.4-1-1-1c-0.5,0-1,0.4-1,1
		l-0.3,6.9L5.2,33v0c0,0,0,0.1,0,0.1c0,0,0,0,0,0c-0.1,0.6-0.6,1.1-1.2,1.1c-0.7,0-1.2-0.6-1.2-1.2c0-1.4,0-2.8,0-4
		c0.1-4.1,0.3-7,0.3-7.8c0-0.1,0-0.2,0-0.2c0-0.5-0.5-1-1-1c-0.5,0-0.8,0.3-1,0.7c0,0,0,0,0,0c0,0,0,0.1,0,0.1
		c-0.5,2.1-0.8,4.3-1.1,6.5V37.4z"/>
	<path class="st8" d="M299.6,35c0,0.9,0.2,1.7,0.4,2.4v-10C299.7,29.9,299.6,32.4,299.6,35z"/>
	<path class="st8" d="M293.2,20c-0.3,0-0.6,0.1-0.7,0.3h0c-2.4,2.6-6.4,9.1-6.4,24c0,4.4,2.3,5,2.2,8.4c0,0,0,0,0,0
		c-0.2,5.3-0.7,11.6-0.9,13.8c0,0,0,0.1,0,0.1c-0.1,1.7,1.5,3.3,3.4,3.3c0,0,0,0,0,0c0,0,0,0,0,0c1.8,0,3.4-1.6,3.4-3.3
		c0,0,0-0.1,0-0.1c0,0,0-27.1,0-28.2V21C294.2,20.4,293.8,20,293.2,20z"/>
	<path class="st8" d="M61,19l5.4-5.4c0.6-0.6,0.6-1.6,0-2.2l-2.7-2.7C63,8,62,8,61.4,8.7L56,14c-1.4,1.4-1.4,3.6,0,4.9
		C57.4,20.3,59.6,20.3,61,19z"/>
	<path class="st8" d="M61.7,2.4l11,11c1.4,1.4,3.6,1.4,4.9,0L90.9,0H60.7C60.7,0.9,61,1.7,61.7,2.4z"/>
	<path class="st8" d="M91.7,299.2c4.4-4.4,4.4-11.5,0-15.9c-4.4-4.4-11.5-4.4-15.9,0l-14.1,14.1c-0.7,0.7-1,1.6-1,2.6h30.2
		L91.7,299.2z M89.6,286.1c0.3-0.2,0.8-0.2,1,0.2c0,0,0,0,0,0l0,0c1.3,1.7,1.8,3.8,1.6,5.8v0c0,0.4-0.4,0.7-0.8,0.6
		c-0.4,0-0.7-0.4-0.6-0.8c0,0,0,0,0,0c0.2-1.7-0.2-3.4-1.3-4.8C89.2,286.8,89.3,286.3,89.6,286.1z M90,294.4
		C90,294.4,90,294.4,90,294.4c0.2-0.4,0.6-0.5,1-0.3c0.4,0.2,0.5,0.6,0.3,1c-0.2,0.3-0.6,0.5-1,0.3C90,295.2,89.8,294.8,90,294.4z"
		/>
	<path class="st8" d="M35,250c8.3,0,15-6.7,15-15c0-8.3-6.7-15-15-15c-8.3,0-15,6.7-15,15C20,243.3,26.7,250,35,250z M35,245.6
		c-1.6,0-2.9-1.3-2.9-2.9c0-0.9,0.4-1.7,1-2.2c0,0,0.1-0.1,0.1-0.1c0.4-0.3,0.6-0.8,0.6-1.4v-3v-0.8v-0.1v-0.4v-0.5h0
		c0-0.6,0.5-1.1,1.1-1.1c0.6,0,1.1,0.4,1.1,1v0.3v0.4v0.4v0.1v0.8v3c0,0.5,0.2,1,0.6,1.4c0,0,0.1,0.1,0.1,0.1c0.6,0.5,1,1.3,1,2.2
		C37.9,244.3,36.6,245.6,35,245.6z M26,229.4c1.8-2.8,4.8-4.7,8.3-4.9c3.8-0.2,7.2,1.5,9.3,4.4c0,0,0,0,0,0.1c0,0.1,0.1,0.1,0.1,0.2
		c0,0.1,0,0.3-0.1,0.3c0,0-0.1,0-0.1,0.1l-1.1,0.7c0,0,0,0-0.1,0c-0.1,0-0.1,0.1-0.2,0.1c-0.1,0-0.2,0-0.3-0.1c0,0,0-0.1-0.1-0.1
		c-2-2.6-4.7-4.1-8.2-3.9c-2.9,0.2-5.3,1.4-7.1,3.4h0c0,0,0,0,0,0c0,0-0.1,0.1-0.2,0.1c-0.1,0-0.2-0.1-0.2-0.2
		C25.9,229.5,26,229.4,26,229.4z"/>
	<path class="st8" d="M139.5,9.4c0,11.3,9.2,20.6,20.6,20.6c8.7,0,16.2-5.4,19.2-13.1c0.9-2.3,1.4-4.8,1.4-7.5c0-0.2,0-0.4,0-0.5
		c0-3-0.5-6-1.3-8.9h-38.5C139.9,3.1,139.5,6.2,139.5,9.4z M147.3,5.8c0-0.1,0-0.1,0.1-0.2c0.2-0.6,0.8-1.1,1.4-1.1
		c0.7,0,1.2,0.4,1.4,1c0.1,0.1,0.1,0.3,0.1,0.5c1.3,6.6,6.6,11.8,13.2,13.1c0.1,0,0.2,0,0.3,0.1c0.6,0.2,1.1,0.8,1.1,1.4
		c0,0.7-0.5,1.3-1.1,1.4c0,0-0.1,0-0.1,0c0,0,0,0,0,0c-1,0.2-2,0.3-3.1,0.3c-7.5,0-13.6-6.1-13.6-13.6C146.9,7.8,147,6.8,147.3,5.8z
		"/>
	<path class="st8" d="M172.3,284.4c-3.8-6.2-8-11-10.4-13.5c0,0-0.1-0.1-0.1-0.1c0,0,0,0,0,0c-0.5-0.5-1.1-0.7-1.8-0.7
		c-0.7,0-1.3,0.3-1.8,0.7c0,0,0,0,0,0c0,0-0.1,0.1-0.1,0.1c-4.2,4.4-13.9,15.8-17.3,29.1h38.5C177.8,294.3,175.2,289,172.3,284.4z"
		/>
	<path class="st8" d="M252.8,296.7l-6.2-7.4c-0.4-0.5-1.1-0.5-1.6-0.1c-0.1,0.1-0.2,0.2-0.3,0.3c0,0,0,0,0,0
		c-1.4,2.5-3.5,5.1-6.3,7.4c-1.4,1.2-2.9,2.2-4.3,3h20.5C254.3,298.8,253.7,297.7,252.8,296.7z"/>
	<path class="st8" d="M233.2,289.2l3.4,4l0.1,0.1c0.6,0.6,1.6,0.7,2.3,0.1c0,0,0.1-0.1,0.1-0.1c0,0,0,0,0,0c1.8-1.8,3.1-3.7,3.9-5.4
		c0-0.1,0.1-0.2,0.1-0.3c0.3-0.8,0.2-1.8-0.4-2.5c-0.1-0.1-0.2-0.2-0.3-0.3c0,0,0,0,0,0c-0.1-0.1-0.2-0.2-0.3-0.2
		c-1.6-1.1-3.5-1.8-5.4-2c-2-0.2-4,0.2-5.8,1.1c0,0,0,0,0,0c0,0,0,0,0,0c-0.1,0-0.2,0.1-0.2,0.1c0,0,0,0,0,0
		c-0.7,0.3-1.4,0.1-1.9-0.5c0,0,0-0.1-0.1-0.1c-0.1-0.1-0.1-0.2-0.2-0.2c-1.3-2.2-1.8-4.4-1.7-6.7c0,0,0,0,0,0c0-0.1,0-0.2,0-0.2
		c0-0.6-0.5-1.1-1.1-1.1c-0.6,0-1,0.4-1.1,0.9c0,0.1,0,0.1,0,0.2v0c-0.2,3,0.5,6,2.4,8.8c0,0,0,0.1,0.1,0.1c0,0,0,0,0,0
		c0.3,0.6,0.3,1.3-0.1,1.8c0,0.1-0.1,0.1-0.1,0.1c0,0,0,0,0,0c-0.1,0.1-0.1,0.2-0.2,0.3c-2.4,3.3-2.8,7.7-1,11.3c0,0,0,0.1,0.1,0.1
		c0,0,0,0,0,0c0.1,0.1,0.2,0.3,0.3,0.4c0.6,0.7,1.6,1,2.5,0.8c0.1,0,0.1,0,0.2,0c0,0,0,0,0,0c1.9-0.5,4-1.5,6.1-3
		c0,0,0.1-0.1,0.1-0.1c0.7-0.6,0.8-1.6,0.3-2.3l-0.1-0.2l-3.4-4c-0.3-0.4-0.3-1,0.1-1.3C232.2,288.7,232.8,288.8,233.2,289.2z"/>
	<path class="st8" d="M288.7,160.9c0-0.5-0.4-0.9-0.9-0.9h-6.9c-0.5,0-0.9,0.4-0.9,0.9v3.6h4.3l4.4,20.1l0.4,2.1v3.3
		c0,0.5,0.4,0.9,0.9,0.9h1.1h8.9v-4.2h-5c-2.6,0-2.6-1-0.5-1.6l5.5-1.6v-18.8h-11.3V160.9z"/>
	<circle class="st8" cx="291.1" cy="195.6" r="4.4"/>
	<path class="st8" d="M0,183.5l19.1-5.5c0.5-0.1,0.9-0.6,0.9-1.1v-12.2H0V183.5z"/>
	<path class="st8" d="M20,190v-3.3H0v4.2h13.3h5.8C19.6,190.9,20,190.5,20,190z"/>
	<circle class="st8" cx="13.3" cy="195.6" r="4.4"/>
	<path class="st8" d="M175.3,166.1v-26.5v-1.8c0-0.1,0-0.2,0-0.3c-0.1-0.7-0.4-1-0.5-1.8c0,0,0-0.1,0-0.1c-0.6-3.8-3-7-6.3-8.7
		c-1.4-0.7-2.9-1.2-4.5-1.3c0,0,0,0,0,0c-0.1,0-0.1,0-0.2,0c-0.4-0.1-0.7-0.4-0.7-0.8v-1c0-2.1-1.7-3.8-3.8-3.8h-28.3
		c-2.1,0-3.8,1.7-3.8,3.8v50.7c0,0.7-0.4,1.3-1,1.6c0,0,0,0,0,0c0,0-0.1,0-0.1,0.1c0,0,0,0,0,0c-0.2,0.1-0.4,0.2-0.6,0.4
		c-0.4,0.4-0.6,0.9-0.6,1.4c0,1.1,0.9,2,2,2h4.1h28.3h4.1c1.1,0,2-0.9,2-2c0-0.8-0.5-1.5-1.2-1.9c0,0,0,0,0,0c0,0-0.1,0-0.1-0.1h0
		c-0.6-0.3-1-0.9-1-1.6v-22.3c0-0.5,0.4-0.9,0.9-0.9c0.1,0,0.2,0,0.3,0c0,0,0,0,0,0c0.1,0,0.2,0.1,0.2,0.1c0,0,0,0,0,0
		c0.9,0.5,1.1,1.6,1.1,2.5v12.2c0,2.9,2.2,5.1,4.9,5.1C173.1,171.2,175.3,169,175.3,166.1z M152.6,151
		C152.6,151,152.6,151,152.6,151v3.1c0,0,0,0.1,0,0.1c0,0,0,0.1,0,0.1c0,0.9-0.8,1.6-1.7,1.6h-11.8c-0.9,0-1.7-0.7-1.7-1.6
		c0,0,0-0.1,0-0.1c0,0,0-0.1,0-0.1V151c0,0,0-0.1,0-0.1c0,0,0-0.1,0-0.1c0-0.9,0.7-1.6,1.6-1.6c0,0,0.1,0,0.1,0c0,0,0.1,0,0.1,0
		h11.6c0,0,0.1,0,0.1,0c0,0,0.1,0,0.1,0C151.9,149.3,152.6,150,152.6,151C152.6,150.9,152.6,150.9,152.6,151z M158.3,143.9
		C158.3,143.9,158.3,143.9,158.3,143.9c0,1-0.8,1.7-1.7,1.7h-23.2c-0.9,0-1.7-0.7-1.7-1.6c0,0,0-0.1,0-0.1c0,0,0-0.1,0-0.1v-17.3
		c0,0,0-0.1,0-0.1c0,0,0-0.1,0-0.1c0-0.9,0.7-1.6,1.6-1.6c0,0,0.1,0,0.1,0s0.1,0,0.1,0h22.9c0,0,0.1,0,0.1,0c0,0,0.1,0,0.1,0
		c0.9,0.1,1.5,0.8,1.6,1.6c0,0,0,0.1,0,0.1c0,0,0,0.1,0,0.1L158.3,143.9C158.3,143.8,158.3,143.8,158.3,143.9z M171.8,140.3v25.8
		c0,0.8-0.5,1.7-1.5,1.7c-1,0-1.5-0.8-1.5-1.7v-12.2c0-3.4-2-5.8-5-6.2h0c-0.1,0-0.1,0-0.2,0c-0.4-0.1-0.7-0.4-0.7-0.8v-17.8
		c0-0.5,0.4-0.9,0.9-0.9c0,0,0.1,0,0.1,0v0c0.8,0.1,1.6,0.3,2.3,0.5c0.1,0,0.2,0.1,0.3,0.1c0,0,0,0,0,0c0.6,0.3,1,0.9,1,1.5
		c0,0.1,0,0.2,0,0.2c0,0.1,0,0.2-0.1,0.3l-0.7,3.1c-0.4,1.8,0.7,3.7,2.6,4.1l1.3,0.3c0,0,0.1,0,0.1,0c0.7,0.2,1.2,0.8,1.3,1.6
		c0,0,0,0.1,0,0.1C171.8,140.2,171.8,140.3,171.8,140.3z"/>
	<polygon class="st8" points="169.6,75 167,79.2 171.9,79.5 170.7,84.3 175.5,83.1 175.8,88 180,85.4 181.8,90 185,86.2 188.2,90 
		190,85.4 194.2,88 194.5,83.1 199.3,84.3 198.1,79.5 203,79.2 200.4,75 205,73.2 201.2,70 205,66.8 200.4,65 203,60.8 198.1,60.5 
		199.3,55.7 194.5,56.9 194.2,52 190,54.6 188.2,50 185,53.8 181.8,50 180,54.6 175.8,52 175.5,56.9 170.7,55.7 171.9,60.5 
		167,60.8 169.6,65 165,66.8 168.8,70 165,73.2 	"/>
	<path class="st8" d="M74.8,64.6c0-0.1,0.1-0.2,0.1-0.4c0-0.4-0.2-0.8-0.6-1c-0.2-0.1-0.3-0.1-0.5-0.1H56.3c-0.2,0-0.4,0-0.5,0.1
		c-0.3,0.2-0.6,0.6-0.6,1c0,0.2,0,0.3,0.1,0.4L64,84.3c0,0,0,0,0,0.1c0.2,0.4,0.6,0.7,1,0.7c0.5,0,0.8-0.3,1-0.7c0,0,0,0,0-0.1
		L74.8,64.6C74.8,64.7,74.8,64.6,74.8,64.6z"/>
	<path class="st8" d="M53.6,55.1c-0.1,0.5-0.3,0.8-0.7,1.1c-0.1,0-0.1,0.1-0.2,0.1c-0.7,0.4-1.1,1.2-1.1,2.1c0,1.4,1.1,2.5,2.5,2.5
		c0.1,0,0.2,0,0.3,0c0,0,0,0,0,0h21.2c0,0,0,0,0,0c0.1,0,0.2,0,0.3,0c1.4,0,2.5-1.1,2.5-2.5c0-0.9-0.5-1.6-1.1-2.1
		c-0.1,0-0.1-0.1-0.2-0.1c-0.4-0.3-0.6-0.7-0.7-1.1c0,0,0,0,0,0c0,0,0-0.1,0-0.1c-0.7-5.6-5.5-10-11.4-10c-5.8,0-10.6,4.3-11.4,10
		C53.6,55,53.6,55.1,53.6,55.1z M71.2,52.6c0.3-0.1,0.7,0,0.8,0.4c0.1,0.3,0,0.7-0.4,0.8c-0.3,0.1-0.7,0-0.8-0.3c0,0,0,0,0,0
		c0,0,0,0,0,0c0,0,0,0,0,0C70.7,53,70.8,52.7,71.2,52.6z M65.8,48.2C65.8,48.2,65.8,48.2,65.8,48.2c1.9,0.2,3.6,1.1,4.8,2.4
		c0,0,0,0,0,0c0.2,0.3,0.2,0.7-0.1,0.9c-0.3,0.2-0.6,0.2-0.9,0c0,0,0,0,0,0c-1-1.1-2.4-1.8-4-2c0,0,0,0,0,0c-0.3,0-0.6-0.3-0.6-0.7
		C65.1,48.4,65.4,48.1,65.8,48.2z"/>
	<path class="st8" d="M194.6,264c1.3,1.3,3.5,1.3,4.8,0h0c0,0,0,0,0,0l23.5-23.5c0,0,0,0,0,0l0.2-0.2c0,0,0,0,0,0
		c0.9-0.9,1.3-2.1,1.4-3.3h0l0.4-11.2l0-0.5c0-1.2-0.5-2.5-1.5-3.4l-5.5-5.5c-1-1-2.3-1.5-3.6-1.4h0l-0.5,0l-10.8,0.8h0l-0.2,0
		c0,0,0,0,0,0c-1,0.1-1.9,0.5-2.7,1.1l-0.6,0.6l-23.2,23l-0.3,0.3c-1.2,1.3-1.1,3.3,0.2,4.6L194.6,264z M210.6,223.1
		c0.1-0.2,0.3-0.4,0.5-0.6c1.4-1.4,3.7-1.7,5.3-0.6c0.3,0.2,0.6,0.4,0.8,0.6c0.3,0.3,0.5,0.6,0.7,0.9c1,1.7,0.7,3.8-0.7,5.2
		c-0.2,0.2-0.4,0.4-0.6,0.5c-1.7,1.2-4,1-5.6-0.5C209.6,227.2,209.4,224.8,210.6,223.1z"/>
	<path class="st8" d="M72.9,257.7C72.9,257.8,72.9,257.8,72.9,257.7c2.8,0.9,5.7,1.5,8.6,2.1c0.1,0,0.2,0,0.3,0.1
		c0.4,0.1,0.8,0.1,1.2,0.1h12h3.7h12c0.4,0,0.8,0,1.2-0.1c0.1,0,0.2,0,0.3-0.1c2.9-0.5,5.7-1.2,8.5-2.1c0,0,0,0,0,0
		c0.5-0.2,0.8-0.6,0.8-1.1c0-0.5-0.3-1-0.8-1.1l0,0c-0.2-0.1-0.5-0.1-0.7-0.1h-0.5l-2,0l-12.8,0l-1,0l-14,0h-1l-12.8,0h-2h-0.6
		c-0.2,0-0.3,0-0.5,0.1c-0.1,0-0.1,0-0.2,0c0,0,0,0,0,0c-0.5,0.2-0.8,0.6-0.8,1.1C72.1,257.2,72.4,257.6,72.9,257.7z"/>
	<path class="st8" d="M127.9,236.1c0-0.1,0-0.1,0-0.2c0-0.1,0-0.1,0-0.2c-0.1-3.6-2.8-6.5-6.2-7.1c-0.2,0-0.3-0.1-0.4-0.2
		c-0.2-0.1-0.3-0.2-0.4-0.4c-0.2-0.2-0.3-0.5-0.3-0.8c0-1.3-1.1-2.4-2.4-2.4h-12H75.6c-1.3,0-2.4,1.1-2.4,2.4v0c0,0.1,0,0.2,0,0.3
		c0.5,6.5,2.7,12.5,6.2,17.6c1.7,2.4,3.7,4.7,5.9,6.6l0,0c0.7,0.6,1.6,1,2.6,1h2.4h13.1h2.4c0.9,0,1.6-0.3,2.3-0.8c0,0,0,0,0,0
		c0.1-0.1,0.3-0.2,0.4-0.4c0.7-0.6,1.4-1.2,2-1.9v0c0.3-0.3,0.8-0.5,1.3-0.5c0,0,0,0,0,0c0.2,0,0.3,0,0.5,0.1c0.6,0.1,1.3,0.1,2,0.1
		c1.2,0,2.3-0.1,3.4-0.4C123.5,247.6,127.8,242.4,127.9,236.1z M116.4,245.9c-0.1,0-0.2,0-0.2,0c0,0,0,0,0,0c0,0-0.1,0-0.1,0
		c-0.7,0-1.2-0.5-1.2-1.2c0-0.2,0.1-0.4,0.2-0.6c0,0,0-0.1,0-0.1c0.4-0.7,0.8-1.4,1.2-2c0.6-1,1.1-2,1.5-3.1
		c0.7-1.7,1.3-3.6,1.8-5.4c0-0.1,0-0.1,0-0.2v0c0.2-0.7,0.9-1.2,1.7-1.2c0.2,0,0.4,0,0.5,0.1c0.1,0,0.3,0.1,0.4,0.2
		c1.3,0.7,2.3,2,2.3,3.6c0,2.9-1.2,5.5-3.1,7.4C120,244.5,118.3,245.5,116.4,245.9z"/>
	<path class="st8" d="M100.5,220.8C100.5,220.8,100.5,220.8,100.5,220.8c-0.1,0.1-0.1,0.2-0.1,0.3c0,0.3,0.2,0.5,0.5,0.5
		c0.1,0,0.2,0,0.3-0.1c0,0,0.1-0.1,0.1-0.1c2.2-1.8,4.1-4.5,4.1-7.6c0-4.3-5.4-6.3-5.4-9.9c0-1.3,0.2-2.4,0.5-3.2
		c0-0.1,0-0.1,0.1-0.2c0,0,0-0.1,0-0.1c0-0.3-0.2-0.5-0.5-0.5c-0.1,0-0.2,0-0.3,0.1c0,0-0.1,0.1-0.1,0.1c-1.5,1.3-3.3,3.6-3.3,6.7
		c0,5.4,5.3,5.5,5.3,9.5C101.7,218.2,101.1,219.7,100.5,220.8C100.5,220.8,100.5,220.8,100.5,220.8z"/>
	<path class="st8" d="M92.9,218.9C92.9,218.9,92.9,219,92.9,218.9c0,0.4,0.2,0.6,0.5,0.6c0.1,0,0.3,0,0.3-0.1c0,0,0,0,0,0
		c1-1.1,1.8-2.5,1.8-4.1c0-2.7-3.4-4-3.4-6.2c0-0.5,0.1-1,0.2-1.4c0,0,0,0,0,0c0,0,0-0.1,0-0.1c0-0.3-0.2-0.5-0.5-0.5
		c-0.1,0-0.3,0.1-0.3,0.1c0,0,0,0-0.1,0.1c-0.8,0.9-1.5,2.1-1.5,3.7c0,3.4,3.4,3.4,3.4,6c0,0.7-0.1,1.3-0.3,1.9
		C93,218.8,92.9,218.8,92.9,218.9z"/>
	<path class="st8" d="M250,170.1C250,170.1,250,170.1,250,170.1C250,170,250,170,250,170.1c0-0.1,0-0.1,0-0.1c0,0,0,0,0,0
		c0-11-9-19.9-20-19.9c-11,0-20,9-20,20v0c0,11,9,20,20,20C241,190,250,181.1,250,170.1z M234.5,185.2c-0.1,0-0.1,0-0.2,0
		c-0.2,0-0.4,0.1-0.5,0.1c-1.2,0-2.3-1-2.3-2.3v-2.2c0-0.8-0.7-1.5-1.5-1.5H230c-0.8,0-1.5,0.7-1.5,1.5v2.2c0,1.2-1,2.3-2.3,2.3
		c-0.2,0-0.4,0-0.6-0.1c0,0-0.1,0-0.1,0c-2.5-0.7-4.9-2.1-6.8-4c-1.9-1.9-3.3-4.2-4-6.8l0,0c-0.1-0.2-0.1-0.4-0.1-0.7
		c0-1.2,1-2.3,2.3-2.3h2.1c0.8,0,1.5-0.7,1.5-1.5V170c0-0.8-0.7-1.5-1.5-1.5h-2.1c-1.2,0-2.3-1-2.3-2.3c0-0.2,0-0.4,0.1-0.6l0,0
		c0.7-2.6,2.1-4.9,4-6.9c1.9-1.9,4.2-3.3,6.8-4l0,0c0.2-0.1,0.4-0.1,0.7-0.1c1.2,0,2.3,1,2.3,2.3v2.1c0,0.8,0.7,1.5,1.5,1.5h0.1
		c0.8,0,1.5-0.7,1.5-1.5v-2.1c0-1.2,1-2.3,2.3-2.3c0.2,0,0.5,0,0.7,0.1l0,0c2.5,0.7,4.9,2.1,6.8,4c1.9,1.9,3.3,4.2,4,6.8
		c0,0,0,0.1,0,0.2c0,0.2,0.1,0.4,0.1,0.5c0,1.2-1,2.3-2.3,2.3h-2.2c-0.8,0-1.5,0.7-1.5,1.5v0.1c0,0.8,0.7,1.5,1.5,1.5h2.2
		c1.2,0,2.3,1,2.3,2.3c0,0.2,0,0.5-0.1,0.7c-0.7,2.5-2.1,4.9-4,6.8C239.3,183.1,237,184.5,234.5,185.2z"/>
	<path class="st8" d="M254.7,244.5c0.6,0.6,1.7,0.6,2.3,0l17.6-17.6c0.6-0.6,0.6-1.7,0-2.3l-2.4-2.4c-0.5,0.3-1,0.4-1.5,0.4
		c-1.8,0-3.2-1.4-3.2-3.2c0-0.6,0.1-1.1,0.4-1.5l-2.4-2.4c-0.6-0.6-1.7-0.6-2.3,0L245.5,233c-0.6,0.6-0.6,1.7,0,2.3l2.4,2.4
		c0.5-0.3,1-0.4,1.5-0.4c1.8,0,3.2,1.4,3.2,3.2c0,0.6-0.1,1.1-0.4,1.5L254.7,244.5z M249.3,232.5l13-13l8.3,8.3l-13,13L249.3,232.5z
		"/>
	
		<rect x="255.9" y="222.7" transform="matrix(0.7071 0.7071 -0.7071 0.7071 238.8374 -116.3875)" class="st8" width="8" height="14.7"/>
	<path class="st8" d="M160,204.6c-3,0-5.4,2.4-5.4,5.4s2.4,5.4,5.4,5.4s5.4-2.4,5.4-5.4S163,204.6,160,204.6z M160,212.4
		c-1.3,0-2.4-1.1-2.4-2.4c0-1.3,1.1-2.4,2.4-2.4s2.4,1.1,2.4,2.4C162.4,211.3,161.3,212.4,160,212.4z"/>
	<path class="st8" d="M160,197.5c-6.9,0-12.5,5.6-12.5,12.5c0,6.9,5.6,12.5,12.5,12.5s12.5-5.6,12.5-12.5
		C172.5,203.1,166.9,197.5,160,197.5z M160,216.9c-3.8,0-6.9-3.1-6.9-6.9s3.1-6.9,6.9-6.9s6.9,3.1,6.9,6.9S163.8,216.9,160,216.9z"
		/>
	<path class="st8" d="M260.7,44.5C260.7,44.4,260.7,44.4,260.7,44.5c0-0.5-0.4-0.9-0.9-0.9h-19.7c-0.5,0-0.8,0.4-0.9,0.8
		c0,0,0,0,0,0c0,0,0,0,0,0v6.7c0,0,0,0,0,0c0,0,0,0,0,0c0,0.4,0.4,0.8,0.8,0.8c0,0,0,0,0.1,0c0,0,0,0,0.1,0h2.9h6.8h6.8h2.9
		c0,0,0,0,0.1,0c0,0,0,0,0.1,0c0.4,0,0.8-0.4,0.8-0.8c0,0,0,0,0,0c0,0,0,0,0,0L260.7,44.5C260.7,44.5,260.7,44.5,260.7,44.5z
		 M243.7,49.8c-1.1,0-2-0.9-2-2c0-1.1,0.9-2,2-2c1.1,0,2,0.9,2,2C245.7,48.9,244.8,49.8,243.7,49.8z M256.3,49.8c-1.1,0-2-0.9-2-2
		c0-1.1,0.9-2,2-2c1.1,0,2,0.9,2,2C258.2,48.9,257.4,49.8,256.3,49.8z"/>
	<path class="st8" d="M265,58.8V41.2c0-1-0.8-1.9-1.9-1.9h-26.2c-1,0-1.9,0.8-1.9,1.9v17.6c0,1,0.8,1.9,1.9,1.9h26.2
		C264.2,60.7,265,59.9,265,58.8z M262.4,42.7C262.4,42.8,262.4,42.8,262.4,42.7v14.5c0,0,0,0,0,0c0,0,0,0,0,0c0,0.4-0.4,0.8-0.8,0.8
		c0,0,0,0-0.1,0c0,0,0,0-0.1,0h-1.2c0,0-0.1,0-0.1,0c0,0-0.1,0-0.1,0c-0.5,0-0.9-0.3-1.1-0.8c0,0,0,0,0,0l-1.1-2.7c0,0,0,0,0,0
		l0-0.1c-0.2-0.5-0.7-0.8-1.2-0.8H250h-6.7c-0.5,0-1,0.3-1.2,0.8l0,0.1c0,0,0,0,0,0l-1.1,2.7c0,0,0,0,0,0c-0.2,0.4-0.6,0.7-1.1,0.8
		c0,0-0.1,0-0.1,0c0,0-0.1,0-0.1,0h-1.2c0,0,0,0-0.1,0c0,0,0,0-0.1,0c-0.4,0-0.8-0.4-0.8-0.8c0,0,0,0,0,0c0,0,0,0,0,0V42.8
		c0,0,0,0,0,0c0,0,0,0,0,0c0-0.5,0.4-0.8,0.9-0.8h23.1C262,41.9,262.4,42.2,262.4,42.7C262.4,42.7,262.4,42.7,262.4,42.7z"/>
	<path class="st8" d="M257.8,129.8C257.8,129.8,257.8,129.8,257.8,129.8l0.3,0.1c0.5,0.1,1,0,1.4-0.4c0.4-0.4,0.5-0.9,0.4-1.4
		l-0.2-0.4l-13.1-30.6v0c-0.1-0.2-0.2-0.3-0.3-0.5c-0.4-0.4-0.9-0.5-1.4-0.4c0,0,0,0,0,0c-0.1,0-0.1,0-0.2,0.1c0,0,0,0,0,0
		c-4,1.5-7.8,4-11.1,7.2c-3.3,3.3-5.7,7-7.2,11.1c0,0,0,0,0,0c0,0.1,0,0.1-0.1,0.2c0,0,0,0,0,0c-0.1,0.5,0,1,0.4,1.4
		c0.1,0.1,0.3,0.2,0.4,0.3v0L257.8,129.8z M248,116.9c1.1-1.1,2.8-1.1,3.8,0c1.1,1.1,1.1,2.8,0,3.8c-1.1,1.1-2.8,1.1-3.8,0
		C246.9,119.7,246.9,118,248,116.9z M241.1,103.2c1.1-1.1,2.8-1.1,3.8,0c1.1,1.1,1.1,2.8,0,3.8c-1.1,1.1-2.8,1.1-3.8,0
		C240.1,105.9,240.1,104.2,241.1,103.2z M238,113.7c0.6-1.7,2.3-2.2,3.3-2.1c1,0.1,1.2,1.1,1,1.7c-0.2,0.6-0.1,0.8,0.4,0.9
		c0.5,0.1,1.2,0.2,1.2,0.8c0.1,0.6-0.1,1.4-0.7,1.9c-0.6,0.5-1.3-0.2-1.6-0.5c-0.3-0.2-0.5-0.1-0.8,0.2c-0.2,0.4-0.6,1.2-1.8,0.6
		C237.9,116.9,237.4,115.4,238,113.7z"/>
	<path class="st8" d="M220.1,112L220.1,112c0,0.1-0.1,0.1-0.1,0.2c0,0,0,0,0,0c-0.1,0.5,0,1,0.4,1.4c0.1,0.1,0.3,0.2,0.4,0.3
		c0,0,0.1,0,0.1,0l1.5,0.7l0.2,0.1c0.5,0.2,1.1,0.1,1.5-0.3c0.1-0.1,0.2-0.3,0.3-0.5c0,0,0,0,0-0.1c1.7-4.3,4.2-8.3,7.7-11.7
		c3.4-3.4,7.4-6,11.7-7.6c0,0,0,0,0.1,0c0.2-0.1,0.3-0.2,0.5-0.3c0.4-0.4,0.5-1,0.4-1.5l-0.1-0.3l-0.7-1.5c0,0,0-0.1,0-0.1
		c-0.1-0.1-0.2-0.3-0.3-0.4c-0.4-0.4-1-0.5-1.5-0.4c-0.1,0-0.1,0-0.2,0.1c0,0,0,0,0,0c-4.8,1.9-9.3,4.8-13.2,8.7
		C224.9,102.7,222,107.2,220.1,112z"/>
	<path class="st8" d="M62.7,159.3C62.7,159.3,62.7,159.3,62.7,159.3c0,0.2,0.1,0.3,0.2,0.3c0.1,0,0.1,0,0.2-0.1c0,0,0,0,0,0
		c0.5-0.5,0.9-1.2,0.9-2c0-1.3-1.7-2-1.7-3.1c0-0.3,0-0.5,0.1-0.7c0,0,0,0,0,0c0,0,0,0,0,0c0-0.1-0.1-0.2-0.3-0.2
		c-0.1,0-0.1,0-0.2,0.1c0,0,0,0,0,0c-0.4,0.4-0.8,1-0.8,1.8c0,1.7,1.6,1.7,1.6,2.9C62.9,158.6,62.8,158.9,62.7,159.3
		C62.7,159.2,62.7,159.3,62.7,159.3z"/>
	<path class="st8" d="M66.5,160.2C66.5,160.2,66.4,160.2,66.5,160.2c0,0.1,0,0.1,0,0.1c0,0.1,0.1,0.2,0.2,0.2c0,0,0.1,0,0.1,0
		c0,0,0,0,0.1,0c1.1-0.9,2-2.2,2-3.7c0-2.1-2.7-3.1-2.7-4.9c0-0.6,0.1-1.2,0.3-1.5c0,0,0-0.1,0-0.1c0,0,0,0,0,0
		c0-0.1-0.1-0.2-0.2-0.2c0,0-0.1,0-0.1,0c0,0,0,0-0.1,0.1c-0.7,0.7-1.6,1.8-1.6,3.3c0,2.7,2.6,2.7,2.6,4.7
		C67,158.9,66.8,159.7,66.5,160.2C66.5,160.2,66.5,160.2,66.5,160.2z"/>
	<path class="st8" d="M56.7,188.8c-0.1,0.5,0.2,0.9,0.6,1.1l0.1,0c0.5,0.2,1.2,0,1.3-0.7l0.4-3c0,0,0,0,0-0.1c0.1-0.5,0.5-0.9,1-0.9
		h9.9c0.5,0,0.9,0.4,1,0.9c0,0,0,0,0,0.1l0.4,3c0.1,0.7,0.8,0.9,1.3,0.7l0.1,0c0.5-0.2,0.7-0.6,0.6-1.1l-1.8-13.2
		c-0.1-0.8,0-1.3,0.4-1.5c0,0,0,0,0,0c0,0,0.1-0.1,0.1-0.1c3.9-2.3,6.3-6.3,6.9-10.1c0,0,0-0.1,0-0.1c0,0,0,0,0,0c0,0,0-0.1,0-0.1
		c0-0.5-0.4-0.8-0.8-0.8H51.8c-0.5,0-0.8,0.4-0.8,0.8c0,0,0,0.1,0,0.1c0,0,0,0,0,0c0,0,0,0.1,0,0.1c0.6,3.8,3,7.8,6.9,10h0
		c0.1,0,0.1,0.1,0.2,0.1c0,0,0,0,0,0c0.5,0.3,0.5,0.7,0.4,1.5L56.7,188.8z M61.6,175.4L61.6,175.4c0.1,0,0.2,0,0.2,0h0
		c0,0,0.1,0,0.1,0c1,0.2,2,0.3,3.1,0.3c1.1,0,2.2-0.1,3.2-0.3c0,0,0,0,0,0c0.1,0,0.2,0,0.2,0c0.5,0,1.1,0.3,1.2,0.9l0.8,6h0
		c0,0.1,0,0.1,0,0.2c0,0.6-0.5,1-1,1h-8.8c-0.6,0-1-0.5-1-1c0,0,0-0.1,0-0.1h0l0.8-6C60.5,175.7,61.1,175.4,61.6,175.4z M54.7,166.6
		C54.6,166.6,54.6,166.6,54.7,166.6C54.6,166.6,54.6,166.6,54.7,166.6c-0.1-0.5,0.1-0.9,0.5-1c0.4-0.1,0.8,0.1,1,0.4c0,0,0,0,0,0
		c0.6,1.7,1.8,3.2,3.6,4.2c0.4,0.2,0.5,0.7,0.3,1.1c-0.2,0.4-0.7,0.5-1.1,0.3C56.9,170.5,55.4,168.7,54.7,166.6z"/>
	<path class="st8" d="M34.9,120.6c-0.1,0-0.1,0-0.2,0l-2.4,0.3c-1.3,0.2-2.3,1.4-2.3,2.7v1.2c0,1.3,1,2.2,2.3,2l2.7-0.4
		c1.3-0.2,2.3-1.4,2.3-2.7v-0.1h0v-10.8c0,0,0-0.1,0-0.1c0,0,0-0.1,0-0.1c0-0.8,0.6-1.4,1.3-1.6c0.1,0,0.2,0,0.3,0l7.7-1.2
		c0,0,0.1,0,0.1,0c0,0,0.1,0,0.1,0c0.6,0,1.2,0.5,1.2,1.2v6.3c0,0.4-0.2,0.7-0.6,0.8c0,0,0,0,0,0c-0.1,0-0.1,0-0.2,0l-2.4,0.3
		c-1.3,0.2-2.3,1.4-2.3,2.7v1.2c0,1.3,1,2.2,2.3,2l2.7-0.4c1.3-0.2,2.3-1.4,2.3-2.7v0V120v-15.6c0-0.6-0.5-1.2-1.2-1.2
		c0,0-0.1,0-0.1,0l-0.2,0l-11.4,1.8l-0.4,0.1c-0.7,0.2-1.3,0.9-1.3,1.7c0,0,0,0,0,0c0,0,0,0,0,0l0,13h0
		C35.5,120.2,35.3,120.5,34.9,120.6z"/>
	<path class="st8" d="M85.2,121.7c-0.5,0.6-1,1.3-1.6,1.8l0,0c-0.6,0.6-1.3,1.2-2,1.7c-0.4,0.3-0.9,0.4-1.3,0.2
		c-0.2-0.1-0.4-0.2-0.6-0.4l-3.1-3.1c-0.4-0.4-1-0.4-1.4,0c-0.2,0.2-0.3,0.4-0.3,0.6c0,0,0,0,0,0c0,0,0,0.1,0,0.1c0,0,0,0,0,0
		c0.1,1.9,0.8,3.7,2.2,5.1c0.1,0.1,0.1,0.1,0.2,0.2c2.1,1.9,4.9,2.5,7.5,1.7c0.1-0.1,0.2-0.1,0.3-0.1c0.4-0.1,0.9,0,1.2,0.3v0
		c0,0,0.1,0.1,0.1,0.1c0,0,0.1,0.1,0.1,0.1c0,0,0,0,0,0c2,2.1,9.2,9.3,13.1,13.8c1.1,1.3,3.1,1.2,4.3,0c1.2-1.2,1.2-3.3,0-4.3
		c-4.7-4.1-11.8-11.1-13.8-13.1c0,0-0.1-0.1-0.1-0.1c0,0,0-0.1-0.1-0.1c-0.3-0.4-0.4-0.8-0.3-1.3c0-0.1,0.1-0.2,0.1-0.3c0,0,0,0,0,0
		c0.8-2.5,0.2-5.4-1.7-7.5c-0.1-0.1-0.1-0.1-0.2-0.2c-1.4-1.4-3.3-2.2-5.1-2.2c0,0,0,0,0,0c0,0-0.1,0-0.1,0c0,0,0,0,0,0
		c-0.2,0-0.5,0.1-0.6,0.3c-0.4,0.4-0.4,1,0,1.4l3.1,3.1c0.2,0.2,0.3,0.4,0.4,0.6c0.1,0.4,0.1,0.9-0.2,1.2
		C85.3,121.6,85.3,121.7,85.2,121.7z M100.9,140.9c0.5-0.5,1.3-0.5,1.7,0c0.5,0.5,0.5,1.3,0,1.7c-0.5,0.5-1.3,0.5-1.7,0
		C100.4,142.2,100.4,141.4,100.9,140.9z"/>
	<path class="st8" d="M116.5,72.2v25.6c0,1.2,1,2.2,2.2,2.2h12.6c1.2,0,2.2-1,2.2-2.2V72.2c0-1.2-1-2.2-2.2-2.2h-12.6
		C117.5,70,116.5,71,116.5,72.2z M125,98.9c-0.8,0-1.4-0.6-1.4-1.4c0-0.8,0.6-1.4,1.4-1.4c0.8,0,1.4,0.6,1.4,1.4
		C126.4,98.2,125.8,98.9,125,98.9z M123.3,71.7h0.2h1.3h0.5h0h0.3h1.1v0c0.4,0,0.7,0.3,0.7,0.7c0,0.3-0.3,0.6-0.6,0.7h-0.2h-1h-0.3
		h0h-0.5h-1.4v0c-0.4,0-0.7-0.3-0.7-0.7C122.7,72.1,122.9,71.8,123.3,71.7z M118.8,76L118.8,76c0-0.6,0.4-1.1,1-1.2
		c0.1,0,0.1,0,0.2,0c0.1,0,0.1,0,0.2,0h9.5c0.1,0,0.1,0,0.2,0c0.1,0,0.1,0,0.2,0c0.5,0.1,0.9,0.5,1,1c0,0,0,0.1,0,0.1
		c0,0,0,0.1,0,0.1v17.8c0,0,0,0.1,0,0.1c0,0,0,0.1,0,0.1c-0.1,0.6-0.6,1.1-1.2,1.1v0H120v0c-0.7,0-1.2-0.5-1.2-1.2h0V76z"/>
	<path class="st8" d="M203.9,135v-1.6c1.2-0.5,2.1-1.6,2.1-2.9v-7.8c0-1.5-1.1-2.8-2.7-3.1V116c0.8,0,0.7-0.5,0.7-0.5
		c0-0.3-0.4-0.5-0.8-0.5h-6.4c-0.5,0-0.8,0.2-0.8,0.5c0,0-0.1,0.5,0.7,0.5v3.5c-1.5,0.3-2.7,1.6-2.7,3.1v7.8c0,1.3,0.9,2.5,2.1,2.9
		v1.6H203.9z M198.6,116.6h4.2v2.4h-4.2V116.6z M198.9,120.2l3.8,0c2,0,2.5,2.4,2.5,2.4v8.2c-0.3,1.3-2,1.9-2,1.9l-0.9-4.9
		c-0.5-4.9-3.5-6-3.5-6C197,121.3,198.9,120.2,198.9,120.2z M197.3,133.6h5.4c0.1,0,0.1,0,0.2,0c-0.1,0.3-0.4,0.5-0.8,0.5h-4.2
		c-0.4,0-0.7-0.2-0.8-0.5C197.2,133.6,197.2,133.6,197.3,133.6z"/>
	<path class="st8" d="M105.8,31.7c0,0-0.3-0.6-0.4-0.8c-0.1-0.2-0.3-0.2-0.5-0.1s-1.8,0.9-2,1c-0.3,0.1-0.3,0.4-0.2,0.6
		c0.1,0.2,0.5,0.9,0.6,1.2c0,0.1,0.1,0.1,0.1,0.1c0,0,2.6-1.3,2.6-1.3c0,0,0-0.1,0-0.1C106,32.1,105.8,31.7,105.8,31.7z"/>
	<path class="st8" d="M111.2,39.7h-2.1c-0.4,0-0.7,0.3-0.7,0.7v2.8c0,0.4,0.3,0.7,0.7,0.7h2.1c0.4,0,0.7-0.3,0.7-0.7v-2.8
		C111.9,40,111.6,39.7,111.2,39.7z"/>
	<path class="st8" d="M115.3,30c-1.4,0-4.9,0-5.7,0c-0.9,0-1.3,0.7-1.7,1.3c-0.4,0.6-0.7,1.4-0.7,1.4s-0.2,0.1-0.5,0.2
		c-0.1-0.1-0.4-0.3-0.5-0.2c-0.8,0.4-1.9,0.9-2.5,1.2c-0.1,0-0.1,0.4-0.1,0.6c0,0,0,0,0,0c-0.4,0.2-0.7,0.8-0.7,1.2
		c0,0.2,0,11.4,0,12.1c0,1.2,0.9,2.3,2.3,2.3c1.5,0,9.1,0,9.9,0c1.2,0,2.2-1.1,2.2-2.3c0-0.8,0-15.2,0-15.6
		C117.3,31.2,116.5,30,115.3,30z M109,31.1c0.2-0.4,0.8-0.6,1-0.6s3.7,0,3.7,0s0.5,0,0.6,0.2c0.1,0.1,0.1,0.3,0,0.5
		c0,0.1-0.3,0.5-0.8,0.9c-0.3,0.2-0.5,0.4-1.2,0.5c-0.7,0.1-2.1,0.1-2.7,0.1c-0.6,0-1.1,0.2-1.1,0.2l-0.6,0.2
		C108,33.1,108.8,31.4,109,31.1z M115.6,47.5c-0.1,0.1-0.3,0.1-0.4,0l-3.1-3.1c-0.1,0.1-0.3,0.1-0.4,0.1h-2.9c-0.1,0-0.3,0-0.4-0.1
		l-3.1,3.1c-0.1,0.1-0.3,0.1-0.4,0c-0.1-0.1-0.1-0.3,0-0.4l3.1-3.1c-0.1-0.1-0.1-0.3-0.1-0.4V40c0-0.1,0-0.3,0.1-0.4l-3.1-3.1
		c-0.1-0.1-0.1-0.3,0-0.4c0.1-0.1,0.3-0.1,0.4,0l3.1,3.1c0.1-0.1,0.3-0.1,0.4-0.1h2.8c0.1,0,0.3,0,0.4,0.1l3.1-3.1
		c0.1-0.1,0.3-0.1,0.4,0c0.1,0.1,0.1,0.3,0,0.4l-3.1,3.1c0.1,0.1,0.1,0.3,0.1,0.4v3.5c0,0.1,0,0.3-0.1,0.4l3.1,3.1
		C115.7,47.2,115.7,47.4,115.6,47.5z"/>
	<path class="st8" d="M230,1.9c-0.1,0-0.2,0.1-0.3,0.2c-0.5,0.4-0.5,1.1-0.1,1.6l6.2,7.4c2,2.4,4.7,3.7,7.6,3.9
		c2.8,0.3,5.8-0.6,8.1-2.6c3.7-3.1,4.9-8.1,3.3-12.4h-20.5C232.8,0.8,231.4,1.4,230,1.9C230.1,1.9,230,1.9,230,1.9z"/>
	<path class="st8" d="M300,285.8l-17.9-17.9l-1.3,1.3c-1.1,1.1-1.1,3,0,4.1l19.2,19.2V285.8z"/>
	<path class="st8" d="M298.2,255.8c-1.1-1.1-3-1.1-4.1,0l-8.8,8.8l14.7,14.7v-21.8L298.2,255.8z M296.6,267.4
		c-0.7,0.7-1.8,0.7-2.4,0l-2.1-2.1c-0.7-0.7-0.7-1.8,0-2.4l2.1-2.1c0.7-0.7,1.8-0.7,2.4,0l2.1,2.1c0.7,0.7,0.7,1.8,0,2.4
		L296.6,267.4z"/>
</g>
</svg>
