<?xml version="1.0" encoding="utf-8"?>
<!-- Generator: Adobe Illustrator 18.0.0, SVG Export Plug-In . SVG Version: 6.00 Build 0)  -->
<!DOCTYPE svg PUBLIC "-//W3C//DTD SVG 1.1//EN" "http://www.w3.org/Graphics/SVG/1.1/DTD/svg11.dtd">
<svg version="1.1" id="Layer_1" xmlns="http://www.w3.org/2000/svg" xmlns:xlink="http://www.w3.org/1999/xlink" x="0px" y="0px"
	 viewBox="0 0 90 90" style="enable-background:new 0 0 90 90;" xml:space="preserve">
<style type="text/css">
	.st0{fill:#374654;}
	.st1{fill:#126AD9;}
	.st2{fill:#F0F0F0;}
	.st3{clip-path:url(#SVGID_2_);fill:#C8C8C8;}
	.st4{clip-path:url(#SVGID_4_);fill:#C8C8C8;}
	.st5{fill:#FF432F;}
	.st6{fill:#FFFFFF;}
	.st7{fill:none;}
	.st8{fill:#0857AF;}
	.st9{fill-rule:evenodd;clip-rule:evenodd;fill:#009540;}
	.st10{fill-rule:evenodd;clip-rule:evenodd;fill:#AEC90B;}
	.st11{fill-rule:evenodd;clip-rule:evenodd;fill:#FFD900;}
	.st12{fill-rule:evenodd;clip-rule:evenodd;fill:#FFFFFF;}
	.st13{fill-rule:evenodd;clip-rule:evenodd;fill:#EF3E42;}
	.st14{fill-rule:evenodd;clip-rule:evenodd;fill:#00546D;}
	.st15{fill-rule:evenodd;clip-rule:evenodd;fill:#1D1D1B;}
	.st16{fill-rule:evenodd;clip-rule:evenodd;fill:#006BB6;}
	.st17{fill-rule:evenodd;clip-rule:evenodd;fill:#E53212;}
	.st18{fill-rule:evenodd;clip-rule:evenodd;fill:#CC3B25;}
	.st19{fill-rule:evenodd;clip-rule:evenodd;fill:#373E8A;}
	.st20{fill:#89B5EC;}
	.st21{fill:#DADADA;}
	.st22{fill:#3856C1;}
	.st23{fill:#EFC822;}
	.st24{fill:#0023A0;}
	.st25{fill:#DCDCDC;}
	.st26{fill:#231F20;}
	.st27{fill-rule:evenodd;clip-rule:evenodd;fill:#C2C2C2;}
	.st28{fill-rule:evenodd;clip-rule:evenodd;fill:#A3A3A3;}
	.st29{fill-rule:evenodd;clip-rule:evenodd;fill:#A5A5A5;}
	.st30{fill-rule:evenodd;clip-rule:evenodd;fill:#B4B4B4;}
	.st31{fill-rule:evenodd;clip-rule:evenodd;fill:#BEBEBE;}
	.st32{fill-rule:evenodd;clip-rule:evenodd;fill:#C4C4C4;}
	.st33{fill-rule:evenodd;clip-rule:evenodd;fill:#999999;}
	.st34{fill-rule:evenodd;clip-rule:evenodd;fill:#8D8D8D;}
	.st35{fill-rule:evenodd;clip-rule:evenodd;fill:#EC1C24;}
	.st36{fill-rule:evenodd;clip-rule:evenodd;fill:#FFF100;}
	.st37{fill-rule:evenodd;clip-rule:evenodd;fill:#C3C3C3;}
	.st38{fill:#C8C8C8;}
</style>
<g>
	<path class="st35" d="M24,18.9C34.7,7.5,54.5,6.2,67,19.8c5.5,6.9,8.3,15,7,25.1l-9.4,7l-1.2,11L48.4,63c-2.1,2.1-4.5,2-6.4,0.1
		l-15.1,0L25.7,52l-9.5-6.8C14.5,34.3,17.9,25.9,24,18.9L24,18.9z M69,42.7l-9.1,6.7L58.9,58l-11.2,0.1c-1.7,2.2-3.7,2-5.2,0
		l-11.3,0l-1-8.4L21,42.6c-0.7-2.6-0.4-5.1,0.6-7.9l14.9,15.2c0.5,0.3,0.7,0,0.5-0.3L22.5,31.7c0-2.2,1.4-4.3,3.4-6.4L39,47.8
		c0.4,0.6,0.9,0.5,0.6-0.3L27.7,22.9c1.6-2.5,3.7-3.7,6-4.5l8.1,28.3c0.3,0.6,0.7,0.5,0.6-0.2L36.5,17c1.1-0.8,2.4-1.4,4-1.6
		c0.8-0.1,1.7-0.1,3,0l1.4,31.3c0,1,0.5,0.8,0.5,0l1.1-31.2c0.9-0.1,1.8-0.1,2.8,0c1.6,0.1,3.2,0.6,4.2,1.5l-5.6,29.5
		c0,0.4,0.3,0.4,0.5,0.1l8-28.3c3.3,1.5,5.2,3.1,5.8,4.5L50.7,47.5c-0.3,0.5,0.2,0.9,0.5,0.5l12.9-22.8c1.8,1.8,3.2,3.7,3.7,6.1
		L53.6,49.1c-0.7,0.8-0.3,1,0.3,0.3l14.4-14.6C69.3,36.9,69.7,39.4,69,42.7L69,42.7z"/>
	<path class="st36" d="M69,42.7l-9.1,6.7L58.9,58l-11.2,0.1c-1.7,2.2-3.7,2-5.2,0l-11.3,0l-1-8.4L21,42.6c-0.7-2.6-0.4-5.1,0.6-7.9
		l14.9,15.2c0.5,0.3,0.7,0,0.5-0.3L22.5,31.7c0-2.2,1.4-4.3,3.4-6.4L39,47.8c0.4,0.6,0.9,0.5,0.6-0.3L27.7,22.9
		c1.6-2.5,3.7-3.7,6-4.5l8.1,28.3c0.3,0.6,0.7,0.5,0.6-0.2L36.5,17c1.1-0.8,2.4-1.4,4-1.6c0.8-0.1,1.7-0.1,3,0l1.4,31.3
		c0,1,0.5,0.8,0.5,0l1.1-31.2c0.9-0.1,1.8-0.1,2.8,0c1.6,0.1,3.2,0.6,4.2,1.5l-5.6,29.5c0,0.4,0.3,0.4,0.5,0.1l8-28.3
		c3.3,1.5,5.2,3.1,5.8,4.5L50.7,47.5c-0.3,0.5,0.2,0.9,0.5,0.5l12.9-22.8c1.8,1.8,3.2,3.7,3.7,6.1L53.6,49.1c-0.7,0.8-0.3,1,0.3,0.3
		l14.4-14.6C69.3,36.9,69.7,39.4,69,42.7L69,42.7z"/>
	<path class="st35" d="M69.8,68.4h4c0.1,0,0.2,0.1,0.2,0.2v11.1c0,0.1-0.1,0.2-0.2,0.2h-4c-0.1,0-0.2-0.1-0.2-0.2V68.6
		C69.6,68.5,69.7,68.4,69.8,68.4L69.8,68.4z"/>
	<path class="st35" d="M63.1,68.4h4c0.1,0,0.2,0.1,0.2,0.2v11.1c0,0.1-0.1,0.2-0.2,0.2h-4c-0.1,0-0.2-0.1-0.2-0.2V68.6
		C62.9,68.5,63,68.4,63.1,68.4L63.1,68.4z"/>
	<path class="st35" d="M51.5,71.6c2.3-0.1,4.5-0.1,6.8,0.2c1.4,0.2,2.4,0.8,2.6,2.3l0.1,2.1c0,0.3-0.1,0.4-0.3,0.4l-8-0.1
		c-0.1,0-0.2,0.1-0.2,0.2c-0.1,1,0.2,1.7,1.2,1.7l1.9,0c0.3,0,0.9-0.5,1-0.9c0-0.2,0.1-0.3,0.4-0.4l3.6,0c0.4,0,0.5,0.1,0.5,0.4
		c-0.1,1.3-0.8,2.1-2.4,2.4c-1.9,0.1-4.4,0-6.7,0c-2.4-0.1-3.3-0.6-3.7-1.8c-0.3-1.4-0.3-3-0.1-4.4C48.3,72.5,49.2,71.7,51.5,71.6
		L51.5,71.6z M53.7,73.3c0.6-0.1,1.2,0,1.8,0c0.6,0.1,1.5,1,0.8,1.4c-1.2,0-2.3,0-3.5,0C52.3,74.3,52.7,73.5,53.7,73.3L53.7,73.3z"
		/>
	<path class="st35" d="M33.7,68.4h4c0.1,0,0.2,0.1,0.2,0.2V72c0.1,0.1,0.2,0.1,0.4,0.1c0.4-0.1,0.8-0.3,1.2-0.4
		c3.7-0.3,6.3,0.1,6.5,2l0,2.8v3.1c0,0.1-0.1,0.2-0.2,0.2h-3.9c-0.1,0-0.2-0.1-0.2-0.2v-3.2v-0.2h0l0-1.6c-0.1-1.1-3.2-1.1-3.8-0.1
		v5.1c0,0.1-0.1,0.2-0.2,0.2h-4c-0.1,0-0.2-0.1-0.2-0.2V68.6C33.5,68.5,33.5,68.4,33.7,68.4L33.7,68.4z"/>
	<path class="st35" d="M19.8,79.8c-2.9,0-3.5-1.5-3.5-3.5c0-0.1,0.1-0.2,0.2-0.2h4.7c0.1,0,0.2,0.1,0.2,0.2c0,0.7,0.1,1.3,1,1.5
		l2.9,0c0.8-0.1,1.2-0.8,1.1-1.8c-0.1-0.5-0.3-0.9-1.2-1.1l-5.3-0.1c-2-0.1-3.1-0.7-3.3-2l0-2.2c0.1-1.4,1-2.3,3.5-2.4l6.5-0.1
		c2.6-0.1,4,0.4,4.5,1.4c0.2,0.6,0.1,1.2,0.2,1.9c0,0.2-0.2,0.3-0.5,0.3l-4.2,0c-0.2,0-0.3-0.1-0.3-0.3c0.2-1.3-0.7-1.6-2.4-1.5
		c-1.7,0-2.5,0.2-2.6,0.8c-0.2,1.2,0.2,1.9,1.3,1.9l4.1,0.1c3.4,0.1,4.7,1,4.7,2.6c0.3,2.9-0.5,3.9-2,4.3
		C26.3,79.9,23.1,80,19.8,79.8L19.8,79.8z"/>
</g>
</svg>
