<svg xmlns="http://www.w3.org/2000/svg" viewBox="0 0 204 60" enable-background="new 0 0 204 60"><style type="text/css">.st0{fill:#374654;} .st1{fill:#126AD9;} .st2{fill:#F0F0F0;} .st3{clip-path:url(#SVGID_2_);fill:#C8C8C8;} .st4{clip-path:url(#SVGID_4_);fill:#C8C8C8;} .st5{fill:#FF432F;} .st6{fill:#FFFFFF;} .st7{fill:none;} .st8{fill:#0857AF;} .st9{fill-rule:evenodd;clip-rule:evenodd;fill:#009540;} .st10{fill-rule:evenodd;clip-rule:evenodd;fill:#AEC90B;} .st11{fill-rule:evenodd;clip-rule:evenodd;fill:#FFD900;} .st12{fill-rule:evenodd;clip-rule:evenodd;fill:#FFFFFF;} .st13{fill-rule:evenodd;clip-rule:evenodd;fill:#EF3E42;} .st14{fill-rule:evenodd;clip-rule:evenodd;fill:#00546D;} .st15{fill-rule:evenodd;clip-rule:evenodd;fill:#1D1D1B;} .st16{fill-rule:evenodd;clip-rule:evenodd;fill:#006BB6;} .st17{fill-rule:evenodd;clip-rule:evenodd;fill:#E53212;} .st18{fill-rule:evenodd;clip-rule:evenodd;fill:#CC3B25;} .st19{fill-rule:evenodd;clip-rule:evenodd;fill:#373E8A;} .st20{fill:#89B5EC;} .st21{fill:#DADADA;} .st22{fill:#3856C1;} .st23{fill:#EFC822;} .st24{fill:#0023A0;} .st25{fill:#DCDCDC;}</style><path class="st5" d="M76.2 27.1c4.9 2.3 6.8 5.3 6.7 9.3-.1 6.1-4.9 9.8-13.3 9.8-4.1 0-7-.9-8.9-1.9v-7.5c1.3-.2 2.6-.6 3.9-.6.2 1.3.6 2.4 1.1 3.6.8.2 1.8.3 2.8.3 3.2 0 4.9-1 5-2.8 0-1.4-1-2.2-3.1-3.4l-4.2-2.5c-2.6-1.5-4.9-4.2-4.9-8 0-5.5 4.8-9.5 12.7-9.5 4.2 0 7.4 1.1 7.5 1.1v8c-1.3.2-2.6.6-3.9.6-.2-1.2-.5-2.3-1-3.4-.8-.2-1.3-.2-1.9-.2-2.9 0-4.6 1.1-4.6 2.7 0 1.1.7 1.8 2.6 2.6l3.5 1.8zM105.1 38.8c.9 0 2.3.2 3.1.4.5 1 .6 2.7.6 4.1-3 .4-5.4 1.3-8.2 2.6h-1.7c-.5-1.1-.9-2.4-1.2-3.6-1.5 2.2-3.7 3.6-6.3 3.6-3.2 0-5.4-2.4-5.4-5.9 0-4.9 4.3-7.2 10.6-8.6l.7-.2c-.4-2.1-1.8-2.5-3.1-2.5-1.1 0-1.8.3-2.5.6-.3.8-.5 1.6-.7 2.5-1.3 0-2.6-.4-3.9-.6v-6.3s3.2-1.9 8.5-1.9c6.6 0 9.9 3 9.6 9.3l-.4 6.4.3.1zm-8.5-2.9c-2.1.4-3.4 1.2-3.4 2.6 0 1 .7 1.7 1.7 1.7 1.4 0 2.3-1.4 2.4-3.9v-.6l-.7.2zM132.7 23.3c.2 1.3.6 2.6.6 4-.6.1-1.2.2-1.8.4-.4 1.3-1.3 4.2-2.6 7.2l-4.4 10.4c-3.1.5-5.4.6-7.6.4l-5.3-13.3c-.7-1.8-1.1-3.6-1.3-4.7-.7-.2-1.3-.4-2-.5 0-1.3.4-2.6.6-4h1.7c2.1 0 4.3-.2 6.4-.4l3.1 10.1c.4 1.5 1 4 1.3 5.5.8-3.8 2.1-7.4 3.8-10.1-1.2-.5-2.4-.9-3.7-1.1 0-1.3.4-2.6.6-4l10.6.1zM142.6 35.3c.6 3.3 2.6 4.6 5.1 4.6 3.1 0 5-1.9 5-1.9 1.2.6 1.5 2.2 1.4 4 0 0-2.7 3.8-8.9 3.8-6.4 0-10.5-4.3-10.5-11.1 0-7.2 4.5-11.8 10.9-11.8 5.5 0 10.2 3.4 8.9 12l-11.9.4zm5.1-4.2c0-2.1-.6-3.4-2.3-3.4-1.8 0-2.6 1.4-2.9 3.6l5.2-.2zM157.1 37v-5.3h13.2V37h-13.2zM189.5 13.7c9.1 0 14.9 6.1 14.5 15.7-.4 9.9-7 16.8-16.5 16.8-9.1 0-14.9-6.4-14.6-16 .4-9.9 7-16.5 16.6-16.5zm-7.7 16.1c0 5.8 2.7 9.8 6.8 9.8 4 0 6.7-4 6.7-9.8 0-5.8-2.7-9.5-6.8-9.5s-6.7 3.7-6.7 9.5zM47.1 18c-.1-.8-.4-1.1-.6-2v-.1c-.7-4.2-3.3-7.8-7-9.7-1.5-.8-3.1-1.2-4.8-1.4-.1 0-.2-.1-.3-.1h-.2c-.1 0-.2.1-.4.1v-.4C33.9 2 32 0 29.6 0H4.4C2 0 0 2 0 4.4v51.3C0 58 2 60 4.4 60h25.2c2.4 0 4.4-2 4.4-4.4V33.4c.2-.1.4-.2.6-.2h.3c.1 0 .2.1.3.1 1 .6 1.2 1.7 1.2 2.8v13.4c0 3.2 2.4 5.6 5.4 5.6 3 0 5.4-2.5 5.4-5.6V18.3c0-.1-.1-.2-.1-.3zM13.5 3.5H20.3c.8 0 1.4.6 1.4 1.4 0 .7-.5 1.3-1.2 1.4h-6.8c-.8 0-1.4-.6-1.4-1.4 0-.8.6-1.4 1.2-1.4zM17 57.7c-1.5 0-2.8-1.2-2.8-2.8 0-1.5 1.2-2.8 2.8-2.8 1.5 0 2.8 1.2 2.8 2.8-.1 1.6-1.3 2.8-2.8 2.8zM29.3 48v.3c-.1 1.2-1.1 2.1-2.3 2.1H7c-1.3 0-2.4-1.1-2.4-2.4V11.9c0-1.2.8-2.1 2-2.3h20.7c1 .2 1.8 1 1.9 2.1v36.2c.1-.1.1 0 .1.1zm14.1-27v28.5c0 .9-.6 1.8-1.6 1.8-1.1 0-1.6-.9-1.6-1.8V36.1c0-3.8-2.2-6.4-5.5-6.9h-.2c-.1 0-.3-.1-.4-.2V7.6c.2.1.4.1.6.1h.2c.9.1 1.7.3 2.5.6.1 0 .2.1.3.1.6.3 1.1 1 1.1 1.7v.2c0 .1 0 .2-.1.4l-.8 3.4c-.5 2 .8 4.1 2.8 4.6l1.4.3h.1c.8.2 1.4.9 1.4 1.7v.1l-.2.2z"/></svg>