<svg xmlns="http://www.w3.org/2000/svg" viewBox="0 0 50 50" enable-background="new 0 0 50 50"><style type="text/css">.st0{fill:#374654;} .st1{fill:#126AD9;} .st2{fill:#F0F0F0;} .st3{clip-path:url(#SVGID_2_);fill:#C8C8C8;} .st4{clip-path:url(#SVGID_4_);fill:#C8C8C8;} .st5{fill:#FF432F;} .st6{fill:#FFFFFF;} .st7{fill:none;} .st8{fill:#0857AF;} .st9{fill-rule:evenodd;clip-rule:evenodd;fill:#009540;} .st10{fill-rule:evenodd;clip-rule:evenodd;fill:#AEC90B;} .st11{fill-rule:evenodd;clip-rule:evenodd;fill:#FFD900;} .st12{fill-rule:evenodd;clip-rule:evenodd;fill:#FFFFFF;} .st13{fill-rule:evenodd;clip-rule:evenodd;fill:#EF3E42;} .st14{fill-rule:evenodd;clip-rule:evenodd;fill:#00546D;} .st15{fill-rule:evenodd;clip-rule:evenodd;fill:#1D1D1B;} .st16{fill-rule:evenodd;clip-rule:evenodd;fill:#006BB6;} .st17{fill-rule:evenodd;clip-rule:evenodd;fill:#E53212;} .st18{fill-rule:evenodd;clip-rule:evenodd;fill:#CC3B25;} .st19{fill-rule:evenodd;clip-rule:evenodd;fill:#373E8A;} .st20{fill:#89B5EC;} .st21{fill:#DADADA;} .st22{fill:#3856C1;} .st23{fill:#EFC822;} .st24{fill:#0023A0;} .st25{fill:#DCDCDC;}</style><path class="st1" d="M25 0C11.2 0 0 11.2 0 25s11.2 25 25 25 25-11.2 25-25S38.8 0 25 0zm13.1 19.3l-15 15c-.5.5-1.1.7-1.8.7s-1.3-.3-1.7-.8l-7.7-7.6c-1-1-1-2.6 0-3.5 1-1 2.6-1 3.5 0l5.8 5.8 13.3-13.3c1-1 2.6-1 3.5 0 1 1.2 1 2.6.1 3.7z"/></svg>