<svg xmlns="http://www.w3.org/2000/svg" xmlns:xlink="http://www.w3.org/1999/xlink" viewBox="0 0 120 120" enable-background="new 0 0 120 120"><style type="text/css">.st0{fill:#374654;} .st1{fill:#126AD9;} .st2{fill:#F0F0F0;} .st3{clip-path:url(#SVGID_2_);fill:#C8C8C8;} .st4{clip-path:url(#SVGID_4_);fill:#C8C8C8;} .st5{fill:#FF432F;} .st6{fill:#FFFFFF;} .st7{fill:none;} .st8{fill:#0857AF;} .st9{fill-rule:evenodd;clip-rule:evenodd;fill:#009540;} .st10{fill-rule:evenodd;clip-rule:evenodd;fill:#AEC90B;} .st11{fill-rule:evenodd;clip-rule:evenodd;fill:#FFD900;} .st12{fill-rule:evenodd;clip-rule:evenodd;fill:#FFFFFF;} .st13{fill-rule:evenodd;clip-rule:evenodd;fill:#EF3E42;} .st14{fill-rule:evenodd;clip-rule:evenodd;fill:#00546D;} .st15{fill-rule:evenodd;clip-rule:evenodd;fill:#1D1D1B;} .st16{fill-rule:evenodd;clip-rule:evenodd;fill:#006BB6;} .st17{fill-rule:evenodd;clip-rule:evenodd;fill:#E53212;} .st18{fill-rule:evenodd;clip-rule:evenodd;fill:#CC3B25;} .st19{fill-rule:evenodd;clip-rule:evenodd;fill:#373E8A;} .st20{fill:#89B5EC;} .st21{fill:#DADADA;} .st22{fill:#3856C1;} .st23{fill:#EFC822;} .st24{fill:#0023A0;} .st25{fill:#DCDCDC;}</style><circle class="st2" cx="60" cy="60" r="60"/><defs><circle id="SVGID_3_" cx="60" cy="60" r="60"/></defs><clipPath id="SVGID_2_"><use xlink:href="#SVGID_3_" overflow="visible"/></clipPath><path class="st3" d="M94 108.4c-15.7-5.7-20.8-10.6-20.8-20.9 0-6.2 4.8-4.2 6.9-15.6.9-4.7 5.1-.1 5.9-10.9 0-4.3-2.3-5.4-2.3-5.4s1.2-6.4 1.6-11.3c.6-6.1-3.5-21.9-25.4-21.9s-25.8 15.9-25.3 22c.5 4.9 1.6 11.3 1.6 11.3S34 56.7 34 61c.8 10.8 5.1 6.1 5.9 10.9 2.1 11.4 6.9 9.4 6.9 15.6 0 10.4-5 15.2-20.8 20.9-11.1 4-19.5 8.1-23.4 11.6h114.8c-4-3.5-12.3-7.6-23.4-11.6z"/></svg>