<svg xmlns="http://www.w3.org/2000/svg" viewBox="0 0 110 150" enable-background="new 0 0 110 150"><style type="text/css">.st0{fill:#374654;} .st1{fill:#126AD9;} .st2{fill:#F0F0F0;} .st3{clip-path:url(#SVGID_2_);fill:#C8C8C8;} .st4{clip-path:url(#SVGID_4_);fill:#C8C8C8;} .st5{fill:#FF432F;} .st6{fill:#FFFFFF;} .st7{fill:none;} .st8{fill:#0857AF;} .st9{fill-rule:evenodd;clip-rule:evenodd;fill:#009540;} .st10{fill-rule:evenodd;clip-rule:evenodd;fill:#AEC90B;} .st11{fill-rule:evenodd;clip-rule:evenodd;fill:#FFD900;} .st12{fill-rule:evenodd;clip-rule:evenodd;fill:#FFFFFF;} .st13{fill-rule:evenodd;clip-rule:evenodd;fill:#EF3E42;} .st14{fill-rule:evenodd;clip-rule:evenodd;fill:#00546D;} .st15{fill-rule:evenodd;clip-rule:evenodd;fill:#1D1D1B;} .st16{fill-rule:evenodd;clip-rule:evenodd;fill:#006BB6;} .st17{fill-rule:evenodd;clip-rule:evenodd;fill:#E53212;} .st18{fill-rule:evenodd;clip-rule:evenodd;fill:#CC3B25;} .st19{fill-rule:evenodd;clip-rule:evenodd;fill:#373E8A;} .st20{fill:#89B5EC;} .st21{fill:#DADADA;} .st22{fill:#3856C1;} .st23{fill:#EFC822;} .st24{fill:#0023A0;} .st25{fill:#DCDCDC;}</style><path class="st12" d="M0 54.5C0 24.4 24.4 0 54.5 0S109 24.4 109 54.5 84.6 109 54.5 109 0 84.6 0 54.5z"/><path class="st13" d="M66.2 38.3H42.8l-7.2 22.3 68.6-22.3-30.7 22.3 11.7 36.1-30.7-22.3-30.7 22.3c8.6 6.3 19.2 10 30.7 10 28.8 0 52.2-23.4 52.2-52.2 0-28.8-23.4-52.2-52.2-52.2l11.7 36z"/><path class="st14" d="M54.5 2.3C25.7 2.3 2.3 25.6 2.3 54.5c0 17.4 8.5 32.7 21.5 42.2l11.7-36.1L4.9 38.3h37.9l11.7-36z"/><path class="st15" d="M46.9 145.4h7.4v4H42.2v-21.1h4.7v17.1zM62.1 149.4h-4.7v-17.1h-5.1v-4h14.9v4h-5.1v17.1zM29.8 133.8l5.2 15.6h5l-7.8-21.1h-4.8l-7.8 21.1h5l5.2-15.6zM29.8 145.4l5.2 4H24.6l5.2-4zM84.1 145.4l-3.2 4H70.1v-21.1h11.8v4h-7.1v4.4h6.8v4h-6.8v4.6l9.3.1zM95.2 142.2l5.5 7.2h6.1L98 138l6.7-9.7h-6.1l-3.4 5.9-3.5-5.9h-6.1l6.7 9.7-8.7 11.4h6.1l5.5-7.2zM17.8 149.4c-1.5.4-3.2.6-4.5.6-6.3 0-11.4-4.9-11.4-11s5.1-11 11.4-11c1.7 0 3.2.4 4.5 1.1v4.5c-1.4-.7-2.9-1.1-4.4-1.1-3.6 0-6.7 2.9-6.7 6.5s3.1 6.4 6.7 6.4c1.4 0 3-.4 4.5-1.1l-.1 5.1z"/></svg>