<svg xmlns="http://www.w3.org/2000/svg" viewBox="0 0 40 40" enable-background="new 0 0 40 40"><style type="text/css">.st0{fill:#374654;} .st1{fill:#126AD9;} .st2{fill:#F0F0F0;} .st3{clip-path:url(#SVGID_2_);fill:#C8C8C8;} .st4{clip-path:url(#SVGID_4_);fill:#C8C8C8;} .st5{fill:#FF432F;} .st6{fill:#FFFFFF;} .st7{fill:none;} .st8{fill:#0857AF;} .st9{fill-rule:evenodd;clip-rule:evenodd;fill:#009540;} .st10{fill-rule:evenodd;clip-rule:evenodd;fill:#AEC90B;} .st11{fill-rule:evenodd;clip-rule:evenodd;fill:#FFD900;} .st12{fill-rule:evenodd;clip-rule:evenodd;fill:#FFFFFF;} .st13{fill-rule:evenodd;clip-rule:evenodd;fill:#EF3E42;} .st14{fill-rule:evenodd;clip-rule:evenodd;fill:#00546D;} .st15{fill-rule:evenodd;clip-rule:evenodd;fill:#1D1D1B;} .st16{fill-rule:evenodd;clip-rule:evenodd;fill:#006BB6;} .st17{fill-rule:evenodd;clip-rule:evenodd;fill:#E53212;} .st18{fill-rule:evenodd;clip-rule:evenodd;fill:#CC3B25;} .st19{fill-rule:evenodd;clip-rule:evenodd;fill:#373E8A;} .st20{fill:#89B5EC;} .st21{fill:#DADADA;} .st22{fill:#3856C1;} .st23{fill:#EFC822;} .st24{fill:#0023A0;} .st25{fill:#DCDCDC;} .st26{fill:#231F20;} .st27{fill-rule:evenodd;clip-rule:evenodd;fill:#C2C2C2;} .st28{fill-rule:evenodd;clip-rule:evenodd;fill:#A3A3A3;} .st29{fill-rule:evenodd;clip-rule:evenodd;fill:#A5A5A5;} .st30{fill-rule:evenodd;clip-rule:evenodd;fill:#B4B4B4;} .st31{fill-rule:evenodd;clip-rule:evenodd;fill:#BEBEBE;} .st32{fill-rule:evenodd;clip-rule:evenodd;fill:#C4C4C4;} .st33{fill-rule:evenodd;clip-rule:evenodd;fill:#999999;} .st34{fill-rule:evenodd;clip-rule:evenodd;fill:#8D8D8D;} .st35{fill-rule:evenodd;clip-rule:evenodd;fill:#EC1C24;} .st36{fill-rule:evenodd;clip-rule:evenodd;fill:#FFF100;} .st37{fill-rule:evenodd;clip-rule:evenodd;fill:#C3C3C3;} .st38{fill:#C8C8C8;}</style><path class="st0" d="M4.5 28.9V17.4H0v-2.7c.6 0 1.2 0 1.8-.1s1.1-.3 1.6-.6.9-.6 1.2-1.1.5-1 .6-1.7h2.9V29H4.5zM13.5 15.1c.3-.9.7-1.6 1.2-2.3.5-.7 1.2-1.2 2-1.5.8-.4 1.8-.5 2.8-.5.8 0 1.6.1 2.3.4.7.3 1.4.6 1.9 1.1.6.5 1 1.1 1.3 1.8.3.7.5 1.5.5 2.3 0 .9-.1 1.7-.4 2.3-.3.6-.7 1.2-1.1 1.7-.5.5-1 1-1.6 1.4L20.6 23c-.6.4-1.2.8-1.8 1.3-.6.5-1.1 1-1.5 1.6h8.4V29h-13c0-1 .1-1.9.4-2.7.3-.8.7-1.4 1.2-2 .5-.6 1.1-1.2 1.8-1.7s1.4-1 2.2-1.5c.4-.3.8-.5 1.2-.8l1.2-.9c.4-.3.7-.7.9-1.1.2-.4.4-.9.4-1.4 0-.9-.2-1.5-.7-2-.5-.5-1.1-.7-1.9-.7-.5 0-1 .1-1.3.4-.4.2-.7.6-.9 1-.2.4-.4.8-.5 1.3-.1.5-.1 1-.1 1.4h-3.5c0-1.4.2-2.3.4-3.2zM33.4 18.3c.4 0 .8-.1 1.2-.3.4-.2.7-.4.9-.7.2-.3.4-.7.4-1.2 0-.8-.3-1.3-.8-1.8-.5-.4-1.1-.6-1.8-.6-.9 0-1.6.3-2.1.9-.5.6-.7 1.4-.7 2.3h-3.4c0-.9.2-1.7.5-2.5s.7-1.4 1.2-1.9 1.2-1 1.9-1.3c.7-.3 1.6-.4 2.5-.4.7 0 1.4.1 2.1.3.7.2 1.3.5 1.9 1 .6.4 1 .9 1.4 1.5.4.6.5 1.3.5 2.1 0 .9-.2 1.6-.6 2.3-.4.7-1 1.1-1.9 1.3v.1c1 .2 1.8.7 2.3 1.4.6.7.8 1.6.8 2.6 0 .9-.2 1.8-.5 2.5-.4.7-.9 1.3-1.5 1.8s-1.3.9-2.1 1.1c-.8.3-1.6.4-2.5.4-1 0-1.9-.1-2.7-.4-.8-.3-1.5-.7-2.1-1.3-.6-.6-1-1.2-1.3-2-.3-.8-.5-1.7-.4-2.7H30c0 .5.1.9.2 1.4.1.4.3.8.6 1.1.3.3.6.6 1 .7.4.2.8.3 1.4.3.8 0 1.5-.2 2.1-.7.6-.5.8-1.2.8-2 0-.7-.1-1.2-.4-1.5-.3-.4-.6-.6-1-.8-.4-.2-.8-.3-1.3-.3H32v-2.5c.5-.2.9-.2 1.4-.2z"/></svg>