<svg xmlns="http://www.w3.org/2000/svg" viewBox="0 0 40 40" enable-background="new 0 0 40 40"><style type="text/css">.st0{fill:#374654;} .st1{fill:#126AD9;} .st2{fill:#F0F0F0;} .st3{clip-path:url(#SVGID_2_);fill:#C8C8C8;} .st4{clip-path:url(#SVGID_4_);fill:#C8C8C8;} .st5{fill:#FF432F;} .st6{fill:#FFFFFF;} .st7{fill:none;} .st8{fill:#0857AF;} .st9{fill-rule:evenodd;clip-rule:evenodd;fill:#009540;} .st10{fill-rule:evenodd;clip-rule:evenodd;fill:#AEC90B;} .st11{fill-rule:evenodd;clip-rule:evenodd;fill:#FFD900;} .st12{fill-rule:evenodd;clip-rule:evenodd;fill:#FFFFFF;} .st13{fill-rule:evenodd;clip-rule:evenodd;fill:#EF3E42;} .st14{fill-rule:evenodd;clip-rule:evenodd;fill:#00546D;} .st15{fill-rule:evenodd;clip-rule:evenodd;fill:#1D1D1B;} .st16{fill-rule:evenodd;clip-rule:evenodd;fill:#006BB6;} .st17{fill-rule:evenodd;clip-rule:evenodd;fill:#E53212;} .st18{fill-rule:evenodd;clip-rule:evenodd;fill:#CC3B25;} .st19{fill-rule:evenodd;clip-rule:evenodd;fill:#373E8A;} .st20{fill:#89B5EC;} .st21{fill:#DADADA;} .st22{fill:#3856C1;} .st23{fill:#EFC822;} .st24{fill:#0023A0;} .st25{fill:#DCDCDC;}</style><path class="st0" d="M39.9 18.2c-.1-.8-.7-1.4-1.5-1.5H37.5c-1 0-1.8-.6-2.2-1.4-.1-.2-.2-.4-.2-.6l-.6-1.5-.3-.6c-.2-.3-.2-.6-.2-.9 0-.7.3-1.3.7-1.8l.5-.5c.6-.6.6-1.6.1-2.2-.4-.5-.8-.9-1.2-1.3-.4-.4-.9-.9-1.4-1.3-.6-.5-1.4-.5-2-.1l-.4.4-.3.4c-.7.7-1.8.9-2.7.6-.1 0-.2-.1-.4-.2-.6-.3-1.2-.5-1.8-.7-.1 0-.2-.1-.3-.1-.3-.1-.6-.3-.8-.5-.4-.4-.6-.9-.7-1.5V1.7c0-.8-.6-1.5-1.4-1.6h-.3c-.5-.1-1-.1-1.6-.1s-1.1 0-1.7.1H18c-.8.1-1.4.8-1.4 1.6v.7c0 1.1-.7 2-1.6 2.3-.1 0-.1 0-.2.1-.7.2-1.3.5-1.9.8 0 0-.1.1-.2.1-.3.1-.7.2-1 .2-.7.1-1.3-.2-1.7-.6l-.6-.6c-.5-.5-1.4-.6-2.1-.2-.1.1-.1.2-.2.2L5.9 5.9c-.4.3-.8.8-1.2 1.2 0 .1-.1.1-.2.2-.4.7-.3 1.6.2 2.1l.6.6c.8.8.9 1.9.5 2.8 0 .1-.1.1-.1.2-.3.6-.6 1.3-.8 1.9 0 .1 0 .1-.1.2-.1.3-.3.6-.6.9-.5.5-1.1.7-1.8.7h-.7c-.8 0-1.5.6-1.6 1.4v.3C0 18.9 0 19.5 0 20c0 .6 0 1.1.1 1.6v.3c.1.8.8 1.4 1.6 1.4h.7c1.1 0 2 .7 2.3 1.6 0 .1 0 .1.1.2.2.7.5 1.3.8 1.9l.1.1c.1.3.2.7.2 1 .1.9-.2 1.5-.6 1.9l-.5.5c-.6.6-.6 1.4-.2 2.1.1.1.1.2.2.3.4.4.7.8 1.1 1.2.4.4.8.8 1.2 1.1.1.1.2.1.3.2.6.4 1.3.4 1.9 0l.4-.4.3-.3c.8-.8 1.9-.9 2.8-.5 0 0 .1 0 .1.1.6.3 1.3.6 1.9.8.1 0 .1 0 .2.1.3.1.6.3.9.6.5.5.7 1.1.7 1.8v.7c0 .9.7 1.6 1.5 1.7H20c.6 0 1.2 0 1.8-.1.8-.1 1.5-.8 1.5-1.7v-.7c0-1 .6-1.9 1.4-2.3.2-.1.4-.1.5-.2.5-.2 1.1-.4 1.6-.7.1-.1.3-.2.5-.2.3-.1.6-.2.9-.2.6 0 1.2.2 1.7.6l.2.2.4.4c.6.6 1.5.6 2.2.2.1 0 .1-.1.2-.1.4-.4.9-.8 1.3-1.2.4-.4.8-.8 1.2-1.3 0-.1.1-.1.1-.2.5-.6.4-1.5-.1-2.1l-.1-.1-.6-.3c-.7-.7-.9-1.8-.5-2.8 0-.1.1-.2.1-.3.3-.6.6-1.2.8-1.9 0-.1.1-.2.1-.3.1-.3.3-.6.6-.9.5-.5 1.1-.7 1.8-.7h.7c.9 0 1.6-.7 1.7-1.6 0-.6.1-1.2.1-1.7-.1-.4-.1-1-.2-1.6zM30.2 20c0 1.2-.2 2.3-.6 3.3-.1.4-.3.8-.5 1.2-.5 1-1.2 2-2 2.7-.8.8-1.7 1.5-2.7 2-.4.2-.8.3-1.2.5-1 .4-2.2.6-3.3.6-1.2 0-2.3-.2-3.3-.5-.4-.1-.8-.3-1.2-.5-1-.5-1.9-1.2-2.7-1.9-.8-.8-1.5-1.7-2-2.7-.2-.4-.4-.8-.5-1.2-.4-1-.6-2.1-.6-3.3 0-1.2.2-2.3.6-3.4.1-.4.3-.8.5-1.2.5-1 1.2-1.9 2-2.7.8-.8 1.7-1.5 2.7-2 .4-.2.8-.3 1.2-.5 1-.4 2.1-.5 3.3-.5 1.2 0 2.3.2 3.3.6.4.1.8.3 1.2.5 1 .5 1.9 1.2 2.7 2 .8.8 1.5 1.7 1.9 2.7.2.4.3.8.5 1.2.5.8.7 1.9.7 3.1z"/></svg>