<svg xmlns="http://www.w3.org/2000/svg" viewBox="0 0 90 90" enable-background="new 0 0 90 90"><style type="text/css">.st0{fill:#374654;} .st1{fill:#126AD9;} .st2{fill:#F0F0F0;} .st3{clip-path:url(#SVGID_2_);fill:#C8C8C8;} .st4{clip-path:url(#SVGID_4_);fill:#C8C8C8;} .st5{fill:#FF432F;} .st6{fill:#FFFFFF;} .st7{fill:none;} .st8{fill:#0857AF;} .st9{fill-rule:evenodd;clip-rule:evenodd;fill:#009540;} .st10{fill-rule:evenodd;clip-rule:evenodd;fill:#AEC90B;} .st11{fill-rule:evenodd;clip-rule:evenodd;fill:#FFD900;} .st12{fill-rule:evenodd;clip-rule:evenodd;fill:#FFFFFF;} .st13{fill-rule:evenodd;clip-rule:evenodd;fill:#EF3E42;} .st14{fill-rule:evenodd;clip-rule:evenodd;fill:#00546D;} .st15{fill-rule:evenodd;clip-rule:evenodd;fill:#1D1D1B;} .st16{fill-rule:evenodd;clip-rule:evenodd;fill:#006BB6;} .st17{fill-rule:evenodd;clip-rule:evenodd;fill:#E53212;} .st18{fill-rule:evenodd;clip-rule:evenodd;fill:#CC3B25;} .st19{fill-rule:evenodd;clip-rule:evenodd;fill:#373E8A;} .st20{fill:#89B5EC;} .st21{fill:#DADADA;} .st22{fill:#3856C1;} .st23{fill:#EFC822;} .st24{fill:#0023A0;} .st25{fill:#DCDCDC;} .st26{fill:#231F20;} .st27{fill-rule:evenodd;clip-rule:evenodd;fill:#C2C2C2;} .st28{fill-rule:evenodd;clip-rule:evenodd;fill:#A3A3A3;} .st29{fill-rule:evenodd;clip-rule:evenodd;fill:#A5A5A5;} .st30{fill-rule:evenodd;clip-rule:evenodd;fill:#B4B4B4;} .st31{fill-rule:evenodd;clip-rule:evenodd;fill:#BEBEBE;} .st32{fill-rule:evenodd;clip-rule:evenodd;fill:#C4C4C4;} .st33{fill-rule:evenodd;clip-rule:evenodd;fill:#999999;} .st34{fill-rule:evenodd;clip-rule:evenodd;fill:#8D8D8D;} .st35{fill-rule:evenodd;clip-rule:evenodd;fill:#EC1C24;} .st36{fill-rule:evenodd;clip-rule:evenodd;fill:#FFF100;} .st37{fill-rule:evenodd;clip-rule:evenodd;fill:#C3C3C3;} .st38{fill:#C8C8C8;}</style><path class="st12" d="M19.6 35.4C19.6 21.4 31 10 45 10c14 0 25.4 11.4 25.4 25.4 0 14-11.4 25.4-25.4 25.4-14 .1-25.4-11.3-25.4-25.4z"/><path class="st13" d="M50.5 27.9h-11l-3.4 10.4 32-10.4-14.3 10.4 5.5 16.8L45 44.7 30.7 55.1c4 2.9 9 4.7 14.3 4.7 13.5 0 24.4-10.9 24.4-24.4C69.4 22 58.5 11.1 45 11.1l5.5 16.8z"/><path class="st14" d="M45 11.1c-13.5 0-24.4 10.9-24.4 24.4 0 8.1 4 15.3 10 19.7l5.5-16.8-14.2-10.5h17.7L45 11.1z"/><path class="st15" d="M41.5 77.9h3.4v1.8h-5.6v-9.8h2.2v8zM48.6 79.7h-2.2v-7.9H44v-1.9h6.9v1.9h-2.3v7.9zM33.5 72.4l2.4 7.3h2.3l-3.6-9.8h-2.3l-3.6 9.8H31l2.5-7.3zM33.5 77.8l2.4 1.9H31l2.5-1.9zM58.8 77.8l-1.5 1.9h-5v-9.8h5.5v1.9h-3.3v2h3.1v1.9h-3.1v2.1h4.3zM64 76.4l2.6 3.3h2.8l-4.1-5.3 3.1-4.5h-2.8L64 72.6l-1.6-2.7h-2.9l3.2 4.5-4.1 5.3h2.8l2.6-3.3zM27.9 79.7c-.7.2-1.5.3-2.1.3-2.9 0-5.3-2.3-5.3-5.1s2.4-5.1 5.3-5.1c.8 0 1.5.2 2.1.5v2.1c-.6-.3-1.4-.5-2.1-.5-1.7 0-3.1 1.3-3.1 3s1.4 3 3.1 3c.7 0 1.4-.2 2.1-.5v2.3z"/></svg>