<svg xmlns="http://www.w3.org/2000/svg" viewBox="0 0 40 40" enable-background="new 0 0 40 40"><style type="text/css">.st0{fill:#374654;} .st1{fill:#126AD9;} .st2{fill:#F0F0F0;} .st3{clip-path:url(#SVGID_2_);fill:#C8C8C8;} .st4{clip-path:url(#SVGID_4_);fill:#C8C8C8;} .st5{fill:#FF432F;} .st6{fill:#FFFFFF;} .st7{fill:none;} .st8{fill:#0857AF;} .st9{fill-rule:evenodd;clip-rule:evenodd;fill:#009540;} .st10{fill-rule:evenodd;clip-rule:evenodd;fill:#AEC90B;} .st11{fill-rule:evenodd;clip-rule:evenodd;fill:#FFD900;} .st12{fill-rule:evenodd;clip-rule:evenodd;fill:#FFFFFF;} .st13{fill-rule:evenodd;clip-rule:evenodd;fill:#EF3E42;} .st14{fill-rule:evenodd;clip-rule:evenodd;fill:#00546D;} .st15{fill-rule:evenodd;clip-rule:evenodd;fill:#1D1D1B;} .st16{fill-rule:evenodd;clip-rule:evenodd;fill:#006BB6;} .st17{fill-rule:evenodd;clip-rule:evenodd;fill:#E53212;} .st18{fill-rule:evenodd;clip-rule:evenodd;fill:#CC3B25;} .st19{fill-rule:evenodd;clip-rule:evenodd;fill:#373E8A;} .st20{fill:#89B5EC;} .st21{fill:#DADADA;} .st22{fill:#3856C1;} .st23{fill:#EFC822;} .st24{fill:#0023A0;} .st25{fill:#DCDCDC;} .st26{fill:#231F20;} .st27{fill-rule:evenodd;clip-rule:evenodd;fill:#C2C2C2;} .st28{fill-rule:evenodd;clip-rule:evenodd;fill:#A3A3A3;} .st29{fill-rule:evenodd;clip-rule:evenodd;fill:#A5A5A5;} .st30{fill-rule:evenodd;clip-rule:evenodd;fill:#B4B4B4;} .st31{fill-rule:evenodd;clip-rule:evenodd;fill:#BEBEBE;} .st32{fill-rule:evenodd;clip-rule:evenodd;fill:#C4C4C4;} .st33{fill-rule:evenodd;clip-rule:evenodd;fill:#999999;} .st34{fill-rule:evenodd;clip-rule:evenodd;fill:#8D8D8D;} .st35{fill-rule:evenodd;clip-rule:evenodd;fill:#EC1C24;} .st36{fill-rule:evenodd;clip-rule:evenodd;fill:#FFF100;} .st37{fill-rule:evenodd;clip-rule:evenodd;fill:#C3C3C3;} .st38{fill:#C8C8C8;} .st39{opacity:0.4;fill:#FF432F;} .st40{fill-rule:evenodd;clip-rule:evenodd;fill:#374654;} .st41{fill:#2656A0;} .st42{fill:#006FAE;}</style><path class="st5" d="M39.3 14.6l-17.7-12c-.4-.3-1-.5-1.6-.5-.6 0-1.2.2-1.6.5 0 0-17.2 11.6-17.5 11.8-.6.5-.9 1.2-.9 2v18.9c0 1.4 1.1 2.5 2.5 2.5h34.9c1.4 0 2.5-1.1 2.5-2.5V16.2c.1-.6-.2-1.2-.6-1.6zm-2.1 2c0 .1-.1.2-.2.3h-.1L21.8 27.5c-.1.1-.3.2-.4.3-.4.2-.9.3-1.4.3-.5 0-1-.1-1.4-.4-.1-.1-.3-.2-.4-.3L3.1 16.9c-.1-.1-.2-.2-.2-.3v-.1c0-.2.1-.3.2-.4L19.3 5c.2-.1.4-.2.7-.2.3 0 .5.1.7.2l16.2 11.1c.2.1.3.3.3.5 0-.1 0 0 0 0z"/></svg>