<svg xmlns="http://www.w3.org/2000/svg" viewBox="0 0 140 100" enable-background="new 0 0 140 100"><style type="text/css">.st0{fill:#374654;} .st1{fill:#126AD9;} .st2{fill:#F0F0F0;} .st3{clip-path:url(#SVGID_2_);fill:#C8C8C8;} .st4{clip-path:url(#SVGID_4_);fill:#C8C8C8;} .st5{fill:#FF432F;} .st6{fill:#FFFFFF;} .st7{fill:none;} .st8{fill:#0857AF;} .st9{fill-rule:evenodd;clip-rule:evenodd;fill:#009540;} .st10{fill-rule:evenodd;clip-rule:evenodd;fill:#AEC90B;} .st11{fill-rule:evenodd;clip-rule:evenodd;fill:#FFD900;} .st12{fill-rule:evenodd;clip-rule:evenodd;fill:#FFFFFF;} .st13{fill-rule:evenodd;clip-rule:evenodd;fill:#EF3E42;} .st14{fill-rule:evenodd;clip-rule:evenodd;fill:#00546D;} .st15{fill-rule:evenodd;clip-rule:evenodd;fill:#1D1D1B;} .st16{fill-rule:evenodd;clip-rule:evenodd;fill:#006BB6;} .st17{fill-rule:evenodd;clip-rule:evenodd;fill:#E53212;} .st18{fill-rule:evenodd;clip-rule:evenodd;fill:#CC3B25;} .st19{fill-rule:evenodd;clip-rule:evenodd;fill:#373E8A;} .st20{fill:#89B5EC;} .st21{fill:#DADADA;} .st22{fill:#3856C1;} .st23{fill:#EFC822;} .st24{fill:#0023A0;} .st25{fill:#DCDCDC;}</style><path class="st16" d="M11.1 49.1c0-21.1 26.3-38.2 58.8-38.2s58.8 17.1 58.8 38.2-26.3 38.2-58.8 38.2-58.8-17.1-58.8-38.2zM70 97.9c38.7 0 70-21.9 70-48.9 0-27.1-31.3-49-70-49S0 21.9 0 48.9s31.3 49 70 49z"/><path class="st17" d="M46.4 27l-.5 6.8c-2.8-.7-6-2.4-9-.9-2.2 1.1-2.2 3.7-1.5 5.4 1.8 3.1 5.9 2.7 9.2 2.7v5.9c-2 0-4.2.1-6.2.6-1 .3-2.3.8-2.7 1.3-.6.6-1.1 1.7-1.1 2.8-.1.8.1 1.8.5 2.3 2.4 3.2 7.2 1.5 10.2.9l.9 7c-3.9 1.7-9.1 2.3-13.6 1.1-1.4-.4-2.5-.8-3.8-1.7-1.6-1.3-2.8-2.8-3.5-4.5-.8-2-1-4.2-.4-6.6.7-2.9 3.2-5 5.7-6.3-2.5-1.5-4.2-3.2-5.1-5.7-.5-1.8-.4-3.6.1-5.3.3-1.1.5-1.8 1.4-3.1 1.2-1.8 3.6-3.2 5.9-3.9 3.2-.9 6.7-.8 10 0 1.9.4 2.2.7 3.5 1.2zm64 6.8c-4.4-.5-10.6-1-13.2 3.9-3.2 5.8-3 14.3-.6 20.4 1.3 2.6 4 4.3 6.6 5.1 5 .9 10.4.3 13.2-4.2 3.1-5.9 3.3-14.7.3-20.7-1.2-2.4-3.7-4.1-6.3-4.5zm0 9.3c1 3 1 8.1-.1 11.1-1 2.3-2.9 2.6-4.6 2.1-.9-.4-1.8-1.3-2.3-2.6-.8-3.1-.9-8.1.2-11 .9-2.5 3.1-2.2 4.6-2 1 .3 1.8 1.2 2.2 2.4zm-56.1-8.7c-3.5 1.7-5.1 5.2-4.8 9 0 6.1 7.5 6.5 11.1 10.2.7 1.1 0 2.5-1 2.9-3.2 1.5-6.9-.8-9.8-2.3l.3 7.5c4.3 1.9 10.7 2.9 15 .2 2.9-1.8 4.3-4.7 4.5-7.8 0-6.9-7.5-7.6-11.8-10.4-.6-.3-.5-1.2-.4-1.8.2-.6.5-1.2 1.2-1.4 3.7-1.1 7 .6 9.9 2.1l-.3-7.2c-4.1-1.5-9.5-2.8-13.9-1zm22.9 0c-3.5 1.7-5.1 5.2-4.8 9 0 6.1 7.5 6.5 11.1 10.2.7 1.1 0 2.5-1 2.9-3.2 1.5-6.9-.8-9.8-2.3l.3 7.5c4.3 1.9 10.7 2.9 15 .2 2.9-1.8 4.3-4.7 4.5-7.8 0-6.9-7.5-7.6-11.8-10.4-.5-.4-.6-1.3-.4-1.8.2-.5.7-1.2 1.2-1.3 3.7-1.1 6.9.6 9.8 2.1l-.3-7.1c-4-1.7-9.4-3-13.8-1.2z"/></svg>