<svg xmlns="http://www.w3.org/2000/svg" viewBox="0 0 40 40" enable-background="new 0 0 40 40"><style type="text/css">.st0{fill:#374654;} .st1{fill:#126AD9;} .st2{fill:#F0F0F0;} .st3{clip-path:url(#SVGID_2_);fill:#C8C8C8;} .st4{clip-path:url(#SVGID_4_);fill:#C8C8C8;} .st5{fill:#FF432F;} .st6{fill:#FFFFFF;} .st7{fill:none;} .st8{fill:#0857AF;} .st9{fill-rule:evenodd;clip-rule:evenodd;fill:#009540;} .st10{fill-rule:evenodd;clip-rule:evenodd;fill:#AEC90B;} .st11{fill-rule:evenodd;clip-rule:evenodd;fill:#FFD900;} .st12{fill-rule:evenodd;clip-rule:evenodd;fill:#FFFFFF;} .st13{fill-rule:evenodd;clip-rule:evenodd;fill:#EF3E42;} .st14{fill-rule:evenodd;clip-rule:evenodd;fill:#00546D;} .st15{fill-rule:evenodd;clip-rule:evenodd;fill:#1D1D1B;} .st16{fill-rule:evenodd;clip-rule:evenodd;fill:#006BB6;} .st17{fill-rule:evenodd;clip-rule:evenodd;fill:#E53212;} .st18{fill-rule:evenodd;clip-rule:evenodd;fill:#CC3B25;} .st19{fill-rule:evenodd;clip-rule:evenodd;fill:#373E8A;} .st20{fill:#89B5EC;} .st21{fill:#DADADA;} .st22{fill:#3856C1;} .st23{fill:#EFC822;} .st24{fill:#0023A0;} .st25{fill:#DCDCDC;} .st26{fill:#231F20;} .st27{fill-rule:evenodd;clip-rule:evenodd;fill:#C2C2C2;} .st28{fill-rule:evenodd;clip-rule:evenodd;fill:#A3A3A3;} .st29{fill-rule:evenodd;clip-rule:evenodd;fill:#A5A5A5;} .st30{fill-rule:evenodd;clip-rule:evenodd;fill:#B4B4B4;} .st31{fill-rule:evenodd;clip-rule:evenodd;fill:#BEBEBE;} .st32{fill-rule:evenodd;clip-rule:evenodd;fill:#C4C4C4;} .st33{fill-rule:evenodd;clip-rule:evenodd;fill:#999999;} .st34{fill-rule:evenodd;clip-rule:evenodd;fill:#8D8D8D;} .st35{fill-rule:evenodd;clip-rule:evenodd;fill:#EC1C24;} .st36{fill-rule:evenodd;clip-rule:evenodd;fill:#FFF100;} .st37{fill-rule:evenodd;clip-rule:evenodd;fill:#C3C3C3;} .st38{fill:#C8C8C8;}</style><path class="st0" d="M37.1 18.2L21.5 5.3l-.3-.2c-.2-.2-.5-.3-.9-.3-.9 0-1.6.7-1.6 1.6v7.5c0 .8-.7 1.5-1.5 1.5-.3 0-.6-.1-.9-.3-.1 0-.1-.1-.1-.1L4.7 5.3l-.3-.2c-.2-.2-.5-.3-.8-.3-.9 0-1.6.7-1.6 1.6V33.6c0 .9.7 1.6 1.6 1.6.3 0 .6-.1.9-.3l.2-.2L16.4 25c.3-.2.6-.3.9-.3.8 0 1.5.7 1.5 1.5v7.4c0 .9.7 1.6 1.6 1.6.3 0 .6-.1.9-.3l.2-.2 15.6-12.9c.5-.4.9-1.1.9-1.8s-.3-1.4-.9-1.8z"/></svg>