<svg xmlns="http://www.w3.org/2000/svg" viewBox="0 0 160 50" enable-background="new 0 0 160 50"><style type="text/css">.st0{fill:#374654;} .st1{fill:#126AD9;} .st2{fill:#F0F0F0;} .st3{clip-path:url(#SVGID_2_);fill:#C8C8C8;} .st4{clip-path:url(#SVGID_4_);fill:#C8C8C8;} .st5{fill:#FF432F;} .st6{fill:#FFFFFF;} .st7{fill:none;} .st8{fill:#0857AF;} .st9{fill-rule:evenodd;clip-rule:evenodd;fill:#009540;} .st10{fill-rule:evenodd;clip-rule:evenodd;fill:#AEC90B;} .st11{fill-rule:evenodd;clip-rule:evenodd;fill:#FFD900;} .st12{fill-rule:evenodd;clip-rule:evenodd;fill:#FFFFFF;} .st13{fill-rule:evenodd;clip-rule:evenodd;fill:#EF3E42;} .st14{fill-rule:evenodd;clip-rule:evenodd;fill:#00546D;} .st15{fill-rule:evenodd;clip-rule:evenodd;fill:#1D1D1B;} .st16{fill-rule:evenodd;clip-rule:evenodd;fill:#006BB6;} .st17{fill-rule:evenodd;clip-rule:evenodd;fill:#E53212;} .st18{fill-rule:evenodd;clip-rule:evenodd;fill:#CC3B25;} .st19{fill-rule:evenodd;clip-rule:evenodd;fill:#373E8A;} .st20{fill:#89B5EC;} .st21{fill:#DADADA;} .st22{fill:#3856C1;} .st23{fill:#EFC822;} .st24{fill:#0023A0;} .st25{fill:#DCDCDC;}</style><path class="st18" d="M53.6 31.1c0-10.2 8.3-18.5 18.5-18.5s18.5 8.3 18.5 18.5-8.3 18.5-18.5 18.5c-10.3 0-18.5-8.3-18.5-18.5zM72 39.3c4.5 0 8.2-3.7 8.2-8.2 0-4.5-3.7-8.2-8.2-8.2-4.5 0-8.2 3.7-8.2 8.2 0 4.5 3.7 8.2 8.2 8.2z"/><path class="st19" d="M0 .2h15.5l8.8 30.1 9-30.1h14.9v48.1h-9.9V14.8l-9.9 33.5h-9l-9.3-33.7v33.8H0V.2zM93.8.2h9.9v48.1h-9.9V.2zM96.6 31.3c0-10.2 7.7-18.5 17.3-18.5 9.5 0 17.3 8.3 17.3 18.5s-7.7 18.5-17.3 18.5c-9.6-.1-17.3-8.3-17.3-18.5zm16.1 8.2c4.5 0 8.2-3.7 8.2-8.2 0-4.5-3.7-8.2-8.2-8.2-4.5 0-8.2 3.7-8.2 8.2 0 4.6 3.7 8.2 8.2 8.2zM150.1.2h9.9v48.1h-9.9V.2zM134.9 12.7h9.9v35.7h-9.9V12.7zM144.9 10.1V0h-10.1v10.1h10.1z"/></svg>