<svg xmlns="http://www.w3.org/2000/svg" viewBox="0 0 120 160" enable-background="new 0 0 120 160"><style type="text/css">.st0{fill:#374654;} .st1{fill:#126AD9;} .st2{fill:#F0F0F0;} .st3{clip-path:url(#SVGID_2_);fill:#C8C8C8;} .st4{clip-path:url(#SVGID_4_);fill:#C8C8C8;} .st5{fill:#FF432F;} .st6{fill:#FFFFFF;} .st7{fill:none;} .st8{fill:#0857AF;} .st9{fill-rule:evenodd;clip-rule:evenodd;fill:#009540;} .st10{fill-rule:evenodd;clip-rule:evenodd;fill:#AEC90B;} .st11{fill-rule:evenodd;clip-rule:evenodd;fill:#FFD900;} .st12{fill-rule:evenodd;clip-rule:evenodd;fill:#FFFFFF;} .st13{fill-rule:evenodd;clip-rule:evenodd;fill:#EF3E42;} .st14{fill-rule:evenodd;clip-rule:evenodd;fill:#00546D;} .st15{fill-rule:evenodd;clip-rule:evenodd;fill:#1D1D1B;} .st16{fill-rule:evenodd;clip-rule:evenodd;fill:#006BB6;} .st17{fill-rule:evenodd;clip-rule:evenodd;fill:#E53212;} .st18{fill-rule:evenodd;clip-rule:evenodd;fill:#CC3B25;} .st19{fill-rule:evenodd;clip-rule:evenodd;fill:#373E8A;} .st20{fill:#89B5EC;} .st21{fill:#DADADA;} .st22{fill:#3856C1;} .st23{fill:#EFC822;} .st24{fill:#0023A0;} .st25{fill:#DCDCDC;}</style><path class="st9" d="M59.9 98.9zM36.2 57.8c.3-6.4 1.6-12.2 2.8-16.3 3.6 2.3 8.2 6 12.6 10.7 2.5-5.9 5.6-10.9 8.2-14.4 2.6 3.4 5.7 8.5 8.2 14.4 4.3-4.7 9-8.3 12.6-10.7 1.3 4.1 2.5 9.9 2.8 16.3 5.7-2.9 11.3-4.7 15.5-5.7-.2 4.3-1 10.2-2.9 16.3 6.3-.8 12.2-.6 16.5 0-1.7 4-4.4 9.2-8.3 14.3 6.2 1.4 11.7 3.7 15.5 5.6-2.9 3.2-7.3 7.1-12.6 10.6 5.3 3.5 9.7 7.5 12.6 10.6-3.8 2-9.3 4.2-15.5 5.6 3.8 5.1 6.6 10.3 8.3 14.3-4.3.5-10.1.7-16.5 0 1.9 6.1 2.7 12 2.9 16.3-4.2-1-9.8-2.8-15.5-5.7-.3 6.4-1.6 12.2-2.8 16.3-3.6-2.3-8.2-6-12.6-10.7-2.5 5.9-5.6 10.9-8.2 14.4-2.6-3.4-5.7-8.5-8.2-14.4-4.3 4.7-9 8.3-12.6 10.7-1.3-4.1-2.5-9.9-2.8-16.3-5.7 2.9-11.3 4.7-15.5 5.7.2-4.3 1-10.2 2.9-16.3-6.3.8-12.2.6-16.5 0 1.7-4 4.4-9.2 8.3-14.3-6.2-1.4-11.7-3.7-15.5-5.6 2.9-3.2 7.3-7.1 12.6-10.6C7.3 95.4 2.9 91.5 0 88.3c3.8-2 9.3-4.2 15.5-5.6-3.8-5.1-6.6-10.3-8.3-14.3 4.3-.5 10.1-.7 16.5 0-1.9-6.1-2.7-12-2.9-16.3 4.2 1 9.8 2.8 15.4 5.7zm23.7 41.1z"/><path class="st10" d="M59.9 98.9zm-34.8 6.2c-4.5-1.5-8.7-3.7-12.5-6.2 3.7-2.4 7.9-4.6 12.5-6.2-3.7-3-6.9-6.5-9.6-10.1 4.3-1 9-1.6 13.8-1.5-2.5-4.1-4.3-8.5-5.6-12.8 4.4.5 9.1 1.6 13.5 3.3-.9-4.7-1.2-9.5-.9-13.9 4 2 8 4.6 11.5 7.8.7-4.7 2.1-9.3 3.9-13.4 3 3.3 5.9 7.1 8.2 11.3 2.3-4.2 5.2-8 8.2-11.3 1.7 4.1 3.2 8.7 3.9 13.4 3.6-3.2 7.6-5.7 11.5-7.8.2 4.5 0 9.2-.9 13.9C87 70 91.6 69 96 68.4c-1.3 4.3-3.1 8.7-5.6 12.8 4.8-.1 9.5.5 13.8 1.5-2.7 3.6-5.9 7.1-9.6 10.1 4.5 1.5 8.7 3.7 12.5 6.2-3.7 2.4-7.9 4.6-12.5 6.2 3.7 3 6.9 6.5 9.6 10.1-4.3 1-9 1.6-13.8 1.5 2.5 4.1 4.3 8.5 5.6 12.8-4.4-.5-9.1-1.6-13.5-3.3.9 4.7 1.2 9.5.9 13.9-4-2-8-4.6-11.5-7.8-.7 4.7-2.1 9.3-3.9 13.4-3-3.3-5.9-7.1-8.2-11.3-2.3 4.2-5.2 8-8.2 11.3-1.7-4.1-3.2-8.7-3.9-13.4-3.6 3.2-7.6 5.7-11.5 7.8-.2-4.5 0-9.2.9-13.9-4.4 1.8-9.1 2.8-13.5 3.3 1.3-4.3 3.1-8.7 5.6-12.8-4.8.1-9.5-.5-13.8-1.5 2.8-3.7 6-7.2 9.7-10.2z"/><path class="st11" d="M59.9 98.9zm0 0zm0 0zm0 0zM55.7 75c.8-4.1 2.3-8 4.2-11.6C61.8 67 63.3 70.9 64 75c2.1-3.6 4.8-6.7 7.9-9.4.6 4 .7 8.2 0 12.3 3.2-2.7 6.8-4.7 10.6-6.1-.8 4-2.1 7.9-4.2 11.6 3.9-1.4 8-2 12.1-2.1-2.1 3.5-4.7 6.7-7.9 9.4 4.2 0 8.2.9 12 2.1-3.2 2.5-6.7 4.7-10.6 6.2 3.9 1.5 7.4 3.6 10.6 6.2-3.8 1.3-7.9 2.1-12 2.1 3.2 2.7 5.7 6 7.9 9.4-4-.1-8.1-.7-12.1-2.1 2 3.7 3.4 7.6 4.2 11.6-3.8-1.5-7.4-3.5-10.6-6.1.7 4.1.6 8.3 0 12.3-3-2.7-5.7-5.8-7.9-9.4-.8 4.1-2.3 8-4.2 11.6-1.9-3.6-3.4-7.4-4.2-11.6-2.1 3.6-4.8 6.7-7.9 9.4-.6-4-.7-8.2 0-12.3-3.2 2.7-6.8 4.7-10.6 6.1.8-4 2.1-7.9 4.2-11.6-3.9 1.4-8 2-12.1 2.1 2.1-3.5 4.7-6.7 7.9-9.4-4.2 0-8.2-.9-12-2.1 3.2-2.5 6.7-4.7 10.6-6.2-3.9-1.5-7.4-3.6-10.6-6.2 3.8-1.3 7.9-2.1 12-2.1-3.2-2.7-5.7-6-7.9-9.4 4 .1 8.1.7 12.1 2.1-2-3.7-3.4-7.6-4.2-11.6 3.8 1.5 7.4 3.5 10.6 6.1-.7-4.1-.6-8.3 0-12.3 3.1 2.7 5.8 5.8 8 9.4zm4.2 23.9z"/><path class="st12" d="M55.6 87.2c-.8-4.3-.7-8.3 0-12.2 2 3.4 3.5 7.2 4.2 11.4.7-4.3 2.2-8.1 4.2-11.4.7 3.9.8 7.9.1 12.2 2.1-3.8 4.8-6.8 7.8-9.3-.6 3.9-1.9 7.7-4.1 11.5 3.3-2.8 6.8-4.7 10.5-6-1.9 3.4-4.4 6.6-7.8 9.4 4-1.5 8-2.1 11.9-2.1-3 2.6-6.4 4.7-10.5 6.1 4.3 0 8.3.8 11.9 2.2-3.7 1.4-7.6 2.2-11.9 2.2 4 1.5 7.5 3.6 10.5 6.1-3.9 0-7.9-.6-11.9-2.1 3.3 2.8 5.8 5.9 7.8 9.4-3.7-1.3-7.2-3.3-10.5-6 2.2 3.7 3.5 7.6 4.1 11.5-3-2.5-5.7-5.5-7.8-9.3.8 4.3.7 8.3 0 12.2-2-3.4-3.5-7.2-4.2-11.4-.7 4.3-2.2 8.1-4.2 11.4-.7-3.9-.8-7.9-.1-12.2-2.1 3.8-4.8 6.8-7.8 9.3.6-3.9 1.9-7.7 4.1-11.5-3.3 2.8-6.8 4.8-10.5 6 1.9-3.4 4.4-6.6 7.8-9.4-4 1.5-8 2.1-11.9 2.1 3-2.6 6.4-4.7 10.5-6.1-4.3 0-8.3-.8-11.9-2.2 3.7-1.4 7.6-2.2 11.9-2.2-4-1.5-7.5-3.6-10.5-6.1 3.9 0 7.9.6 11.9 2.1-3.3-2.8-5.8-5.9-7.8-9.4 3.7 1.3 7.2 3.3 10.5 6-2.2-3.7-3.5-7.6-4.1-11.5 3 2.5 5.7 5.6 7.8 9.3z"/><path class="st9" d="M76 0v29.8h4.4V27c1.8 2.4 3.8 3.6 6.8 3.6 5.4 0 9.3-4.4 9.3-11.5 0-7.3-4-11.7-9.3-11.7-2.9 0-5.2 1.2-6.8 3.6V0H76zm10.1 11.3c3.5 0 5.7 2.7 5.7 7.7 0 4.7-2.2 7.4-5.7 7.4-3.7 0-5.8-2.6-5.8-7.5.1-5 2-7.6 5.8-7.6zM109.6 11.3c3.5 0 5.7 2.7 5.7 7.5 0 5-2.2 7.7-5.7 7.7-3.8 0-5.8-2.5-5.8-7.4.1-5.2 2.1-7.8 5.8-7.8zm-5.7 15.8c1.5 2.2 3.8 3.4 6.8 3.4 5.3 0 9.3-4.4 9.3-11.7 0-7.1-3.9-11.5-9.3-11.5-3 0-5 1.2-6.8 3.8V8h-4.4v30.6h4.5V27.1h-.1z"/></svg>