<svg xmlns="http://www.w3.org/2000/svg" viewBox="0 0 90 90" enable-background="new 0 0 90 90"><style type="text/css">.st0{fill:#374654;} .st1{fill:#126AD9;} .st2{fill:#F0F0F0;} .st3{clip-path:url(#SVGID_2_);fill:#C8C8C8;} .st4{clip-path:url(#SVGID_4_);fill:#C8C8C8;} .st5{fill:#FF432F;} .st6{fill:#FFFFFF;} .st7{fill:none;} .st8{fill:#0857AF;} .st9{fill-rule:evenodd;clip-rule:evenodd;fill:#009540;} .st10{fill-rule:evenodd;clip-rule:evenodd;fill:#AEC90B;} .st11{fill-rule:evenodd;clip-rule:evenodd;fill:#FFD900;} .st12{fill-rule:evenodd;clip-rule:evenodd;fill:#FFFFFF;} .st13{fill-rule:evenodd;clip-rule:evenodd;fill:#EF3E42;} .st14{fill-rule:evenodd;clip-rule:evenodd;fill:#00546D;} .st15{fill-rule:evenodd;clip-rule:evenodd;fill:#1D1D1B;} .st16{fill-rule:evenodd;clip-rule:evenodd;fill:#006BB6;} .st17{fill-rule:evenodd;clip-rule:evenodd;fill:#E53212;} .st18{fill-rule:evenodd;clip-rule:evenodd;fill:#CC3B25;} .st19{fill-rule:evenodd;clip-rule:evenodd;fill:#373E8A;} .st20{fill:#89B5EC;} .st21{fill:#DADADA;} .st22{fill:#3856C1;} .st23{fill:#EFC822;} .st24{fill:#0023A0;} .st25{fill:#DCDCDC;} .st26{fill:#231F20;} .st27{fill-rule:evenodd;clip-rule:evenodd;fill:#C2C2C2;} .st28{fill-rule:evenodd;clip-rule:evenodd;fill:#A3A3A3;} .st29{fill-rule:evenodd;clip-rule:evenodd;fill:#A5A5A5;} .st30{fill-rule:evenodd;clip-rule:evenodd;fill:#B4B4B4;} .st31{fill-rule:evenodd;clip-rule:evenodd;fill:#BEBEBE;} .st32{fill-rule:evenodd;clip-rule:evenodd;fill:#C4C4C4;} .st33{fill-rule:evenodd;clip-rule:evenodd;fill:#999999;} .st34{fill-rule:evenodd;clip-rule:evenodd;fill:#8D8D8D;} .st35{fill-rule:evenodd;clip-rule:evenodd;fill:#EC1C24;} .st36{fill-rule:evenodd;clip-rule:evenodd;fill:#FFF100;} .st37{fill-rule:evenodd;clip-rule:evenodd;fill:#C3C3C3;} .st38{fill:#C8C8C8;}</style><path class="st9" d="M44.9 53.3zm-10.3-18c.1-2.8.7-5.3 1.2-7.1 1.6 1 3.6 2.6 5.5 4.7 1.1-2.6 2.5-4.8 3.6-6.3 1.1 1.5 2.5 3.7 3.6 6.3 1.9-2 3.9-3.6 5.5-4.7.6 1.8 1.1 4.3 1.2 7.1 2.5-1.3 4.9-2.1 6.8-2.5-.1 1.9-.5 4.4-1.3 7.1 2.8-.3 5.3-.3 7.2 0-.7 1.7-1.9 4-3.6 6.3 2.7.6 5.1 1.6 6.8 2.5-1.3 1.4-3.2 3.1-5.5 4.6 2.3 1.5 4.3 3.3 5.5 4.6-1.7.9-4.1 1.8-6.8 2.5 1.7 2.2 2.9 4.5 3.6 6.3-1.9.2-4.4.3-7.2 0 .8 2.7 1.2 5.2 1.3 7.1-1.8-.4-4.3-1.2-6.8-2.5-.1 2.8-.7 5.3-1.2 7.1-1.6-1-3.6-2.6-5.5-4.7-1.1 2.6-2.5 4.8-3.6 6.3-1.1-1.5-2.5-3.7-3.6-6.3-1.9 2-3.9 3.6-5.5 4.7-.6-1.8-1.1-4.3-1.2-7.1-2.5 1.3-4.9 2.1-6.8 2.5.1-1.9.5-4.4 1.3-7.1-2.8.3-5.3.3-7.2 0 .7-1.7 1.9-4 3.6-6.3-2.7-.6-5.1-1.6-6.8-2.5 1.3-1.4 3.2-3.1 5.5-4.6-2.3-1.5-4.3-3.3-5.5-4.6 1.7-.9 4.1-1.8 6.8-2.5-1.7-2.2-2.9-4.5-3.6-6.3 1.9-.2 4.4-.3 7.2 0-.8-2.7-1.2-5.2-1.3-7.1 1.9.4 4.3 1.2 6.8 2.5zm10.3 18z"/><path class="st10" d="M44.9 53.3zM29.7 56c-2-.7-3.8-1.6-5.5-2.7 1.6-1.1 3.5-2 5.5-2.7-1.6-1.3-3-2.8-4.2-4.4 1.9-.4 4-.7 6-.7-1.1-1.8-1.9-3.7-2.5-5.6 1.9.2 4 .7 5.9 1.5-.4-2.1-.5-4.1-.4-6.1 1.7.9 3.5 2 5 3.4.3-2.1.9-4.1 1.7-5.9 1.3 1.4 2.6 3.1 3.6 4.9 1-1.8 2.3-3.5 3.6-4.9.8 1.8 1.4 3.8 1.7 5.9 1.6-1.4 3.3-2.5 5-3.4.1 2 0 4-.4 6.1 1.9-.8 4-1.2 5.9-1.5-.6 1.9-1.4 3.8-2.5 5.6 2.1-.1 4.1.2 6 .7-1.2 1.6-2.6 3.1-4.2 4.4 2 .7 3.8 1.6 5.5 2.7-1.6 1.1-3.5 2-5.5 2.7 1.6 1.3 3 2.8 4.2 4.4-1.9.4-4 .7-6 .7 1.1 1.8 1.9 3.7 2.5 5.6-1.9-.2-4-.7-5.9-1.5.4 2.1.5 4.1.4 6.1-1.7-.9-3.5-2-5-3.4-.3 2.1-.9 4.1-1.7 5.9-1.3-1.4-2.6-3.1-3.6-4.9-1 1.8-2.3 3.5-3.6 4.9-.8-1.8-1.4-3.8-1.7-5.9-1.6 1.4-3.3 2.5-5 3.4-.1-2 0-4 .4-6.1-1.9.8-4 1.2-5.9 1.5.6-1.9 1.4-3.8 2.5-5.6-2.1.1-4.1-.2-6-.7 1.2-1.6 2.6-3.1 4.2-4.4z"/><path class="st11" d="M44.9 53.3zm0 0zm0 0zm0 0zm-1.8-10.5c.3-1.8 1-3.5 1.8-5.1.8 1.6 1.5 3.3 1.8 5.1.9-1.6 2.1-2.9 3.4-4.1.3 1.8.3 3.6 0 5.4 1.4-1.2 3-2 4.6-2.7-.4 1.7-.9 3.5-1.8 5.1 1.7-.6 3.5-.9 5.3-.9-.9 1.5-2.1 2.9-3.4 4.1 1.8 0 3.6.4 5.3.9-1.4 1.1-2.9 2-4.6 2.7 1.7.6 3.3 1.6 4.6 2.7-1.7.6-3.4.9-5.3.9 1.4 1.2 2.5 2.6 3.4 4.1-1.8 0-3.6-.3-5.3-.9.9 1.6 1.5 3.3 1.8 5.1-1.6-.6-3.2-1.5-4.6-2.7.3 1.8.3 3.6 0 5.4-1.3-1.2-2.5-2.5-3.4-4.1-.3 1.8-1 3.5-1.8 5.1-.8-1.6-1.5-3.3-1.8-5.1-.9 1.6-2.1 2.9-3.4 4.1-.3-1.8-.3-3.6 0-5.4-1.4 1.2-3 2-4.6 2.7.4-1.7.9-3.5 1.8-5.1-1.7.6-3.5.9-5.3.9.9-1.5 2.1-2.9 3.4-4.1-1.8 0-3.6-.4-5.3-.9 1.4-1.1 2.9-2 4.6-2.7-1.7-.6-3.3-1.6-4.6-2.7 1.7-.6 3.4-.9 5.3-.9-1.4-1.2-2.5-2.6-3.4-4.1 1.8 0 3.6.3 5.3.9-.9-1.6-1.5-3.3-1.8-5.1 1.6.6 3.2 1.5 4.6 2.7-.3-1.8-.3-3.6 0-5.4 1.3 1.2 2.5 2.5 3.4 4.1zm1.8 10.5z"/><path class="st12" d="M43.1 48.2c-.3-1.9-.3-3.6 0-5.3.9 1.5 1.5 3.1 1.8 5 .3-1.9 1-3.5 1.8-5 .3 1.7.4 3.5 0 5.3.9-1.6 2.1-3 3.4-4.1-.3 1.7-.8 3.4-1.8 5 1.4-1.2 3-2.1 4.6-2.6-.8 1.5-1.9 2.9-3.4 4.1 1.8-.7 3.5-.9 5.2-.9-1.3 1.1-2.8 2-4.6 2.7 1.9 0 3.6.3 5.2.9-1.6.6-3.3 1-5.2.9 1.8.6 3.3 1.6 4.6 2.7-1.7 0-3.5-.2-5.2-.9 1.4 1.2 2.6 2.6 3.4 4.1-1.6-.6-3.2-1.4-4.6-2.6.9 1.6 1.5 3.3 1.8 5-1.3-1.1-2.5-2.4-3.4-4.1.3 1.9.3 3.6 0 5.3-.9-1.5-1.5-3.1-1.8-5-.3 1.9-1 3.5-1.8 5-.3-1.7-.4-3.5 0-5.3-.9 1.6-2.1 3-3.4 4.1.3-1.7.8-3.4 1.8-5-1.4 1.2-3 2.1-4.6 2.6.8-1.5 1.9-2.9 3.4-4.1-1.8.7-3.5.9-5.2.9 1.3-1.1 2.8-2 4.6-2.7-1.9 0-3.6-.3-5.2-.9 1.6-.6 3.3-1 5.2-.9-1.8-.6-3.3-1.6-4.6-2.7 1.7 0 3.5.2 5.2.9-1.4-1.2-2.6-2.6-3.4-4.1 1.6.6 3.2 1.4 4.6 2.6-.9-1.6-1.5-3.3-1.8-5 1.3 1.1 2.4 2.4 3.4 4.1z"/><path class="st9" d="M52 10v13h1.9v-1.3c.8 1.1 1.7 1.6 3 1.6 2.4 0 4.1-1.9 4.1-5 0-3.2-1.7-5.1-4.1-5.1-1.3 0-2.3.5-3 1.6V10H52zm4.4 5c1.5 0 2.5 1.2 2.5 3.4 0 2.1-1 3.2-2.5 3.2-1.6 0-2.5-1.1-2.5-3.3 0-2.2.9-3.3 2.5-3.3zM66.7 15c1.5 0 2.5 1.2 2.5 3.3 0 2.2-1 3.4-2.5 3.4-1.6 0-2.5-1.1-2.5-3.2 0-2.4.9-3.5 2.5-3.5zm-2.5 6.9c.7 1 1.7 1.5 3 1.5 2.3 0 4.1-1.9 4.1-5.1 0-3.1-1.7-5-4.1-5-1.3 0-2.2.5-3 1.7v-1.3h-1.9v13.4h2v-5.2h-.1z"/></svg>