<svg xmlns="http://www.w3.org/2000/svg" viewBox="0 0 130 40" enable-background="new 0 0 130 40"><style type="text/css">.st0{fill:#374654;} .st1{fill:#126AD9;} .st2{fill:#F0F0F0;} .st3{clip-path:url(#SVGID_2_);fill:#C8C8C8;} .st4{clip-path:url(#SVGID_4_);fill:#C8C8C8;} .st5{fill:#FF432F;} .st6{fill:#FFFFFF;} .st7{fill:none;} .st8{fill:#0857AF;} .st9{fill-rule:evenodd;clip-rule:evenodd;fill:#009540;} .st10{fill-rule:evenodd;clip-rule:evenodd;fill:#AEC90B;} .st11{fill-rule:evenodd;clip-rule:evenodd;fill:#FFD900;} .st12{fill-rule:evenodd;clip-rule:evenodd;fill:#FFFFFF;} .st13{fill-rule:evenodd;clip-rule:evenodd;fill:#EF3E42;} .st14{fill-rule:evenodd;clip-rule:evenodd;fill:#00546D;} .st15{fill-rule:evenodd;clip-rule:evenodd;fill:#1D1D1B;} .st16{fill-rule:evenodd;clip-rule:evenodd;fill:#006BB6;} .st17{fill-rule:evenodd;clip-rule:evenodd;fill:#E53212;} .st18{fill-rule:evenodd;clip-rule:evenodd;fill:#CC3B25;} .st19{fill-rule:evenodd;clip-rule:evenodd;fill:#373E8A;} .st20{fill:#89B5EC;} .st21{fill:#DADADA;} .st22{fill:#3856C1;} .st23{fill:#EFC822;} .st24{fill:#0023A0;} .st25{fill:#DCDCDC;} .st26{fill:#231F20;} .st27{fill-rule:evenodd;clip-rule:evenodd;fill:#C2C2C2;} .st28{fill-rule:evenodd;clip-rule:evenodd;fill:#A3A3A3;} .st29{fill-rule:evenodd;clip-rule:evenodd;fill:#A5A5A5;} .st30{fill-rule:evenodd;clip-rule:evenodd;fill:#B4B4B4;} .st31{fill-rule:evenodd;clip-rule:evenodd;fill:#BEBEBE;} .st32{fill-rule:evenodd;clip-rule:evenodd;fill:#C4C4C4;} .st33{fill-rule:evenodd;clip-rule:evenodd;fill:#999999;} .st34{fill-rule:evenodd;clip-rule:evenodd;fill:#8D8D8D;} .st35{fill-rule:evenodd;clip-rule:evenodd;fill:#EC1C24;} .st36{fill-rule:evenodd;clip-rule:evenodd;fill:#FFF100;} .st37{fill-rule:evenodd;clip-rule:evenodd;fill:#C3C3C3;} .st38{fill:#C8C8C8;} .st39{opacity:0.4;fill:#FF432F;} .st40{fill-rule:evenodd;clip-rule:evenodd;fill:#374654;} .st41{fill:#2656A0;} .st42{fill:#006FAE;}</style><path class="st1" d="M124 35H20V5h104c3.3 0 6 2.7 6 6v18c0 3.3-2.7 6-6 6z"/><path class="st6" d="M20 2.2c-.3 0-.6.1-.8.3L2.6 19.2c-.2.2-.3.5-.3.8 0 .3.1.6.3.8l16.6 16.6c.4.4 1.2.4 1.6 0l16.6-16.6c.4-.4.4-1.1 0-1.6L20.8 2.6c-.2-.2-.5-.4-.8-.4z"/><path class="st1" d="M20 40c-.9 0-1.7-.3-2.4-1L1 22.4c-.6-.6-1-1.5-1-2.4 0-.9.3-1.7 1-2.4L17.6 1c.6-.6 1.5-1 2.4-1 .9 0 1.7.3 2.4 1L39 17.6c1.3 1.3 1.3 3.4 0 4.8L22.4 39c-.7.7-1.5 1-2.4 1zm0-37.8c-.3 0-.6.1-.8.3L2.6 19.2c-.2.2-.3.5-.3.8 0 .3.1.6.3.8l16.6 16.6c.4.4 1.2.4 1.6 0l16.6-16.6c.4-.4.4-1.1 0-1.6L20.8 2.6c-.2-.2-.5-.4-.8-.4zM15.7 28.4H17s1.5 0 1.5-1.5v-7.4c0-.3.3-.6.6-.7h1.7c.4 0 .7.4.7.7V21.2c0 .3.2.5.5.5.1 0 .2 0 .3-.1l.1-.1 5.3-4.3c.2-.1.3-.4.3-.6 0-.2-.1-.5-.3-.6l-5.2-4.3-.1-.1c-.1-.1-.2-.1-.3-.1-.3 0-.5.2-.5.5V13.7c0 .4-.4.7-.8.7h-5.1c-.8 0-1.4.7-1.4 1.4V26.7c-.1 1 .6 1.7 1.4 1.7z"/></svg>