<svg xmlns="http://www.w3.org/2000/svg" viewBox="0 0 40 40" enable-background="new 0 0 40 40"><style type="text/css">.st0{fill:#374654;} .st1{fill:#126AD9;} .st2{fill:#F0F0F0;} .st3{clip-path:url(#SVGID_2_);fill:#C8C8C8;} .st4{clip-path:url(#SVGID_4_);fill:#C8C8C8;} .st5{fill:#FF432F;} .st6{fill:#FFFFFF;} .st7{fill:none;} .st8{fill:#0857AF;} .st9{fill-rule:evenodd;clip-rule:evenodd;fill:#009540;} .st10{fill-rule:evenodd;clip-rule:evenodd;fill:#AEC90B;} .st11{fill-rule:evenodd;clip-rule:evenodd;fill:#FFD900;} .st12{fill-rule:evenodd;clip-rule:evenodd;fill:#FFFFFF;} .st13{fill-rule:evenodd;clip-rule:evenodd;fill:#EF3E42;} .st14{fill-rule:evenodd;clip-rule:evenodd;fill:#00546D;} .st15{fill-rule:evenodd;clip-rule:evenodd;fill:#1D1D1B;} .st16{fill-rule:evenodd;clip-rule:evenodd;fill:#006BB6;} .st17{fill-rule:evenodd;clip-rule:evenodd;fill:#E53212;} .st18{fill-rule:evenodd;clip-rule:evenodd;fill:#CC3B25;} .st19{fill-rule:evenodd;clip-rule:evenodd;fill:#373E8A;} .st20{fill:#89B5EC;} .st21{fill:#DADADA;} .st22{fill:#3856C1;} .st23{fill:#EFC822;} .st24{fill:#0023A0;} .st25{fill:#DCDCDC;}</style><path class="st6" d="M38 12H10c-1.1 0-2-.9-2-2s.9-2 2-2h28c1.1 0 2 .9 2 2s-.9 2-2 2zM2 12c-.5 0-1-.2-1.4-.6C.2 11 0 10.5 0 10s.2-1 .6-1.4c.7-.8 2.1-.8 2.8 0 .4.4.6.9.6 1.4 0 .5-.2 1-.6 1.4-.4.4-.9.6-1.4.6zM38 22H10c-1.1 0-2-.9-2-2s.9-2 2-2h28c1.1 0 2 .9 2 2s-.9 2-2 2zM2 22c-.5 0-1-.2-1.4-.6C.2 21 0 20.5 0 20s.2-1 .6-1.4c.7-.8 2.1-.8 2.8 0 .4.4.6.9.6 1.4 0 .5-.2 1-.6 1.4-.4.4-.9.6-1.4.6zM38 32H10c-1.1 0-2-.9-2-2s.9-2 2-2h28c1.1 0 2 .9 2 2s-.9 2-2 2zM2 32c-.5 0-1-.2-1.4-.6C.2 31 0 30.5 0 30c0-.5.2-1 .6-1.4.7-.8 2.1-.8 2.8 0 .4.4.6.9.6 1.4 0 .5-.2 1-.6 1.4-.4.4-.9.6-1.4.6z"/></svg>