<svg xmlns="http://www.w3.org/2000/svg" viewBox="0 0 300 300" enable-background="new 0 0 300 300"><style type="text/css">.st0{fill:#374654;} .st1{fill:#126AD9;} .st2{fill:#F0F0F0;} .st3{clip-path:url(#SVGID_2_);fill:#C8C8C8;} .st4{clip-path:url(#SVGID_4_);fill:#C8C8C8;} .st5{fill:#FF432F;} .st6{fill:#FFFFFF;} .st7{fill:none;} .st8{fill:#0857AF;} .st9{fill-rule:evenodd;clip-rule:evenodd;fill:#009540;} .st10{fill-rule:evenodd;clip-rule:evenodd;fill:#AEC90B;} .st11{fill-rule:evenodd;clip-rule:evenodd;fill:#FFD900;} .st12{fill-rule:evenodd;clip-rule:evenodd;fill:#FFFFFF;} .st13{fill-rule:evenodd;clip-rule:evenodd;fill:#EF3E42;} .st14{fill-rule:evenodd;clip-rule:evenodd;fill:#00546D;} .st15{fill-rule:evenodd;clip-rule:evenodd;fill:#1D1D1B;} .st16{fill-rule:evenodd;clip-rule:evenodd;fill:#006BB6;} .st17{fill-rule:evenodd;clip-rule:evenodd;fill:#E53212;} .st18{fill-rule:evenodd;clip-rule:evenodd;fill:#CC3B25;} .st19{fill-rule:evenodd;clip-rule:evenodd;fill:#373E8A;} .st20{fill:#89B5EC;} .st21{fill:#DADADA;} .st22{fill:#3856C1;} .st23{fill:#EFC822;} .st24{fill:#0023A0;} .st25{fill:#DCDCDC;}</style><path class="st7" d="M120 95.2h9.9c.6 0 1.1-.5 1.2-1.1V75.9c-.1-.5-.5-.9-1-1H119.8c-.6.1-1 .6-1 1.2v18c.1.6.6 1.1 1.2 1.1zM298.7 262.9l-2.1-2.1c-.7-.7-1.8-.7-2.4 0l-2.1 2.1c-.7.7-.7 1.8 0 2.4l2.1 2.1c.7.7 1.8.7 2.4 0l2.1-2.1c.7-.6.7-1.7 0-2.4zM123.4 73.1h3.4c.3 0 .6-.3.6-.7 0-.4-.3-.7-.7-.7H123.3c-.3 0-.6.3-.6.7 0 .4.3.7.7.7zM125 96.1c-.8 0-1.4.6-1.4 1.4 0 .8.6 1.4 1.4 1.4.8 0 1.4-.6 1.4-1.4 0-.8-.6-1.4-1.4-1.4zM91.3 295.1c.2-.4 0-.8-.3-1-.3-.2-.8 0-.9.3-.2.4 0 .8.3 1 .3.1.7 0 .9-.3zM112.5 43.9c.1-.1.1-.3.1-.4V40c0-.1 0-.3-.1-.4l3.1-3.1c.1-.1.1-.3 0-.4-.1-.1-.3-.1-.4 0l-3.1 3.1c-.1-.1-.3-.1-.4-.1h-2.8c-.1 0-.3 0-.4.1l-3.1-3.1c-.1-.1-.3-.1-.4 0-.1.1-.1.3 0 .4l3.1 3.1c-.1.1-.1.3-.1.4v3.5c0 .1 0 .3.1.4L105 47c-.1.1-.1.3 0 .4.1.1.3.1.4 0l3.1-3.1c.1.1.3.1.4.1h2.9c.1 0 .3 0 .4-.1l3.1 3.1c.1.1.3.1.4 0 .1-.1.1-.3 0-.4l-3.2-3.1zm-.6-.8c0 .4-.3.7-.7.7h-2.1c-.4 0-.7-.3-.7-.7v-2.8c0-.4.3-.7.7-.7h2.1c.4 0 .7.3.7.7v2.8zM90.7 291.9s0 .1 0 0c0 .4.3.8.6.8.4 0 .7-.2.8-.6.2-2-.3-4.1-1.6-5.8-.2-.3-.7-.4-1-.2-.3.2-.4.7-.2 1 1.2 1.5 1.6 3.2 1.4 4.8zM151.1 149.2H139.1c-.9.1-1.5.8-1.6 1.6V154.3c0 .9.8 1.6 1.7 1.6H151c.9 0 1.7-.7 1.7-1.6V150.8c-.1-.8-.8-1.5-1.6-1.6zM59.6 182.3v.1c0 .6.5 1 1 1h8.8c.6 0 1-.5 1-1v-.2l-.8-6c-.1-.6-.7-.9-1.2-.9h-.2c-1 .2-2.1.3-3.2.3s-2.1-.1-3.1-.3H61.6c-.5 0-1.1.3-1.2.9l-.8 6.1zM158.3 126.4c0-.1 0-.1 0 0 0-1-.7-1.7-1.6-1.7h-23.3c-.9.1-1.5.8-1.6 1.6V144c0 .9.8 1.6 1.7 1.6h23.2c.9 0 1.7-.7 1.7-1.6v-.2l-.1-17.4zM60 171.3c.2-.4.1-.9-.3-1.1-1.7-.9-3-2.5-3.6-4.2-.2-.4-.6-.6-1-.4-.4.1-.6.6-.5 1 .7 2.1 2.2 3.9 4.3 5 .4.2.9.1 1.1-.3zM122.2 232.3c-.1-.1-.2-.1-.4-.2-.2 0-.3-.1-.5-.1-.8 0-1.5.5-1.7 1.2v.2c-.5 1.9-1.1 3.7-1.8 5.4-.5 1.1-1 2.1-1.5 3.1-.4.7-.8 1.4-1.2 2v.1c-.1.2-.2.4-.2.6 0 .7.5 1.2 1.2 1.2H116.4c1.9-.4 3.6-1.3 4.9-2.6 1.9-1.9 3.1-4.5 3.1-7.4.1-1.5-.8-2.9-2.2-3.5z"/><circle class="st7" cx="160" cy="210" r="2.4"/><path class="st7" d="M160 203.1c-3.8 0-6.9 3.1-6.9 6.9s3.1 6.9 6.9 6.9 6.9-3.1 6.9-6.9-3.1-6.9-6.9-6.9zm0 12.3c-3 0-5.4-2.4-5.4-5.4s2.4-5.4 5.4-5.4 5.4 2.4 5.4 5.4-2.4 5.4-5.4 5.4zM109.7 32.7c.6 0 2 0 2.7-.1.7-.1.9-.3 1.2-.5.4-.3.7-.8.8-.9.1-.2.1-.4 0-.5-.2-.3-.6-.2-.6-.2h-3.7s-.8.1-1 .6c-.2.3-1 2-1 2l.6-.2c-.1 0 .4-.2 1-.2z"/><circle class="st7" cx="101.8" cy="141.8" r="1.2"/><path class="st7" d="M65.6 49.4c1.6.2 3 .9 4 2 .2.2.6.3.9 0 .3-.2.3-.6.1-.9-1.2-1.3-2.9-2.2-4.8-2.4-.3 0-.7.2-.7.6-.1.4.2.7.5.7zM70.8 53.4c.2.3.5.5.8.4.3-.1.5-.5.4-.8-.1-.3-.5-.5-.8-.4-.4.1-.5.4-.4.8zM170.6 138.5c-.1 0-.1 0 0 0l-1.4-.3c-1.9-.4-3-2.3-2.6-4.1l.7-3.1c0-.1.1-.2.1-.3v-.2c0-.7-.4-1.3-1-1.5-.1 0-.2-.1-.3-.1-.7-.3-1.5-.5-2.3-.5h-.1c-.5 0-.9.4-.9.9v17.8c0 .4.3.8.7.8h.2c3 .4 5 2.8 5 6.2v12.2c0 .8.5 1.7 1.5 1.7s1.5-.8 1.5-1.7V140.3c.1-1-.4-1.6-1.1-1.8zM197.9 134.1h4.2c.4 0 .7-.2.8-.5H197.1c.2.3.5.5.8.5z"/><circle class="st7" cx="256.3" cy="47.8" r="2"/><circle class="st7" cx="243.7" cy="47.8" r="2"/><path class="st7" d="M245 107c1.1-1.1 1.1-2.8 0-3.8-1.1-1.1-2.8-1.1-3.8 0-1.1 1.1-1.1 2.8 0 3.8 1 1.1 2.7 1.1 3.8 0z"/><circle class="st7" cx="249.9" cy="118.9" r="2.7"/><path class="st7" d="M261.6 41.9h-23.1c-.5 0-.8.4-.9.8v14.4c0 .4.4.8.8.8h1.6c.5 0 .9-.3 1.1-.8l1.1-2.7v-.1c.2-.5.7-.8 1.2-.8h13.4c.5 0 1 .3 1.2.8v.1l1.1 2.7c.2.4.6.7 1.1.8h1.6c.4 0 .8-.4.8-.8V42.8c-.2-.6-.6-.9-1-.9zm-.9 9.3c0 .1 0 .1 0 0 0 .5-.4.8-.8.9h-19.8c-.4 0-.8-.4-.8-.8v-6.7c0-.5.4-.8.9-.8h19.7c.5 0 .8.4.9.8l-.1 6.6zM239.1 117.4c1.2.5 1.6-.3 1.8-.6.2-.4.4-.4.8-.2.3.2 1 .9 1.6.5.6-.5.8-1.3.7-1.9-.1-.6-.8-.7-1.2-.8-.5-.1-.6-.3-.4-.9.2-.6-.1-1.5-1-1.7-1-.1-2.7.3-3.3 2.1-.7 1.5-.2 3 1 3.5zM36.8 240.4c-.4-.3-.6-.8-.6-1.4v-5c-.1-.6-.6-1-1.1-1-.6 0-1.1.5-1.1 1.1v4.8c0 .5-.2 1-.6 1.4l-.1.1c-.6.5-1 1.3-1 2.2 0 1.6 1.3 2.9 2.9 2.9 1.6 0 2.9-1.3 2.9-2.9 0-.9-.4-1.7-1-2.2h-.3zM270.5 227.7l-8.3-8.3-13 13 8.3 8.3 13-13zm-8.2-5.6l5.7 5.7-10.4 10.4-5.7-5.7 10.4-10.4zM26.2 229.7c.1 0 .1 0 .2-.1 1.8-2 4.2-3.2 7.1-3.4 3.5-.2 6.2 1.3 8.2 3.9 0 0 0 .1.1.1.1.1.2.1.3.1.1 0 .1 0 .2-.1h.1l1.1-.7s.1 0 .1-.1c.1-.1.1-.2.1-.3 0-.1 0-.1-.1-.2v-.1c-2.1-2.9-5.5-4.6-9.3-4.4-3.5.2-6.5 2.1-8.3 4.9v.2c0 .2.1.3.2.2zM160.5 22.5c1.1 0 2.1-.1 3.1-.3h.1c.6-.2 1.1-.8 1.1-1.4 0-.7-.5-1.3-1.1-1.4-.1 0-.2-.1-.3-.1-6.6-1.3-11.9-6.5-13.2-13.1 0-.2 0-.3-.1-.5-.2-.6-.8-1-1.4-1-.7 0-1.2.4-1.4 1.1 0 .1 0 .1-.1.2-.2 1-.3 2-.3 3.1 0 7.3 6.1 13.4 13.6 13.4zM245.3 173.8c0-1.2-1-2.3-2.3-2.3h-2.2c-.8 0-1.5-.7-1.5-1.5s.7-1.5 1.5-1.5h2.2c1.2 0 2.3-1 2.3-2.3 0-.2 0-.4-.1-.5v-.2c-.7-2.5-2.1-4.8-4-6.8-1.9-1.9-4.2-3.3-6.8-4-.2-.1-.4-.1-.7-.1-1.2 0-2.3 1-2.3 2.3v2.1c0 .8-.7 1.5-1.5 1.5h.1c-.8 0-1.5-.7-1.5-1.5v-2.1c0-1.2-1-2.3-2.3-2.3-.2 0-.5 0-.7.1-2.5.7-4.9 2.1-6.8 4-1.9 1.9-3.3 4.3-4 6.9 0 .2-.1.4-.1.6 0 1.2 1 2.3 2.3 2.3h2.1c.8 0 1.5.7 1.5 1.5v.1c0 .8-.7 1.5-1.5 1.5h-2.1c-1.2 0-2.3 1-2.3 2.3 0 .2 0 .5.1.7.7 2.5 2.1 4.9 4 6.8 1.9 1.9 4.2 3.3 6.8 4h.1c.2 0 .4.1.6.1 1.2 0 2.3-1 2.3-2.3V181c0-.8.7-1.5 1.5-1.5h.1c.8 0 1.5.7 1.5 1.5v2.2c0 1.2 1 2.3 2.3 2.3.2 0 .4 0 .5-.1h.2c2.5-.7 4.8-2.1 6.7-4 1.9-1.9 3.3-4.2 4-6.8v-.8zM198.6 116.6h4.2v2.4h-4.2zM216.7 229.2c.2-.1.4-.3.6-.5 1.4-1.4 1.7-3.6.7-5.2-.2-.3-.4-.6-.7-.9-.3-.3-.5-.5-.8-.6-1.7-1-3.9-.8-5.3.6-.2.2-.4.4-.5.6-1.2 1.7-1 4 .5 5.6 1.4 1.4 3.8 1.5 5.5.4zM198.9 121.8s3 1.1 3.5 6l.9 4.9s1.7-.6 2-1.9v-8.2s-.5-2.4-2.5-2.4H199c-.1 0-2 1.1-.1 1.6z"/><path class="st8" d="M12.2 90h-.3l-6.7.8h-.1c-1 .1-1.9.9-2.2 1.9v.2L2 96.1v.1c-.1.5.2 1 .7 1.1.5.1.9-.2 1.1-.6v-.1l.8-3.1v-.1c.1-.3.4-.5.7-.6h.1l6.8-.9c.3-.1.6-.4.7-.7.2-.6-.2-1.1-.7-1.2zM.8 100.4h4.6c.5 0 1 .5 1 1 0 .2 0 .3-.1.4 0 .1-.1.1-.1.2-.5.7-.8 1.6-1 2.4-.1.3-.1.5-.1.8v.3L3.9 124l-.2 2.8V127.1c-.1.4-.5.8-1 .8H0v2.1h2.7c1.5 0 2.8-1.1 3-2.6v-.5l1.1-16.2.3-5v-.3c.1-.8.3-1.6.7-2.2.1-.1.1-.2.2-.2.3-.4.4-1 .4-1.5s-.1-1-.4-1.5c-.1-.3-.3-.5-.5-.7-.6-.6-1.3-.9-2.2-.9H0v2.1h.8zM.9 125.8c.5 0 .9-.5.9-1l.1-.9.8-12.4v-.2c0-.6-.5-1.1-1.1-1.1h-.2c-.5 0-.9.1-1.3 0H0v15.4H.9zM1.4 101.6c-.5-.1-.9.2-1.1.7V102.6l-.3 1v5.6c.3-.1.5-.3.6-.5l.1-.2 1.5-5.6V102.6c0-.5-.3-1-.8-1zM287.9 99.3c-.2.2-.4.4-.5.7-.2.4-.4.9-.4 1.5s.1 1.1.4 1.5c.1.1.1.2.2.3.4.7.7 1.4.7 2.2v.3l.3 5 1.1 16.2v.4c.2 1.5 1.5 2.7 3 2.7h7.2V128H292.7c-.5 0-.9-.3-1-.8V126.9l-.2-2.8-1.2-18.5v-.3c0-.3-.1-.5-.1-.8-.2-.9-.5-1.7-1-2.4 0-.1-.1-.1-.1-.2-.1-.1-.1-.3-.1-.4 0-.5.4-1 1-1h9.9v-2.1H290c-.8-.1-1.5.3-2.1.9zM293.7 109.7c-.5.1-.9.5-.9 1.1v.1l.9 13.2.1.9c0 .5.4 1 .9 1h5.3v-15.4c-.6 0-1.2-.2-1.8-.3-1.4-.5-2.8-1-4.5-.6zM299.5 109.1h.5v-5.6l-1.2 4.5v.1c-.1.5.2.9.7 1zM5.8 294.2l1.3-1.3-7.1-7.1v6.6l1.8 1.8c1.1 1.1 2.9 1.1 4 0zM19.2 280.8c1.1-1.1 1.1-3 0-4.1L0 257.6v21.8l10.3 10.3 8.9-8.9zM0 37.4c.6 1.8 2 3.2 3.7 4 .1 0 .1 0 .2.1.4.2.6.6.6 1.1v.1c-.2 3.7-.4 10-.7 15.4-.2 3.7-.3 6.9-.4 8.5v.1c0 .8.4 1.7 1 2.3.6.6 1.5 1 2.4 1 .9 0 1.8-.4 2.4-1 .6-.6 1-1.4 1-2.3v-.1c-.2-1.6-.4-4.8-.5-8.5-.3-5.4-.6-11.7-.7-15.4v-.1c0-.5.3-.9.6-1.1.1 0 .1-.1.2-.1 2.4-1.2 4.1-3.6 4.1-6.5 0-4.8-.5-9.5-1.5-14v-.1c-.1-.4-.5-.7-1-.7s-1 .4-1 1v.2c0 .7.2 3.6.3 7.8v4.1c0 .7-.6 1.2-1.2 1.2s-1.2-.5-1.2-1.1v-.1L8 27.9 7.7 21c0-.5-.4-1-1-1-.5 0-1 .4-1 1l-.3 6.9-.2 5.1v.1c-.1.6-.6 1.1-1.2 1.1-.7 0-1.2-.6-1.2-1.2v-4c.1-4.1.3-7 .3-7.8V21c0-.5-.5-1-1-1s-.8.3-1 .7v.1C.6 22.9.3 25.1 0 27.3v10.1zM299.6 35c0 .9.2 1.7.4 2.4v-10c-.3 2.5-.4 5-.4 7.6zM293.2 20c-.3 0-.6.1-.7.3-2.4 2.6-6.4 9.1-6.4 24 0 4.4 2.3 5 2.2 8.4-.2 5.3-.7 11.6-.9 13.8v.1c-.1 1.7 1.5 3.3 3.4 3.3 1.8 0 3.4-1.6 3.4-3.3V21c0-.6-.4-1-1-1zM61 19l5.4-5.4c.6-.6.6-1.6 0-2.2l-2.7-2.7C63 8 62 8 61.4 8.7L56 14c-1.4 1.4-1.4 3.6 0 4.9 1.4 1.4 3.6 1.4 5 .1zM61.7 2.4l11 11c1.4 1.4 3.6 1.4 4.9 0L90.9 0H60.7c0 .9.3 1.7 1 2.4zM91.7 299.2c4.4-4.4 4.4-11.5 0-15.9s-11.5-4.4-15.9 0l-14.1 14.1c-.7.7-1 1.6-1 2.6h30.2l.8-.8zm-2.1-13.1c.3-.2.8-.2 1 .2 1.3 1.7 1.8 3.8 1.6 5.8 0 .4-.4.7-.8.6-.4 0-.7-.4-.6-.8.2-1.7-.2-3.4-1.3-4.8-.3-.3-.2-.8.1-1zm.4 8.3c.2-.4.6-.5 1-.3s.5.6.3 1c-.2.3-.6.5-1 .3-.3-.2-.5-.6-.3-1zM35 250c8.3 0 15-6.7 15-15s-6.7-15-15-15-15 6.7-15 15 6.7 15 15 15zm0-4.4c-1.6 0-2.9-1.3-2.9-2.9 0-.9.4-1.7 1-2.2l.1-.1c.4-.3.6-.8.6-1.4v-4.8c0-.6.5-1.1 1.1-1.1.6 0 1.1.4 1.1 1v5c0 .5.2 1 .6 1.4l.1.1c.6.5 1 1.3 1 2.2.2 1.5-1.1 2.8-2.7 2.8zm-9-16.2c1.8-2.8 4.8-4.7 8.3-4.9 3.8-.2 7.2 1.5 9.3 4.4v.1c0 .1.1.1.1.2s0 .3-.1.3c0 0-.1 0-.1.1l-1.1.7h-.1c-.1 0-.1.1-.2.1s-.2 0-.3-.1c0 0 0-.1-.1-.1-2-2.6-4.7-4.1-8.2-3.9-2.9.2-5.3 1.4-7.1 3.4 0 0-.1.1-.2.1s-.2-.1-.2-.2c-.1-.1 0-.2 0-.2zM139.5 9.4c0 11.3 9.2 20.6 20.6 20.6 8.7 0 16.2-5.4 19.2-13.1.9-2.3 1.4-4.8 1.4-7.5v-.5c0-3-.5-6-1.3-8.9h-38.5c-1 3.1-1.4 6.2-1.4 9.4zm7.8-3.6c0-.1 0-.1.1-.2.2-.6.8-1.1 1.4-1.1.7 0 1.2.4 1.4 1 .1.1.1.3.1.5 1.3 6.6 6.6 11.8 13.2 13.1.1 0 .2 0 .3.1.6.2 1.1.8 1.1 1.4 0 .7-.5 1.3-1.1 1.4h-.1c-1 .2-2 .3-3.1.3-7.5 0-13.6-6.1-13.6-13.6-.1-.9 0-1.9.3-2.9zM172.3 284.4c-3.8-6.2-8-11-10.4-13.5l-.1-.1c-.5-.5-1.1-.7-1.8-.7s-1.3.3-1.8.7l-.1.1c-4.2 4.4-13.9 15.8-17.3 29.1h38.5c-1.5-5.7-4.1-11-7-15.6zM252.8 296.7l-6.2-7.4c-.4-.5-1.1-.5-1.6-.1l-.3.3c-1.4 2.5-3.5 5.1-6.3 7.4-1.4 1.2-2.9 2.2-4.3 3h20.5c-.3-1.1-.9-2.2-1.8-3.2zM233.2 289.2l3.4 4 .1.1c.6.6 1.6.7 2.3.1l.1-.1c1.8-1.8 3.1-3.7 3.9-5.4 0-.1.1-.2.1-.3.3-.8.2-1.8-.4-2.5l-.3-.3c-.1-.1-.2-.2-.3-.2-1.6-1.1-3.5-1.8-5.4-2-2-.2-4 .2-5.8 1.1-.1 0-.2.1-.2.1-.7.3-1.4.1-1.9-.5 0 0 0-.1-.1-.1-.1-.1-.1-.2-.2-.2-1.3-2.2-1.8-4.4-1.7-6.7v-.2c0-.6-.5-1.1-1.1-1.1-.6 0-1 .4-1.1.9v.2c-.2 3 .5 6 2.4 8.8 0 0 0 .1.1.1.3.6.3 1.3-.1 1.8 0 .1-.1.1-.1.1-.1.1-.1.2-.2.3-2.4 3.3-2.8 7.7-1 11.3 0 0 0 .1.1.1.1.1.2.3.3.4.6.7 1.6 1 2.5.8h.2c1.9-.5 4-1.5 6.1-3l.1-.1c.7-.6.8-1.6.3-2.3l-.1-.2-3.4-4c-.3-.4-.3-1 .1-1.3.3-.2.9-.1 1.3.3zM288.7 160.9c0-.5-.4-.9-.9-.9h-6.9c-.5 0-.9.4-.9.9v3.6h4.3l4.4 20.1.4 2.1v3.3c0 .5.4.9.9.9h10v-4.2h-5c-2.6 0-2.6-1-.5-1.6l5.5-1.6v-18.8h-11.3v-3.8z"/><circle class="st8" cx="291.1" cy="195.6" r="4.4"/><path class="st8" d="M0 183.5l19.1-5.5c.5-.1.9-.6.9-1.1v-12.2H0v18.8zM20 190v-3.3H0v4.2h19.1c.5 0 .9-.4.9-.9z"/><circle class="st8" cx="13.3" cy="195.6" r="4.4"/><path class="st8" d="M175.3 166.1v-28.6c-.1-.7-.4-1-.5-1.8v-.1c-.6-3.8-3-7-6.3-8.7-1.4-.7-2.9-1.2-4.5-1.3h-.2c-.4-.1-.7-.4-.7-.8v-1c0-2.1-1.7-3.8-3.8-3.8H131c-2.1 0-3.8 1.7-3.8 3.8v50.7c0 .7-.4 1.3-1 1.6 0 0-.1 0-.1.1-.2.1-.4.2-.6.4-.4.4-.6.9-.6 1.4 0 1.1.9 2 2 2h36.5c1.1 0 2-.9 2-2 0-.8-.5-1.5-1.2-1.9 0 0-.1 0-.1-.1-.6-.3-1-.9-1-1.6v-22.3c0-.5.4-.9.9-.9h.3c.1 0 .2.1.2.1.9.5 1.1 1.6 1.1 2.5V166c0 2.9 2.2 5.1 4.9 5.1 2.6.1 4.8-2.1 4.8-5zM152.6 151V154.3c0 .9-.8 1.6-1.7 1.6h-11.8c-.9 0-1.7-.7-1.7-1.6V150.8c0-.9.7-1.6 1.6-1.6H151c.9.1 1.6.8 1.6 1.8 0-.1 0-.1 0 0zm5.7-7.1c0 1-.8 1.7-1.7 1.7h-23.2c-.9 0-1.7-.7-1.7-1.6V126.3c0-.9.7-1.6 1.6-1.6h23.3c.9.1 1.5.8 1.6 1.6v.2l.1 17.4c0-.1 0-.1 0 0zm13.5-3.6v25.8c0 .8-.5 1.7-1.5 1.7s-1.5-.8-1.5-1.7v-12.2c0-3.4-2-5.8-5-6.2h-.2c-.4-.1-.7-.4-.7-.8v-17.8c0-.5.4-.9.9-.9h.1c.8.1 1.6.3 2.3.5.1 0 .2.1.3.1.6.3 1 .9 1 1.5v.2c0 .1 0 .2-.1.3l-.7 3.1c-.4 1.8.7 3.7 2.6 4.1l1.3.3h.1c.7.2 1.2.8 1.3 1.6v.1c-.2.2-.2.3-.2.3zM169.6 75l-2.6 4.2 4.9.3-1.2 4.8 4.8-1.2.3 4.9 4.2-2.6 1.8 4.6 3.2-3.8 3.2 3.8 1.8-4.6 4.2 2.6.3-4.9 4.8 1.2-1.2-4.8 4.9-.3-2.6-4.2 4.6-1.8-3.8-3.2 3.8-3.2-4.6-1.8 2.6-4.2-4.9-.3 1.2-4.8-4.8 1.2-.3-4.9-4.2 2.6-1.8-4.6-3.2 3.8-3.2-3.8-1.8 4.6-4.2-2.6-.3 4.9-4.8-1.2 1.2 4.8-4.9.3 2.6 4.2-4.6 1.8 3.8 3.2-3.8 3.2zM74.8 64.6c0-.1.1-.2.1-.4 0-.4-.2-.8-.6-1-.2-.1-.3-.1-.5-.1H56.3c-.2 0-.4 0-.5.1-.3.2-.6.6-.6 1 0 .2 0 .3.1.4L64 84.3v.1c.2.4.6.7 1 .7.5 0 .8-.3 1-.7v-.1l8.8-19.7c0 .1 0 0 0 0zM53.6 55.1c-.1.5-.3.8-.7 1.1-.1 0-.1.1-.2.1-.7.4-1.1 1.2-1.1 2.1 0 1.4 1.1 2.5 2.5 2.5h21.8c1.4 0 2.5-1.1 2.5-2.5 0-.9-.5-1.6-1.1-2.1-.1 0-.1-.1-.2-.1-.4-.3-.6-.7-.7-1.1V55c-.7-5.6-5.5-10-11.4-10-5.8 0-10.6 4.3-11.4 10v.1zm17.6-2.5c.3-.1.7 0 .8.4.1.3 0 .7-.4.8-.3.1-.7 0-.8-.3-.1-.5 0-.8.4-.9zm-5.4-4.4c1.9.2 3.6 1.1 4.8 2.4.2.3.2.7-.1.9-.3.2-.6.2-.9 0-1-1.1-2.4-1.8-4-2-.3 0-.6-.3-.6-.7.1-.4.4-.7.8-.6zM194.6 264c1.3 1.3 3.5 1.3 4.8 0l23.5-23.5.2-.2c.9-.9 1.3-2.1 1.4-3.3l.4-11.2v-.5c0-1.2-.5-2.5-1.5-3.4l-5.5-5.5c-1-1-2.3-1.5-3.6-1.4h-.5l-10.8.8h-.2c-1 .1-1.9.5-2.7 1.1l-.6.6-23.2 23-.3.3c-1.2 1.3-1.1 3.3.2 4.6l18.4 18.6zm16-40.9c.1-.2.3-.4.5-.6 1.4-1.4 3.7-1.7 5.3-.6.3.2.6.4.8.6.3.3.5.6.7.9 1 1.7.7 3.8-.7 5.2-.2.2-.4.4-.6.5-1.7 1.2-4 1-5.6-.5-1.4-1.4-1.6-3.8-.4-5.5zM72.9 257.7c0 .1 0 .1 0 0 2.8.9 5.7 1.5 8.6 2.1.1 0 .2 0 .3.1.4.1.8.1 1.2.1h27.7c.4 0 .8 0 1.2-.1.1 0 .2 0 .3-.1 2.9-.5 5.7-1.2 8.5-2.1.5-.2.8-.6.8-1.1 0-.5-.3-1-.8-1.1-.2-.1-.5-.1-.7-.1H73.3c-.2 0-.3 0-.5.1h-.2c-.5.2-.8.6-.8 1.1.3.6.6 1 1.1 1.1zM127.9 236.1v-.4c-.1-3.6-2.8-6.5-6.2-7.1-.2 0-.3-.1-.4-.2-.2-.1-.3-.2-.4-.4-.2-.2-.3-.5-.3-.8 0-1.3-1.1-2.4-2.4-2.4H75.6c-1.3 0-2.4 1.1-2.4 2.4v.3c.5 6.5 2.7 12.5 6.2 17.6 1.7 2.4 3.7 4.7 5.9 6.6.7.6 1.6 1 2.6 1h17.9c.9 0 1.6-.3 2.3-.8.1-.1.3-.2.4-.4.7-.6 1.4-1.2 2-1.9.3-.3.8-.5 1.3-.5.2 0 .3 0 .5.1.6.1 1.3.1 2 .1 1.2 0 2.3-.1 3.4-.4 5.8-1.3 10.1-6.5 10.2-12.8zm-11.5 9.8H116.1c-.7 0-1.2-.5-1.2-1.2 0-.2.1-.4.2-.6v-.1c.4-.7.8-1.4 1.2-2 .6-1 1.1-2 1.5-3.1.7-1.7 1.3-3.6 1.8-5.4v-.2c.2-.7.9-1.2 1.7-1.2.2 0 .4 0 .5.1.1 0 .3.1.4.2 1.3.7 2.3 2 2.3 3.6 0 2.9-1.2 5.5-3.1 7.4-1.4 1.1-3.1 2.1-5 2.5zM100.5 220.8c-.1.1-.1.2-.1.3 0 .3.2.5.5.5.1 0 .2 0 .3-.1l.1-.1c2.2-1.8 4.1-4.5 4.1-7.6 0-4.3-5.4-6.3-5.4-9.9 0-1.3.2-2.4.5-3.2 0-.1 0-.1.1-.2v-.1c0-.3-.2-.5-.5-.5-.1 0-.2 0-.3.1l-.1.1c-1.5 1.3-3.3 3.6-3.3 6.7 0 5.4 5.3 5.5 5.3 9.5 0 1.9-.6 3.4-1.2 4.5zM92.9 218.9s0 .1 0 0c0 .4.2.6.5.6.1 0 .3 0 .3-.1 1-1.1 1.8-2.5 1.8-4.1 0-2.7-3.4-4-3.4-6.2 0-.5.1-1 .2-1.4v-.1c0-.3-.2-.5-.5-.5-.1 0-.3.1-.3.1l-.1.1c-.8.9-1.5 2.1-1.5 3.7 0 3.4 3.4 3.4 3.4 6 0 .7-.1 1.3-.3 1.9 0-.1-.1-.1-.1 0zM250 170.1c0-.1 0-.1 0 0v-.1c0-11-9-19.9-20-19.9s-20 9-20 20 9 20 20 20c11-.1 20-9 20-20zm-15.5 15.1h-.2c-.2 0-.4.1-.5.1-1.2 0-2.3-1-2.3-2.3v-2.2c0-.8-.7-1.5-1.5-1.5s-1.5.7-1.5 1.5v2.2c0 1.2-1 2.3-2.3 2.3-.2 0-.4 0-.6-.1h-.1c-2.5-.7-4.9-2.1-6.8-4-1.9-1.9-3.3-4.2-4-6.8-.1-.2-.1-.4-.1-.7 0-1.2 1-2.3 2.3-2.3h2.1c.8 0 1.5-.7 1.5-1.5v.1c0-.8-.7-1.5-1.5-1.5h-2.1c-1.2 0-2.3-1-2.3-2.3 0-.2 0-.4.1-.6.7-2.6 2.1-4.9 4-6.9 1.9-1.9 4.2-3.3 6.8-4 .2-.1.4-.1.7-.1 1.2 0 2.3 1 2.3 2.3v2.1c0 .8.7 1.5 1.5 1.5h.1c.8 0 1.5-.7 1.5-1.5v-2.1c0-1.2 1-2.3 2.3-2.3.2 0 .5 0 .7.1 2.5.7 4.9 2.1 6.8 4 1.9 1.9 3.3 4.2 4 6.8v.2c0 .2.1.4.1.5 0 1.2-1 2.3-2.3 2.3H241c-.8 0-1.5.7-1.5 1.5v.1c0 .8.7 1.5 1.5 1.5h2.2c1.2 0 2.3 1 2.3 2.3 0 .2 0 .5-.1.7-.7 2.5-2.1 4.9-4 6.8-2.1 1.7-4.4 3.1-6.9 3.8zM254.7 244.5c.6.6 1.7.6 2.3 0l17.6-17.6c.6-.6.6-1.7 0-2.3l-2.4-2.4c-.5.3-1 .4-1.5.4-1.8 0-3.2-1.4-3.2-3.2 0-.6.1-1.1.4-1.5l-2.4-2.4c-.6-.6-1.7-.6-2.3 0L245.5 233c-.6.6-.6 1.7 0 2.3l2.4 2.4c.5-.3 1-.4 1.5-.4 1.8 0 3.2 1.4 3.2 3.2 0 .6-.1 1.1-.4 1.5l2.5 2.5zm-5.4-12l13-13 8.3 8.3-13 13-8.3-8.3zM262.313 222.03l5.657 5.657-10.394 10.395-5.657-5.657zM160 204.6c-3 0-5.4 2.4-5.4 5.4s2.4 5.4 5.4 5.4 5.4-2.4 5.4-5.4-2.4-5.4-5.4-5.4zm0 7.8c-1.3 0-2.4-1.1-2.4-2.4 0-1.3 1.1-2.4 2.4-2.4s2.4 1.1 2.4 2.4c0 1.3-1.1 2.4-2.4 2.4zM160 197.5c-6.9 0-12.5 5.6-12.5 12.5s5.6 12.5 12.5 12.5 12.5-5.6 12.5-12.5-5.6-12.5-12.5-12.5zm0 19.4c-3.8 0-6.9-3.1-6.9-6.9s3.1-6.9 6.9-6.9 6.9 3.1 6.9 6.9-3.1 6.9-6.9 6.9zM260.7 44.5c0-.1 0-.1 0 0 0-.5-.4-.9-.9-.9h-19.7c-.5 0-.8.4-.9.8v6.7c0 .4.4.8.8.8h19.8c.4 0 .8-.4.8-.8l.1-6.6zm-17 5.3c-1.1 0-2-.9-2-2s.9-2 2-2 2 .9 2 2-.9 2-2 2zm12.6 0c-1.1 0-2-.9-2-2s.9-2 2-2 2 .9 2 2c-.1 1.1-.9 2-2 2zM265 58.8V41.2c0-1-.8-1.9-1.9-1.9h-26.2c-1 0-1.9.8-1.9 1.9v17.6c0 1 .8 1.9 1.9 1.9h26.2c1.1 0 1.9-.8 1.9-1.9zm-2.6-16.1c0 .1 0 .1 0 0v14.5c0 .4-.4.8-.8.8H260c-.5 0-.9-.3-1.1-.8l-1.1-2.7v-.1c-.2-.5-.7-.8-1.2-.8h-13.3c-.5 0-1 .3-1.2.8v.1l-1.1 2.7c-.2.4-.6.7-1.1.8h-1.6c-.4 0-.8-.4-.8-.8V42.8c0-.5.4-.8.9-.8h23.1c.5-.1.9.2.9.7zM257.8 129.8l.3.1c.5.1 1 0 1.4-.4.4-.4.5-.9.4-1.4l-.2-.4-13.1-30.6c-.1-.2-.2-.3-.3-.5-.4-.4-.9-.5-1.4-.4-.1 0-.1 0-.2.1-4 1.5-7.8 4-11.1 7.2-3.3 3.3-5.7 7-7.2 11.1 0 .1 0 .1-.1.2-.1.5 0 1 .4 1.4.1.1.3.2.4.3l30.7 13.3zm-9.8-12.9c1.1-1.1 2.8-1.1 3.8 0 1.1 1.1 1.1 2.8 0 3.8-1.1 1.1-2.8 1.1-3.8 0-1.1-1-1.1-2.7 0-3.8zm-6.9-13.7c1.1-1.1 2.8-1.1 3.8 0 1.1 1.1 1.1 2.8 0 3.8-1.1 1.1-2.8 1.1-3.8 0s-1-2.8 0-3.8zm-3.1 10.5c.6-1.7 2.3-2.2 3.3-2.1 1 .1 1.2 1.1 1 1.7-.2.6-.1.8.4.9.5.1 1.2.2 1.2.8.1.6-.1 1.4-.7 1.9s-1.3-.2-1.6-.5c-.3-.2-.5-.1-.8.2-.2.4-.6 1.2-1.8.6-1.1-.3-1.6-1.8-1-3.5zM220.1 112c0 .1-.1.1-.1.2-.1.5 0 1 .4 1.4.1.1.3.2.4.3h.1l1.5.7.2.1c.5.2 1.1.1 1.5-.3.1-.1.2-.3.3-.5v-.1c1.7-4.3 4.2-8.3 7.7-11.7 3.4-3.4 7.4-6 11.7-7.6h.1c.2-.1.3-.2.5-.3.4-.4.5-1 .4-1.5l-.1-.3-.7-1.5v-.1c-.1-.1-.2-.3-.3-.4-.4-.4-1-.5-1.5-.4-.1 0-.1 0-.2.1-4.8 1.9-9.3 4.8-13.2 8.7-3.9 3.9-6.8 8.4-8.7 13.2zM62.7 159.3c0 .2.1.3.2.3s.1 0 .2-.1c.5-.5.9-1.2.9-2 0-1.3-1.7-2-1.7-3.1 0-.3 0-.5.1-.7 0-.1-.1-.2-.3-.2-.1 0-.1 0-.2.1-.4.4-.8 1-.8 1.8 0 1.7 1.6 1.7 1.6 2.9.2.3.1.6 0 1 0-.1 0 0 0 0zM66.5 160.2s-.1 0 0 0v.1c0 .1.1.2.2.2h.2c1.1-.9 2-2.2 2-3.7 0-2.1-2.7-3.1-2.7-4.9 0-.6.1-1.2.3-1.5v-.1c0-.1-.1-.2-.2-.2h-.1l-.1.1c-.7.7-1.6 1.8-1.6 3.3 0 2.7 2.6 2.7 2.6 4.7-.1.7-.3 1.5-.6 2zM56.7 188.8c-.1.5.2.9.6 1.1h.1c.5.2 1.2 0 1.3-.7l.4-3v-.1c.1-.5.5-.9 1-.9H70c.5 0 .9.4 1 .9v.1l.4 3c.1.7.8.9 1.3.7h.1c.5-.2.7-.6.6-1.1l-1.8-13.2c-.1-.8 0-1.3.4-1.5l.1-.1c3.9-2.3 6.3-6.3 6.9-10.1v-.2c0-.5-.4-.8-.8-.8H51.8c-.5 0-.8.4-.8.8v.2c.6 3.8 3 7.8 6.9 10 .1 0 .1.1.2.1.5.3.5.7.4 1.5l-1.8 13.3zm4.9-13.4H61.9c1 .2 2 .3 3.1.3s2.2-.1 3.2-.3h.2c.5 0 1.1.3 1.2.9l.8 6v.2c0 .6-.5 1-1 1h-8.8c-.6 0-1-.5-1-1v-.1l.8-6c.1-.7.7-1 1.2-1zm-6.9-8.8c-.1 0-.1 0 0 0-.1 0-.1 0 0 0-.1-.5.1-.9.5-1 .4-.1.8.1 1 .4.6 1.7 1.8 3.2 3.6 4.2.4.2.5.7.3 1.1-.2.4-.7.5-1.1.3-2.1-1.1-3.6-2.9-4.3-5zM34.9 120.6h-.2l-2.4.3c-1.3.2-2.3 1.4-2.3 2.7v1.2c0 1.3 1 2.2 2.3 2l2.7-.4c1.3-.2 2.3-1.4 2.3-2.7v-11.1c0-.8.6-1.4 1.3-1.6h.3l7.7-1.2h.2c.6 0 1.2.5 1.2 1.2v6.3c0 .4-.2.7-.6.8h-.2l-2.4.3c-1.3.2-2.3 1.4-2.3 2.7v1.2c0 1.3 1 2.2 2.3 2l2.7-.4c1.3-.2 2.3-1.4 2.3-2.7v-16.8c0-.6-.5-1.2-1.2-1.2H48.3L36.9 105l-.4.1c-.7.2-1.3.9-1.3 1.7v13c.3.4.1.7-.3.8zM85.2 121.7c-.5.6-1 1.3-1.6 1.8-.6.6-1.3 1.2-2 1.7-.4.3-.9.4-1.3.2-.2-.1-.4-.2-.6-.4l-3.1-3.1c-.4-.4-1-.4-1.4 0-.2.2-.3.4-.3.6v.1c.1 1.9.8 3.7 2.2 5.1l.2.2c2.1 1.9 4.9 2.5 7.5 1.7.1-.1.2-.1.3-.1.4-.1.9 0 1.2.3l.1.1.1.1c2 2.1 9.2 9.3 13.1 13.8 1.1 1.3 3.1 1.2 4.3 0 1.2-1.2 1.2-3.3 0-4.3-4.7-4.1-11.8-11.1-13.8-13.1l-.1-.1s0-.1-.1-.1c-.3-.4-.4-.8-.3-1.3 0-.1.1-.2.1-.3.8-2.5.2-5.4-1.7-7.5l-.2-.2c-1.4-1.4-3.3-2.2-5.1-2.2h-.1c-.2 0-.5.1-.6.3-.4.4-.4 1 0 1.4l3.1 3.1c.2.2.3.4.4.6.1.4.1.9-.2 1.2 0 .3 0 .4-.1.4zm15.7 19.2c.5-.5 1.3-.5 1.7 0 .5.5.5 1.3 0 1.7-.5.5-1.3.5-1.7 0-.5-.4-.5-1.2 0-1.7zM116.5 72.2v25.6c0 1.2 1 2.2 2.2 2.2h12.6c1.2 0 2.2-1 2.2-2.2V72.2c0-1.2-1-2.2-2.2-2.2h-12.6c-1.2 0-2.2 1-2.2 2.2zm8.5 26.7c-.8 0-1.4-.6-1.4-1.4 0-.8.6-1.4 1.4-1.4.8 0 1.4.6 1.4 1.4 0 .7-.6 1.4-1.4 1.4zm-1.7-27.2h3.4c.4 0 .7.3.7.7 0 .3-.3.6-.6.7h-3.4c-.4 0-.7-.3-.7-.7 0-.3.2-.6.6-.7zm-4.5 4.3c0-.6.4-1.1 1-1.2H130.1c.5.1.9.5 1 1V94c-.1.6-.6 1.1-1.2 1.1H120c-.7 0-1.2-.5-1.2-1.2V76zM203.9 135v-1.6c1.2-.5 2.1-1.6 2.1-2.9v-7.8c0-1.5-1.1-2.8-2.7-3.1V116c.8 0 .7-.5.7-.5 0-.3-.4-.5-.8-.5h-6.4c-.5 0-.8.2-.8.5 0 0-.1.5.7.5v3.5c-1.5.3-2.7 1.6-2.7 3.1v7.8c0 1.3.9 2.5 2.1 2.9v1.6h7.8zm-5.3-18.4h4.2v2.4h-4.2v-2.4zm.3 3.6h3.8c2 0 2.5 2.4 2.5 2.4v8.2c-.3 1.3-2 1.9-2 1.9l-.9-4.9c-.5-4.9-3.5-6-3.5-6-1.8-.5.1-1.6.1-1.6zm-1.6 13.4H202.9c-.1.3-.4.5-.8.5h-4.2c-.4 0-.7-.2-.8-.5h.2zM105.8 31.7l-.4-.8c-.1-.2-.3-.2-.5-.1l-2 1c-.3.1-.3.4-.2.6.1.2.5.9.6 1.2 0 .1.1.1.1.1l2.6-1.3v-.1c0-.2-.2-.6-.2-.6zM111.2 39.7h-2.1c-.4 0-.7.3-.7.7v2.8c0 .4.3.7.7.7h2.1c.4 0 .7-.3.7-.7v-2.8c0-.4-.3-.7-.7-.7zM115.3 30h-5.7c-.9 0-1.3.7-1.7 1.3-.4.6-.7 1.4-.7 1.4s-.2.1-.5.2c-.1-.1-.4-.3-.5-.2-.8.4-1.9.9-2.5 1.2-.1 0-.1.4-.1.6-.4.2-.7.8-.7 1.2v12.1c0 1.2.9 2.3 2.3 2.3h9.9c1.2 0 2.2-1.1 2.2-2.3V32.2c0-1-.8-2.2-2-2.2zm-6.3 1.1c.2-.4.8-.6 1-.6h3.7s.5 0 .6.2c.1.1.1.3 0 .5 0 .1-.3.5-.8.9-.3.2-.5.4-1.2.5-.7.1-2.1.1-2.7.1-.6 0-1.1.2-1.1.2l-.6.2c.1 0 .9-1.7 1.1-2zm6.6 16.4c-.1.1-.3.1-.4 0l-3.1-3.1c-.1.1-.3.1-.4.1h-2.9c-.1 0-.3 0-.4-.1l-3.1 3.1c-.1.1-.3.1-.4 0-.1-.1-.1-.3 0-.4L108 44c-.1-.1-.1-.3-.1-.4V40c0-.1 0-.3.1-.4l-3.1-3.1c-.1-.1-.1-.3 0-.4.1-.1.3-.1.4 0l3.1 3.1c.1-.1.3-.1.4-.1h2.8c.1 0 .3 0 .4.1l3.1-3.1c.1-.1.3-.1.4 0 .1.1.1.3 0 .4l-3.1 3.1c.1.1.1.3.1.4v3.5c0 .1 0 .3-.1.4l3.1 3.1c.2.2.2.4.1.5zM230 1.9c-.1 0-.2.1-.3.2-.5.4-.5 1.1-.1 1.6l6.2 7.4c2 2.4 4.7 3.7 7.6 3.9 2.8.3 5.8-.6 8.1-2.6 3.7-3.1 4.9-8.1 3.3-12.4h-20.5c-1.5.8-2.9 1.4-4.3 1.9.1 0 0 0 0 0zM300 285.8l-17.9-17.9-1.3 1.3c-1.1 1.1-1.1 3 0 4.1l19.2 19.2v-6.7zM298.2 255.8c-1.1-1.1-3-1.1-4.1 0l-8.8 8.8 14.7 14.7v-21.8l-1.8-1.7zm-1.6 11.6c-.7.7-1.8.7-2.4 0l-2.1-2.1c-.7-.7-.7-1.8 0-2.4l2.1-2.1c.7-.7 1.8-.7 2.4 0l2.1 2.1c.7.7.7 1.8 0 2.4l-2.1 2.1z"/></svg>