<svg xmlns="http://www.w3.org/2000/svg" viewBox="0 0 40 40" enable-background="new 0 0 40 40"><style type="text/css">.st0{fill:#374654;} .st1{fill:#126AD9;} .st2{fill:#F0F0F0;} .st3{clip-path:url(#SVGID_2_);fill:#C8C8C8;} .st4{clip-path:url(#SVGID_4_);fill:#C8C8C8;} .st5{fill:#FF432F;} .st6{fill:#FFFFFF;} .st7{fill:none;} .st8{fill:#0857AF;} .st9{fill-rule:evenodd;clip-rule:evenodd;fill:#009540;} .st10{fill-rule:evenodd;clip-rule:evenodd;fill:#AEC90B;} .st11{fill-rule:evenodd;clip-rule:evenodd;fill:#FFD900;} .st12{fill-rule:evenodd;clip-rule:evenodd;fill:#FFFFFF;} .st13{fill-rule:evenodd;clip-rule:evenodd;fill:#EF3E42;} .st14{fill-rule:evenodd;clip-rule:evenodd;fill:#00546D;} .st15{fill-rule:evenodd;clip-rule:evenodd;fill:#1D1D1B;} .st16{fill-rule:evenodd;clip-rule:evenodd;fill:#006BB6;} .st17{fill-rule:evenodd;clip-rule:evenodd;fill:#E53212;} .st18{fill-rule:evenodd;clip-rule:evenodd;fill:#CC3B25;} .st19{fill-rule:evenodd;clip-rule:evenodd;fill:#373E8A;} .st20{fill:#89B5EC;} .st21{fill:#DADADA;} .st22{fill:#3856C1;} .st23{fill:#EFC822;} .st24{fill:#0023A0;} .st25{fill:#DCDCDC;} .st26{fill:#231F20;} .st27{fill-rule:evenodd;clip-rule:evenodd;fill:#C2C2C2;} .st28{fill-rule:evenodd;clip-rule:evenodd;fill:#A3A3A3;} .st29{fill-rule:evenodd;clip-rule:evenodd;fill:#A5A5A5;} .st30{fill-rule:evenodd;clip-rule:evenodd;fill:#B4B4B4;} .st31{fill-rule:evenodd;clip-rule:evenodd;fill:#BEBEBE;} .st32{fill-rule:evenodd;clip-rule:evenodd;fill:#C4C4C4;} .st33{fill-rule:evenodd;clip-rule:evenodd;fill:#999999;} .st34{fill-rule:evenodd;clip-rule:evenodd;fill:#8D8D8D;} .st35{fill-rule:evenodd;clip-rule:evenodd;fill:#EC1C24;} .st36{fill-rule:evenodd;clip-rule:evenodd;fill:#FFF100;} .st37{fill-rule:evenodd;clip-rule:evenodd;fill:#C3C3C3;} .st38{fill:#C8C8C8;}</style><path class="st0" d="M37.2 3.4h-1.8c-.7 0-1.2.6-1.2 1.2v2.9c0 2.1-1.7 3.9-3.9 3.9-2.1 0-3.9-1.7-3.9-3.9V4.6c0-.7-.6-1.2-1.2-1.2H14.9c-.7 0-1.2.6-1.2 1.2v2.9c0 2.1-1.7 3.9-3.9 3.9S6 9.7 6 7.5V4.6c0-.7-.6-1.2-1.2-1.2h-2C1.2 3.4 0 4.6 0 6.2v30.7c0 1.5 1.2 2.8 2.8 2.8h34.4c1.5 0 2.8-1.2 2.8-2.8V6.2c0-1.6-1.2-2.8-2.8-2.8zm-.9 31.3c0 .1 0 .1 0 0 0 .7-.5 1.2-1.2 1.2H4.8c-.6 0-1.1-.5-1.2-1.2V14.4c0-.7.6-1.2 1.2-1.2h30.1c.7 0 1.2.5 1.2 1.2v20.3h.2zM30.3 9.7c1.2 0 2.1-1 2.1-2.1V2.2c-.1-1.1-1-1.9-2.1-1.9-1.2 0-2.1 1-2.1 2.1V7.7c.1 1.2 1 2 2.1 2zM9.8 9.7c1.2 0 2.1-1 2.1-2.1V2.2c-.1-1.1-1-1.9-2.1-1.9-1.2 0-2.1 1-2.1 2.1V7.7c.2 1.2 1.1 2 2.1 2zM14.5 17.3h-1c-.1 0-.3 0-.4.1H13l-2.7.8h-.1c-.6.2-.9.7-.9 1.3v.4c.2.6.7 1.1 1.4 1.1h.4l.3-.1h.2c.3 0 .6.3.6.6v9.1c0 .9.7 1.6 1.6 1.6.9 0 1.6-.7 1.6-1.6V18.3c.1-.6-.4-1-.9-1zM25.1 17c-3.9 0-6.6 3.4-6.6 7.7 0 4.3 2.6 7.6 6.6 7.6 4 0 6.6-3.4 6.6-7.7 0-4.3-2.7-7.6-6.6-7.6zm3.3 7.7c0 2.7-1.2 4.7-3.2 4.7s-3.3-2-3.3-4.7 1.3-4.7 3.2-4.7c1.9-.1 3.3 2 3.3 4.7z"/></svg>