<svg xmlns="http://www.w3.org/2000/svg" xmlns:xlink="http://www.w3.org/1999/xlink" viewBox="0 0 60 60" enable-background="new 0 0 60 60"><style type="text/css">.st0{fill:#374654;} .st1{fill:#126AD9;} .st2{fill:#F0F0F0;} .st3{clip-path:url(#SVGID_2_);fill:#C8C8C8;} .st4{clip-path:url(#SVGID_4_);fill:#C8C8C8;} .st5{fill:#FF432F;} .st6{fill:#FFFFFF;} .st7{fill:none;} .st8{fill:#0857AF;} .st9{fill-rule:evenodd;clip-rule:evenodd;fill:#009540;} .st10{fill-rule:evenodd;clip-rule:evenodd;fill:#AEC90B;} .st11{fill-rule:evenodd;clip-rule:evenodd;fill:#FFD900;} .st12{fill-rule:evenodd;clip-rule:evenodd;fill:#FFFFFF;} .st13{fill-rule:evenodd;clip-rule:evenodd;fill:#EF3E42;} .st14{fill-rule:evenodd;clip-rule:evenodd;fill:#00546D;} .st15{fill-rule:evenodd;clip-rule:evenodd;fill:#1D1D1B;} .st16{fill-rule:evenodd;clip-rule:evenodd;fill:#006BB6;} .st17{fill-rule:evenodd;clip-rule:evenodd;fill:#E53212;} .st18{fill-rule:evenodd;clip-rule:evenodd;fill:#CC3B25;} .st19{fill-rule:evenodd;clip-rule:evenodd;fill:#373E8A;} .st20{fill:#89B5EC;} .st21{fill:#DADADA;} .st22{fill:#3856C1;} .st23{fill:#EFC822;} .st24{fill:#0023A0;} .st25{fill:#DCDCDC;}</style><circle class="st2" cx="30" cy="30" r="30"/><defs><circle id="SVGID_1_" cx="30" cy="30" r="30"/></defs><clipPath id="SVGID_2_"><use xlink:href="#SVGID_1_" overflow="visible"/></clipPath><path class="st3" d="M47 54.2c-7.9-2.9-10.4-5.3-10.4-10.5 0-3.1 2.4-2.1 3.5-7.8.4-2.4 2.6 0 3-5.4 0-2.1-1.2-2.7-1.2-2.7s.6-3.2.8-5.6c.3-3-1.8-10.9-12.7-10.9s-13 7.9-12.7 10.9c.2 2.4.8 5.6.8 5.6s-1.1.6-1.1 2.7c.4 5.4 2.5 3.1 3 5.4 1.1 5.7 3.5 4.7 3.5 7.8 0 5.2-2.5 7.6-10.4 10.5-5.5 2-9.7 4.1-11.7 5.8h57.4c-2.1-1.7-6.3-3.8-11.8-5.8z"/></svg>