<svg xmlns="http://www.w3.org/2000/svg" viewBox="0 0 80 40" enable-background="new 0 0 80 40"><style type="text/css">.st0{fill:#374654;} .st1{fill:#126AD9;} .st2{fill:#F0F0F0;} .st3{clip-path:url(#SVGID_2_);fill:#C8C8C8;} .st4{clip-path:url(#SVGID_4_);fill:#C8C8C8;} .st5{fill:#FF432F;} .st6{fill:#FFFFFF;} .st7{fill:none;} .st8{fill:#0857AF;} .st9{fill-rule:evenodd;clip-rule:evenodd;fill:#009540;} .st10{fill-rule:evenodd;clip-rule:evenodd;fill:#AEC90B;} .st11{fill-rule:evenodd;clip-rule:evenodd;fill:#FFD900;} .st12{fill-rule:evenodd;clip-rule:evenodd;fill:#FFFFFF;} .st13{fill-rule:evenodd;clip-rule:evenodd;fill:#EF3E42;} .st14{fill-rule:evenodd;clip-rule:evenodd;fill:#00546D;} .st15{fill-rule:evenodd;clip-rule:evenodd;fill:#1D1D1B;} .st16{fill-rule:evenodd;clip-rule:evenodd;fill:#006BB6;} .st17{fill-rule:evenodd;clip-rule:evenodd;fill:#E53212;} .st18{fill-rule:evenodd;clip-rule:evenodd;fill:#CC3B25;} .st19{fill-rule:evenodd;clip-rule:evenodd;fill:#373E8A;} .st20{fill:#89B5EC;} .st21{fill:#DADADA;} .st22{fill:#3856C1;} .st23{fill:#EFC822;} .st24{fill:#0023A0;} .st25{fill:#DCDCDC;}</style><path class="st6" d="M72.5 38.7h-65c-2.8 0-5-2.2-5-5V6.2c0-2.8 2.2-5 5-5h65c2.8 0 5 2.2 5 5v27.5c0 2.8-2.2 5-5 5z"/><path class="st21" d="M72.5 40h-65c-3.4 0-6.2-2.8-6.2-6.2V6.2C1.2 2.8 4.1 0 7.5 0h65c3.4 0 6.2 2.8 6.2 6.2v27.5c.1 3.5-2.8 6.3-6.2 6.3zM7.5 2.5c-2.1 0-3.8 1.7-3.8 3.8v27.5c0 2.1 1.7 3.8 3.8 3.8h65c2.1 0 3.8-1.7 3.8-3.8V6.2c0-2.1-1.7-3.8-3.8-3.8h-65z"/><path class="st22" d="M29.5 29.7l3.1-19.4h5l-3.1 19.4h-5M52.7 10.8c-1-.4-2.5-.8-4.5-.8-4.9 0-8.4 2.6-8.5 6.4 0 2.8 2.5 4.3 4.4 5.3 1.9.9 2.6 1.6 2.6 2.4 0 1.3-1.6 1.9-3 1.9-2 0-3.1-.3-4.7-1l-.6-.3-.8 4.3c1.2.5 3.3 1 5.6 1 5.3 0 8.7-2.6 8.7-6.6 0-2.2-1.3-3.9-4.2-5.3-1.7-.9-2.8-1.5-2.8-2.4 0-.8.9-1.7 2.9-1.7 1.6 0 2.8.4 3.7.7l.5.3.7-4.2"/><path class="st22" d="M65.5 10.4h-3.9c-1.2 0-2.1.3-2.6 1.6l-7.4 17.8h5.3s.9-2.4 1.1-2.9h6.4c.1.7.6 2.9.6 2.9h4.6l-4.1-19.4m-6.2 12.4c.4-1.1 2-5.4 2-5.4 0 .1.4-1.1.7-1.8l.3 1.7s1 4.6 1.2 5.6c-.8-.1-3.2-.1-4.2-.1zM25.3 10.4l-4.9 13.2-.5-2.7c-.9-3.1-3.8-6.4-6.9-8.1l4.5 16.9h5.3l7.9-19.3h-5.4"/><path class="st23" d="M15.9 10.3H7.8l-.1.4c6.3 1.6 10.4 5.5 12.2 10.1L18.1 12c-.3-1.3-1.1-1.6-2.2-1.7z"/><path class="st24" d="M71.2 27.4c.6 0 1.1.5 1.1 1.1 0 .6-.5 1.1-1.1 1.1-.6 0-1.1-.5-1.1-1.1 0-.6.4-1.1 1.1-1.1zm0 2c.5 0 .9-.4.9-.9s-.4-.9-.9-.9-.9.4-.9.9.4.9.9.9zm-.4-1.4h.5c.1 0 .4 0 .4.3 0 .1 0 .2-.2.3.1 0 .1.2.2.3v.3h-.2v-.3c0-.1 0-.2-.2-.2H71v.5h-.2V28zm.2.4h.2c.2 0 .2-.1.2-.2s-.1-.2-.2-.2H71v.4z"/></svg>