<svg xmlns="http://www.w3.org/2000/svg" viewBox="0 0 40 40" enable-background="new 0 0 40 40"><style type="text/css">.st0{fill:#374654;} .st1{fill:#126AD9;} .st2{fill:#F0F0F0;} .st3{clip-path:url(#SVGID_2_);fill:#C8C8C8;} .st4{clip-path:url(#SVGID_4_);fill:#C8C8C8;} .st5{fill:#FF432F;} .st6{fill:#FFFFFF;} .st7{fill:none;} .st8{fill:#0857AF;} .st9{fill-rule:evenodd;clip-rule:evenodd;fill:#009540;} .st10{fill-rule:evenodd;clip-rule:evenodd;fill:#AEC90B;} .st11{fill-rule:evenodd;clip-rule:evenodd;fill:#FFD900;} .st12{fill-rule:evenodd;clip-rule:evenodd;fill:#FFFFFF;} .st13{fill-rule:evenodd;clip-rule:evenodd;fill:#EF3E42;} .st14{fill-rule:evenodd;clip-rule:evenodd;fill:#00546D;} .st15{fill-rule:evenodd;clip-rule:evenodd;fill:#1D1D1B;} .st16{fill-rule:evenodd;clip-rule:evenodd;fill:#006BB6;} .st17{fill-rule:evenodd;clip-rule:evenodd;fill:#E53212;} .st18{fill-rule:evenodd;clip-rule:evenodd;fill:#CC3B25;} .st19{fill-rule:evenodd;clip-rule:evenodd;fill:#373E8A;} .st20{fill:#89B5EC;} .st21{fill:#DADADA;} .st22{fill:#3856C1;} .st23{fill:#EFC822;} .st24{fill:#0023A0;} .st25{fill:#DCDCDC;}</style><path class="st6" d="M39.5 10.2l-9.7-6c-.3-.2-.7-.2-1.1 0l-8.3 5.2c-.3.2-.7.2-1.1 0L11 4.2c-.3-.2-.7-.2-1.1 0l-9.7 6c0 .1-.2.5-.2.8v23.6c0 .5.3.9.7 1.2.4.2.9.2 1.3 0l8.1-5.1c.3-.2.7-.2 1.1 0l8.3 5.2c.3.2.7.2 1.1 0l8.3-5.2c.3-.2.7-.2 1.1 0l8.1 5.1c.2.1.4.2.7.2.2 0 .4-.1.6-.2.4-.2.7-.7.7-1.2V11c-.1-.3-.3-.7-.6-.8zM8.9 28.3l-4.7 3c-.7.4-1.5-.1-1.5-.8v-18c0-.3.2-.7.5-.8l4.7-3c.7-.4 1.5.1 1.5.8v17.9c-.1.4-.2.7-.5.9zm8.3 3l-4.7-3c-.3-.2-.5-.5-.5-.8V9.6c0-.8.9-1.3 1.5-.8l4.7 3c.3.2.5.5.5.8v17.9c0 .7-.9 1.2-1.5.8zm10.4-3l-4.7 3c-.7.4-1.5-.1-1.5-.8v-18c0-.3.2-.7.5-.8l4.7-3c.6-.4 1.4.1 1.4.9v17.9c0 .3-.1.6-.4.8zm8.3 3l-4.7-3c-.3-.2-.5-.5-.5-.8V9.6c0-.8.9-1.3 1.5-.8l4.7 3c.3.2.5.5.5.8v17.9c0 .7-.9 1.2-1.5.8z"/></svg>