<svg xmlns="http://www.w3.org/2000/svg" viewBox="0 0 51 20" enable-background="new 0 0 51 20"><style type="text/css">.st0{fill:#374654;} .st1{fill:#126AD9;} .st2{fill:#F0F0F0;} .st3{clip-path:url(#SVGID_2_);fill:#C8C8C8;} .st4{clip-path:url(#SVGID_4_);fill:#C8C8C8;} .st5{fill:#FF432F;} .st6{fill:#FFFFFF;} .st7{fill:none;} .st8{fill:#0857AF;} .st9{fill-rule:evenodd;clip-rule:evenodd;fill:#009540;} .st10{fill-rule:evenodd;clip-rule:evenodd;fill:#AEC90B;} .st11{fill-rule:evenodd;clip-rule:evenodd;fill:#FFD900;} .st12{fill-rule:evenodd;clip-rule:evenodd;fill:#FFFFFF;} .st13{fill-rule:evenodd;clip-rule:evenodd;fill:#EF3E42;} .st14{fill-rule:evenodd;clip-rule:evenodd;fill:#00546D;} .st15{fill-rule:evenodd;clip-rule:evenodd;fill:#1D1D1B;} .st16{fill-rule:evenodd;clip-rule:evenodd;fill:#006BB6;} .st17{fill-rule:evenodd;clip-rule:evenodd;fill:#E53212;} .st18{fill-rule:evenodd;clip-rule:evenodd;fill:#CC3B25;} .st19{fill-rule:evenodd;clip-rule:evenodd;fill:#373E8A;} .st20{fill:#89B5EC;} .st21{fill:#DADADA;} .st22{fill:#3856C1;} .st23{fill:#EFC822;} .st24{fill:#0023A0;} .st25{fill:#DCDCDC;}</style><path class="st5" d="M.9 16.3c.5-1.3 1.8-2.6 3.8-4 1.7-1.2 2.9-2.1 3.4-2.7.8-.8 1.2-1.7 1.2-2.7 0-.8-.2-1.5-.7-2-.5-.6-1.1-.9-2-.9-1.1 0-1.9.4-2.3 1.3-.2.5-.4 1.3-.4 2.3H.2c.1-1.6.4-2.9.9-3.9C2.1 1.8 3.9.8 6.5.8c2 0 3.6.6 4.8 1.7 1.2 1.1 1.8 2.6 1.8 4.4 0 1.4-.4 2.7-1.3 3.8-.6.7-1.5 1.5-2.7 2.4l-1.5 1.1c-.9.7-1.6 1.1-1.9 1.4s-.6.6-.9 1h8.4V20H0c0-1.3.3-2.6.9-3.7zM28.3 15.9h-2.2V20h-3.7v-4.1h-7.6v-3.3l7-11.6H26v12h2.2v2.9zM22.5 13V4.8L17.7 13h4.8zM35.3 0h3.1l-7.6 20h-3.1l7.6-20zM51 4.1c-.6.6-1.3 1.5-2.4 3s-1.8 2.9-2.5 4.4c-.5 1.2-1 2.6-1.5 4.3-.4 1.7-.6 3.1-.6 4.2h-3.9c.1-3.4 1.2-7 3.4-10.7C44.9 7.1 46 5.5 47 4.6h-9.5l.1-3.4H51v2.9z"/></svg>