<svg xmlns="http://www.w3.org/2000/svg" xmlns:xlink="http://www.w3.org/1999/xlink" viewBox="0 0 80 40" enable-background="new 0 0 80 40"><style type="text/css">.st0{fill:#374654;} .st1{fill:#126AD9;} .st2{fill:#F0F0F0;} .st3{clip-path:url(#SVGID_2_);fill:#C8C8C8;} .st4{clip-path:url(#SVGID_4_);fill:#C8C8C8;} .st5{fill:#FF432F;} .st6{fill:#FFFFFF;} .st7{fill:none;} .st8{fill:#0857AF;} .st9{fill-rule:evenodd;clip-rule:evenodd;fill:#009540;} .st10{fill-rule:evenodd;clip-rule:evenodd;fill:#AEC90B;} .st11{fill-rule:evenodd;clip-rule:evenodd;fill:#FFD900;} .st12{fill-rule:evenodd;clip-rule:evenodd;fill:#FFFFFF;} .st13{fill-rule:evenodd;clip-rule:evenodd;fill:#EF3E42;} .st14{fill-rule:evenodd;clip-rule:evenodd;fill:#00546D;} .st15{fill-rule:evenodd;clip-rule:evenodd;fill:#1D1D1B;} .st16{fill-rule:evenodd;clip-rule:evenodd;fill:#006BB6;} .st17{fill-rule:evenodd;clip-rule:evenodd;fill:#E53212;} .st18{fill-rule:evenodd;clip-rule:evenodd;fill:#CC3B25;} .st19{fill-rule:evenodd;clip-rule:evenodd;fill:#373E8A;} .st20{fill:#89B5EC;} .st21{fill:#DADADA;} .st22{fill:#3856C1;} .st23{fill:#EFC822;} .st24{fill:#0023A0;} .st25{fill:#DCDCDC;} .st26{fill:#231F20;} .st27{fill-rule:evenodd;clip-rule:evenodd;fill:#C2C2C2;} .st28{fill-rule:evenodd;clip-rule:evenodd;fill:#A3A3A3;} .st29{fill-rule:evenodd;clip-rule:evenodd;fill:#A5A5A5;} .st30{fill-rule:evenodd;clip-rule:evenodd;fill:#B4B4B4;} .st31{fill-rule:evenodd;clip-rule:evenodd;fill:#BEBEBE;} .st32{fill-rule:evenodd;clip-rule:evenodd;fill:#C4C4C4;} .st33{fill-rule:evenodd;clip-rule:evenodd;fill:#999999;} .st34{fill-rule:evenodd;clip-rule:evenodd;fill:#8D8D8D;} .st35{fill-rule:evenodd;clip-rule:evenodd;fill:#EC1C24;} .st36{fill-rule:evenodd;clip-rule:evenodd;fill:#FFF100;} .st37{fill-rule:evenodd;clip-rule:evenodd;fill:#C3C3C3;} .st38{fill:#C8C8C8;} .st39{opacity:0.4;fill:#FF432F;} .st40{fill-rule:evenodd;clip-rule:evenodd;fill:#374654;} .st41{fill:#2656A0;} .st42{fill:#006FAE;}</style><path class="st42" d="M78.8 35.7c0 2.4-1.8 4.3-4 4.3H5.3c-2.2 0-4-1.9-4-4.3V4.3C1.2 1.9 3 0 5.3 0h69.5c2.2 0 4 1.9 4 4.3v31.4z"/><path class="st6" d="M62.1 9.1v1.2l-.7-1.2h-4.7v1.2l-.5-1.2h-4.3L49.2 9h-.1c-.7 0-1.3.3-1.9.6v-.5h-4.5v.3c-.5-.2-1-.3-1.5-.3H25.3l-1.1 2.5L23 9.1h-5.1v1.2l-.5-1.2h-4.3L9 18.9h4.9l.6-1.5H16l.6 1.5h5.8v-.2l.1.2h3.2l.1-.2v.2h14v-2.5h.3v2.5h7.2v-.6c.5.3 1.1.5 1.5.6h3.9l.6-1.5h1.5l.6 1.5h5.8v-1.3l.8 1.3h4.6V9.1h-4.5zM70.7 25.5l.1-4.4h-4.9c-.5 0-1 .1-1.5.3v-.3h-4.9c-.5 0-1 .1-1.5.3v-.3h-8.3v.3c-.5-.2-1-.3-1.5-.3h-6v.2c-.4-.2-.9-.3-1.4-.3h-6.5l-1.5 1.6-1.5-1.6h-8.5v10h8.7l1.3-1.5 1.3 1.5h5.3v-2.3h.4c.8 0 1.7-.1 2.4-.4V31h4.5v-2.5h.3V31h13.9c.5 0 1.1-.1 1.6-.3v.3h4.8c1.7 0 3.8-1 3.8-3.9 0-.6-.2-1.1-.4-1.6z"/><defs><path id="SVGID_5_" d="M41.3 17.5v-1.4s-.1-1.1-1.2-1.1h-1.8v2.5h-1.8v-7.1H41s2.3-.3 2.3 2.1c0 1.2-1 1.7-1 1.7s.9.4.9 1.6v1.8h-1.9m-2.9-4.2h1.9c.5 0 1-.3 1-.7 0-.4-.4-.7-1-.7h-1.9v1.4"/></defs><use xlink:href="#SVGID_5_" overflow="visible" fill="#006FAE"/><clipPath id="SVGID_2_"><use xlink:href="#SVGID_5_" overflow="visible"/></clipPath><defs><path id="SVGID_7_" d="M62.7 17.5l-2.9-4.8v4.8h-3.5l-.6-1.5h-3.3l-.6 1.5h-2.9s-2.4-.4-2.4-3.4c0-4 2.8-3.8 2.9-3.8l2.2.1V12h-1.8s-1.2 0-1.3 1.6v.5c0 2.4 2.1 1.7 2.2 1.6l2.2-5.3h2.5l2.7 6.5v-6.5h2.6l2.8 4.7v-4.7h1.8v7.1h-2.6m-9.6-3.3h1.8l-.9-2.1-.9 2.1"/></defs><use xlink:href="#SVGID_7_" overflow="visible" fill="#006FAE"/><clipPath id="SVGID_4_"><use xlink:href="#SVGID_7_" overflow="visible"/></clipPath><defs><path id="SVGID_9_" d="M27.1 17.5v-4.9l-2.3 4.9h-1.5L21 12.6v4.9h-3.6l-.6-1.5h-3.3l-.6 1.5h-2l3-7.1h2.6l2.8 6.6v-6.6h2.9l2 4.4 2-4.4H29v7.1h-1.9m-12.8-3.3h1.8l-.9-2.1-.9 2.1"/></defs><use xlink:href="#SVGID_9_" overflow="visible" fill="#006FAE"/><clipPath id="SVGID_6_"><use xlink:href="#SVGID_9_" overflow="visible"/></clipPath><defs><path id="SVGID_11_" d="M30 17.5v-7.1h5.6v1.7h-3.8v1.1h3.7v1.6h-3.7V16h3.8v1.5H30"/></defs><use xlink:href="#SVGID_11_" overflow="visible" fill="#006FAE"/><clipPath id="SVGID_8_"><use xlink:href="#SVGID_11_" overflow="visible"/></clipPath><defs><path id="SVGID_13_" d="M44 17.6v-7.2h1.8v7.2H44"/></defs><use xlink:href="#SVGID_13_" overflow="visible" fill="#006FAE"/><clipPath id="SVGID_10_"><use xlink:href="#SVGID_13_" overflow="visible"/></clipPath><defs><path id="SVGID_15_" d="M48.3 29.7v-1.4s-.1-1.1-1.2-1.1h-1.8v2.5h-1.8v-7.1H48s2.3-.3 2.3 2.1c0 1.2-1 1.7-1 1.7s.9.4.9 1.6v1.8h-1.9m-2.9-4.3h1.9c.5 0 1-.3 1-.7 0-.4-.4-.7-1-.7h-1.9v1.4"/></defs><use xlink:href="#SVGID_15_" overflow="visible" fill="#006FAE"/><clipPath id="SVGID_12_"><use xlink:href="#SVGID_15_" overflow="visible"/></clipPath><defs><path id="SVGID_17_" d="M36.3 29.6h-1.6l-1.9-2.1-1.9 2.1H24.2v-7.2h6.6l2.1 2.3 2.1-2.3H40.8s2.3-.3 2.3 2.1c0 2.1-.8 2.8-3.1 2.8h-1.8v2.3h-1.9M34 26.1l2.2 2.5v-5L34 26.1m-8.1 2h3.8l1.8-2-1.8-2h-3.8v1.1h3.7v1.6h-3.7v1.3m12.2-2.6H40c.5 0 1-.3 1-.7 0-.4-.4-.7-1-.7h-1.9v1.4"/></defs><use xlink:href="#SVGID_17_" overflow="visible" fill="#006FAE"/><clipPath id="SVGID_14_"><use xlink:href="#SVGID_17_" overflow="visible"/></clipPath><defs><path id="SVGID_19_" d="M60.7 29.6h-3.2V28h2.8s1 .1 1-.6c0-.6-1.5-.6-1.5-.6s-2.5.2-2.5-2.1c0-2.3 2.3-2.2 2.3-2.2H63v1.7h-2.8s-1-.2-1 .5c0 .6 1.3.5 1.3.5s2.8-.2 2.8 1.9c0 2.3-1.8 2.5-2.4 2.5h-.2"/></defs><use xlink:href="#SVGID_19_" overflow="visible" fill="#006FAE"/><clipPath id="SVGID_16_"><use xlink:href="#SVGID_19_" overflow="visible"/></clipPath><defs><path id="SVGID_21_" d="M51 29.6v-7.1h5.7v1.7h-3.9v1.1h3.8v1.6h-3.8v1.2h3.9v1.5H51"/></defs><use xlink:href="#SVGID_21_" overflow="visible" fill="#006FAE"/><clipPath id="SVGID_18_"><use xlink:href="#SVGID_21_" overflow="visible"/></clipPath><defs><path id="SVGID_23_" d="M67.1 29.6h-3.2V28h2.8s1 .1 1-.6c0-.6-1.5-.6-1.5-.6s-2.5.2-2.5-2.1c0-2.3 2.3-2.2 2.3-2.2h3.5v1.7h-2.8s-1-.2-1 .5c0 .6 1.3.5 1.3.5s2.8-.2 2.8 1.9c0 2.3-1.8 2.5-2.4 2.5h-.3"/></defs><use xlink:href="#SVGID_23_" overflow="visible" fill="#006FAE"/><clipPath id="SVGID_20_"><use xlink:href="#SVGID_23_" overflow="visible"/></clipPath></svg>