<svg xmlns="http://www.w3.org/2000/svg" viewBox="0 0 90 90" enable-background="new 0 0 90 90"><style type="text/css">.st0{fill:#374654;} .st1{fill:#126AD9;} .st2{fill:#F0F0F0;} .st3{clip-path:url(#SVGID_2_);fill:#C8C8C8;} .st4{clip-path:url(#SVGID_4_);fill:#C8C8C8;} .st5{fill:#FF432F;} .st6{fill:#FFFFFF;} .st7{fill:none;} .st8{fill:#0857AF;} .st9{fill-rule:evenodd;clip-rule:evenodd;fill:#009540;} .st10{fill-rule:evenodd;clip-rule:evenodd;fill:#AEC90B;} .st11{fill-rule:evenodd;clip-rule:evenodd;fill:#FFD900;} .st12{fill-rule:evenodd;clip-rule:evenodd;fill:#FFFFFF;} .st13{fill-rule:evenodd;clip-rule:evenodd;fill:#EF3E42;} .st14{fill-rule:evenodd;clip-rule:evenodd;fill:#00546D;} .st15{fill-rule:evenodd;clip-rule:evenodd;fill:#1D1D1B;} .st16{fill-rule:evenodd;clip-rule:evenodd;fill:#006BB6;} .st17{fill-rule:evenodd;clip-rule:evenodd;fill:#E53212;} .st18{fill-rule:evenodd;clip-rule:evenodd;fill:#CC3B25;} .st19{fill-rule:evenodd;clip-rule:evenodd;fill:#373E8A;} .st20{fill:#89B5EC;} .st21{fill:#DADADA;} .st22{fill:#3856C1;} .st23{fill:#EFC822;} .st24{fill:#0023A0;} .st25{fill:#DCDCDC;} .st26{fill:#231F20;} .st27{fill-rule:evenodd;clip-rule:evenodd;fill:#C2C2C2;} .st28{fill-rule:evenodd;clip-rule:evenodd;fill:#A3A3A3;} .st29{fill-rule:evenodd;clip-rule:evenodd;fill:#A5A5A5;} .st30{fill-rule:evenodd;clip-rule:evenodd;fill:#B4B4B4;} .st31{fill-rule:evenodd;clip-rule:evenodd;fill:#BEBEBE;} .st32{fill-rule:evenodd;clip-rule:evenodd;fill:#C4C4C4;} .st33{fill-rule:evenodd;clip-rule:evenodd;fill:#999999;} .st34{fill-rule:evenodd;clip-rule:evenodd;fill:#8D8D8D;} .st35{fill-rule:evenodd;clip-rule:evenodd;fill:#EC1C24;} .st36{fill-rule:evenodd;clip-rule:evenodd;fill:#FFF100;} .st37{fill-rule:evenodd;clip-rule:evenodd;fill:#C3C3C3;} .st38{fill:#C8C8C8;}</style><path class="st35" d="M24 18.9c10.7-11.4 30.5-12.7 43 .9 5.5 6.9 8.3 15 7 25.1l-9.4 7-1.2 11-15 .1c-2.1 2.1-4.5 2-6.4.1H26.9L25.7 52l-9.5-6.8c-1.7-10.9 1.7-19.3 7.8-26.3zm45 23.8l-9.1 6.7-1 8.6-11.2.1c-1.7 2.2-3.7 2-5.2 0H31.2l-1-8.4-9.2-7.1c-.7-2.6-.4-5.1.6-7.9l14.9 15.2c.5.3.7 0 .5-.3L22.5 31.7c0-2.2 1.4-4.3 3.4-6.4L39 47.8c.4.6.9.5.6-.3L27.7 22.9c1.6-2.5 3.7-3.7 6-4.5l8.1 28.3c.3.6.7.5.6-.2L36.5 17c1.1-.8 2.4-1.4 4-1.6.8-.1 1.7-.1 3 0l1.4 31.3c0 1 .5.8.5 0l1.1-31.2c.9-.1 1.8-.1 2.8 0 1.6.1 3.2.6 4.2 1.5l-5.6 29.5c0 .4.3.4.5.1l8-28.3c3.3 1.5 5.2 3.1 5.8 4.5L50.7 47.5c-.3.5.2.9.5.5l12.9-22.8c1.8 1.8 3.2 3.7 3.7 6.1L53.6 49.1c-.7.8-.3 1 .3.3l14.4-14.6c1 2.1 1.4 4.6.7 7.9z"/><path class="st36" d="M69 42.7l-9.1 6.7-1 8.6-11.2.1c-1.7 2.2-3.7 2-5.2 0H31.2l-1-8.4-9.2-7.1c-.7-2.6-.4-5.1.6-7.9l14.9 15.2c.5.3.7 0 .5-.3L22.5 31.7c0-2.2 1.4-4.3 3.4-6.4L39 47.8c.4.6.9.5.6-.3L27.7 22.9c1.6-2.5 3.7-3.7 6-4.5l8.1 28.3c.3.6.7.5.6-.2L36.5 17c1.1-.8 2.4-1.4 4-1.6.8-.1 1.7-.1 3 0l1.4 31.3c0 1 .5.8.5 0l1.1-31.2c.9-.1 1.8-.1 2.8 0 1.6.1 3.2.6 4.2 1.5l-5.6 29.5c0 .4.3.4.5.1l8-28.3c3.3 1.5 5.2 3.1 5.8 4.5L50.7 47.5c-.3.5.2.9.5.5l12.9-22.8c1.8 1.8 3.2 3.7 3.7 6.1L53.6 49.1c-.7.8-.3 1 .3.3l14.4-14.6c1 2.1 1.4 4.6.7 7.9z"/><path class="st35" d="M69.8 68.4h4c.1 0 .2.1.2.2v11.1c0 .1-.1.2-.2.2h-4c-.1 0-.2-.1-.2-.2V68.6c0-.1.1-.2.2-.2zM63.1 68.4h4c.1 0 .2.1.2.2v11.1c0 .1-.1.2-.2.2h-4c-.1 0-.2-.1-.2-.2V68.6c0-.1.1-.2.2-.2zM51.5 71.6c2.3-.1 4.5-.1 6.8.2 1.4.2 2.4.8 2.6 2.3l.1 2.1c0 .3-.1.4-.3.4l-8-.1c-.1 0-.2.1-.2.2-.1 1 .2 1.7 1.2 1.7h1.9c.3 0 .9-.5 1-.9 0-.2.1-.3.4-.4h3.6c.4 0 .5.1.5.4-.1 1.3-.8 2.1-2.4 2.4-1.9.1-4.4 0-6.7 0-2.4-.1-3.3-.6-3.7-1.8-.3-1.4-.3-3-.1-4.4.1-1.2 1-2 3.3-2.1zm2.2 1.7c.6-.1 1.2 0 1.8 0 .6.1 1.5 1 .8 1.4h-3.5c-.5-.4-.1-1.2.9-1.4zM33.7 68.4h4c.1 0 .2.1.2.2V72c.1.1.2.1.4.1.4-.1.8-.3 1.2-.4 3.7-.3 6.3.1 6.5 2v5.9c0 .1-.1.2-.2.2h-3.9c-.1 0-.2-.1-.2-.2v-5c-.1-1.1-3.2-1.1-3.8-.1v5.1c0 .1-.1.2-.2.2h-4c-.1 0-.2-.1-.2-.2v-11c0-.1 0-.2.2-.2zM19.8 79.8c-2.9 0-3.5-1.5-3.5-3.5 0-.1.1-.2.2-.2h4.7c.1 0 .2.1.2.2 0 .7.1 1.3 1 1.5h2.9c.8-.1 1.2-.8 1.1-1.8-.1-.5-.3-.9-1.2-1.1l-5.3-.1c-2-.1-3.1-.7-3.3-2v-2.2c.1-1.4 1-2.3 3.5-2.4l6.5-.1c2.6-.1 4 .4 4.5 1.4.2.6.1 1.2.2 1.9 0 .2-.2.3-.5.3h-4.2c-.2 0-.3-.1-.3-.3.2-1.3-.7-1.6-2.4-1.5-1.7 0-2.5.2-2.6.8-.2 1.2.2 1.9 1.3 1.9l4.1.1c3.4.1 4.7 1 4.7 2.6.3 2.9-.5 3.9-2 4.3-3.1.3-6.3.4-9.6.2z"/></svg>