<svg xmlns="http://www.w3.org/2000/svg" viewBox="0 0 80 40" enable-background="new 0 0 80 40"><style type="text/css">.st0{fill:#374654;} .st1{fill:#126AD9;} .st2{fill:#F0F0F0;} .st3{clip-path:url(#SVGID_2_);fill:#C8C8C8;} .st4{clip-path:url(#SVGID_4_);fill:#C8C8C8;} .st5{fill:#FF432F;} .st6{fill:#FFFFFF;} .st7{fill:none;} .st8{fill:#0857AF;} .st9{fill-rule:evenodd;clip-rule:evenodd;fill:#009540;} .st10{fill-rule:evenodd;clip-rule:evenodd;fill:#AEC90B;} .st11{fill-rule:evenodd;clip-rule:evenodd;fill:#FFD900;} .st12{fill-rule:evenodd;clip-rule:evenodd;fill:#FFFFFF;} .st13{fill-rule:evenodd;clip-rule:evenodd;fill:#EF3E42;} .st14{fill-rule:evenodd;clip-rule:evenodd;fill:#00546D;} .st15{fill-rule:evenodd;clip-rule:evenodd;fill:#1D1D1B;} .st16{fill-rule:evenodd;clip-rule:evenodd;fill:#006BB6;} .st17{fill-rule:evenodd;clip-rule:evenodd;fill:#E53212;} .st18{fill-rule:evenodd;clip-rule:evenodd;fill:#CC3B25;} .st19{fill-rule:evenodd;clip-rule:evenodd;fill:#373E8A;} .st20{fill:#89B5EC;} .st21{fill:#DADADA;} .st22{fill:#3856C1;} .st23{fill:#EFC822;} .st24{fill:#0023A0;} .st25{fill:#DCDCDC;} .st26{fill:#231F20;} .st27{fill-rule:evenodd;clip-rule:evenodd;fill:#C2C2C2;} .st28{fill-rule:evenodd;clip-rule:evenodd;fill:#A3A3A3;} .st29{fill-rule:evenodd;clip-rule:evenodd;fill:#A5A5A5;} .st30{fill-rule:evenodd;clip-rule:evenodd;fill:#B4B4B4;} .st31{fill-rule:evenodd;clip-rule:evenodd;fill:#BEBEBE;} .st32{fill-rule:evenodd;clip-rule:evenodd;fill:#C4C4C4;} .st33{fill-rule:evenodd;clip-rule:evenodd;fill:#999999;} .st34{fill-rule:evenodd;clip-rule:evenodd;fill:#8D8D8D;} .st35{fill-rule:evenodd;clip-rule:evenodd;fill:#EC1C24;} .st36{fill-rule:evenodd;clip-rule:evenodd;fill:#FFF100;} .st37{fill-rule:evenodd;clip-rule:evenodd;fill:#C3C3C3;} .st38{fill:#C8C8C8;} .st39{opacity:0.4;fill:#FF432F;} .st40{fill-rule:evenodd;clip-rule:evenodd;fill:#374654;} .st41{fill:#2656A0;} .st42{fill:#006FAE;}</style><path class="st6" d="M72.5 0h-65C4.1 0 1.2 2.8 1.2 6.3v27.5C1.2 37.2 4 40 7.4 40h65c3.4 0 6.2-2.8 6.2-6.2V6.3c.2-3.5-2.7-6.3-6.1-6.3z"/><path class="st41" d="M72.5 0h-65C4.1 0 1.2 2.8 1.2 6.3v27.5C1.2 37.2 4 40 7.4 40h65c3.4 0 6.2-2.8 6.2-6.2V6.3c.2-3.5-2.7-6.3-6.1-6.3zm3.7 33.8c0 2.1-1.7 3.8-3.8 3.8h-65c-2.1 0-3.8-1.7-3.8-3.8V6.3c0-2.1 1.7-3.8 3.8-3.8h65c2.1 0 3.8 1.7 3.8 3.8v27.5z"/><path d="M21.6 27.1H24c2.1 0 2.7 1.5 2.7 2.4 0 1.8-1.3 3.3-3.9 3.3h-2.3v-.1c.4-.1.6-.1.7-.7l1.1-3.8c0-.1.1-.4.1-.6 0-.3-.2-.4-.7-.4v-.1zM28.6 31.9c-.4.5-.8 1-1.3 1-.4 0-.4-.4-.4-.6 0-.4.7-2.7.7-2.9 0-.2-.1-.2-.6-.2V29c.3 0 1.1-.2 1.5-.2l-.8 2.9c0 .1-.1.5-.1.6 0 .1.1.1.1.1.1 0 .4-.2.7-.7l.2.2zM28.4 27.8c-.2 0-.4-.2-.4-.5s.2-.5.4-.5c.3 0 .5.3.5.5-.1.3-.2.5-.5.5zM32.8 31.9c-.5.6-.8 1-1.3 1-.4 0-.4-.3-.4-.5s.7-2.4.7-2.8c0-.2-.1-.3-.2-.3-.4 0-1 .8-1.3 1.3-.4.6-.5 1-.9 2.3h-.7c.3-1 .9-3.2.9-3.4 0-.1-.1-.2-.6-.2v-.1l1.5-.3-.6 1.9c.4-.7 1.3-1.9 2-1.9.4 0 .6.2.6.6 0 .4-.7 2.6-.7 2.9 0 .1.1.2.1.2.2 0 .4-.3.7-.7h.2zM36.1 32c-.1.1-.9 1-1.8 1-1 0-1.2-.7-1.2-1.3 0-1.3 1.4-2.8 2.7-2.8.5 0 .7.2.7.6 0 .7-.9 1.5-2.3 1.7h-.3c0 .2-.1.4-.1.6 0 .6.5.8.9.8.5 0 .9-.3 1.3-.7l.1.1zM36.4 32.8l.7-2.7c.1-.3.1-.6.1-.7 0-.1 0-.3-.3-.3h-.3v-.2c.5-.1 1-.2 1.4-.2l-.4 1.8.1-.2c.3-.6 1-1.7 1.6-1.7.2 0 .4.1.4.4 0 .5-.3.5-.4.5-.4 0-.3-.3-.5-.3-.3 0-.8 1-.9 1.1-.3.7-.5 1.1-.8 2.3h-.7zM39.3 31.5c.1.4.2 1.2.9 1.2.5 0 .7-.4.7-.7 0-.6-1.1-1.5-1.1-2.2 0-.3.1-1 1.1-1 .4 0 .6.2.9.2.2 0 .2-.1.3-.2h.1l-.2 1.3h-.1c0-.5-.3-1-.9-1-.2 0-.5.1-.5.5 0 .6 1.1 1.4 1.1 2.2 0 1-.8 1.2-1.4 1.2-.3 0-.6-.2-.9-.2-.1 0-.2.1-.2.2H39l.2-1.4h.1zM49.3 28.6c0-.3-.1-1.5-1.4-1.5-1.8 0-2.8 2.2-2.8 3.5 0 1.2.5 1.9 1.6 1.9 1 0 1.7-.6 2.1-1.1l.2.1c-.3.5-1.1 1.5-2.5 1.5-1.1 0-2.4-.6-2.4-2.5 0-1.8 1.6-3.8 3.7-3.8.7 0 1.2.2 1.4.2.3 0 .3-.1.4-.2h.2l-.3 1.8-.2.1zM51.4 31.8c-.5.7-.8 1.1-1.4 1.1-.4 0-.4-.3-.4-.6 0-.2 1.3-4.9 1.3-5.1 0-.2-.4-.2-.6-.2v-.1c.5-.1.9-.1 1.4-.2L50.3 32c0 .1-.1.3-.1.4 0 .1 0 .2.1.2.2 0 .4-.3.9-.8h.2zM55.5 31.9c-.6.8-.8 1.1-1.3 1.1-.4 0-.4-.3-.4-.5s.2-.9.4-1.7c-.6 1-1.3 2.2-2.1 2.2-.3 0-.5-.1-.5-.5s.7-2.7.7-2.9c0-.3-.2-.3-.5-.3v-.1c.5-.1.9-.1 1.4-.2l-.8 3.3c0 .1 0 .3.2.3.4 0 1-.9 1.3-1.3.4-.7.6-1.2 1-2.2h.7l-.7 2.7c-.1.2-.2.6-.2.7 0 0 0 .1.1.1.2 0 .4-.3.7-.7zM56.3 26.8c.5-.1.9-.1 1.4-.2-.2.7-.5 1.8-.8 2.8.3-.5.8-.9 1.6-.9.6 0 1 .7 1 1.4 0 1.4-1.5 3-2.9 3-.5 0-1.2-.3-1.2-.5l1.2-4.6c.1-.3.1-.5.1-.6 0-.2-.1-.3-.6-.3v-.1z"/><path class="st41" d="M45.2 25c5 0 9-4 9-9s-4-9-9-9H33.8c-5 0-9 4-9 9s4 9 9 9h11.4z"/><circle class="st6" cx="33.8" cy="16" r="8.8"/><path class="st41" d="M32.1 10.9c-2.1.7-3.6 2.7-3.6 5.1 0 2.4 1.5 4.4 3.6 5.1V10.9zM39.2 16c0 2.4-1.5 4.4-3.6 5.1V10.9c2.1.8 3.6 2.8 3.6 5.1"/><path class="st6" d="M22.2 31.4c-.1.3-.2.7-.2.8 0 .3.2.4.6.4 2.9 0 3-2.6 3-3.2 0-.9-.1-2-1.7-2-.5 0-.6.1-.6.3l-1.1 3.7zM33.9 30.9c1.9-.4 1.9-1.5 1.9-1.5 0-.2-.1-.4-.3-.4-.5 0-1.1.7-1.4 1.5l-.2.4zM58.2 29c-1 0-1.8 1.8-1.9 3.4 0 .1 0 .3.4.3 1.2 0 2.1-1.9 2.1-2.7.1-.2 0-1-.6-1z"/></svg>